<?xml version="1.0" encoding="utf-8" standalone="no"?>
<!DOCTYPE svg PUBLIC "-//W3C//DTD SVG 1.1//EN"
  "http://www.w3.org/Graphics/SVG/1.1/DTD/svg11.dtd">
<!-- Created with matplotlib (http://matplotlib.org/) -->
<svg height="372pt" version="1.1" viewBox="0 0 562 372" width="562pt" xmlns="http://www.w3.org/2000/svg" xmlns:xlink="http://www.w3.org/1999/xlink">
 <defs>
  <style type="text/css">
*{stroke-linecap:butt;stroke-linejoin:round;}
  </style>
 </defs>
 <g id="figure_1">
  <g id="patch_1">
   <path d="M 0 372.96 
L 562.32 372.96 
L 562.32 0 
L 0 0 
z
" style="fill:#ffffff;"/>
  </g>
  <g id="axes_1">
   <g id="patch_2">
    <path d="M 70.29 331.9344 
L 346.764 331.9344 
L 346.764 109.224 
L 70.29 109.224 
z
" style="fill:#ffffff;"/>
   </g>
   <g id="PolyCollection_1">
    <defs>
     <path d="M 82.857 -207.412335 
L 82.857 -134.447163 
L 84.120015 -129.727174 
L 85.38303 -72.349603 
L 86.646045 -114.68984 
L 87.90906 -129.185052 
L 89.172075 -138.348743 
L 90.43509 -139.14054 
L 91.698106 -136.612961 
L 92.961121 -143.462722 
L 94.224136 -136.734025 
L 95.487151 -139.725619 
L 96.750166 -148.896746 
L 98.013181 -139.164349 
L 99.276196 -149.266753 
L 100.539211 -145.727112 
L 101.802226 -138.3604 
L 103.065241 -148.359161 
L 104.328256 -144.615644 
L 105.591271 -141.679943 
L 106.854286 -139.849998 
L 108.117302 -153.550015 
L 109.380317 -148.335003 
L 110.643332 -145.432091 
L 111.906347 -151.820051 
L 113.169362 -154.854145 
L 114.432377 -146.998789 
L 115.695392 -158.420088 
L 116.958407 -148.239779 
L 118.221422 -150.550293 
L 119.484437 -162.734705 
L 120.747452 -164.018271 
L 122.010467 -165.979225 
L 123.273482 -162.210194 
L 124.536497 -164.266761 
L 125.799513 -163.531261 
L 127.062528 -166.563136 
L 128.325543 -170.309851 
L 129.588558 -169.970255 
L 130.851573 -163.144892 
L 132.114588 -168.185752 
L 133.377603 -166.649869 
L 134.640618 -163.004559 
L 135.903633 -162.114275 
L 137.166648 -168.388238 
L 138.429663 -161.393591 
L 139.692678 -164.352355 
L 140.955693 -165.387903 
L 142.218709 -162.366648 
L 143.481724 -167.179825 
L 144.744739 -162.10565 
L 146.007754 -171.956128 
L 147.270769 -162.495752 
L 148.533784 -169.055755 
L 149.796799 -173.552795 
L 151.059814 -172.397363 
L 152.322829 -166.255689 
L 153.585844 -168.706566 
L 154.848859 -174.380825 
L 156.111874 -166.683556 
L 157.374889 -164.712788 
L 158.637905 -165.594107 
L 159.90092 -177.048881 
L 161.163935 -160.929052 
L 162.42695 -171.079582 
L 163.689965 -176.995651 
L 164.95298 -167.823801 
L 166.215995 -167.416994 
L 167.47901 -170.268764 
L 168.742025 -167.177939 
L 170.00504 -171.936835 
L 171.268055 -171.041446 
L 172.53107 -168.906462 
L 173.794085 -174.974807 
L 175.057101 -169.042181 
L 176.320116 -178.127506 
L 177.583131 -169.344282 
L 178.846146 -171.05399 
L 180.109161 -170.116069 
L 181.372176 -174.632413 
L 182.635191 -166.547511 
L 183.898206 -179.039763 
L 185.161221 -173.231561 
L 186.424236 -174.807838 
L 187.687251 -174.182525 
L 188.950266 -185.168959 
L 190.213281 -179.851452 
L 191.476296 -179.752898 
L 192.739312 -178.070532 
L 194.002327 -181.623928 
L 195.265342 -183.583259 
L 196.528357 -179.925114 
L 197.791372 -181.363496 
L 199.054387 -179.35939 
L 200.317402 -174.926402 
L 201.580417 -184.298056 
L 202.843432 -182.135309 
L 204.106447 -183.626167 
L 205.369462 -181.039599 
L 206.632477 -181.301478 
L 207.895492 -176.306675 
L 209.158508 -188.168682 
L 210.421523 -181.815983 
L 211.684538 -179.696784 
L 212.947553 -183.606852 
L 214.210568 -176.113983 
L 215.473583 -181.21232 
L 216.736598 -185.745832 
L 217.999613 -186.42568 
L 219.262628 -181.216598 
L 220.525643 -183.379163 
L 221.788658 -185.230692 
L 223.051673 -182.305392 
L 224.314688 -186.341923 
L 225.577704 -187.214477 
L 226.840719 -187.17422 
L 228.103734 -184.779318 
L 229.366749 -181.637527 
L 230.629764 -187.533062 
L 231.892779 -185.890391 
L 233.155794 -180.975471 
L 234.418809 -180.504449 
L 235.681824 -184.660468 
L 236.944839 -191.717186 
L 238.207854 -191.039646 
L 239.470869 -187.857057 
L 240.733884 -182.39418 
L 241.996899 -188.956101 
L 243.259915 -191.19515 
L 244.52293 -188.171758 
L 245.785945 -186.615977 
L 247.04896 -191.201263 
L 248.311975 -182.629279 
L 249.57499 -189.638831 
L 250.838005 -187.011957 
L 252.10102 -184.58034 
L 253.364035 -181.624602 
L 254.62705 -189.771934 
L 255.890065 -187.88343 
L 257.15308 -193.71535 
L 258.416095 -188.035883 
L 259.679111 -183.668332 
L 260.942126 -196.540489 
L 262.205141 -190.993731 
L 263.468156 -193.72613 
L 264.731171 -186.898162 
L 265.994186 -186.451294 
L 267.257201 -183.860171 
L 268.520216 -191.025699 
L 269.783231 -201.784121 
L 271.046246 -195.35576 
L 272.309261 -188.036857 
L 273.572276 -192.423645 
L 274.835291 -190.79148 
L 276.098307 -192.297803 
L 277.361322 -190.472451 
L 278.624337 -182.930741 
L 279.887352 -181.251797 
L 281.150367 -189.775152 
L 282.413382 -192.640605 
L 283.676397 -184.553437 
L 284.939412 -190.090317 
L 286.202427 -186.454988 
L 287.465442 -193.311736 
L 288.728457 -186.888796 
L 289.991472 -189.154645 
L 291.254487 -185.849111 
L 292.517503 -191.842182 
L 293.780518 -188.071034 
L 295.043533 -191.432717 
L 296.306548 -193.308102 
L 297.569563 -196.760754 
L 298.832578 -193.911679 
L 300.095593 -189.104087 
L 301.358608 -198.437904 
L 302.621623 -195.066311 
L 303.884638 -186.488022 
L 305.147653 -189.028203 
L 306.410668 -194.791799 
L 307.673683 -185.816724 
L 308.936698 -189.51656 
L 310.199714 -188.890049 
L 311.462729 -195.234309 
L 312.725744 -193.461082 
L 313.988759 -198.293065 
L 315.251774 -189.713483 
L 316.514789 -184.367025 
L 317.777804 -192.403262 
L 319.040819 -190.702128 
L 320.303834 -195.661047 
L 321.566849 -192.829869 
L 322.829864 -198.744886 
L 324.092879 -196.03586 
L 325.355894 -194.531536 
L 326.61891 -189.670334 
L 327.881925 -195.434063 
L 329.14494 -195.742917 
L 330.407955 -193.734288 
L 331.67097 -203.153644 
L 332.933985 -194.616047 
L 334.197 -192.775163 
L 334.197 -252.33137 
L 334.197 -252.33137 
L 332.933985 -247.034038 
L 331.67097 -253.6128 
L 330.407955 -247.224711 
L 329.14494 -248.474629 
L 327.881925 -249.993724 
L 326.61891 -248.598699 
L 325.355894 -247.857721 
L 324.092879 -251.29811 
L 322.829864 -250.160278 
L 321.566849 -247.328806 
L 320.303834 -248.799104 
L 319.040819 -246.363971 
L 317.777804 -249.620565 
L 316.514789 -244.647506 
L 315.251774 -244.079755 
L 313.988759 -250.619157 
L 312.725744 -246.581788 
L 311.462729 -248.791718 
L 310.199714 -245.07363 
L 308.936698 -244.930183 
L 307.673683 -243.61182 
L 306.410668 -245.31989 
L 305.147653 -248.740922 
L 303.884638 -246.722809 
L 302.621623 -250.012017 
L 301.358608 -246.580769 
L 300.095593 -243.548764 
L 298.832578 -243.194112 
L 297.569563 -246.741846 
L 296.306548 -244.05346 
L 295.043533 -245.349739 
L 293.780518 -243.942069 
L 292.517503 -244.023324 
L 291.254487 -242.849091 
L 289.991472 -243.487021 
L 288.728457 -243.064129 
L 287.465442 -246.917472 
L 286.202427 -244.92377 
L 284.939412 -246.967506 
L 283.676397 -241.41105 
L 282.413382 -244.526557 
L 281.150367 -245.847871 
L 279.887352 -240.682585 
L 278.624337 -241.913506 
L 277.361322 -243.965693 
L 276.098307 -246.722964 
L 274.835291 -245.761471 
L 273.572276 -246.519601 
L 272.309261 -245.928422 
L 271.046246 -244.448387 
L 269.783231 -250.464991 
L 268.520216 -246.273232 
L 267.257201 -242.860726 
L 265.994186 -243.712855 
L 264.731171 -245.218934 
L 263.468156 -246.000482 
L 262.205141 -243.786105 
L 260.942126 -247.665665 
L 259.679111 -237.613612 
L 258.416095 -241.521348 
L 257.15308 -247.333268 
L 255.890065 -248.381375 
L 254.62705 -243.44676 
L 253.364035 -241.578031 
L 252.10102 -239.740866 
L 250.838005 -244.387147 
L 249.57499 -239.659816 
L 248.311975 -240.415679 
L 247.04896 -244.021973 
L 245.785945 -243.046204 
L 244.52293 -243.357421 
L 243.259915 -246.164011 
L 241.996899 -243.973154 
L 240.733884 -240.990432 
L 239.470869 -242.111167 
L 238.207854 -244.11083 
L 236.944839 -243.61443 
L 235.681824 -242.908457 
L 234.418809 -238.916346 
L 233.155794 -238.772209 
L 231.892779 -238.768959 
L 230.629764 -240.477845 
L 229.366749 -241.236691 
L 228.103734 -242.218526 
L 226.840719 -240.704031 
L 225.577704 -244.906829 
L 224.314688 -240.386783 
L 223.051673 -238.0552 
L 221.788658 -239.169307 
L 220.525643 -241.248214 
L 219.262628 -238.420113 
L 217.999613 -240.768869 
L 216.736598 -239.066824 
L 215.473583 -240.962134 
L 214.210568 -234.670696 
L 212.947553 -237.510483 
L 211.684538 -237.328881 
L 210.421523 -237.740361 
L 209.158508 -241.266383 
L 207.895492 -237.734828 
L 206.632477 -237.237298 
L 205.369462 -241.084784 
L 204.106447 -235.771842 
L 202.843432 -235.552248 
L 201.580417 -237.574173 
L 200.317402 -235.514544 
L 199.054387 -236.016504 
L 197.791372 -236.473888 
L 196.528357 -237.326164 
L 195.265342 -235.660552 
L 194.002327 -234.590635 
L 192.739312 -233.497537 
L 191.476296 -234.445376 
L 190.213281 -236.689575 
L 188.950266 -238.411727 
L 187.687251 -233.254819 
L 186.424236 -232.386224 
L 185.161221 -234.794627 
L 183.898206 -234.670915 
L 182.635191 -227.590299 
L 181.372176 -235.214804 
L 180.109161 -230.537621 
L 178.846146 -228.500186 
L 177.583131 -227.530986 
L 176.320116 -234.120337 
L 175.057101 -227.136957 
L 173.794085 -230.577301 
L 172.53107 -227.86116 
L 171.268055 -224.759623 
L 170.00504 -231.356918 
L 168.742025 -229.210535 
L 167.47901 -231.638553 
L 166.215995 -226.403582 
L 164.95298 -225.174859 
L 163.689965 -230.741844 
L 162.42695 -228.533407 
L 161.163935 -224.453386 
L 159.90092 -230.498649 
L 158.637905 -226.590728 
L 157.374889 -223.156733 
L 156.111874 -225.27622 
L 154.848859 -231.406825 
L 153.585844 -226.276774 
L 152.322829 -225.067011 
L 151.059814 -227.363318 
L 149.796799 -227.935461 
L 148.533784 -226.188781 
L 147.270769 -223.359697 
L 146.007754 -225.467283 
L 144.744739 -222.600725 
L 143.481724 -228.931219 
L 142.218709 -225.065284 
L 140.955693 -225.498251 
L 139.692678 -222.312179 
L 138.429663 -220.970436 
L 137.166648 -226.526023 
L 135.903633 -224.063003 
L 134.640618 -222.54198 
L 133.377603 -222.979756 
L 132.114588 -226.603651 
L 130.851573 -224.301914 
L 129.588558 -223.05899 
L 128.325543 -224.533718 
L 127.062528 -224.489565 
L 125.799513 -222.751413 
L 124.536497 -220.848766 
L 123.273482 -222.068764 
L 122.010467 -222.119114 
L 120.747452 -220.910433 
L 119.484437 -218.956382 
L 118.221422 -218.216684 
L 116.958407 -219.504078 
L 115.695392 -219.467921 
L 114.432377 -218.258103 
L 113.169362 -214.544433 
L 111.906347 -215.193483 
L 110.643332 -209.592344 
L 109.380317 -216.784618 
L 108.117302 -217.331959 
L 106.854286 -213.466374 
L 105.591271 -212.589021 
L 104.328256 -211.269038 
L 103.065241 -210.785499 
L 101.802226 -208.224545 
L 100.539211 -214.579384 
L 99.276196 -214.000559 
L 98.013181 -210.885709 
L 96.750166 -219.088999 
L 95.487151 -210.523636 
L 94.224136 -213.511948 
L 92.961121 -208.78601 
L 91.698106 -206.365272 
L 90.43509 -208.512007 
L 89.172075 -204.805988 
L 87.90906 -203.525549 
L 86.646045 -188.349293 
L 85.38303 -175.141658 
L 84.120015 -203.73894 
L 82.857 -207.412335 
z
" id="m2c2e104859" style="stroke:#396ab1;stroke-opacity:0.2;"/>
    </defs>
    <g clip-path="url(#p58d7962f4f)">
     <use style="fill:#396ab1;fill-opacity:0.2;stroke:#396ab1;stroke-opacity:0.2;" x="0" xlink:href="#m2c2e104859" y="372.96"/>
    </g>
   </g>
   <g id="PolyCollection_2">
    <defs>
     <path d="M 82.857 -203.803326 
L 82.857 -130.612369 
L 84.120015 -136.549883 
L 85.38303 -53.110126 
L 86.646045 -116.497096 
L 87.90906 -123.704136 
L 89.172075 -140.781603 
L 90.43509 -140.400652 
L 91.698106 -144.823979 
L 92.961121 -146.829178 
L 94.224136 -147.450168 
L 95.487151 -152.159835 
L 96.750166 -140.79642 
L 98.013181 -138.836009 
L 99.276196 -143.03826 
L 100.539211 -141.760923 
L 101.802226 -135.170229 
L 103.065241 -143.281554 
L 104.328256 -146.241555 
L 105.591271 -143.490555 
L 106.854286 -141.561892 
L 108.117302 -145.230114 
L 109.380317 -145.30048 
L 110.643332 -150.607737 
L 111.906347 -152.794609 
L 113.169362 -150.216952 
L 114.432377 -157.385172 
L 115.695392 -153.735411 
L 116.958407 -155.986036 
L 118.221422 -154.262681 
L 119.484437 -159.696934 
L 120.747452 -159.308193 
L 122.010467 -156.036918 
L 123.273482 -163.196903 
L 124.536497 -159.038228 
L 125.799513 -164.806783 
L 127.062528 -171.816071 
L 128.325543 -167.861245 
L 129.588558 -171.490988 
L 130.851573 -166.840457 
L 132.114588 -169.055764 
L 133.377603 -169.288259 
L 134.640618 -169.022011 
L 135.903633 -163.823967 
L 137.166648 -171.548859 
L 138.429663 -172.531029 
L 139.692678 -165.157775 
L 140.955693 -158.872044 
L 142.218709 -169.971421 
L 143.481724 -169.384596 
L 144.744739 -159.629693 
L 146.007754 -167.773729 
L 147.270769 -171.170868 
L 148.533784 -159.188183 
L 149.796799 -173.729167 
L 151.059814 -165.384676 
L 152.322829 -173.542649 
L 153.585844 -173.069518 
L 154.848859 -171.467655 
L 156.111874 -161.703474 
L 157.374889 -168.061555 
L 158.637905 -173.402046 
L 159.90092 -166.623973 
L 161.163935 -168.953769 
L 162.42695 -169.905828 
L 163.689965 -179.070723 
L 164.95298 -167.327639 
L 166.215995 -173.976093 
L 167.47901 -171.774186 
L 168.742025 -177.878949 
L 170.00504 -177.319536 
L 171.268055 -175.758464 
L 172.53107 -174.921145 
L 173.794085 -174.862191 
L 175.057101 -173.531932 
L 176.320116 -169.491523 
L 177.583131 -168.721479 
L 178.846146 -179.055115 
L 180.109161 -171.6721 
L 181.372176 -167.745616 
L 182.635191 -174.562466 
L 183.898206 -180.310966 
L 185.161221 -176.020664 
L 186.424236 -178.163398 
L 187.687251 -175.670776 
L 188.950266 -177.570014 
L 190.213281 -175.760239 
L 191.476296 -179.144199 
L 192.739312 -173.322121 
L 194.002327 -178.02843 
L 195.265342 -172.904272 
L 196.528357 -176.70778 
L 197.791372 -179.616209 
L 199.054387 -176.150768 
L 200.317402 -177.413853 
L 201.580417 -181.28581 
L 202.843432 -178.660845 
L 204.106447 -185.117982 
L 205.369462 -183.347859 
L 206.632477 -172.916249 
L 207.895492 -178.754419 
L 209.158508 -179.763841 
L 210.421523 -180.451216 
L 211.684538 -181.868428 
L 212.947553 -181.532985 
L 214.210568 -175.533761 
L 215.473583 -177.218123 
L 216.736598 -172.097673 
L 217.999613 -181.353556 
L 219.262628 -178.101664 
L 220.525643 -180.294674 
L 221.788658 -176.600025 
L 223.051673 -175.131309 
L 224.314688 -188.336874 
L 225.577704 -180.015039 
L 226.840719 -179.080684 
L 228.103734 -182.565412 
L 229.366749 -182.864143 
L 230.629764 -184.58345 
L 231.892779 -178.235101 
L 233.155794 -184.043202 
L 234.418809 -184.041007 
L 235.681824 -182.389954 
L 236.944839 -178.177307 
L 238.207854 -178.875548 
L 239.470869 -182.078223 
L 240.733884 -183.208285 
L 241.996899 -180.188796 
L 243.259915 -177.709368 
L 244.52293 -185.205215 
L 245.785945 -186.983013 
L 247.04896 -178.327479 
L 248.311975 -186.019074 
L 249.57499 -181.7046 
L 250.838005 -184.147765 
L 252.10102 -183.874576 
L 253.364035 -187.417193 
L 254.62705 -181.911584 
L 255.890065 -186.944425 
L 257.15308 -186.708226 
L 258.416095 -185.44855 
L 259.679111 -179.796519 
L 260.942126 -187.283247 
L 262.205141 -184.907701 
L 263.468156 -186.94101 
L 264.731171 -181.889364 
L 265.994186 -184.966105 
L 267.257201 -184.202277 
L 268.520216 -182.609263 
L 269.783231 -183.034472 
L 271.046246 -184.530935 
L 272.309261 -186.922463 
L 273.572276 -180.57254 
L 274.835291 -185.563476 
L 276.098307 -181.196968 
L 277.361322 -181.926915 
L 278.624337 -185.855222 
L 279.887352 -185.924008 
L 281.150367 -189.030366 
L 282.413382 -185.162798 
L 283.676397 -179.791392 
L 284.939412 -183.205157 
L 286.202427 -186.029097 
L 287.465442 -188.997825 
L 288.728457 -181.424875 
L 289.991472 -186.125821 
L 291.254487 -190.626574 
L 292.517503 -179.54269 
L 293.780518 -186.839522 
L 295.043533 -182.9439 
L 296.306548 -187.07989 
L 297.569563 -188.613673 
L 298.832578 -187.856296 
L 300.095593 -185.172304 
L 301.358608 -183.577353 
L 302.621623 -185.568065 
L 303.884638 -184.875923 
L 305.147653 -188.16031 
L 306.410668 -179.877975 
L 307.673683 -187.106934 
L 308.936698 -183.093512 
L 310.199714 -183.678497 
L 311.462729 -182.153599 
L 312.725744 -184.352836 
L 313.988759 -186.340333 
L 315.251774 -182.765327 
L 316.514789 -187.726019 
L 317.777804 -180.389275 
L 319.040819 -189.594337 
L 320.303834 -190.106896 
L 321.566849 -181.928544 
L 322.829864 -183.13622 
L 324.092879 -189.413511 
L 325.355894 -192.693093 
L 326.61891 -179.696217 
L 327.881925 -182.268563 
L 329.14494 -187.404792 
L 330.407955 -186.105325 
L 331.67097 -188.773183 
L 332.933985 -186.501222 
L 334.197 -187.479997 
L 334.197 -245.889576 
L 334.197 -245.889576 
L 332.933985 -238.511211 
L 331.67097 -240.957436 
L 330.407955 -239.389375 
L 329.14494 -239.36247 
L 327.881925 -239.236635 
L 326.61891 -237.123219 
L 325.355894 -241.448907 
L 324.092879 -239.661219 
L 322.829864 -236.118371 
L 321.566849 -238.813628 
L 320.303834 -240.173541 
L 319.040819 -238.536083 
L 317.777804 -238.777659 
L 316.514789 -238.797629 
L 315.251774 -238.710054 
L 313.988759 -238.110019 
L 312.725744 -238.103834 
L 311.462729 -232.448398 
L 310.199714 -240.019805 
L 308.936698 -238.138647 
L 307.673683 -235.981579 
L 306.410668 -235.798122 
L 305.147653 -236.878819 
L 303.884638 -238.298904 
L 302.621623 -240.337269 
L 301.358608 -232.879883 
L 300.095593 -237.813359 
L 298.832578 -238.408853 
L 297.569563 -238.264016 
L 296.306548 -238.401222 
L 295.043533 -238.364531 
L 293.780518 -238.745012 
L 292.517503 -233.551897 
L 291.254487 -241.077736 
L 289.991472 -237.294947 
L 288.728457 -231.494921 
L 287.465442 -236.422356 
L 286.202427 -238.739937 
L 284.939412 -237.395255 
L 283.676397 -237.575757 
L 282.413382 -238.274429 
L 281.150367 -237.784124 
L 279.887352 -236.700449 
L 278.624337 -236.216541 
L 277.361322 -234.648898 
L 276.098307 -234.693958 
L 274.835291 -236.749512 
L 273.572276 -235.916531 
L 272.309261 -237.287777 
L 271.046246 -236.418822 
L 269.783231 -236.663714 
L 268.520216 -235.67527 
L 267.257201 -238.756618 
L 265.994186 -238.011194 
L 264.731171 -233.06027 
L 263.468156 -237.72632 
L 262.205141 -236.519633 
L 260.942126 -234.693315 
L 259.679111 -235.997342 
L 258.416095 -235.223154 
L 257.15308 -234.013829 
L 255.890065 -234.202711 
L 254.62705 -237.917975 
L 253.364035 -236.882927 
L 252.10102 -238.340279 
L 250.838005 -235.579228 
L 249.57499 -235.538882 
L 248.311975 -237.009718 
L 247.04896 -230.623656 
L 245.785945 -236.576214 
L 244.52293 -235.879884 
L 243.259915 -232.156379 
L 241.996899 -232.409961 
L 240.733884 -234.476318 
L 239.470869 -237.01228 
L 238.207854 -234.33019 
L 236.944839 -231.466273 
L 235.681824 -233.3442 
L 234.418809 -234.15798 
L 233.155794 -236.053053 
L 231.892779 -233.95366 
L 230.629764 -235.462846 
L 229.366749 -232.873164 
L 228.103734 -234.412144 
L 226.840719 -232.264985 
L 225.577704 -234.90923 
L 224.314688 -237.040161 
L 223.051673 -233.194442 
L 221.788658 -231.511362 
L 220.525643 -234.159103 
L 219.262628 -232.325668 
L 217.999613 -234.056475 
L 216.736598 -227.537179 
L 215.473583 -231.914221 
L 214.210568 -231.161514 
L 212.947553 -234.588722 
L 211.684538 -236.89718 
L 210.421523 -232.036643 
L 209.158508 -232.199564 
L 207.895492 -234.241322 
L 206.632477 -229.505542 
L 205.369462 -234.088948 
L 204.106447 -236.106775 
L 202.843432 -234.057279 
L 201.580417 -234.116846 
L 200.317402 -231.549076 
L 199.054387 -233.08278 
L 197.791372 -232.590035 
L 196.528357 -230.826198 
L 195.265342 -230.343651 
L 194.002327 -234.87246 
L 192.739312 -232.522867 
L 191.476296 -235.28215 
L 190.213281 -231.964036 
L 188.950266 -229.461692 
L 187.687251 -230.288543 
L 186.424236 -236.403089 
L 185.161221 -231.376964 
L 183.898206 -234.52179 
L 182.635191 -232.048393 
L 181.372176 -230.964138 
L 180.109161 -230.185243 
L 178.846146 -233.375469 
L 177.583131 -229.603276 
L 176.320116 -231.444763 
L 175.057101 -232.302843 
L 173.794085 -231.120707 
L 172.53107 -229.541748 
L 171.268055 -233.010476 
L 170.00504 -231.131297 
L 168.742025 -232.239577 
L 167.47901 -230.206739 
L 166.215995 -232.394402 
L 164.95298 -228.553863 
L 163.689965 -232.900212 
L 162.42695 -230.39027 
L 161.163935 -227.95975 
L 159.90092 -228.238367 
L 158.637905 -233.121629 
L 157.374889 -226.891601 
L 156.111874 -228.924627 
L 154.848859 -230.242868 
L 153.585844 -229.294457 
L 152.322829 -230.178893 
L 151.059814 -227.814962 
L 149.796799 -229.231512 
L 148.533784 -228.31866 
L 147.270769 -229.424061 
L 146.007754 -228.3309 
L 144.744739 -229.005142 
L 143.481724 -228.883691 
L 142.218709 -230.652014 
L 140.955693 -226.010865 
L 139.692678 -225.688371 
L 138.429663 -229.77524 
L 137.166648 -230.747699 
L 135.903633 -224.229707 
L 134.640618 -228.75762 
L 133.377603 -227.920542 
L 132.114588 -227.972205 
L 130.851573 -228.371415 
L 129.588558 -231.609913 
L 128.325543 -225.213723 
L 127.062528 -225.060957 
L 125.799513 -226.022575 
L 124.536497 -226.264505 
L 123.273482 -224.92061 
L 122.010467 -221.201722 
L 120.747452 -223.171846 
L 119.484437 -222.767549 
L 118.221422 -224.682675 
L 116.958407 -222.252696 
L 115.695392 -218.138431 
L 114.432377 -223.174134 
L 113.169362 -219.157199 
L 111.906347 -219.28646 
L 110.643332 -220.276442 
L 109.380317 -210.893077 
L 108.117302 -217.595504 
L 106.854286 -213.670806 
L 105.591271 -215.362012 
L 104.328256 -213.97684 
L 103.065241 -211.089529 
L 101.802226 -205.741458 
L 100.539211 -214.183742 
L 99.276196 -210.78975 
L 98.013181 -210.394916 
L 96.750166 -211.028915 
L 95.487151 -216.340148 
L 94.224136 -214.638991 
L 92.961121 -214.158105 
L 91.698106 -210.741938 
L 90.43509 -209.477273 
L 89.172075 -208.627871 
L 87.90906 -197.027917 
L 86.646045 -197.222542 
L 85.38303 -162.967822 
L 84.120015 -208.569816 
L 82.857 -203.803326 
z
" id="m509988476b" style="stroke:#da7c30;stroke-opacity:0.2;"/>
    </defs>
    <g clip-path="url(#p58d7962f4f)">
     <use style="fill:#da7c30;fill-opacity:0.2;stroke:#da7c30;stroke-opacity:0.2;" x="0" xlink:href="#m509988476b" y="372.96"/>
    </g>
   </g>
   <g id="PolyCollection_3">
    <defs>
     <path d="M 82.857 -202.702306 
L 82.857 -131.153245 
L 84.120015 -134.122234 
L 85.38303 -87.088889 
L 86.646045 -119.200449 
L 87.90906 -131.058325 
L 89.172075 -134.108596 
L 90.43509 -133.298557 
L 91.698106 -130.448637 
L 92.961121 -130.80288 
L 94.224136 -128.50188 
L 95.487151 -120.733174 
L 96.750166 -135.188765 
L 98.013181 -123.101742 
L 99.276196 -130.815061 
L 100.539211 -122.831685 
L 101.802226 -121.40342 
L 103.065241 -131.847881 
L 104.328256 -126.600108 
L 105.591271 -129.031071 
L 106.854286 -127.66434 
L 108.117302 -132.387986 
L 109.380317 -128.729201 
L 110.643332 -126.340878 
L 111.906347 -136.563853 
L 113.169362 -133.567378 
L 114.432377 -137.853886 
L 115.695392 -139.784217 
L 116.958407 -138.206712 
L 118.221422 -138.32133 
L 119.484437 -150.604241 
L 120.747452 -154.265942 
L 122.010467 -153.432069 
L 123.273482 -144.458786 
L 124.536497 -149.568416 
L 125.799513 -147.986062 
L 127.062528 -154.455519 
L 128.325543 -160.83924 
L 129.588558 -152.22547 
L 130.851573 -160.991411 
L 132.114588 -154.011865 
L 133.377603 -154.503085 
L 134.640618 -157.347892 
L 135.903633 -150.681121 
L 137.166648 -152.597418 
L 138.429663 -154.133275 
L 139.692678 -154.775932 
L 140.955693 -150.711564 
L 142.218709 -157.129077 
L 143.481724 -156.854225 
L 144.744739 -154.776214 
L 146.007754 -159.952481 
L 147.270769 -160.488646 
L 148.533784 -161.175891 
L 149.796799 -164.990325 
L 151.059814 -156.08354 
L 152.322829 -163.509644 
L 153.585844 -160.00734 
L 154.848859 -164.889329 
L 156.111874 -156.049466 
L 157.374889 -155.690327 
L 158.637905 -152.489965 
L 159.90092 -166.132214 
L 161.163935 -159.799896 
L 162.42695 -159.620381 
L 163.689965 -162.095277 
L 164.95298 -169.235181 
L 166.215995 -165.070911 
L 167.47901 -165.968405 
L 168.742025 -164.628488 
L 170.00504 -163.128268 
L 171.268055 -165.4104 
L 172.53107 -165.959539 
L 173.794085 -168.617779 
L 175.057101 -164.352144 
L 176.320116 -162.514037 
L 177.583131 -153.784424 
L 178.846146 -166.504554 
L 180.109161 -163.178009 
L 181.372176 -165.429258 
L 182.635191 -159.151169 
L 183.898206 -164.202447 
L 185.161221 -166.059651 
L 186.424236 -162.028574 
L 187.687251 -164.08418 
L 188.950266 -164.918713 
L 190.213281 -160.975196 
L 191.476296 -169.809225 
L 192.739312 -163.283966 
L 194.002327 -160.607147 
L 195.265342 -164.039176 
L 196.528357 -162.323721 
L 197.791372 -163.352428 
L 199.054387 -167.68103 
L 200.317402 -167.860345 
L 201.580417 -173.791154 
L 202.843432 -164.556786 
L 204.106447 -165.531373 
L 205.369462 -165.045892 
L 206.632477 -166.703815 
L 207.895492 -162.933221 
L 209.158508 -169.097693 
L 210.421523 -166.478383 
L 211.684538 -164.721986 
L 212.947553 -172.8169 
L 214.210568 -168.398035 
L 215.473583 -172.388408 
L 216.736598 -160.165675 
L 217.999613 -170.768381 
L 219.262628 -164.906992 
L 220.525643 -171.877168 
L 221.788658 -171.148864 
L 223.051673 -172.350653 
L 224.314688 -172.366603 
L 225.577704 -171.187812 
L 226.840719 -163.365725 
L 228.103734 -159.925377 
L 229.366749 -165.342218 
L 230.629764 -170.140725 
L 231.892779 -170.358012 
L 233.155794 -163.25321 
L 234.418809 -169.49938 
L 235.681824 -167.920314 
L 236.944839 -175.457527 
L 238.207854 -171.708108 
L 239.470869 -168.333315 
L 240.733884 -170.045461 
L 241.996899 -170.162821 
L 243.259915 -169.370051 
L 244.52293 -166.848147 
L 245.785945 -173.342794 
L 247.04896 -170.440758 
L 248.311975 -162.924878 
L 249.57499 -170.843993 
L 250.838005 -174.987802 
L 252.10102 -173.190715 
L 253.364035 -164.850141 
L 254.62705 -179.13531 
L 255.890065 -164.024049 
L 257.15308 -173.806477 
L 258.416095 -171.68371 
L 259.679111 -163.645758 
L 260.942126 -171.727548 
L 262.205141 -171.142898 
L 263.468156 -171.985191 
L 264.731171 -167.852057 
L 265.994186 -170.570968 
L 267.257201 -170.516001 
L 268.520216 -171.379759 
L 269.783231 -173.680127 
L 271.046246 -171.098412 
L 272.309261 -169.041465 
L 273.572276 -170.927529 
L 274.835291 -167.028702 
L 276.098307 -174.492765 
L 277.361322 -170.471449 
L 278.624337 -171.87453 
L 279.887352 -166.185258 
L 281.150367 -172.274799 
L 282.413382 -167.981158 
L 283.676397 -166.179577 
L 284.939412 -169.392005 
L 286.202427 -169.090447 
L 287.465442 -171.136699 
L 288.728457 -172.648591 
L 289.991472 -172.048044 
L 291.254487 -170.170575 
L 292.517503 -171.920326 
L 293.780518 -169.416741 
L 295.043533 -167.271323 
L 296.306548 -175.178735 
L 297.569563 -174.140589 
L 298.832578 -174.680073 
L 300.095593 -168.242276 
L 301.358608 -174.270841 
L 302.621623 -177.720647 
L 303.884638 -167.761678 
L 305.147653 -175.573736 
L 306.410668 -168.838296 
L 307.673683 -170.810663 
L 308.936698 -164.863043 
L 310.199714 -172.927502 
L 311.462729 -179.354982 
L 312.725744 -168.400078 
L 313.988759 -175.505131 
L 315.251774 -170.512635 
L 316.514789 -171.286667 
L 317.777804 -174.139331 
L 319.040819 -173.676315 
L 320.303834 -177.931891 
L 321.566849 -168.069839 
L 322.829864 -177.281952 
L 324.092879 -182.462697 
L 325.355894 -178.346598 
L 326.61891 -169.955415 
L 327.881925 -161.483609 
L 329.14494 -172.281016 
L 330.407955 -172.916165 
L 331.67097 -176.971822 
L 332.933985 -172.1786 
L 334.197 -170.520038 
L 334.197 -233.476838 
L 334.197 -233.476838 
L 332.933985 -230.596895 
L 331.67097 -233.688516 
L 330.407955 -231.195413 
L 329.14494 -234.075666 
L 327.881925 -230.619026 
L 326.61891 -235.374791 
L 325.355894 -234.598394 
L 324.092879 -237.383827 
L 322.829864 -235.720713 
L 321.566849 -232.250719 
L 320.303834 -236.646363 
L 319.040819 -232.059446 
L 317.777804 -235.274662 
L 316.514789 -229.746023 
L 315.251774 -228.200234 
L 313.988759 -234.356871 
L 312.725744 -229.875142 
L 311.462729 -232.047318 
L 310.199714 -232.720319 
L 308.936698 -227.074322 
L 307.673683 -230.283877 
L 306.410668 -229.103765 
L 305.147653 -231.397905 
L 303.884638 -234.045653 
L 302.621623 -232.654442 
L 301.358608 -231.351716 
L 300.095593 -228.076304 
L 298.832578 -235.178995 
L 297.569563 -233.49551 
L 296.306548 -234.710425 
L 295.043533 -226.993936 
L 293.780518 -229.144402 
L 292.517503 -231.447866 
L 291.254487 -230.588985 
L 289.991472 -227.636668 
L 288.728457 -230.523353 
L 287.465442 -229.091358 
L 286.202427 -231.263009 
L 284.939412 -228.759062 
L 283.676397 -227.618498 
L 282.413382 -227.486871 
L 281.150367 -232.74286 
L 279.887352 -228.102596 
L 278.624337 -229.901379 
L 277.361322 -231.086955 
L 276.098307 -230.477102 
L 274.835291 -231.563133 
L 273.572276 -232.633585 
L 272.309261 -227.113662 
L 271.046246 -230.205858 
L 269.783231 -232.40292 
L 268.520216 -229.603685 
L 267.257201 -232.080802 
L 265.994186 -232.255239 
L 264.731171 -228.839671 
L 263.468156 -230.692272 
L 262.205141 -227.015702 
L 260.942126 -226.065181 
L 259.679111 -225.635016 
L 258.416095 -227.253307 
L 257.15308 -228.837944 
L 255.890065 -231.460311 
L 254.62705 -233.321378 
L 253.364035 -228.254315 
L 252.10102 -231.585287 
L 250.838005 -231.372069 
L 249.57499 -228.601646 
L 248.311975 -223.133129 
L 247.04896 -227.776109 
L 245.785945 -230.203827 
L 244.52293 -226.758347 
L 243.259915 -227.961538 
L 241.996899 -227.731285 
L 240.733884 -231.818445 
L 239.470869 -227.911655 
L 238.207854 -226.290504 
L 236.944839 -228.846736 
L 235.681824 -227.289887 
L 234.418809 -227.956292 
L 233.155794 -225.693844 
L 231.892779 -226.908133 
L 230.629764 -226.227405 
L 229.366749 -226.088285 
L 228.103734 -223.452519 
L 226.840719 -223.424609 
L 225.577704 -226.886097 
L 224.314688 -228.244689 
L 223.051673 -227.875225 
L 221.788658 -228.459809 
L 220.525643 -226.131324 
L 219.262628 -229.340148 
L 217.999613 -229.40992 
L 216.736598 -225.903271 
L 215.473583 -232.145116 
L 214.210568 -224.562832 
L 212.947553 -229.8058 
L 211.684538 -229.102497 
L 210.421523 -225.410396 
L 209.158508 -223.413259 
L 207.895492 -223.777845 
L 206.632477 -226.392482 
L 205.369462 -223.461499 
L 204.106447 -220.328098 
L 202.843432 -223.890429 
L 201.580417 -229.914434 
L 200.317402 -224.839795 
L 199.054387 -224.701951 
L 197.791372 -223.332966 
L 196.528357 -225.665698 
L 195.265342 -225.992222 
L 194.002327 -223.680242 
L 192.739312 -227.989091 
L 191.476296 -230.316948 
L 190.213281 -225.082096 
L 188.950266 -225.954138 
L 187.687251 -226.175549 
L 186.424236 -226.111214 
L 185.161221 -228.053091 
L 183.898206 -229.304757 
L 182.635191 -221.783537 
L 181.372176 -228.80084 
L 180.109161 -227.801691 
L 178.846146 -228.607866 
L 177.583131 -226.476184 
L 176.320116 -227.733426 
L 175.057101 -228.567437 
L 173.794085 -228.363517 
L 172.53107 -227.705813 
L 171.268055 -224.486134 
L 170.00504 -224.344106 
L 168.742025 -224.785671 
L 167.47901 -226.493014 
L 166.215995 -225.696454 
L 164.95298 -229.256278 
L 163.689965 -228.714199 
L 162.42695 -222.818239 
L 161.163935 -225.875264 
L 159.90092 -227.677335 
L 158.637905 -224.252583 
L 157.374889 -222.15698 
L 156.111874 -222.971167 
L 154.848859 -225.905676 
L 153.585844 -224.39275 
L 152.322829 -224.761008 
L 151.059814 -221.460192 
L 149.796799 -227.012516 
L 148.533784 -220.610653 
L 147.270769 -222.815966 
L 146.007754 -224.451516 
L 144.744739 -221.398916 
L 143.481724 -219.358902 
L 142.218709 -223.155286 
L 140.955693 -220.355307 
L 139.692678 -222.921653 
L 138.429663 -222.948649 
L 137.166648 -219.759867 
L 135.903633 -217.027281 
L 134.640618 -220.294114 
L 133.377603 -222.383061 
L 132.114588 -220.889536 
L 130.851573 -222.674749 
L 129.588558 -216.280699 
L 128.325543 -220.376933 
L 127.062528 -217.832098 
L 125.799513 -217.660764 
L 124.536497 -217.467468 
L 123.273482 -215.003152 
L 122.010467 -216.962174 
L 120.747452 -217.124605 
L 119.484437 -214.519512 
L 118.221422 -211.747304 
L 116.958407 -208.851854 
L 115.695392 -210.015376 
L 114.432377 -208.948929 
L 113.169362 -212.015271 
L 111.906347 -209.442072 
L 110.643332 -201.335653 
L 109.380317 -201.442201 
L 108.117302 -207.991731 
L 106.854286 -207.053017 
L 105.591271 -198.886408 
L 104.328256 -202.357635 
L 103.065241 -200.817109 
L 101.802226 -200.965374 
L 100.539211 -197.147845 
L 99.276196 -201.282686 
L 98.013181 -200.137135 
L 96.750166 -207.789831 
L 95.487151 -198.687964 
L 94.224136 -199.888438 
L 92.961121 -202.005131 
L 91.698106 -201.887793 
L 90.43509 -204.216055 
L 89.172075 -201.263409 
L 87.90906 -200.646471 
L 86.646045 -194.250026 
L 85.38303 -187.639773 
L 84.120015 -205.405314 
L 82.857 -202.702306 
z
" id="mdc77c2a979" style="stroke:#3e9651;stroke-opacity:0.2;"/>
    </defs>
    <g clip-path="url(#p58d7962f4f)">
     <use style="fill:#3e9651;fill-opacity:0.2;stroke:#3e9651;stroke-opacity:0.2;" x="0" xlink:href="#mdc77c2a979" y="372.96"/>
    </g>
   </g>
   <g id="PolyCollection_4">
    <defs>
     <path d="M 82.857 -206.56054 
L 82.857 -137.298037 
L 84.120015 -127.196065 
L 85.38303 -51.1488 
L 86.646045 -125.866219 
L 87.90906 -126.013625 
L 89.172075 -136.726163 
L 90.43509 -136.547956 
L 91.698106 -131.541689 
L 92.961121 -130.12127 
L 94.224136 -132.460942 
L 95.487151 -139.907103 
L 96.750166 -128.912586 
L 98.013181 -130.229337 
L 99.276196 -133.493289 
L 100.539211 -131.418956 
L 101.802226 -128.869902 
L 103.065241 -129.62803 
L 104.328256 -123.39494 
L 105.591271 -124.359785 
L 106.854286 -119.352667 
L 108.117302 -135.667853 
L 109.380317 -134.513144 
L 110.643332 -135.895949 
L 111.906347 -139.183 
L 113.169362 -132.549192 
L 114.432377 -134.52415 
L 115.695392 -144.112337 
L 116.958407 -140.185749 
L 118.221422 -140.868768 
L 119.484437 -153.681019 
L 120.747452 -150.722477 
L 122.010467 -149.111853 
L 123.273482 -141.978121 
L 124.536497 -148.510106 
L 125.799513 -145.513884 
L 127.062528 -149.948099 
L 128.325543 -157.721933 
L 129.588558 -161.299775 
L 130.851573 -151.42732 
L 132.114588 -160.947123 
L 133.377603 -151.468527 
L 134.640618 -150.700115 
L 135.903633 -156.65418 
L 137.166648 -150.626756 
L 138.429663 -147.738779 
L 139.692678 -147.618509 
L 140.955693 -149.008272 
L 142.218709 -149.884394 
L 143.481724 -148.880409 
L 144.744739 -154.209812 
L 146.007754 -159.680946 
L 147.270769 -157.507854 
L 148.533784 -154.046128 
L 149.796799 -154.951793 
L 151.059814 -154.822777 
L 152.322829 -160.135131 
L 153.585844 -155.120871 
L 154.848859 -158.352596 
L 156.111874 -155.932946 
L 157.374889 -155.503129 
L 158.637905 -151.547608 
L 159.90092 -160.671854 
L 161.163935 -151.340559 
L 162.42695 -153.852521 
L 163.689965 -153.821223 
L 164.95298 -158.824995 
L 166.215995 -160.218757 
L 167.47901 -159.89837 
L 168.742025 -156.71559 
L 170.00504 -160.890124 
L 171.268055 -153.775947 
L 172.53107 -163.424912 
L 173.794085 -157.415432 
L 175.057101 -156.840355 
L 176.320116 -149.419494 
L 177.583131 -154.155242 
L 178.846146 -165.494931 
L 180.109161 -162.990181 
L 181.372176 -155.896385 
L 182.635191 -156.246331 
L 183.898206 -166.185041 
L 185.161221 -158.605689 
L 186.424236 -157.915496 
L 187.687251 -159.762313 
L 188.950266 -165.836896 
L 190.213281 -165.701391 
L 191.476296 -167.725805 
L 192.739312 -157.193962 
L 194.002327 -164.540001 
L 195.265342 -161.963962 
L 196.528357 -165.773267 
L 197.791372 -165.247554 
L 199.054387 -162.215849 
L 200.317402 -164.010072 
L 201.580417 -168.037591 
L 202.843432 -162.462909 
L 204.106447 -162.976669 
L 205.369462 -162.500781 
L 206.632477 -161.81262 
L 207.895492 -165.026703 
L 209.158508 -162.937916 
L 210.421523 -163.539515 
L 211.684538 -167.325344 
L 212.947553 -170.568587 
L 214.210568 -159.494519 
L 215.473583 -166.029556 
L 216.736598 -163.829073 
L 217.999613 -169.11826 
L 219.262628 -161.50253 
L 220.525643 -167.327328 
L 221.788658 -165.17343 
L 223.051673 -170.262434 
L 224.314688 -161.526226 
L 225.577704 -167.91847 
L 226.840719 -159.91792 
L 228.103734 -168.240604 
L 229.366749 -170.947765 
L 230.629764 -169.715555 
L 231.892779 -162.612209 
L 233.155794 -168.713721 
L 234.418809 -164.898132 
L 235.681824 -170.355865 
L 236.944839 -172.490315 
L 238.207854 -166.919944 
L 239.470869 -171.65334 
L 240.733884 -166.412555 
L 241.996899 -165.575436 
L 243.259915 -167.335193 
L 244.52293 -168.166559 
L 245.785945 -172.189092 
L 247.04896 -167.817648 
L 248.311975 -163.830216 
L 249.57499 -165.835038 
L 250.838005 -170.064815 
L 252.10102 -167.702693 
L 253.364035 -166.314365 
L 254.62705 -169.271218 
L 255.890065 -170.841202 
L 257.15308 -167.158509 
L 258.416095 -169.749175 
L 259.679111 -162.694315 
L 260.942126 -175.035233 
L 262.205141 -166.094094 
L 263.468156 -163.334495 
L 264.731171 -160.438488 
L 265.994186 -165.635042 
L 267.257201 -162.119784 
L 268.520216 -170.273316 
L 269.783231 -170.696327 
L 271.046246 -171.527634 
L 272.309261 -161.332582 
L 273.572276 -169.439217 
L 274.835291 -167.721051 
L 276.098307 -167.08555 
L 277.361322 -167.912188 
L 278.624337 -163.911028 
L 279.887352 -159.699158 
L 281.150367 -171.938155 
L 282.413382 -170.380679 
L 283.676397 -161.940084 
L 284.939412 -165.907828 
L 286.202427 -164.655156 
L 287.465442 -166.790927 
L 288.728457 -165.067398 
L 289.991472 -160.043164 
L 291.254487 -167.605752 
L 292.517503 -163.840563 
L 293.780518 -166.626056 
L 295.043533 -162.436397 
L 296.306548 -169.083348 
L 297.569563 -164.638686 
L 298.832578 -165.593637 
L 300.095593 -167.622331 
L 301.358608 -179.394698 
L 302.621623 -165.785765 
L 303.884638 -160.971779 
L 305.147653 -161.82835 
L 306.410668 -168.740964 
L 307.673683 -174.293705 
L 308.936698 -165.571554 
L 310.199714 -170.584256 
L 311.462729 -166.302987 
L 312.725744 -163.686298 
L 313.988759 -164.696274 
L 315.251774 -167.423215 
L 316.514789 -164.235189 
L 317.777804 -163.953027 
L 319.040819 -167.985307 
L 320.303834 -170.70737 
L 321.566849 -163.008406 
L 322.829864 -165.919574 
L 324.092879 -165.595968 
L 325.355894 -166.526027 
L 326.61891 -160.76713 
L 327.881925 -164.776958 
L 329.14494 -163.868705 
L 330.407955 -173.653261 
L 331.67097 -172.173494 
L 332.933985 -170.282923 
L 334.197 -167.13928 
L 334.197 -226.170366 
L 334.197 -226.170366 
L 332.933985 -224.753149 
L 331.67097 -223.526923 
L 330.407955 -223.038155 
L 329.14494 -224.965294 
L 327.881925 -219.785146 
L 326.61891 -222.505459 
L 325.355894 -221.410889 
L 324.092879 -222.902253 
L 322.829864 -224.095331 
L 321.566849 -220.712331 
L 320.303834 -225.97692 
L 319.040819 -221.309792 
L 317.777804 -226.818682 
L 316.514789 -221.289425 
L 315.251774 -225.351809 
L 313.988759 -221.609363 
L 312.725744 -220.588745 
L 311.462729 -219.99539 
L 310.199714 -227.923473 
L 308.936698 -227.314784 
L 307.673683 -229.79172 
L 306.410668 -224.214523 
L 305.147653 -219.648929 
L 303.884638 -224.289281 
L 302.621623 -228.119397 
L 301.358608 -232.215679 
L 300.095593 -223.976885 
L 298.832578 -222.7702 
L 297.569563 -218.598809 
L 296.306548 -223.757351 
L 295.043533 -222.206525 
L 293.780518 -226.028913 
L 292.517503 -221.031059 
L 291.254487 -223.827487 
L 289.991472 -222.880138 
L 288.728457 -224.028211 
L 287.465442 -219.823575 
L 286.202427 -222.596541 
L 284.939412 -223.063703 
L 283.676397 -223.343938 
L 282.413382 -225.582814 
L 281.150367 -227.980563 
L 279.887352 -220.472439 
L 278.624337 -223.817099 
L 277.361322 -220.61138 
L 276.098307 -220.618345 
L 274.835291 -226.94073 
L 273.572276 -224.381694 
L 272.309261 -218.391312 
L 271.046246 -227.228961 
L 269.783231 -227.075372 
L 268.520216 -224.730382 
L 267.257201 -220.546647 
L 265.994186 -222.992079 
L 264.731171 -223.239361 
L 263.468156 -220.494697 
L 262.205141 -222.386856 
L 260.942126 -226.88546 
L 259.679111 -222.592232 
L 258.416095 -224.15957 
L 257.15308 -223.37426 
L 255.890065 -225.91653 
L 254.62705 -225.402895 
L 253.364035 -221.032707 
L 252.10102 -226.157673 
L 250.838005 -226.878748 
L 249.57499 -220.964502 
L 248.311975 -221.679032 
L 247.04896 -220.55015 
L 245.785945 -224.857626 
L 244.52293 -224.807436 
L 243.259915 -222.338253 
L 241.996899 -221.064995 
L 240.733884 -222.093854 
L 239.470869 -223.433663 
L 238.207854 -224.024085 
L 236.944839 -226.689556 
L 235.681824 -228.27552 
L 234.418809 -221.537176 
L 233.155794 -226.095466 
L 231.892779 -222.933096 
L 230.629764 -223.910602 
L 229.366749 -224.830049 
L 228.103734 -225.581696 
L 226.840719 -219.38292 
L 225.577704 -225.029469 
L 224.314688 -219.086741 
L 223.051673 -225.188286 
L 221.788658 -222.04729 
L 220.525643 -223.212548 
L 219.262628 -218.348455 
L 217.999613 -225.085036 
L 216.736598 -220.573953 
L 215.473583 -219.978369 
L 214.210568 -219.822529 
L 212.947553 -224.763488 
L 211.684538 -226.032401 
L 210.421523 -222.518257 
L 209.158508 -221.68586 
L 207.895492 -220.862646 
L 206.632477 -219.956368 
L 205.369462 -219.772903 
L 204.106447 -221.440405 
L 202.843432 -219.182155 
L 201.580417 -222.225759 
L 200.317402 -222.90533 
L 199.054387 -217.666233 
L 197.791372 -222.644493 
L 196.528357 -223.391068 
L 195.265342 -220.22103 
L 194.002327 -220.830407 
L 192.739312 -216.043181 
L 191.476296 -226.578824 
L 190.213281 -224.798788 
L 188.950266 -224.627756 
L 187.687251 -223.564086 
L 186.424236 -218.625784 
L 185.161221 -220.521249 
L 183.898206 -220.92845 
L 182.635191 -217.452467 
L 181.372176 -219.483331 
L 180.109161 -220.540317 
L 178.846146 -220.107796 
L 177.583131 -217.286263 
L 176.320116 -215.034395 
L 175.057101 -217.781071 
L 173.794085 -221.039625 
L 172.53107 -219.057239 
L 171.268055 -216.865507 
L 170.00504 -222.855794 
L 168.742025 -216.486568 
L 167.47901 -217.458343 
L 166.215995 -217.077019 
L 164.95298 -216.881371 
L 163.689965 -215.440888 
L 162.42695 -217.274883 
L 161.163935 -215.667538 
L 159.90092 -219.334181 
L 158.637905 -214.965173 
L 157.374889 -215.94447 
L 156.111874 -219.047779 
L 154.848859 -221.41484 
L 153.585844 -217.810676 
L 152.322829 -221.864663 
L 151.059814 -218.91755 
L 149.796799 -217.065779 
L 148.533784 -212.230473 
L 147.270769 -217.059345 
L 146.007754 -219.614263 
L 144.744739 -219.695115 
L 143.481724 -216.707846 
L 142.218709 -214.628228 
L 140.955693 -217.404483 
L 139.692678 -216.767671 
L 138.429663 -213.990132 
L 137.166648 -215.993727 
L 135.903633 -220.129684 
L 134.640618 -213.523974 
L 133.377603 -215.614903 
L 132.114588 -218.209259 
L 130.851573 -212.836861 
L 129.588558 -217.37034 
L 128.325543 -217.311957 
L 127.062528 -214.292509 
L 125.799513 -215.687795 
L 124.536497 -212.210286 
L 123.273482 -212.192381 
L 122.010467 -212.42949 
L 120.747452 -213.922878 
L 119.484437 -215.451605 
L 118.221422 -210.75825 
L 116.958407 -210.72556 
L 115.695392 -212.672716 
L 114.432377 -209.76228 
L 113.169362 -206.398792 
L 111.906347 -211.942249 
L 110.643332 -208.399184 
L 109.380317 -208.651353 
L 108.117302 -206.780212 
L 106.854286 -196.996673 
L 105.591271 -201.514949 
L 104.328256 -201.561784 
L 103.065241 -203.603288 
L 101.802226 -202.633007 
L 100.539211 -204.412843 
L 99.276196 -201.802642 
L 98.013181 -199.113406 
L 96.750166 -202.456075 
L 95.487151 -207.372629 
L 94.224136 -199.087408 
L 92.961121 -202.862483 
L 91.698106 -202.504797 
L 90.43509 -206.977674 
L 89.172075 -204.837639 
L 87.90906 -202.542539 
L 86.646045 -198.802297 
L 85.38303 -164.17038 
L 84.120015 -201.136365 
L 82.857 -206.56054 
z
" id="m6c5ff071e6" style="stroke:#cc2529;stroke-opacity:0.2;"/>
    </defs>
    <g clip-path="url(#p58d7962f4f)">
     <use style="fill:#cc2529;fill-opacity:0.2;stroke:#cc2529;stroke-opacity:0.2;" x="0" xlink:href="#m6c5ff071e6" y="372.96"/>
    </g>
   </g>
   <g id="matplotlib.axis_1">
    <g id="xtick_1">
     <g id="line2d_1">
      <path clip-path="url(#p58d7962f4f)" d="M 82.857 331.9344 
L 82.857 109.224 
" style="fill:none;stroke:#b0b0b0;stroke-linecap:square;stroke-width:0.8;"/>
     </g>
     <g id="line2d_2">
      <defs>
       <path d="M 0 0 
L 0 3.5 
" id="m7887b85c35" style="stroke:#000000;stroke-width:0.8;"/>
      </defs>
      <g>
       <use style="stroke:#000000;stroke-width:0.8;" x="82.857" xlink:href="#m7887b85c35" y="331.9344"/>
      </g>
     </g>
     <g id="text_1">
      <!-- 0 -->
      <defs>
       <path d="M 31.78125 66.40625 
Q 24.171875 66.40625 20.328125 58.90625 
Q 16.5 51.421875 16.5 36.375 
Q 16.5 21.390625 20.328125 13.890625 
Q 24.171875 6.390625 31.78125 6.390625 
Q 39.453125 6.390625 43.28125 13.890625 
Q 47.125 21.390625 47.125 36.375 
Q 47.125 51.421875 43.28125 58.90625 
Q 39.453125 66.40625 31.78125 66.40625 
z
M 31.78125 74.21875 
Q 44.046875 74.21875 50.515625 64.515625 
Q 56.984375 54.828125 56.984375 36.375 
Q 56.984375 17.96875 50.515625 8.265625 
Q 44.046875 -1.421875 31.78125 -1.421875 
Q 19.53125 -1.421875 13.0625 8.265625 
Q 6.59375 17.96875 6.59375 36.375 
Q 6.59375 54.828125 13.0625 64.515625 
Q 19.53125 74.21875 31.78125 74.21875 
z
" id="DejaVuSans-30"/>
      </defs>
      <g transform="translate(79.67575 346.532837)scale(0.1 -0.1)">
       <use xlink:href="#DejaVuSans-30"/>
      </g>
     </g>
    </g>
    <g id="xtick_2">
     <g id="line2d_3">
      <path clip-path="url(#p58d7962f4f)" d="M 114.432377 331.9344 
L 114.432377 109.224 
" style="fill:none;stroke:#b0b0b0;stroke-linecap:square;stroke-width:0.8;"/>
     </g>
     <g id="line2d_4">
      <g>
       <use style="stroke:#000000;stroke-width:0.8;" x="114.432377" xlink:href="#m7887b85c35" y="331.9344"/>
      </g>
     </g>
     <g id="text_2">
      <!-- 25 -->
      <defs>
       <path d="M 19.1875 8.296875 
L 53.609375 8.296875 
L 53.609375 0 
L 7.328125 0 
L 7.328125 8.296875 
Q 12.9375 14.109375 22.625 23.890625 
Q 32.328125 33.6875 34.8125 36.53125 
Q 39.546875 41.84375 41.421875 45.53125 
Q 43.3125 49.21875 43.3125 52.78125 
Q 43.3125 58.59375 39.234375 62.25 
Q 35.15625 65.921875 28.609375 65.921875 
Q 23.96875 65.921875 18.8125 64.3125 
Q 13.671875 62.703125 7.8125 59.421875 
L 7.8125 69.390625 
Q 13.765625 71.78125 18.9375 73 
Q 24.125 74.21875 28.421875 74.21875 
Q 39.75 74.21875 46.484375 68.546875 
Q 53.21875 62.890625 53.21875 53.421875 
Q 53.21875 48.921875 51.53125 44.890625 
Q 49.859375 40.875 45.40625 35.40625 
Q 44.1875 33.984375 37.640625 27.21875 
Q 31.109375 20.453125 19.1875 8.296875 
z
" id="DejaVuSans-32"/>
       <path d="M 10.796875 72.90625 
L 49.515625 72.90625 
L 49.515625 64.59375 
L 19.828125 64.59375 
L 19.828125 46.734375 
Q 21.96875 47.46875 24.109375 47.828125 
Q 26.265625 48.1875 28.421875 48.1875 
Q 40.625 48.1875 47.75 41.5 
Q 54.890625 34.8125 54.890625 23.390625 
Q 54.890625 11.625 47.5625 5.09375 
Q 40.234375 -1.421875 26.90625 -1.421875 
Q 22.3125 -1.421875 17.546875 -0.640625 
Q 12.796875 0.140625 7.71875 1.703125 
L 7.71875 11.625 
Q 12.109375 9.234375 16.796875 8.0625 
Q 21.484375 6.890625 26.703125 6.890625 
Q 35.15625 6.890625 40.078125 11.328125 
Q 45.015625 15.765625 45.015625 23.390625 
Q 45.015625 31 40.078125 35.4375 
Q 35.15625 39.890625 26.703125 39.890625 
Q 22.75 39.890625 18.8125 39.015625 
Q 14.890625 38.140625 10.796875 36.28125 
z
" id="DejaVuSans-35"/>
      </defs>
      <g transform="translate(108.069877 346.532837)scale(0.1 -0.1)">
       <use xlink:href="#DejaVuSans-32"/>
       <use x="63.623047" xlink:href="#DejaVuSans-35"/>
      </g>
     </g>
    </g>
    <g id="xtick_3">
     <g id="line2d_5">
      <path clip-path="url(#p58d7962f4f)" d="M 146.007754 331.9344 
L 146.007754 109.224 
" style="fill:none;stroke:#b0b0b0;stroke-linecap:square;stroke-width:0.8;"/>
     </g>
     <g id="line2d_6">
      <g>
       <use style="stroke:#000000;stroke-width:0.8;" x="146.007754" xlink:href="#m7887b85c35" y="331.9344"/>
      </g>
     </g>
     <g id="text_3">
      <!-- 50 -->
      <g transform="translate(139.645254 346.532837)scale(0.1 -0.1)">
       <use xlink:href="#DejaVuSans-35"/>
       <use x="63.623047" xlink:href="#DejaVuSans-30"/>
      </g>
     </g>
    </g>
    <g id="xtick_4">
     <g id="line2d_7">
      <path clip-path="url(#p58d7962f4f)" d="M 177.583131 331.9344 
L 177.583131 109.224 
" style="fill:none;stroke:#b0b0b0;stroke-linecap:square;stroke-width:0.8;"/>
     </g>
     <g id="line2d_8">
      <g>
       <use style="stroke:#000000;stroke-width:0.8;" x="177.583131" xlink:href="#m7887b85c35" y="331.9344"/>
      </g>
     </g>
     <g id="text_4">
      <!-- 75 -->
      <defs>
       <path d="M 8.203125 72.90625 
L 55.078125 72.90625 
L 55.078125 68.703125 
L 28.609375 0 
L 18.3125 0 
L 43.21875 64.59375 
L 8.203125 64.59375 
z
" id="DejaVuSans-37"/>
      </defs>
      <g transform="translate(171.220631 346.532837)scale(0.1 -0.1)">
       <use xlink:href="#DejaVuSans-37"/>
       <use x="63.623047" xlink:href="#DejaVuSans-35"/>
      </g>
     </g>
    </g>
    <g id="xtick_5">
     <g id="line2d_9">
      <path clip-path="url(#p58d7962f4f)" d="M 209.158508 331.9344 
L 209.158508 109.224 
" style="fill:none;stroke:#b0b0b0;stroke-linecap:square;stroke-width:0.8;"/>
     </g>
     <g id="line2d_10">
      <g>
       <use style="stroke:#000000;stroke-width:0.8;" x="209.158508" xlink:href="#m7887b85c35" y="331.9344"/>
      </g>
     </g>
     <g id="text_5">
      <!-- 100 -->
      <defs>
       <path d="M 12.40625 8.296875 
L 28.515625 8.296875 
L 28.515625 63.921875 
L 10.984375 60.40625 
L 10.984375 69.390625 
L 28.421875 72.90625 
L 38.28125 72.90625 
L 38.28125 8.296875 
L 54.390625 8.296875 
L 54.390625 0 
L 12.40625 0 
z
" id="DejaVuSans-31"/>
      </defs>
      <g transform="translate(199.614758 346.532837)scale(0.1 -0.1)">
       <use xlink:href="#DejaVuSans-31"/>
       <use x="63.623047" xlink:href="#DejaVuSans-30"/>
       <use x="127.246094" xlink:href="#DejaVuSans-30"/>
      </g>
     </g>
    </g>
    <g id="xtick_6">
     <g id="line2d_11">
      <path clip-path="url(#p58d7962f4f)" d="M 240.733884 331.9344 
L 240.733884 109.224 
" style="fill:none;stroke:#b0b0b0;stroke-linecap:square;stroke-width:0.8;"/>
     </g>
     <g id="line2d_12">
      <g>
       <use style="stroke:#000000;stroke-width:0.8;" x="240.733884" xlink:href="#m7887b85c35" y="331.9344"/>
      </g>
     </g>
     <g id="text_6">
      <!-- 125 -->
      <g transform="translate(231.190134 346.532837)scale(0.1 -0.1)">
       <use xlink:href="#DejaVuSans-31"/>
       <use x="63.623047" xlink:href="#DejaVuSans-32"/>
       <use x="127.246094" xlink:href="#DejaVuSans-35"/>
      </g>
     </g>
    </g>
    <g id="xtick_7">
     <g id="line2d_13">
      <path clip-path="url(#p58d7962f4f)" d="M 272.309261 331.9344 
L 272.309261 109.224 
" style="fill:none;stroke:#b0b0b0;stroke-linecap:square;stroke-width:0.8;"/>
     </g>
     <g id="line2d_14">
      <g>
       <use style="stroke:#000000;stroke-width:0.8;" x="272.309261" xlink:href="#m7887b85c35" y="331.9344"/>
      </g>
     </g>
     <g id="text_7">
      <!-- 150 -->
      <g transform="translate(262.765511 346.532837)scale(0.1 -0.1)">
       <use xlink:href="#DejaVuSans-31"/>
       <use x="63.623047" xlink:href="#DejaVuSans-35"/>
       <use x="127.246094" xlink:href="#DejaVuSans-30"/>
      </g>
     </g>
    </g>
    <g id="xtick_8">
     <g id="line2d_15">
      <path clip-path="url(#p58d7962f4f)" d="M 303.884638 331.9344 
L 303.884638 109.224 
" style="fill:none;stroke:#b0b0b0;stroke-linecap:square;stroke-width:0.8;"/>
     </g>
     <g id="line2d_16">
      <g>
       <use style="stroke:#000000;stroke-width:0.8;" x="303.884638" xlink:href="#m7887b85c35" y="331.9344"/>
      </g>
     </g>
     <g id="text_8">
      <!-- 175 -->
      <g transform="translate(294.340888 346.532837)scale(0.1 -0.1)">
       <use xlink:href="#DejaVuSans-31"/>
       <use x="63.623047" xlink:href="#DejaVuSans-37"/>
       <use x="127.246094" xlink:href="#DejaVuSans-35"/>
      </g>
     </g>
    </g>
    <g id="xtick_9">
     <g id="line2d_17">
      <path clip-path="url(#p58d7962f4f)" d="M 335.460015 331.9344 
L 335.460015 109.224 
" style="fill:none;stroke:#b0b0b0;stroke-linecap:square;stroke-width:0.8;"/>
     </g>
     <g id="line2d_18">
      <g>
       <use style="stroke:#000000;stroke-width:0.8;" x="335.460015" xlink:href="#m7887b85c35" y="331.9344"/>
      </g>
     </g>
     <g id="text_9">
      <!-- 200 -->
      <g transform="translate(325.916265 346.532837)scale(0.1 -0.1)">
       <use xlink:href="#DejaVuSans-32"/>
       <use x="63.623047" xlink:href="#DejaVuSans-30"/>
       <use x="127.246094" xlink:href="#DejaVuSans-30"/>
      </g>
     </g>
    </g>
    <g id="text_10">
     <!-- Episodes (x500) -->
     <defs>
      <path d="M 9.8125 72.90625 
L 55.90625 72.90625 
L 55.90625 64.59375 
L 19.671875 64.59375 
L 19.671875 43.015625 
L 54.390625 43.015625 
L 54.390625 34.71875 
L 19.671875 34.71875 
L 19.671875 8.296875 
L 56.78125 8.296875 
L 56.78125 0 
L 9.8125 0 
z
" id="DejaVuSans-45"/>
      <path d="M 18.109375 8.203125 
L 18.109375 -20.796875 
L 9.078125 -20.796875 
L 9.078125 54.6875 
L 18.109375 54.6875 
L 18.109375 46.390625 
Q 20.953125 51.265625 25.265625 53.625 
Q 29.59375 56 35.59375 56 
Q 45.5625 56 51.78125 48.09375 
Q 58.015625 40.1875 58.015625 27.296875 
Q 58.015625 14.40625 51.78125 6.484375 
Q 45.5625 -1.421875 35.59375 -1.421875 
Q 29.59375 -1.421875 25.265625 0.953125 
Q 20.953125 3.328125 18.109375 8.203125 
z
M 48.6875 27.296875 
Q 48.6875 37.203125 44.609375 42.84375 
Q 40.53125 48.484375 33.40625 48.484375 
Q 26.265625 48.484375 22.1875 42.84375 
Q 18.109375 37.203125 18.109375 27.296875 
Q 18.109375 17.390625 22.1875 11.75 
Q 26.265625 6.109375 33.40625 6.109375 
Q 40.53125 6.109375 44.609375 11.75 
Q 48.6875 17.390625 48.6875 27.296875 
z
" id="DejaVuSans-70"/>
      <path d="M 9.421875 54.6875 
L 18.40625 54.6875 
L 18.40625 0 
L 9.421875 0 
z
M 9.421875 75.984375 
L 18.40625 75.984375 
L 18.40625 64.59375 
L 9.421875 64.59375 
z
" id="DejaVuSans-69"/>
      <path d="M 44.28125 53.078125 
L 44.28125 44.578125 
Q 40.484375 46.53125 36.375 47.5 
Q 32.28125 48.484375 27.875 48.484375 
Q 21.1875 48.484375 17.84375 46.4375 
Q 14.5 44.390625 14.5 40.28125 
Q 14.5 37.15625 16.890625 35.375 
Q 19.28125 33.59375 26.515625 31.984375 
L 29.59375 31.296875 
Q 39.15625 29.25 43.1875 25.515625 
Q 47.21875 21.78125 47.21875 15.09375 
Q 47.21875 7.46875 41.1875 3.015625 
Q 35.15625 -1.421875 24.609375 -1.421875 
Q 20.21875 -1.421875 15.453125 -0.5625 
Q 10.6875 0.296875 5.421875 2 
L 5.421875 11.28125 
Q 10.40625 8.6875 15.234375 7.390625 
Q 20.0625 6.109375 24.8125 6.109375 
Q 31.15625 6.109375 34.5625 8.28125 
Q 37.984375 10.453125 37.984375 14.40625 
Q 37.984375 18.0625 35.515625 20.015625 
Q 33.0625 21.96875 24.703125 23.78125 
L 21.578125 24.515625 
Q 13.234375 26.265625 9.515625 29.90625 
Q 5.8125 33.546875 5.8125 39.890625 
Q 5.8125 47.609375 11.28125 51.796875 
Q 16.75 56 26.8125 56 
Q 31.78125 56 36.171875 55.265625 
Q 40.578125 54.546875 44.28125 53.078125 
z
" id="DejaVuSans-73"/>
      <path d="M 30.609375 48.390625 
Q 23.390625 48.390625 19.1875 42.75 
Q 14.984375 37.109375 14.984375 27.296875 
Q 14.984375 17.484375 19.15625 11.84375 
Q 23.34375 6.203125 30.609375 6.203125 
Q 37.796875 6.203125 41.984375 11.859375 
Q 46.1875 17.53125 46.1875 27.296875 
Q 46.1875 37.015625 41.984375 42.703125 
Q 37.796875 48.390625 30.609375 48.390625 
z
M 30.609375 56 
Q 42.328125 56 49.015625 48.375 
Q 55.71875 40.765625 55.71875 27.296875 
Q 55.71875 13.875 49.015625 6.21875 
Q 42.328125 -1.421875 30.609375 -1.421875 
Q 18.84375 -1.421875 12.171875 6.21875 
Q 5.515625 13.875 5.515625 27.296875 
Q 5.515625 40.765625 12.171875 48.375 
Q 18.84375 56 30.609375 56 
z
" id="DejaVuSans-6f"/>
      <path d="M 45.40625 46.390625 
L 45.40625 75.984375 
L 54.390625 75.984375 
L 54.390625 0 
L 45.40625 0 
L 45.40625 8.203125 
Q 42.578125 3.328125 38.25 0.953125 
Q 33.9375 -1.421875 27.875 -1.421875 
Q 17.96875 -1.421875 11.734375 6.484375 
Q 5.515625 14.40625 5.515625 27.296875 
Q 5.515625 40.1875 11.734375 48.09375 
Q 17.96875 56 27.875 56 
Q 33.9375 56 38.25 53.625 
Q 42.578125 51.265625 45.40625 46.390625 
z
M 14.796875 27.296875 
Q 14.796875 17.390625 18.875 11.75 
Q 22.953125 6.109375 30.078125 6.109375 
Q 37.203125 6.109375 41.296875 11.75 
Q 45.40625 17.390625 45.40625 27.296875 
Q 45.40625 37.203125 41.296875 42.84375 
Q 37.203125 48.484375 30.078125 48.484375 
Q 22.953125 48.484375 18.875 42.84375 
Q 14.796875 37.203125 14.796875 27.296875 
z
" id="DejaVuSans-64"/>
      <path d="M 56.203125 29.59375 
L 56.203125 25.203125 
L 14.890625 25.203125 
Q 15.484375 15.921875 20.484375 11.0625 
Q 25.484375 6.203125 34.421875 6.203125 
Q 39.59375 6.203125 44.453125 7.46875 
Q 49.3125 8.734375 54.109375 11.28125 
L 54.109375 2.78125 
Q 49.265625 0.734375 44.1875 -0.34375 
Q 39.109375 -1.421875 33.890625 -1.421875 
Q 20.796875 -1.421875 13.15625 6.1875 
Q 5.515625 13.8125 5.515625 26.8125 
Q 5.515625 40.234375 12.765625 48.109375 
Q 20.015625 56 32.328125 56 
Q 43.359375 56 49.78125 48.890625 
Q 56.203125 41.796875 56.203125 29.59375 
z
M 47.21875 32.234375 
Q 47.125 39.59375 43.09375 43.984375 
Q 39.0625 48.390625 32.421875 48.390625 
Q 24.90625 48.390625 20.390625 44.140625 
Q 15.875 39.890625 15.1875 32.171875 
z
" id="DejaVuSans-65"/>
      <path id="DejaVuSans-20"/>
      <path d="M 31 75.875 
Q 24.46875 64.65625 21.28125 53.65625 
Q 18.109375 42.671875 18.109375 31.390625 
Q 18.109375 20.125 21.3125 9.0625 
Q 24.515625 -2 31 -13.1875 
L 23.1875 -13.1875 
Q 15.875 -1.703125 12.234375 9.375 
Q 8.59375 20.453125 8.59375 31.390625 
Q 8.59375 42.28125 12.203125 53.3125 
Q 15.828125 64.359375 23.1875 75.875 
z
" id="DejaVuSans-28"/>
      <path d="M 54.890625 54.6875 
L 35.109375 28.078125 
L 55.90625 0 
L 45.3125 0 
L 29.390625 21.484375 
L 13.484375 0 
L 2.875 0 
L 24.125 28.609375 
L 4.6875 54.6875 
L 15.28125 54.6875 
L 29.78125 35.203125 
L 44.28125 54.6875 
z
" id="DejaVuSans-78"/>
      <path d="M 8.015625 75.875 
L 15.828125 75.875 
Q 23.140625 64.359375 26.78125 53.3125 
Q 30.421875 42.28125 30.421875 31.390625 
Q 30.421875 20.453125 26.78125 9.375 
Q 23.140625 -1.703125 15.828125 -13.1875 
L 8.015625 -13.1875 
Q 14.5 -2 17.703125 9.0625 
Q 20.90625 20.125 20.90625 31.390625 
Q 20.90625 42.671875 17.703125 53.65625 
Q 14.5 64.65625 8.015625 75.875 
z
" id="DejaVuSans-29"/>
     </defs>
     <g transform="translate(168.291062 360.210962)scale(0.1 -0.1)">
      <use xlink:href="#DejaVuSans-45"/>
      <use x="63.183594" xlink:href="#DejaVuSans-70"/>
      <use x="126.660156" xlink:href="#DejaVuSans-69"/>
      <use x="154.443359" xlink:href="#DejaVuSans-73"/>
      <use x="206.542969" xlink:href="#DejaVuSans-6f"/>
      <use x="267.724609" xlink:href="#DejaVuSans-64"/>
      <use x="331.201172" xlink:href="#DejaVuSans-65"/>
      <use x="392.724609" xlink:href="#DejaVuSans-73"/>
      <use x="444.824219" xlink:href="#DejaVuSans-20"/>
      <use x="476.611328" xlink:href="#DejaVuSans-28"/>
      <use x="515.625" xlink:href="#DejaVuSans-78"/>
      <use x="574.804688" xlink:href="#DejaVuSans-35"/>
      <use x="638.427734" xlink:href="#DejaVuSans-30"/>
      <use x="702.050781" xlink:href="#DejaVuSans-30"/>
      <use x="765.673828" xlink:href="#DejaVuSans-29"/>
     </g>
    </g>
   </g>
   <g id="matplotlib.axis_2">
    <g id="ytick_1">
     <g id="line2d_19">
      <path clip-path="url(#p58d7962f4f)" d="M 70.29 300.418056 
L 346.764 300.418056 
" style="fill:none;stroke:#b0b0b0;stroke-linecap:square;stroke-width:0.8;"/>
     </g>
     <g id="line2d_20">
      <defs>
       <path d="M 0 0 
L -3.5 0 
" id="m65b3ecb8bd" style="stroke:#000000;stroke-width:0.8;"/>
      </defs>
      <g>
       <use style="stroke:#000000;stroke-width:0.8;" x="70.29" xlink:href="#m65b3ecb8bd" y="300.418056"/>
      </g>
     </g>
     <g id="text_11">
      <!-- 80 -->
      <defs>
       <path d="M 10.59375 35.5 
L 73.1875 35.5 
L 73.1875 27.203125 
L 10.59375 27.203125 
z
" id="DejaVuSans-2212"/>
       <path d="M 31.78125 34.625 
Q 24.75 34.625 20.71875 30.859375 
Q 16.703125 27.09375 16.703125 20.515625 
Q 16.703125 13.921875 20.71875 10.15625 
Q 24.75 6.390625 31.78125 6.390625 
Q 38.8125 6.390625 42.859375 10.171875 
Q 46.921875 13.96875 46.921875 20.515625 
Q 46.921875 27.09375 42.890625 30.859375 
Q 38.875 34.625 31.78125 34.625 
z
M 21.921875 38.8125 
Q 15.578125 40.375 12.03125 44.71875 
Q 8.5 49.078125 8.5 55.328125 
Q 8.5 64.0625 14.71875 69.140625 
Q 20.953125 74.21875 31.78125 74.21875 
Q 42.671875 74.21875 48.875 69.140625 
Q 55.078125 64.0625 55.078125 55.328125 
Q 55.078125 49.078125 51.53125 44.71875 
Q 48 40.375 41.703125 38.8125 
Q 48.828125 37.15625 52.796875 32.3125 
Q 56.78125 27.484375 56.78125 20.515625 
Q 56.78125 9.90625 50.3125 4.234375 
Q 43.84375 -1.421875 31.78125 -1.421875 
Q 19.734375 -1.421875 13.25 4.234375 
Q 6.78125 9.90625 6.78125 20.515625 
Q 6.78125 27.484375 10.78125 32.3125 
Q 14.796875 37.15625 21.921875 38.8125 
z
M 18.3125 54.390625 
Q 18.3125 48.734375 21.84375 45.5625 
Q 25.390625 42.390625 31.78125 42.390625 
Q 38.140625 42.390625 41.71875 45.5625 
Q 45.3125 48.734375 45.3125 54.390625 
Q 45.3125 60.0625 41.71875 63.234375 
Q 38.140625 66.40625 31.78125 66.40625 
Q 25.390625 66.40625 21.84375 63.234375 
Q 18.3125 60.0625 18.3125 54.390625 
z
" id="DejaVuSans-38"/>
      </defs>
      <g transform="translate(42.185312 304.217274)scale(0.1 -0.1)">
       <use xlink:href="#DejaVuSans-2212"/>
       <use x="83.789062" xlink:href="#DejaVuSans-38"/>
       <use x="147.412109" xlink:href="#DejaVuSans-30"/>
      </g>
     </g>
    </g>
    <g id="ytick_2">
     <g id="line2d_21">
      <path clip-path="url(#p58d7962f4f)" d="M 70.29 261.619372 
L 346.764 261.619372 
" style="fill:none;stroke:#b0b0b0;stroke-linecap:square;stroke-width:0.8;"/>
     </g>
     <g id="line2d_22">
      <g>
       <use style="stroke:#000000;stroke-width:0.8;" x="70.29" xlink:href="#m65b3ecb8bd" y="261.619372"/>
      </g>
     </g>
     <g id="text_12">
      <!-- 75 -->
      <g transform="translate(42.185312 265.418591)scale(0.1 -0.1)">
       <use xlink:href="#DejaVuSans-2212"/>
       <use x="83.789062" xlink:href="#DejaVuSans-37"/>
       <use x="147.412109" xlink:href="#DejaVuSans-35"/>
      </g>
     </g>
    </g>
    <g id="ytick_3">
     <g id="line2d_23">
      <path clip-path="url(#p58d7962f4f)" d="M 70.29 222.820689 
L 346.764 222.820689 
" style="fill:none;stroke:#b0b0b0;stroke-linecap:square;stroke-width:0.8;"/>
     </g>
     <g id="line2d_24">
      <g>
       <use style="stroke:#000000;stroke-width:0.8;" x="70.29" xlink:href="#m65b3ecb8bd" y="222.820689"/>
      </g>
     </g>
     <g id="text_13">
      <!-- 70 -->
      <g transform="translate(42.185312 226.619908)scale(0.1 -0.1)">
       <use xlink:href="#DejaVuSans-2212"/>
       <use x="83.789062" xlink:href="#DejaVuSans-37"/>
       <use x="147.412109" xlink:href="#DejaVuSans-30"/>
      </g>
     </g>
    </g>
    <g id="ytick_4">
     <g id="line2d_25">
      <path clip-path="url(#p58d7962f4f)" d="M 70.29 184.022006 
L 346.764 184.022006 
" style="fill:none;stroke:#b0b0b0;stroke-linecap:square;stroke-width:0.8;"/>
     </g>
     <g id="line2d_26">
      <g>
       <use style="stroke:#000000;stroke-width:0.8;" x="70.29" xlink:href="#m65b3ecb8bd" y="184.022006"/>
      </g>
     </g>
     <g id="text_14">
      <!-- 65 -->
      <defs>
       <path d="M 33.015625 40.375 
Q 26.375 40.375 22.484375 35.828125 
Q 18.609375 31.296875 18.609375 23.390625 
Q 18.609375 15.53125 22.484375 10.953125 
Q 26.375 6.390625 33.015625 6.390625 
Q 39.65625 6.390625 43.53125 10.953125 
Q 47.40625 15.53125 47.40625 23.390625 
Q 47.40625 31.296875 43.53125 35.828125 
Q 39.65625 40.375 33.015625 40.375 
z
M 52.59375 71.296875 
L 52.59375 62.3125 
Q 48.875 64.0625 45.09375 64.984375 
Q 41.3125 65.921875 37.59375 65.921875 
Q 27.828125 65.921875 22.671875 59.328125 
Q 17.53125 52.734375 16.796875 39.40625 
Q 19.671875 43.65625 24.015625 45.921875 
Q 28.375 48.1875 33.59375 48.1875 
Q 44.578125 48.1875 50.953125 41.515625 
Q 57.328125 34.859375 57.328125 23.390625 
Q 57.328125 12.15625 50.6875 5.359375 
Q 44.046875 -1.421875 33.015625 -1.421875 
Q 20.359375 -1.421875 13.671875 8.265625 
Q 6.984375 17.96875 6.984375 36.375 
Q 6.984375 53.65625 15.1875 63.9375 
Q 23.390625 74.21875 37.203125 74.21875 
Q 40.921875 74.21875 44.703125 73.484375 
Q 48.484375 72.75 52.59375 71.296875 
z
" id="DejaVuSans-36"/>
      </defs>
      <g transform="translate(42.185312 187.821224)scale(0.1 -0.1)">
       <use xlink:href="#DejaVuSans-2212"/>
       <use x="83.789062" xlink:href="#DejaVuSans-36"/>
       <use x="147.412109" xlink:href="#DejaVuSans-35"/>
      </g>
     </g>
    </g>
    <g id="ytick_5">
     <g id="line2d_27">
      <path clip-path="url(#p58d7962f4f)" d="M 70.29 145.223322 
L 346.764 145.223322 
" style="fill:none;stroke:#b0b0b0;stroke-linecap:square;stroke-width:0.8;"/>
     </g>
     <g id="line2d_28">
      <g>
       <use style="stroke:#000000;stroke-width:0.8;" x="70.29" xlink:href="#m65b3ecb8bd" y="145.223322"/>
      </g>
     </g>
     <g id="text_15">
      <!-- 60 -->
      <g transform="translate(42.185312 149.022541)scale(0.1 -0.1)">
       <use xlink:href="#DejaVuSans-2212"/>
       <use x="83.789062" xlink:href="#DejaVuSans-36"/>
       <use x="147.412109" xlink:href="#DejaVuSans-30"/>
      </g>
     </g>
    </g>
    <g id="text_16">
     <!-- Reward -->
     <defs>
      <path d="M 44.390625 34.1875 
Q 47.5625 33.109375 50.5625 29.59375 
Q 53.5625 26.078125 56.59375 19.921875 
L 66.609375 0 
L 56 0 
L 46.6875 18.703125 
Q 43.0625 26.03125 39.671875 28.421875 
Q 36.28125 30.8125 30.421875 30.8125 
L 19.671875 30.8125 
L 19.671875 0 
L 9.8125 0 
L 9.8125 72.90625 
L 32.078125 72.90625 
Q 44.578125 72.90625 50.734375 67.671875 
Q 56.890625 62.453125 56.890625 51.90625 
Q 56.890625 45.015625 53.6875 40.46875 
Q 50.484375 35.9375 44.390625 34.1875 
z
M 19.671875 64.796875 
L 19.671875 38.921875 
L 32.078125 38.921875 
Q 39.203125 38.921875 42.84375 42.21875 
Q 46.484375 45.515625 46.484375 51.90625 
Q 46.484375 58.296875 42.84375 61.546875 
Q 39.203125 64.796875 32.078125 64.796875 
z
" id="DejaVuSans-52"/>
      <path d="M 4.203125 54.6875 
L 13.1875 54.6875 
L 24.421875 12.015625 
L 35.59375 54.6875 
L 46.1875 54.6875 
L 57.421875 12.015625 
L 68.609375 54.6875 
L 77.59375 54.6875 
L 63.28125 0 
L 52.6875 0 
L 40.921875 44.828125 
L 29.109375 0 
L 18.5 0 
z
" id="DejaVuSans-77"/>
      <path d="M 34.28125 27.484375 
Q 23.390625 27.484375 19.1875 25 
Q 14.984375 22.515625 14.984375 16.5 
Q 14.984375 11.71875 18.140625 8.90625 
Q 21.296875 6.109375 26.703125 6.109375 
Q 34.1875 6.109375 38.703125 11.40625 
Q 43.21875 16.703125 43.21875 25.484375 
L 43.21875 27.484375 
z
M 52.203125 31.203125 
L 52.203125 0 
L 43.21875 0 
L 43.21875 8.296875 
Q 40.140625 3.328125 35.546875 0.953125 
Q 30.953125 -1.421875 24.3125 -1.421875 
Q 15.921875 -1.421875 10.953125 3.296875 
Q 6 8.015625 6 15.921875 
Q 6 25.140625 12.171875 29.828125 
Q 18.359375 34.515625 30.609375 34.515625 
L 43.21875 34.515625 
L 43.21875 35.40625 
Q 43.21875 41.609375 39.140625 45 
Q 35.0625 48.390625 27.6875 48.390625 
Q 23 48.390625 18.546875 47.265625 
Q 14.109375 46.140625 10.015625 43.890625 
L 10.015625 52.203125 
Q 14.9375 54.109375 19.578125 55.046875 
Q 24.21875 56 28.609375 56 
Q 40.484375 56 46.34375 49.84375 
Q 52.203125 43.703125 52.203125 31.203125 
z
" id="DejaVuSans-61"/>
      <path d="M 41.109375 46.296875 
Q 39.59375 47.171875 37.8125 47.578125 
Q 36.03125 48 33.890625 48 
Q 26.265625 48 22.1875 43.046875 
Q 18.109375 38.09375 18.109375 28.8125 
L 18.109375 0 
L 9.078125 0 
L 9.078125 54.6875 
L 18.109375 54.6875 
L 18.109375 46.1875 
Q 20.953125 51.171875 25.484375 53.578125 
Q 30.03125 56 36.53125 56 
Q 37.453125 56 38.578125 55.875 
Q 39.703125 55.765625 41.0625 55.515625 
z
" id="DejaVuSans-72"/>
     </defs>
     <g transform="translate(36.105625 239.508887)rotate(-90)scale(0.1 -0.1)">
      <use xlink:href="#DejaVuSans-52"/>
      <use x="69.419922" xlink:href="#DejaVuSans-65"/>
      <use x="130.943359" xlink:href="#DejaVuSans-77"/>
      <use x="212.730469" xlink:href="#DejaVuSans-61"/>
      <use x="274.009766" xlink:href="#DejaVuSans-72"/>
      <use x="315.107422" xlink:href="#DejaVuSans-64"/>
     </g>
    </g>
   </g>
   <g id="line2d_29">
    <path clip-path="url(#p58d7962f4f)" d="M 82.857 202.030251 
L 84.120015 206.226943 
L 85.38303 249.214369 
L 86.646045 221.440434 
L 87.90906 206.604699 
L 89.172075 201.382634 
L 90.43509 199.133727 
L 91.698106 201.470884 
L 92.961121 196.835634 
L 94.224136 197.837013 
L 95.487151 197.835373 
L 96.750166 188.967127 
L 98.013181 197.934971 
L 99.276196 191.326344 
L 100.539211 192.806752 
L 101.802226 199.667527 
L 103.065241 193.38767 
L 104.328256 195.017659 
L 105.591271 195.825518 
L 106.854286 196.301814 
L 108.117302 187.519013 
L 109.380317 190.400189 
L 110.643332 195.447783 
L 111.906347 189.453233 
L 113.169362 188.260711 
L 114.432377 190.331554 
L 115.695392 184.015996 
L 116.958407 189.088072 
L 118.221422 188.576511 
L 119.484437 182.114456 
L 122.010467 178.910831 
L 123.273482 180.820521 
L 124.536497 180.402236 
L 125.799513 179.818663 
L 127.062528 177.433649 
L 128.325543 175.538216 
L 129.588558 176.445378 
L 130.851573 179.236597 
L 132.114588 175.565298 
L 133.377603 178.145188 
L 134.640618 180.18673 
L 135.903633 179.871361 
L 137.166648 175.50287 
L 138.429663 181.777986 
L 140.955693 177.516923 
L 142.218709 179.244034 
L 143.481724 174.904478 
L 144.744739 180.606813 
L 146.007754 174.248295 
L 147.270769 180.032276 
L 148.533784 175.337732 
L 149.796799 172.215872 
L 151.059814 173.079659 
L 152.322829 177.29865 
L 153.585844 175.46833 
L 154.848859 170.066175 
L 156.111874 176.980112 
L 157.374889 179.02524 
L 158.637905 176.867582 
L 159.90092 169.186235 
L 161.163935 180.268781 
L 162.42695 173.153506 
L 163.689965 169.091253 
L 164.95298 176.46067 
L 166.215995 176.049712 
L 167.47901 172.006342 
L 168.742025 174.765763 
L 170.00504 171.313124 
L 171.268055 175.059466 
L 172.53107 174.576189 
L 173.794085 170.183946 
L 175.057101 174.870431 
L 176.320116 166.836078 
L 177.583131 174.522366 
L 178.846146 173.182912 
L 180.109161 172.633155 
L 181.372176 168.036391 
L 182.635191 175.891095 
L 183.898206 166.104661 
L 185.161221 168.946906 
L 186.424236 169.362969 
L 187.687251 169.241328 
L 188.950266 161.169657 
L 190.213281 164.689487 
L 192.739312 167.175965 
L 194.002327 164.852719 
L 195.265342 163.338094 
L 196.528357 164.334361 
L 197.791372 164.041308 
L 199.054387 165.272053 
L 200.317402 167.739527 
L 201.580417 162.023886 
L 202.843432 164.116221 
L 204.106447 163.260996 
L 205.369462 161.897808 
L 206.632477 163.690612 
L 207.895492 165.939249 
L 209.158508 158.242468 
L 210.421523 163.181828 
L 211.684538 164.447168 
L 212.947553 162.401332 
L 214.210568 167.56766 
L 215.473583 161.872773 
L 217.999613 159.362726 
L 219.262628 163.141644 
L 220.525643 160.646312 
L 221.788658 160.76 
L 223.051673 162.779704 
L 224.314688 159.595647 
L 225.577704 156.899347 
L 226.840719 159.020874 
L 228.103734 159.461078 
L 229.366749 161.522891 
L 230.629764 158.954546 
L 231.892779 160.630325 
L 233.155794 163.08616 
L 234.418809 163.249603 
L 236.944839 155.294192 
L 238.207854 155.384762 
L 239.470869 157.975888 
L 240.733884 161.267694 
L 241.996899 156.495372 
L 243.259915 154.28042 
L 244.52293 157.19541 
L 245.785945 158.12891 
L 247.04896 155.348382 
L 248.311975 161.437521 
L 249.57499 158.310676 
L 250.838005 157.260448 
L 252.10102 160.799397 
L 253.364035 161.358684 
L 254.62705 156.350653 
L 255.890065 154.827597 
L 257.15308 152.435691 
L 258.416095 158.181384 
L 259.679111 162.319028 
L 260.942126 150.856923 
L 262.205141 155.570082 
L 263.468156 153.096694 
L 264.731171 156.901452 
L 265.994186 157.877925 
L 267.257201 159.599551 
L 268.520216 154.310535 
L 269.783231 146.835444 
L 271.046246 153.057927 
L 272.309261 155.97736 
L 273.572276 153.488377 
L 274.835291 154.683524 
L 276.098307 153.449617 
L 277.361322 155.740928 
L 278.624337 160.537876 
L 279.887352 161.992809 
L 281.150367 155.148489 
L 282.413382 154.376419 
L 283.676397 159.977757 
L 284.939412 154.431088 
L 286.202427 157.270621 
L 287.465442 152.845396 
L 288.728457 157.983537 
L 289.991472 156.639167 
L 291.254487 158.610899 
L 292.517503 155.027247 
L 293.780518 156.953449 
L 295.043533 154.568772 
L 296.306548 154.279219 
L 297.569563 151.2087 
L 298.832578 154.407105 
L 300.095593 156.633575 
L 301.358608 150.450664 
L 302.621623 150.420836 
L 303.884638 156.354584 
L 305.147653 154.075438 
L 306.410668 152.904155 
L 307.673683 158.245728 
L 308.936698 155.736628 
L 310.199714 155.978161 
L 311.462729 150.946987 
L 312.725744 152.938565 
L 313.988759 148.503889 
L 315.251774 156.063381 
L 316.514789 158.452734 
L 317.777804 151.948087 
L 319.040819 154.42695 
L 320.303834 150.729924 
L 321.566849 152.880662 
L 322.829864 148.507418 
L 324.092879 149.293015 
L 325.355894 151.765371 
L 326.61891 153.825484 
L 327.881925 150.246107 
L 329.14494 150.851227 
L 330.407955 152.480501 
L 331.67097 144.576778 
L 332.933985 152.134957 
L 334.197 150.406734 
L 334.197 150.406734 
" style="fill:none;stroke:#396ab1;stroke-linecap:square;"/>
   </g>
   <g id="line2d_30">
    <path clip-path="url(#p58d7962f4f)" d="M 82.857 205.752152 
L 84.120015 200.400151 
L 85.38303 264.921026 
L 86.646045 216.100181 
L 87.90906 212.593973 
L 89.172075 198.255263 
L 90.43509 198.021037 
L 92.961121 192.466358 
L 94.224136 191.915421 
L 95.487151 188.710009 
L 96.750166 197.047333 
L 98.013181 198.344537 
L 99.276196 196.045995 
L 100.539211 194.987668 
L 101.802226 202.504157 
L 103.065241 195.774458 
L 104.328256 192.850802 
L 105.591271 193.533716 
L 106.854286 195.343651 
L 108.117302 191.547191 
L 109.380317 194.863222 
L 110.643332 187.517911 
L 111.906347 186.919466 
L 113.169362 188.272925 
L 114.432377 182.680347 
L 115.695392 187.023079 
L 116.958407 183.840634 
L 118.221422 183.487322 
L 119.484437 181.727758 
L 120.747452 181.719981 
L 122.010467 184.34068 
L 123.273482 178.901243 
L 124.536497 180.308634 
L 127.062528 174.521486 
L 128.325543 176.422516 
L 129.588558 171.40955 
L 130.851573 175.354064 
L 132.114588 174.446016 
L 133.377603 174.355599 
L 134.640618 174.070185 
L 135.903633 178.933163 
L 137.166648 171.811721 
L 138.429663 171.806865 
L 139.692678 177.536927 
L 140.955693 180.518546 
L 142.218709 172.648282 
L 143.481724 173.825857 
L 144.744739 178.642583 
L 146.007754 174.907685 
L 147.270769 172.662536 
L 148.533784 179.206578 
L 149.796799 171.479661 
L 151.059814 176.360181 
L 152.322829 171.099229 
L 153.585844 171.778013 
L 154.848859 172.104739 
L 156.111874 177.64595 
L 157.374889 175.483422 
L 158.637905 169.698163 
L 159.90092 175.52883 
L 161.163935 174.503241 
L 162.42695 172.811951 
L 163.689965 166.974533 
L 164.95298 175.019249 
L 166.215995 169.774753 
L 167.47901 171.969538 
L 168.742025 167.900737 
L 170.00504 168.734583 
L 171.268055 168.57553 
L 172.53107 170.728554 
L 173.794085 169.968551 
L 175.057101 170.042612 
L 176.320116 172.491857 
L 177.583131 173.797622 
L 178.846146 166.744708 
L 180.109161 172.031328 
L 181.372176 173.605123 
L 183.898206 165.543622 
L 185.161221 169.261186 
L 186.424236 165.676756 
L 187.687251 169.980341 
L 188.950266 169.444147 
L 190.213281 169.097862 
L 191.476296 165.746825 
L 192.739312 170.037506 
L 194.002327 166.509555 
L 195.265342 171.336039 
L 197.791372 166.856878 
L 199.054387 168.343226 
L 200.317402 168.478536 
L 201.580417 165.258672 
L 202.843432 166.600938 
L 204.106447 162.347621 
L 205.369462 164.241596 
L 206.632477 171.749105 
L 207.895492 166.46213 
L 209.158508 166.978298 
L 210.421523 166.71607 
L 211.684538 163.577196 
L 212.947553 164.899146 
L 214.210568 169.612362 
L 215.473583 168.393828 
L 216.736598 173.142574 
L 217.999613 165.254985 
L 219.262628 167.746334 
L 220.525643 165.733111 
L 221.788658 168.904307 
L 223.051673 168.797125 
L 224.314688 160.271483 
L 225.577704 165.497866 
L 226.840719 167.287166 
L 228.103734 164.471222 
L 229.366749 165.091347 
L 230.629764 162.936852 
L 231.892779 166.86562 
L 233.155794 162.911873 
L 234.418809 163.860506 
L 235.681824 165.092923 
L 236.944839 168.13821 
L 238.207854 166.357131 
L 239.470869 163.414748 
L 240.733884 164.117698 
L 241.996899 166.660621 
L 243.259915 168.027126 
L 244.52293 162.41745 
L 245.785945 161.180387 
L 247.04896 168.484432 
L 248.311975 161.445604 
L 249.57499 164.338259 
L 252.10102 161.852573 
L 253.364035 160.80994 
L 254.62705 163.04522 
L 255.890065 162.386432 
L 257.15308 162.598973 
L 258.416095 162.624148 
L 259.679111 165.063069 
L 260.942126 161.971719 
L 262.205141 162.246333 
L 263.468156 160.626335 
L 264.731171 165.485183 
L 265.994186 161.47135 
L 267.257201 161.480552 
L 268.520216 163.817733 
L 271.046246 162.485122 
L 272.309261 160.85488 
L 273.572276 164.715465 
L 274.835291 161.803506 
L 276.098307 165.014537 
L 277.361322 164.672094 
L 278.624337 161.924119 
L 279.887352 161.647772 
L 281.150367 159.552755 
L 282.413382 161.241387 
L 283.676397 164.276426 
L 284.939412 162.659794 
L 286.202427 160.575483 
L 287.465442 160.24991 
L 288.728457 166.500102 
L 289.991472 161.249616 
L 291.254487 157.107845 
L 292.517503 166.412707 
L 293.780518 160.167733 
L 295.043533 162.305785 
L 296.306548 160.219444 
L 297.569563 159.521155 
L 298.832578 159.827426 
L 300.095593 161.467169 
L 301.358608 164.731382 
L 302.621623 160.007333 
L 303.884638 161.372587 
L 305.147653 160.440436 
L 306.410668 165.121951 
L 307.673683 161.415743 
L 308.936698 162.343921 
L 310.199714 161.110849 
L 311.462729 165.659002 
L 312.725744 161.731665 
L 313.988759 160.734824 
L 315.251774 162.222309 
L 316.514789 159.698176 
L 317.777804 163.376533 
L 319.040819 158.89479 
L 320.303834 157.819781 
L 321.566849 162.588914 
L 322.829864 163.332705 
L 324.092879 158.422635 
L 325.355894 155.889 
L 326.61891 164.550282 
L 327.881925 162.207401 
L 329.14494 159.576369 
L 330.407955 160.21265 
L 331.67097 158.09469 
L 332.933985 160.453784 
L 334.197 156.275214 
L 334.197 156.275214 
" style="fill:none;stroke:#da7c30;stroke-linecap:square;"/>
   </g>
   <g id="line2d_31">
    <path clip-path="url(#p58d7962f4f)" d="M 82.857 206.032224 
L 84.120015 203.196226 
L 85.38303 235.595669 
L 86.646045 216.234763 
L 87.90906 207.107602 
L 89.172075 205.273997 
L 90.43509 204.202694 
L 91.698106 206.791785 
L 92.961121 206.555994 
L 94.224136 208.764841 
L 95.487151 213.249431 
L 96.750166 201.470702 
L 98.013181 211.340562 
L 99.276196 206.911126 
L 100.539211 212.970235 
L 101.802226 211.775603 
L 103.065241 206.627505 
L 104.328256 208.481128 
L 105.591271 209.00126 
L 106.854286 205.601321 
L 108.117302 202.770141 
L 109.380317 207.874299 
L 110.643332 209.121735 
L 111.906347 199.957038 
L 113.169362 200.168675 
L 114.432377 199.558593 
L 115.695392 198.060204 
L 116.958407 199.430717 
L 118.221422 197.925683 
L 119.484437 190.398123 
L 120.747452 187.264727 
L 122.010467 187.762879 
L 123.273482 193.229031 
L 124.536497 189.442058 
L 125.799513 190.136587 
L 127.062528 186.816191 
L 128.325543 182.351913 
L 129.588558 188.706916 
L 130.851573 181.12692 
L 132.114588 185.5093 
L 133.377603 184.516927 
L 134.640618 184.138997 
L 135.903633 189.105799 
L 138.429663 184.419038 
L 139.692678 184.111208 
L 140.955693 187.426564 
L 142.218709 182.817819 
L 143.481724 184.853436 
L 144.744739 184.872435 
L 146.007754 180.758002 
L 147.270769 181.307694 
L 148.533784 182.066728 
L 149.796799 176.958579 
L 151.059814 184.188134 
L 152.322829 178.824674 
L 153.585844 180.759955 
L 154.848859 177.562497 
L 156.111874 183.449684 
L 158.637905 184.588726 
L 159.90092 176.055225 
L 161.163935 180.12242 
L 162.42695 181.74069 
L 164.95298 173.71427 
L 166.215995 177.576317 
L 167.47901 176.72929 
L 168.742025 178.25292 
L 170.00504 179.223813 
L 171.268055 178.011733 
L 172.53107 176.127324 
L 173.794085 174.469352 
L 175.057101 176.500209 
L 176.320116 177.836268 
L 177.583131 182.829696 
L 178.846146 175.40379 
L 180.109161 177.47015 
L 181.372176 175.844951 
L 182.635191 182.492647 
L 183.898206 176.206398 
L 185.161221 175.903629 
L 186.424236 178.890106 
L 187.687251 177.830136 
L 188.950266 177.523575 
L 190.213281 179.931354 
L 191.476296 172.896914 
L 192.739312 177.323471 
L 194.002327 180.816305 
L 195.265342 177.944301 
L 196.528357 178.96529 
L 197.791372 179.617303 
L 199.054387 176.76851 
L 200.317402 176.60993 
L 201.580417 171.107206 
L 202.843432 178.736393 
L 204.106447 180.030265 
L 205.369462 178.706305 
L 206.632477 176.411852 
L 207.895492 179.604467 
L 209.158508 176.704524 
L 210.421523 177.015611 
L 211.684538 176.047759 
L 212.947553 171.64865 
L 214.210568 176.479566 
L 215.473583 170.693238 
L 216.736598 179.925527 
L 217.999613 172.870849 
L 219.262628 175.83643 
L 220.525643 173.955754 
L 221.788658 173.155664 
L 223.051673 172.847061 
L 224.314688 172.654354 
L 225.577704 173.923046 
L 226.840719 179.564833 
L 228.103734 181.271052 
L 229.366749 177.244748 
L 230.629764 174.775935 
L 231.892779 174.326928 
L 233.155794 178.486473 
L 234.418809 174.232164 
L 235.681824 175.354899 
L 236.944839 170.807868 
L 238.207854 173.960694 
L 239.470869 174.837515 
L 240.733884 172.028047 
L 241.996899 174.012947 
L 243.259915 174.294206 
L 244.52293 176.156753 
L 245.785945 171.186689 
L 247.04896 173.851566 
L 248.311975 179.930996 
L 249.57499 173.23718 
L 250.838005 169.780064 
L 252.10102 170.571999 
L 253.364035 176.407772 
L 254.62705 166.731656 
L 255.890065 175.21782 
L 257.15308 171.63779 
L 258.416095 173.491491 
L 259.679111 178.319613 
L 260.942126 174.063636 
L 262.205141 173.8807 
L 263.468156 171.621269 
L 264.731171 174.614136 
L 265.994186 171.546897 
L 267.257201 171.661598 
L 268.520216 172.468278 
L 269.783231 169.918476 
L 272.309261 174.882437 
L 273.572276 171.179443 
L 274.835291 173.664083 
L 276.098307 170.475066 
L 277.361322 172.180798 
L 278.624337 172.072045 
L 279.887352 175.816073 
L 281.150367 170.45117 
L 282.413382 175.225985 
L 283.676397 176.060962 
L 284.939412 173.884466 
L 286.202427 172.783272 
L 287.465442 172.845971 
L 288.728457 171.374028 
L 289.991472 173.117644 
L 291.254487 172.58022 
L 292.517503 171.275904 
L 293.780518 173.679428 
L 295.043533 175.82737 
L 296.306548 168.01542 
L 297.569563 169.14195 
L 298.832578 168.030466 
L 300.095593 174.80071 
L 301.358608 170.148722 
L 302.621623 167.772456 
L 303.884638 172.056335 
L 305.147653 169.474179 
L 306.410668 173.98897 
L 307.673683 172.41273 
L 308.936698 176.991317 
L 310.199714 170.136089 
L 311.462729 167.25885 
L 312.725744 173.82239 
L 313.988759 168.028999 
L 315.251774 173.603565 
L 316.514789 172.443655 
L 317.777804 168.253003 
L 319.040819 170.092119 
L 320.303834 165.670873 
L 321.566849 172.799721 
L 322.829864 166.458667 
L 324.092879 163.036738 
L 325.355894 166.487504 
L 326.61891 170.294897 
L 327.881925 176.908682 
L 329.14494 169.781659 
L 330.407955 170.904211 
L 331.67097 167.629831 
L 332.933985 171.572252 
L 334.197 170.961562 
L 334.197 170.961562 
" style="fill:none;stroke:#3e9651;stroke-linecap:square;"/>
   </g>
   <g id="line2d_32">
    <path clip-path="url(#p58d7962f4f)" d="M 82.857 201.030712 
L 84.120015 208.793785 
L 85.38303 265.30041 
L 86.646045 210.625742 
L 87.90906 208.681918 
L 89.172075 202.178099 
L 90.43509 201.197185 
L 91.698106 205.936757 
L 92.961121 206.468124 
L 94.224136 207.185825 
L 95.487151 199.320134 
L 96.750166 207.27567 
L 98.013181 208.288628 
L 99.276196 205.312035 
L 100.539211 205.0441 
L 101.802226 207.208546 
L 103.065241 206.344341 
L 104.328256 210.481638 
L 105.591271 210.022633 
L 106.854286 214.78533 
L 108.117302 201.735968 
L 109.380317 201.377751 
L 110.643332 200.812433 
L 111.906347 197.397376 
L 113.169362 203.486008 
L 114.432377 200.816785 
L 115.695392 194.567473 
L 116.958407 197.504346 
L 118.221422 197.146491 
L 119.484437 188.393688 
L 120.747452 190.637323 
L 122.010467 192.189328 
L 123.273482 195.874749 
L 124.536497 192.599804 
L 125.799513 192.359161 
L 127.062528 190.839696 
L 128.325543 185.443055 
L 129.588558 183.624943 
L 130.851573 190.82791 
L 132.114588 183.381809 
L 133.377603 189.418285 
L 134.640618 190.847956 
L 135.903633 184.568068 
L 137.166648 189.649759 
L 138.429663 192.095545 
L 139.692678 190.76691 
L 140.955693 189.753622 
L 142.218709 190.703689 
L 143.481724 190.165873 
L 144.744739 186.007536 
L 146.007754 183.312396 
L 147.270769 185.6764 
L 148.533784 189.821699 
L 149.796799 186.951214 
L 151.059814 186.089837 
L 152.322829 181.960103 
L 153.585844 186.494227 
L 154.848859 183.076282 
L 156.111874 185.469638 
L 157.374889 187.2362 
L 158.637905 189.70361 
L 159.90092 182.956982 
L 161.163935 189.455952 
L 162.42695 187.396298 
L 163.689965 188.328945 
L 164.95298 185.106817 
L 166.215995 184.312112 
L 167.47901 184.281643 
L 168.742025 186.358921 
L 170.00504 181.087041 
L 171.268055 187.639273 
L 172.53107 181.718925 
L 175.057101 185.649287 
L 176.320116 190.733055 
L 177.583131 187.239247 
L 178.846146 180.158636 
L 180.109161 181.194751 
L 181.372176 185.270142 
L 182.635191 186.110601 
L 183.898206 179.403254 
L 185.161221 183.396531 
L 186.424236 184.68936 
L 188.950266 177.727674 
L 190.213281 177.70991 
L 191.476296 175.807686 
L 192.739312 186.341428 
L 194.002327 180.274796 
L 195.265342 181.867504 
L 196.528357 178.377833 
L 197.791372 179.013977 
L 199.054387 183.018959 
L 200.317402 179.502299 
L 201.580417 177.828325 
L 202.843432 182.137468 
L 204.106447 180.751463 
L 205.369462 181.823158 
L 206.632477 182.075506 
L 207.895492 180.015326 
L 209.158508 180.648112 
L 210.421523 179.931114 
L 211.684538 176.281128 
L 212.947553 175.293963 
L 214.210568 183.301476 
L 215.473583 179.956037 
L 216.736598 180.758487 
L 217.999613 175.858352 
L 219.262628 183.034507 
L 220.525643 177.690062 
L 221.788658 179.34964 
L 223.051673 175.23464 
L 224.314688 182.653517 
L 225.577704 176.486031 
L 226.840719 183.30958 
L 228.103734 176.04885 
L 229.366749 175.071093 
L 230.629764 176.146922 
L 231.892779 180.187347 
L 233.155794 175.555406 
L 234.418809 179.742346 
L 235.681824 173.644307 
L 236.944839 173.370065 
L 238.207854 177.487986 
L 239.470869 175.416499 
L 240.733884 178.706795 
L 241.996899 179.639784 
L 244.52293 176.473002 
L 245.785945 174.436641 
L 247.04896 178.776101 
L 248.311975 180.205376 
L 249.57499 179.56023 
L 250.838005 174.488218 
L 252.10102 176.029817 
L 253.364035 179.286464 
L 254.62705 175.622943 
L 255.890065 174.581134 
L 257.15308 177.693616 
L 258.416095 176.005628 
L 259.679111 180.316726 
L 260.942126 171.999653 
L 262.205141 178.719525 
L 263.468156 181.045404 
L 264.731171 181.121075 
L 265.994186 178.646439 
L 267.257201 181.626784 
L 268.520216 175.458151 
L 269.783231 174.074151 
L 271.046246 173.581702 
L 272.309261 183.098053 
L 273.572276 176.049545 
L 274.835291 175.629109 
L 276.098307 179.108053 
L 277.361322 178.698216 
L 278.624337 179.095937 
L 279.887352 182.874202 
L 281.150367 173.000641 
L 282.413382 174.978254 
L 283.676397 180.317989 
L 284.939412 178.474234 
L 286.202427 179.334152 
L 287.465442 179.652749 
L 288.728457 178.412196 
L 289.991472 181.498349 
L 291.254487 177.24338 
L 292.517503 180.524189 
L 293.780518 176.632515 
L 295.043533 180.638539 
L 296.306548 176.539651 
L 297.569563 181.341253 
L 298.832578 178.778081 
L 300.095593 177.160392 
L 301.358608 167.154812 
L 302.621623 176.007419 
L 303.884638 180.32947 
L 305.147653 182.22136 
L 307.673683 170.917288 
L 308.936698 176.516831 
L 310.199714 173.706135 
L 311.462729 179.810812 
L 312.725744 180.822479 
L 313.988759 179.807181 
L 315.251774 176.572488 
L 316.514789 180.197693 
L 317.777804 177.574145 
L 319.040819 178.312451 
L 320.303834 174.617855 
L 321.566849 181.099631 
L 322.829864 177.952548 
L 324.092879 178.710889 
L 325.355894 178.991542 
L 326.61891 181.323705 
L 327.881925 180.678948 
L 329.14494 178.543 
L 330.407955 174.614292 
L 331.67097 175.109791 
L 332.933985 175.441964 
L 334.197 176.305177 
L 334.197 176.305177 
" style="fill:none;stroke:#cc2529;stroke-linecap:square;"/>
   </g>
   <g id="patch_3">
    <path d="M 70.29 331.9344 
L 70.29 109.224 
" style="fill:none;stroke:#000000;stroke-linecap:square;stroke-linejoin:miter;stroke-width:0.8;"/>
   </g>
   <g id="patch_4">
    <path d="M 346.764 331.9344 
L 346.764 109.224 
" style="fill:none;stroke:#000000;stroke-linecap:square;stroke-linejoin:miter;stroke-width:0.8;"/>
   </g>
   <g id="patch_5">
    <path d="M 70.29 331.9344 
L 346.764 331.9344 
" style="fill:none;stroke:#000000;stroke-linecap:square;stroke-linejoin:miter;stroke-width:0.8;"/>
   </g>
   <g id="patch_6">
    <path d="M 70.29 109.224 
L 346.764 109.224 
" style="fill:none;stroke:#000000;stroke-linecap:square;stroke-linejoin:miter;stroke-width:0.8;"/>
   </g>
   <g id="legend_1">
    <g id="patch_7">
     <path d="M 220.212437 326.9344 
L 339.764 326.9344 
Q 341.764 326.9344 341.764 324.9344 
L 341.764 267.2219 
Q 341.764 265.2219 339.764 265.2219 
L 220.212437 265.2219 
Q 218.212437 265.2219 218.212437 267.2219 
L 218.212437 324.9344 
Q 218.212437 326.9344 220.212437 326.9344 
z
" style="fill:#ffffff;opacity:0.8;stroke:#cccccc;stroke-linejoin:miter;"/>
    </g>
    <g id="line2d_33">
     <path d="M 222.212437 273.320337 
L 242.212437 273.320337 
" style="fill:none;stroke:#396ab1;stroke-linecap:square;"/>
    </g>
    <g id="line2d_34"/>
    <g id="text_17">
     <!-- agent 1 (Team A) -->
     <defs>
      <path d="M 45.40625 27.984375 
Q 45.40625 37.75 41.375 43.109375 
Q 37.359375 48.484375 30.078125 48.484375 
Q 22.859375 48.484375 18.828125 43.109375 
Q 14.796875 37.75 14.796875 27.984375 
Q 14.796875 18.265625 18.828125 12.890625 
Q 22.859375 7.515625 30.078125 7.515625 
Q 37.359375 7.515625 41.375 12.890625 
Q 45.40625 18.265625 45.40625 27.984375 
z
M 54.390625 6.78125 
Q 54.390625 -7.171875 48.1875 -13.984375 
Q 42 -20.796875 29.203125 -20.796875 
Q 24.46875 -20.796875 20.265625 -20.09375 
Q 16.0625 -19.390625 12.109375 -17.921875 
L 12.109375 -9.1875 
Q 16.0625 -11.328125 19.921875 -12.34375 
Q 23.78125 -13.375 27.78125 -13.375 
Q 36.625 -13.375 41.015625 -8.765625 
Q 45.40625 -4.15625 45.40625 5.171875 
L 45.40625 9.625 
Q 42.625 4.78125 38.28125 2.390625 
Q 33.9375 0 27.875 0 
Q 17.828125 0 11.671875 7.65625 
Q 5.515625 15.328125 5.515625 27.984375 
Q 5.515625 40.671875 11.671875 48.328125 
Q 17.828125 56 27.875 56 
Q 33.9375 56 38.28125 53.609375 
Q 42.625 51.21875 45.40625 46.390625 
L 45.40625 54.6875 
L 54.390625 54.6875 
z
" id="DejaVuSans-67"/>
      <path d="M 54.890625 33.015625 
L 54.890625 0 
L 45.90625 0 
L 45.90625 32.71875 
Q 45.90625 40.484375 42.875 44.328125 
Q 39.84375 48.1875 33.796875 48.1875 
Q 26.515625 48.1875 22.3125 43.546875 
Q 18.109375 38.921875 18.109375 30.90625 
L 18.109375 0 
L 9.078125 0 
L 9.078125 54.6875 
L 18.109375 54.6875 
L 18.109375 46.1875 
Q 21.34375 51.125 25.703125 53.5625 
Q 30.078125 56 35.796875 56 
Q 45.21875 56 50.046875 50.171875 
Q 54.890625 44.34375 54.890625 33.015625 
z
" id="DejaVuSans-6e"/>
      <path d="M 18.3125 70.21875 
L 18.3125 54.6875 
L 36.8125 54.6875 
L 36.8125 47.703125 
L 18.3125 47.703125 
L 18.3125 18.015625 
Q 18.3125 11.328125 20.140625 9.421875 
Q 21.96875 7.515625 27.59375 7.515625 
L 36.8125 7.515625 
L 36.8125 0 
L 27.59375 0 
Q 17.1875 0 13.234375 3.875 
Q 9.28125 7.765625 9.28125 18.015625 
L 9.28125 47.703125 
L 2.6875 47.703125 
L 2.6875 54.6875 
L 9.28125 54.6875 
L 9.28125 70.21875 
z
" id="DejaVuSans-74"/>
      <path d="M -0.296875 72.90625 
L 61.375 72.90625 
L 61.375 64.59375 
L 35.5 64.59375 
L 35.5 0 
L 25.59375 0 
L 25.59375 64.59375 
L -0.296875 64.59375 
z
" id="DejaVuSans-54"/>
      <path d="M 52 44.1875 
Q 55.375 50.25 60.0625 53.125 
Q 64.75 56 71.09375 56 
Q 79.640625 56 84.28125 50.015625 
Q 88.921875 44.046875 88.921875 33.015625 
L 88.921875 0 
L 79.890625 0 
L 79.890625 32.71875 
Q 79.890625 40.578125 77.09375 44.375 
Q 74.3125 48.1875 68.609375 48.1875 
Q 61.625 48.1875 57.5625 43.546875 
Q 53.515625 38.921875 53.515625 30.90625 
L 53.515625 0 
L 44.484375 0 
L 44.484375 32.71875 
Q 44.484375 40.625 41.703125 44.40625 
Q 38.921875 48.1875 33.109375 48.1875 
Q 26.21875 48.1875 22.15625 43.53125 
Q 18.109375 38.875 18.109375 30.90625 
L 18.109375 0 
L 9.078125 0 
L 9.078125 54.6875 
L 18.109375 54.6875 
L 18.109375 46.1875 
Q 21.1875 51.21875 25.484375 53.609375 
Q 29.78125 56 35.6875 56 
Q 41.65625 56 45.828125 52.96875 
Q 50 49.953125 52 44.1875 
z
" id="DejaVuSans-6d"/>
      <path d="M 34.1875 63.1875 
L 20.796875 26.90625 
L 47.609375 26.90625 
z
M 28.609375 72.90625 
L 39.796875 72.90625 
L 67.578125 0 
L 57.328125 0 
L 50.6875 18.703125 
L 17.828125 18.703125 
L 11.1875 0 
L 0.78125 0 
z
" id="DejaVuSans-41"/>
     </defs>
     <g transform="translate(250.212437 276.820337)scale(0.1 -0.1)">
      <use xlink:href="#DejaVuSans-61"/>
      <use x="61.279297" xlink:href="#DejaVuSans-67"/>
      <use x="124.755859" xlink:href="#DejaVuSans-65"/>
      <use x="186.279297" xlink:href="#DejaVuSans-6e"/>
      <use x="249.658203" xlink:href="#DejaVuSans-74"/>
      <use x="288.867188" xlink:href="#DejaVuSans-20"/>
      <use x="320.654297" xlink:href="#DejaVuSans-31"/>
      <use x="384.277344" xlink:href="#DejaVuSans-20"/>
      <use x="416.064453" xlink:href="#DejaVuSans-28"/>
      <use x="455.078125" xlink:href="#DejaVuSans-54"/>
      <use x="515.896484" xlink:href="#DejaVuSans-65"/>
      <use x="577.419922" xlink:href="#DejaVuSans-61"/>
      <use x="638.699219" xlink:href="#DejaVuSans-6d"/>
      <use x="736.111328" xlink:href="#DejaVuSans-20"/>
      <use x="767.898438" xlink:href="#DejaVuSans-41"/>
      <use x="836.306641" xlink:href="#DejaVuSans-29"/>
     </g>
    </g>
    <g id="line2d_35">
     <path d="M 222.212437 287.998462 
L 242.212437 287.998462 
" style="fill:none;stroke:#da7c30;stroke-linecap:square;"/>
    </g>
    <g id="line2d_36"/>
    <g id="text_18">
     <!-- agent 2 (Team A) -->
     <g transform="translate(250.212437 291.498462)scale(0.1 -0.1)">
      <use xlink:href="#DejaVuSans-61"/>
      <use x="61.279297" xlink:href="#DejaVuSans-67"/>
      <use x="124.755859" xlink:href="#DejaVuSans-65"/>
      <use x="186.279297" xlink:href="#DejaVuSans-6e"/>
      <use x="249.658203" xlink:href="#DejaVuSans-74"/>
      <use x="288.867188" xlink:href="#DejaVuSans-20"/>
      <use x="320.654297" xlink:href="#DejaVuSans-32"/>
      <use x="384.277344" xlink:href="#DejaVuSans-20"/>
      <use x="416.064453" xlink:href="#DejaVuSans-28"/>
      <use x="455.078125" xlink:href="#DejaVuSans-54"/>
      <use x="515.896484" xlink:href="#DejaVuSans-65"/>
      <use x="577.419922" xlink:href="#DejaVuSans-61"/>
      <use x="638.699219" xlink:href="#DejaVuSans-6d"/>
      <use x="736.111328" xlink:href="#DejaVuSans-20"/>
      <use x="767.898438" xlink:href="#DejaVuSans-41"/>
      <use x="836.306641" xlink:href="#DejaVuSans-29"/>
     </g>
    </g>
    <g id="line2d_37">
     <path d="M 222.212437 302.676587 
L 242.212437 302.676587 
" style="fill:none;stroke:#3e9651;stroke-linecap:square;"/>
    </g>
    <g id="line2d_38"/>
    <g id="text_19">
     <!-- agent 3 (Team B) -->
     <defs>
      <path d="M 40.578125 39.3125 
Q 47.65625 37.796875 51.625 33 
Q 55.609375 28.21875 55.609375 21.1875 
Q 55.609375 10.40625 48.1875 4.484375 
Q 40.765625 -1.421875 27.09375 -1.421875 
Q 22.515625 -1.421875 17.65625 -0.515625 
Q 12.796875 0.390625 7.625 2.203125 
L 7.625 11.71875 
Q 11.71875 9.328125 16.59375 8.109375 
Q 21.484375 6.890625 26.8125 6.890625 
Q 36.078125 6.890625 40.9375 10.546875 
Q 45.796875 14.203125 45.796875 21.1875 
Q 45.796875 27.640625 41.28125 31.265625 
Q 36.765625 34.90625 28.71875 34.90625 
L 20.21875 34.90625 
L 20.21875 43.015625 
L 29.109375 43.015625 
Q 36.375 43.015625 40.234375 45.921875 
Q 44.09375 48.828125 44.09375 54.296875 
Q 44.09375 59.90625 40.109375 62.90625 
Q 36.140625 65.921875 28.71875 65.921875 
Q 24.65625 65.921875 20.015625 65.03125 
Q 15.375 64.15625 9.8125 62.3125 
L 9.8125 71.09375 
Q 15.4375 72.65625 20.34375 73.4375 
Q 25.25 74.21875 29.59375 74.21875 
Q 40.828125 74.21875 47.359375 69.109375 
Q 53.90625 64.015625 53.90625 55.328125 
Q 53.90625 49.265625 50.4375 45.09375 
Q 46.96875 40.921875 40.578125 39.3125 
z
" id="DejaVuSans-33"/>
      <path d="M 19.671875 34.8125 
L 19.671875 8.109375 
L 35.5 8.109375 
Q 43.453125 8.109375 47.28125 11.40625 
Q 51.125 14.703125 51.125 21.484375 
Q 51.125 28.328125 47.28125 31.5625 
Q 43.453125 34.8125 35.5 34.8125 
z
M 19.671875 64.796875 
L 19.671875 42.828125 
L 34.28125 42.828125 
Q 41.5 42.828125 45.03125 45.53125 
Q 48.578125 48.25 48.578125 53.8125 
Q 48.578125 59.328125 45.03125 62.0625 
Q 41.5 64.796875 34.28125 64.796875 
z
M 9.8125 72.90625 
L 35.015625 72.90625 
Q 46.296875 72.90625 52.390625 68.21875 
Q 58.5 63.53125 58.5 54.890625 
Q 58.5 48.1875 55.375 44.234375 
Q 52.25 40.28125 46.1875 39.3125 
Q 53.46875 37.75 57.5 32.78125 
Q 61.53125 27.828125 61.53125 20.40625 
Q 61.53125 10.640625 54.890625 5.3125 
Q 48.25 0 35.984375 0 
L 9.8125 0 
z
" id="DejaVuSans-42"/>
     </defs>
     <g transform="translate(250.212437 306.176587)scale(0.1 -0.1)">
      <use xlink:href="#DejaVuSans-61"/>
      <use x="61.279297" xlink:href="#DejaVuSans-67"/>
      <use x="124.755859" xlink:href="#DejaVuSans-65"/>
      <use x="186.279297" xlink:href="#DejaVuSans-6e"/>
      <use x="249.658203" xlink:href="#DejaVuSans-74"/>
      <use x="288.867188" xlink:href="#DejaVuSans-20"/>
      <use x="320.654297" xlink:href="#DejaVuSans-33"/>
      <use x="384.277344" xlink:href="#DejaVuSans-20"/>
      <use x="416.064453" xlink:href="#DejaVuSans-28"/>
      <use x="455.078125" xlink:href="#DejaVuSans-54"/>
      <use x="515.896484" xlink:href="#DejaVuSans-65"/>
      <use x="577.419922" xlink:href="#DejaVuSans-61"/>
      <use x="638.699219" xlink:href="#DejaVuSans-6d"/>
      <use x="736.111328" xlink:href="#DejaVuSans-20"/>
      <use x="767.898438" xlink:href="#DejaVuSans-42"/>
      <use x="836.501953" xlink:href="#DejaVuSans-29"/>
     </g>
    </g>
    <g id="line2d_39">
     <path d="M 222.212437 317.354713 
L 242.212437 317.354713 
" style="fill:none;stroke:#cc2529;stroke-linecap:square;"/>
    </g>
    <g id="line2d_40"/>
    <g id="text_20">
     <!-- agent 4 (Team B) -->
     <defs>
      <path d="M 37.796875 64.3125 
L 12.890625 25.390625 
L 37.796875 25.390625 
z
M 35.203125 72.90625 
L 47.609375 72.90625 
L 47.609375 25.390625 
L 58.015625 25.390625 
L 58.015625 17.1875 
L 47.609375 17.1875 
L 47.609375 0 
L 37.796875 0 
L 37.796875 17.1875 
L 4.890625 17.1875 
L 4.890625 26.703125 
z
" id="DejaVuSans-34"/>
     </defs>
     <g transform="translate(250.212437 320.854713)scale(0.1 -0.1)">
      <use xlink:href="#DejaVuSans-61"/>
      <use x="61.279297" xlink:href="#DejaVuSans-67"/>
      <use x="124.755859" xlink:href="#DejaVuSans-65"/>
      <use x="186.279297" xlink:href="#DejaVuSans-6e"/>
      <use x="249.658203" xlink:href="#DejaVuSans-74"/>
      <use x="288.867188" xlink:href="#DejaVuSans-20"/>
      <use x="320.654297" xlink:href="#DejaVuSans-34"/>
      <use x="384.277344" xlink:href="#DejaVuSans-20"/>
      <use x="416.064453" xlink:href="#DejaVuSans-28"/>
      <use x="455.078125" xlink:href="#DejaVuSans-54"/>
      <use x="515.896484" xlink:href="#DejaVuSans-65"/>
      <use x="577.419922" xlink:href="#DejaVuSans-61"/>
      <use x="638.699219" xlink:href="#DejaVuSans-6d"/>
      <use x="736.111328" xlink:href="#DejaVuSans-20"/>
      <use x="767.898438" xlink:href="#DejaVuSans-42"/>
      <use x="836.501953" xlink:href="#DejaVuSans-29"/>
     </g>
    </g>
   </g>
  </g>
 </g>
 <defs>
  <clipPath id="p58d7962f4f">
   <rect height="222.7104" width="276.474" x="70.29" y="109.224"/>
  </clipPath>
 </defs>
</svg>
