<?xml version="1.0" encoding="utf-8" standalone="no"?>
<!DOCTYPE svg PUBLIC "-//W3C//DTD SVG 1.1//EN"
  "http://www.w3.org/Graphics/SVG/1.1/DTD/svg11.dtd">
<!-- Created with matplotlib (http://matplotlib.org/) -->
<svg height="401pt" version="1.1" viewBox="0 0 428 401" width="428pt" xmlns="http://www.w3.org/2000/svg" xmlns:xlink="http://www.w3.org/1999/xlink">
 <defs>
  <style type="text/css">
*{stroke-linecap:butt;stroke-linejoin:round;}
  </style>
 </defs>
 <g id="figure_1">
  <g id="patch_1">
   <path d="M 0 401.04 
L 428.4 401.04 
L 428.4 0 
L 0 0 
z
" style="fill:#ffffff;"/>
  </g>
  <g id="axes_1">
   <g id="patch_2">
    <path d="M 53.55 356.9256 
L 385.56 356.9256 
L 385.56 48.1248 
L 53.55 48.1248 
z
" style="fill:#ffffff;"/>
   </g>
   <g id="PolyCollection_1">
    <defs>
     <path d="M 68.641364 -282.74274 
L 68.641364 -194.267895 
L 85.409545 -210.100192 
L 102.177727 -95.310248 
L 118.945909 -190.600235 
L 135.714091 -227.074908 
L 152.482273 -238.259192 
L 169.250455 -243.688289 
L 186.018636 -257.095121 
L 202.786818 -268.226495 
L 219.555 -275.880498 
L 236.323182 -279.369357 
L 253.091364 -288.362578 
L 269.859545 -283.186956 
L 286.627727 -289.493005 
L 303.395909 -293.683163 
L 320.164091 -289.866235 
L 336.932273 -291.005514 
L 353.700455 -286.800609 
L 370.468636 -289.979057 
L 370.468636 -334.418376 
L 370.468636 -334.418376 
L 353.700455 -330.122749 
L 336.932273 -334.248931 
L 320.164091 -331.437687 
L 303.395909 -332.266435 
L 286.627727 -332.181743 
L 269.859545 -328.242466 
L 253.091364 -331.135752 
L 236.323182 -325.170644 
L 219.555 -321.978857 
L 202.786818 -316.369891 
L 186.018636 -309.094211 
L 169.250455 -304.853401 
L 152.482273 -299.557966 
L 135.714091 -290.179574 
L 118.945909 -271.944147 
L 102.177727 -233.542119 
L 85.409545 -291.955306 
L 68.641364 -282.74274 
z
" id="me13b390992" style="stroke:#396ab1;stroke-opacity:0.2;"/>
    </defs>
    <g clip-path="url(#p56d05c4c39)">
     <use style="fill:#396ab1;fill-opacity:0.2;stroke:#396ab1;stroke-opacity:0.2;" x="0" xlink:href="#me13b390992" y="401.04"/>
    </g>
   </g>
   <g id="PolyCollection_2">
    <defs>
     <path d="M 68.641364 -285.28004 
L 68.641364 -198.32698 
L 85.409545 -200.433566 
L 102.177727 -76.545407 
L 118.945909 -201.77612 
L 135.714091 -214.060215 
L 152.482273 -229.712526 
L 169.250455 -241.928274 
L 186.018636 -259.722624 
L 202.786818 -268.560557 
L 219.555 -277.93004 
L 236.323182 -280.864257 
L 253.091364 -278.202009 
L 269.859545 -284.948703 
L 286.627727 -289.734501 
L 303.395909 -291.523557 
L 320.164091 -294.067458 
L 336.932273 -292.461664 
L 353.700455 -295.050195 
L 370.468636 -297.000941 
L 370.468636 -338.8788 
L 370.468636 -338.8788 
L 353.700455 -335.67525 
L 336.932273 -332.830472 
L 320.164091 -332.968755 
L 303.395909 -333.020145 
L 286.627727 -331.520789 
L 269.859545 -329.501639 
L 253.091364 -325.111979 
L 236.323182 -326.409672 
L 219.555 -323.494754 
L 202.786818 -316.70759 
L 186.018636 -312.193664 
L 169.250455 -299.389031 
L 152.482273 -293.065292 
L 135.714091 -283.074191 
L 118.945909 -284.328286 
L 102.177727 -224.895239 
L 85.409545 -286.676792 
L 68.641364 -285.28004 
z
" id="mae8a36d001" style="stroke:#da7c30;stroke-opacity:0.2;"/>
    </defs>
    <g clip-path="url(#p56d05c4c39)">
     <use style="fill:#da7c30;fill-opacity:0.2;stroke:#da7c30;stroke-opacity:0.2;" x="0" xlink:href="#mae8a36d001" y="401.04"/>
    </g>
   </g>
   <g id="PolyCollection_3">
    <defs>
     <path d="M 68.641364 -285.806857 
L 68.641364 -199.225363 
L 85.409545 -198.432054 
L 102.177727 -97.276039 
L 118.945909 -182.310766 
L 135.714091 -223.070213 
L 152.482273 -240.889595 
L 169.250455 -260.427597 
L 186.018636 -268.013913 
L 202.786818 -275.551048 
L 219.555 -277.615602 
L 236.323182 -281.607331 
L 253.091364 -283.483686 
L 269.859545 -287.398586 
L 286.627727 -287.357035 
L 303.395909 -289.372373 
L 320.164091 -295.182968 
L 336.932273 -291.233328 
L 353.700455 -296.734344 
L 370.468636 -286.356155 
L 370.468636 -331.117686 
L 370.468636 -331.117686 
L 353.700455 -335.009429 
L 336.932273 -333.234641 
L 320.164091 -334.660139 
L 303.395909 -331.920551 
L 286.627727 -329.530543 
L 269.859545 -330.135145 
L 253.091364 -326.138113 
L 236.323182 -324.78709 
L 219.555 -322.644728 
L 202.786818 -324.434543 
L 186.018636 -319.006833 
L 169.250455 -313.762722 
L 152.482273 -301.690807 
L 135.714091 -292.835206 
L 118.945909 -270.285283 
L 102.177727 -222.500087 
L 85.409545 -284.449498 
L 68.641364 -285.806857 
z
" id="m7b7bf6be75" style="stroke:#3e9651;stroke-opacity:0.2;"/>
    </defs>
    <g clip-path="url(#p56d05c4c39)">
     <use style="fill:#3e9651;fill-opacity:0.2;stroke:#3e9651;stroke-opacity:0.2;" x="0" xlink:href="#m7b7bf6be75" y="401.04"/>
    </g>
   </g>
   <g id="PolyCollection_4">
    <defs>
     <path d="M 68.641364 -289.978268 
L 68.641364 -202.320485 
L 85.409545 -214.3182 
L 102.177727 -58.1508 
L 118.945909 -209.584647 
L 135.714091 -218.499068 
L 152.482273 -236.617744 
L 169.250455 -252.648811 
L 186.018636 -264.857179 
L 202.786818 -276.925756 
L 219.555 -279.707093 
L 236.323182 -284.669769 
L 253.091364 -284.757838 
L 269.859545 -290.558455 
L 286.627727 -289.511644 
L 303.395909 -293.476305 
L 320.164091 -295.651056 
L 336.932273 -291.761059 
L 353.700455 -290.692537 
L 370.468636 -292.403658 
L 370.468636 -335.821626 
L 370.468636 -335.821626 
L 353.700455 -333.32779 
L 336.932273 -332.273647 
L 320.164091 -335.408836 
L 303.395909 -334.955375 
L 286.627727 -331.558976 
L 269.859545 -333.834678 
L 253.091364 -328.002992 
L 236.323182 -330.368703 
L 219.555 -327.263872 
L 202.786818 -321.371043 
L 186.018636 -314.754564 
L 169.250455 -307.941184 
L 152.482273 -298.271333 
L 135.714091 -284.618594 
L 118.945909 -282.449957 
L 102.177727 -213.475349 
L 85.409545 -294.558976 
L 68.641364 -289.978268 
z
" id="mdde7253ce5" style="stroke:#cc2529;stroke-opacity:0.2;"/>
    </defs>
    <g clip-path="url(#p56d05c4c39)">
     <use style="fill:#cc2529;fill-opacity:0.2;stroke:#cc2529;stroke-opacity:0.2;" x="0" xlink:href="#mdde7253ce5" y="401.04"/>
    </g>
   </g>
   <g id="matplotlib.axis_1">
    <g id="xtick_1">
     <g id="line2d_1">
      <path clip-path="url(#p56d05c4c39)" d="M 68.641364 356.9256 
L 68.641364 48.1248 
" style="fill:none;stroke:#b0b0b0;stroke-linecap:square;stroke-width:0.8;"/>
     </g>
     <g id="line2d_2">
      <defs>
       <path d="M 0 0 
L 0 3.5 
" id="m2771e7a297" style="stroke:#000000;stroke-width:0.8;"/>
      </defs>
      <g>
       <use style="stroke:#000000;stroke-width:0.8;" x="68.641364" xlink:href="#m2771e7a297" y="356.9256"/>
      </g>
     </g>
     <g id="text_1">
      <!-- 0.0 -->
      <defs>
       <path d="M 31.78125 66.40625 
Q 24.171875 66.40625 20.328125 58.90625 
Q 16.5 51.421875 16.5 36.375 
Q 16.5 21.390625 20.328125 13.890625 
Q 24.171875 6.390625 31.78125 6.390625 
Q 39.453125 6.390625 43.28125 13.890625 
Q 47.125 21.390625 47.125 36.375 
Q 47.125 51.421875 43.28125 58.90625 
Q 39.453125 66.40625 31.78125 66.40625 
z
M 31.78125 74.21875 
Q 44.046875 74.21875 50.515625 64.515625 
Q 56.984375 54.828125 56.984375 36.375 
Q 56.984375 17.96875 50.515625 8.265625 
Q 44.046875 -1.421875 31.78125 -1.421875 
Q 19.53125 -1.421875 13.0625 8.265625 
Q 6.59375 17.96875 6.59375 36.375 
Q 6.59375 54.828125 13.0625 64.515625 
Q 19.53125 74.21875 31.78125 74.21875 
z
" id="DejaVuSans-30"/>
       <path d="M 10.6875 12.40625 
L 21 12.40625 
L 21 0 
L 10.6875 0 
z
" id="DejaVuSans-2e"/>
      </defs>
      <g transform="translate(60.689801 371.524038)scale(0.1 -0.1)">
       <use xlink:href="#DejaVuSans-30"/>
       <use x="63.623047" xlink:href="#DejaVuSans-2e"/>
       <use x="95.410156" xlink:href="#DejaVuSans-30"/>
      </g>
     </g>
    </g>
    <g id="xtick_2">
     <g id="line2d_3">
      <path clip-path="url(#p56d05c4c39)" d="M 110.561818 356.9256 
L 110.561818 48.1248 
" style="fill:none;stroke:#b0b0b0;stroke-linecap:square;stroke-width:0.8;"/>
     </g>
     <g id="line2d_4">
      <g>
       <use style="stroke:#000000;stroke-width:0.8;" x="110.561818" xlink:href="#m2771e7a297" y="356.9256"/>
      </g>
     </g>
     <g id="text_2">
      <!-- 2.5 -->
      <defs>
       <path d="M 19.1875 8.296875 
L 53.609375 8.296875 
L 53.609375 0 
L 7.328125 0 
L 7.328125 8.296875 
Q 12.9375 14.109375 22.625 23.890625 
Q 32.328125 33.6875 34.8125 36.53125 
Q 39.546875 41.84375 41.421875 45.53125 
Q 43.3125 49.21875 43.3125 52.78125 
Q 43.3125 58.59375 39.234375 62.25 
Q 35.15625 65.921875 28.609375 65.921875 
Q 23.96875 65.921875 18.8125 64.3125 
Q 13.671875 62.703125 7.8125 59.421875 
L 7.8125 69.390625 
Q 13.765625 71.78125 18.9375 73 
Q 24.125 74.21875 28.421875 74.21875 
Q 39.75 74.21875 46.484375 68.546875 
Q 53.21875 62.890625 53.21875 53.421875 
Q 53.21875 48.921875 51.53125 44.890625 
Q 49.859375 40.875 45.40625 35.40625 
Q 44.1875 33.984375 37.640625 27.21875 
Q 31.109375 20.453125 19.1875 8.296875 
z
" id="DejaVuSans-32"/>
       <path d="M 10.796875 72.90625 
L 49.515625 72.90625 
L 49.515625 64.59375 
L 19.828125 64.59375 
L 19.828125 46.734375 
Q 21.96875 47.46875 24.109375 47.828125 
Q 26.265625 48.1875 28.421875 48.1875 
Q 40.625 48.1875 47.75 41.5 
Q 54.890625 34.8125 54.890625 23.390625 
Q 54.890625 11.625 47.5625 5.09375 
Q 40.234375 -1.421875 26.90625 -1.421875 
Q 22.3125 -1.421875 17.546875 -0.640625 
Q 12.796875 0.140625 7.71875 1.703125 
L 7.71875 11.625 
Q 12.109375 9.234375 16.796875 8.0625 
Q 21.484375 6.890625 26.703125 6.890625 
Q 35.15625 6.890625 40.078125 11.328125 
Q 45.015625 15.765625 45.015625 23.390625 
Q 45.015625 31 40.078125 35.4375 
Q 35.15625 39.890625 26.703125 39.890625 
Q 22.75 39.890625 18.8125 39.015625 
Q 14.890625 38.140625 10.796875 36.28125 
z
" id="DejaVuSans-35"/>
      </defs>
      <g transform="translate(102.610256 371.524038)scale(0.1 -0.1)">
       <use xlink:href="#DejaVuSans-32"/>
       <use x="63.623047" xlink:href="#DejaVuSans-2e"/>
       <use x="95.410156" xlink:href="#DejaVuSans-35"/>
      </g>
     </g>
    </g>
    <g id="xtick_3">
     <g id="line2d_5">
      <path clip-path="url(#p56d05c4c39)" d="M 152.482273 356.9256 
L 152.482273 48.1248 
" style="fill:none;stroke:#b0b0b0;stroke-linecap:square;stroke-width:0.8;"/>
     </g>
     <g id="line2d_6">
      <g>
       <use style="stroke:#000000;stroke-width:0.8;" x="152.482273" xlink:href="#m2771e7a297" y="356.9256"/>
      </g>
     </g>
     <g id="text_3">
      <!-- 5.0 -->
      <g transform="translate(144.53071 371.524038)scale(0.1 -0.1)">
       <use xlink:href="#DejaVuSans-35"/>
       <use x="63.623047" xlink:href="#DejaVuSans-2e"/>
       <use x="95.410156" xlink:href="#DejaVuSans-30"/>
      </g>
     </g>
    </g>
    <g id="xtick_4">
     <g id="line2d_7">
      <path clip-path="url(#p56d05c4c39)" d="M 194.402727 356.9256 
L 194.402727 48.1248 
" style="fill:none;stroke:#b0b0b0;stroke-linecap:square;stroke-width:0.8;"/>
     </g>
     <g id="line2d_8">
      <g>
       <use style="stroke:#000000;stroke-width:0.8;" x="194.402727" xlink:href="#m2771e7a297" y="356.9256"/>
      </g>
     </g>
     <g id="text_4">
      <!-- 7.5 -->
      <defs>
       <path d="M 8.203125 72.90625 
L 55.078125 72.90625 
L 55.078125 68.703125 
L 28.609375 0 
L 18.3125 0 
L 43.21875 64.59375 
L 8.203125 64.59375 
z
" id="DejaVuSans-37"/>
      </defs>
      <g transform="translate(186.451165 371.524038)scale(0.1 -0.1)">
       <use xlink:href="#DejaVuSans-37"/>
       <use x="63.623047" xlink:href="#DejaVuSans-2e"/>
       <use x="95.410156" xlink:href="#DejaVuSans-35"/>
      </g>
     </g>
    </g>
    <g id="xtick_5">
     <g id="line2d_9">
      <path clip-path="url(#p56d05c4c39)" d="M 236.323182 356.9256 
L 236.323182 48.1248 
" style="fill:none;stroke:#b0b0b0;stroke-linecap:square;stroke-width:0.8;"/>
     </g>
     <g id="line2d_10">
      <g>
       <use style="stroke:#000000;stroke-width:0.8;" x="236.323182" xlink:href="#m2771e7a297" y="356.9256"/>
      </g>
     </g>
     <g id="text_5">
      <!-- 10.0 -->
      <defs>
       <path d="M 12.40625 8.296875 
L 28.515625 8.296875 
L 28.515625 63.921875 
L 10.984375 60.40625 
L 10.984375 69.390625 
L 28.421875 72.90625 
L 38.28125 72.90625 
L 38.28125 8.296875 
L 54.390625 8.296875 
L 54.390625 0 
L 12.40625 0 
z
" id="DejaVuSans-31"/>
      </defs>
      <g transform="translate(225.190369 371.524038)scale(0.1 -0.1)">
       <use xlink:href="#DejaVuSans-31"/>
       <use x="63.623047" xlink:href="#DejaVuSans-30"/>
       <use x="127.246094" xlink:href="#DejaVuSans-2e"/>
       <use x="159.033203" xlink:href="#DejaVuSans-30"/>
      </g>
     </g>
    </g>
    <g id="xtick_6">
     <g id="line2d_11">
      <path clip-path="url(#p56d05c4c39)" d="M 278.243636 356.9256 
L 278.243636 48.1248 
" style="fill:none;stroke:#b0b0b0;stroke-linecap:square;stroke-width:0.8;"/>
     </g>
     <g id="line2d_12">
      <g>
       <use style="stroke:#000000;stroke-width:0.8;" x="278.243636" xlink:href="#m2771e7a297" y="356.9256"/>
      </g>
     </g>
     <g id="text_6">
      <!-- 12.5 -->
      <g transform="translate(267.110824 371.524038)scale(0.1 -0.1)">
       <use xlink:href="#DejaVuSans-31"/>
       <use x="63.623047" xlink:href="#DejaVuSans-32"/>
       <use x="127.246094" xlink:href="#DejaVuSans-2e"/>
       <use x="159.033203" xlink:href="#DejaVuSans-35"/>
      </g>
     </g>
    </g>
    <g id="xtick_7">
     <g id="line2d_13">
      <path clip-path="url(#p56d05c4c39)" d="M 320.164091 356.9256 
L 320.164091 48.1248 
" style="fill:none;stroke:#b0b0b0;stroke-linecap:square;stroke-width:0.8;"/>
     </g>
     <g id="line2d_14">
      <g>
       <use style="stroke:#000000;stroke-width:0.8;" x="320.164091" xlink:href="#m2771e7a297" y="356.9256"/>
      </g>
     </g>
     <g id="text_7">
      <!-- 15.0 -->
      <g transform="translate(309.031278 371.524038)scale(0.1 -0.1)">
       <use xlink:href="#DejaVuSans-31"/>
       <use x="63.623047" xlink:href="#DejaVuSans-35"/>
       <use x="127.246094" xlink:href="#DejaVuSans-2e"/>
       <use x="159.033203" xlink:href="#DejaVuSans-30"/>
      </g>
     </g>
    </g>
    <g id="xtick_8">
     <g id="line2d_15">
      <path clip-path="url(#p56d05c4c39)" d="M 362.084545 356.9256 
L 362.084545 48.1248 
" style="fill:none;stroke:#b0b0b0;stroke-linecap:square;stroke-width:0.8;"/>
     </g>
     <g id="line2d_16">
      <g>
       <use style="stroke:#000000;stroke-width:0.8;" x="362.084545" xlink:href="#m2771e7a297" y="356.9256"/>
      </g>
     </g>
     <g id="text_8">
      <!-- 17.5 -->
      <g transform="translate(350.951733 371.524038)scale(0.1 -0.1)">
       <use xlink:href="#DejaVuSans-31"/>
       <use x="63.623047" xlink:href="#DejaVuSans-37"/>
       <use x="127.246094" xlink:href="#DejaVuSans-2e"/>
       <use x="159.033203" xlink:href="#DejaVuSans-35"/>
      </g>
     </g>
    </g>
    <g id="text_9">
     <!-- Episodes (x500) -->
     <defs>
      <path d="M 9.8125 72.90625 
L 55.90625 72.90625 
L 55.90625 64.59375 
L 19.671875 64.59375 
L 19.671875 43.015625 
L 54.390625 43.015625 
L 54.390625 34.71875 
L 19.671875 34.71875 
L 19.671875 8.296875 
L 56.78125 8.296875 
L 56.78125 0 
L 9.8125 0 
z
" id="DejaVuSans-45"/>
      <path d="M 18.109375 8.203125 
L 18.109375 -20.796875 
L 9.078125 -20.796875 
L 9.078125 54.6875 
L 18.109375 54.6875 
L 18.109375 46.390625 
Q 20.953125 51.265625 25.265625 53.625 
Q 29.59375 56 35.59375 56 
Q 45.5625 56 51.78125 48.09375 
Q 58.015625 40.1875 58.015625 27.296875 
Q 58.015625 14.40625 51.78125 6.484375 
Q 45.5625 -1.421875 35.59375 -1.421875 
Q 29.59375 -1.421875 25.265625 0.953125 
Q 20.953125 3.328125 18.109375 8.203125 
z
M 48.6875 27.296875 
Q 48.6875 37.203125 44.609375 42.84375 
Q 40.53125 48.484375 33.40625 48.484375 
Q 26.265625 48.484375 22.1875 42.84375 
Q 18.109375 37.203125 18.109375 27.296875 
Q 18.109375 17.390625 22.1875 11.75 
Q 26.265625 6.109375 33.40625 6.109375 
Q 40.53125 6.109375 44.609375 11.75 
Q 48.6875 17.390625 48.6875 27.296875 
z
" id="DejaVuSans-70"/>
      <path d="M 9.421875 54.6875 
L 18.40625 54.6875 
L 18.40625 0 
L 9.421875 0 
z
M 9.421875 75.984375 
L 18.40625 75.984375 
L 18.40625 64.59375 
L 9.421875 64.59375 
z
" id="DejaVuSans-69"/>
      <path d="M 44.28125 53.078125 
L 44.28125 44.578125 
Q 40.484375 46.53125 36.375 47.5 
Q 32.28125 48.484375 27.875 48.484375 
Q 21.1875 48.484375 17.84375 46.4375 
Q 14.5 44.390625 14.5 40.28125 
Q 14.5 37.15625 16.890625 35.375 
Q 19.28125 33.59375 26.515625 31.984375 
L 29.59375 31.296875 
Q 39.15625 29.25 43.1875 25.515625 
Q 47.21875 21.78125 47.21875 15.09375 
Q 47.21875 7.46875 41.1875 3.015625 
Q 35.15625 -1.421875 24.609375 -1.421875 
Q 20.21875 -1.421875 15.453125 -0.5625 
Q 10.6875 0.296875 5.421875 2 
L 5.421875 11.28125 
Q 10.40625 8.6875 15.234375 7.390625 
Q 20.0625 6.109375 24.8125 6.109375 
Q 31.15625 6.109375 34.5625 8.28125 
Q 37.984375 10.453125 37.984375 14.40625 
Q 37.984375 18.0625 35.515625 20.015625 
Q 33.0625 21.96875 24.703125 23.78125 
L 21.578125 24.515625 
Q 13.234375 26.265625 9.515625 29.90625 
Q 5.8125 33.546875 5.8125 39.890625 
Q 5.8125 47.609375 11.28125 51.796875 
Q 16.75 56 26.8125 56 
Q 31.78125 56 36.171875 55.265625 
Q 40.578125 54.546875 44.28125 53.078125 
z
" id="DejaVuSans-73"/>
      <path d="M 30.609375 48.390625 
Q 23.390625 48.390625 19.1875 42.75 
Q 14.984375 37.109375 14.984375 27.296875 
Q 14.984375 17.484375 19.15625 11.84375 
Q 23.34375 6.203125 30.609375 6.203125 
Q 37.796875 6.203125 41.984375 11.859375 
Q 46.1875 17.53125 46.1875 27.296875 
Q 46.1875 37.015625 41.984375 42.703125 
Q 37.796875 48.390625 30.609375 48.390625 
z
M 30.609375 56 
Q 42.328125 56 49.015625 48.375 
Q 55.71875 40.765625 55.71875 27.296875 
Q 55.71875 13.875 49.015625 6.21875 
Q 42.328125 -1.421875 30.609375 -1.421875 
Q 18.84375 -1.421875 12.171875 6.21875 
Q 5.515625 13.875 5.515625 27.296875 
Q 5.515625 40.765625 12.171875 48.375 
Q 18.84375 56 30.609375 56 
z
" id="DejaVuSans-6f"/>
      <path d="M 45.40625 46.390625 
L 45.40625 75.984375 
L 54.390625 75.984375 
L 54.390625 0 
L 45.40625 0 
L 45.40625 8.203125 
Q 42.578125 3.328125 38.25 0.953125 
Q 33.9375 -1.421875 27.875 -1.421875 
Q 17.96875 -1.421875 11.734375 6.484375 
Q 5.515625 14.40625 5.515625 27.296875 
Q 5.515625 40.1875 11.734375 48.09375 
Q 17.96875 56 27.875 56 
Q 33.9375 56 38.25 53.625 
Q 42.578125 51.265625 45.40625 46.390625 
z
M 14.796875 27.296875 
Q 14.796875 17.390625 18.875 11.75 
Q 22.953125 6.109375 30.078125 6.109375 
Q 37.203125 6.109375 41.296875 11.75 
Q 45.40625 17.390625 45.40625 27.296875 
Q 45.40625 37.203125 41.296875 42.84375 
Q 37.203125 48.484375 30.078125 48.484375 
Q 22.953125 48.484375 18.875 42.84375 
Q 14.796875 37.203125 14.796875 27.296875 
z
" id="DejaVuSans-64"/>
      <path d="M 56.203125 29.59375 
L 56.203125 25.203125 
L 14.890625 25.203125 
Q 15.484375 15.921875 20.484375 11.0625 
Q 25.484375 6.203125 34.421875 6.203125 
Q 39.59375 6.203125 44.453125 7.46875 
Q 49.3125 8.734375 54.109375 11.28125 
L 54.109375 2.78125 
Q 49.265625 0.734375 44.1875 -0.34375 
Q 39.109375 -1.421875 33.890625 -1.421875 
Q 20.796875 -1.421875 13.15625 6.1875 
Q 5.515625 13.8125 5.515625 26.8125 
Q 5.515625 40.234375 12.765625 48.109375 
Q 20.015625 56 32.328125 56 
Q 43.359375 56 49.78125 48.890625 
Q 56.203125 41.796875 56.203125 29.59375 
z
M 47.21875 32.234375 
Q 47.125 39.59375 43.09375 43.984375 
Q 39.0625 48.390625 32.421875 48.390625 
Q 24.90625 48.390625 20.390625 44.140625 
Q 15.875 39.890625 15.1875 32.171875 
z
" id="DejaVuSans-65"/>
      <path id="DejaVuSans-20"/>
      <path d="M 31 75.875 
Q 24.46875 64.65625 21.28125 53.65625 
Q 18.109375 42.671875 18.109375 31.390625 
Q 18.109375 20.125 21.3125 9.0625 
Q 24.515625 -2 31 -13.1875 
L 23.1875 -13.1875 
Q 15.875 -1.703125 12.234375 9.375 
Q 8.59375 20.453125 8.59375 31.390625 
Q 8.59375 42.28125 12.203125 53.3125 
Q 15.828125 64.359375 23.1875 75.875 
z
" id="DejaVuSans-28"/>
      <path d="M 54.890625 54.6875 
L 35.109375 28.078125 
L 55.90625 0 
L 45.3125 0 
L 29.390625 21.484375 
L 13.484375 0 
L 2.875 0 
L 24.125 28.609375 
L 4.6875 54.6875 
L 15.28125 54.6875 
L 29.78125 35.203125 
L 44.28125 54.6875 
z
" id="DejaVuSans-78"/>
      <path d="M 8.015625 75.875 
L 15.828125 75.875 
Q 23.140625 64.359375 26.78125 53.3125 
Q 30.421875 42.28125 30.421875 31.390625 
Q 30.421875 20.453125 26.78125 9.375 
Q 23.140625 -1.703125 15.828125 -13.1875 
L 8.015625 -13.1875 
Q 14.5 -2 17.703125 9.0625 
Q 20.90625 20.125 20.90625 31.390625 
Q 20.90625 42.671875 17.703125 53.65625 
Q 14.5 64.65625 8.015625 75.875 
z
" id="DejaVuSans-29"/>
     </defs>
     <g transform="translate(179.319063 385.202163)scale(0.1 -0.1)">
      <use xlink:href="#DejaVuSans-45"/>
      <use x="63.183594" xlink:href="#DejaVuSans-70"/>
      <use x="126.660156" xlink:href="#DejaVuSans-69"/>
      <use x="154.443359" xlink:href="#DejaVuSans-73"/>
      <use x="206.542969" xlink:href="#DejaVuSans-6f"/>
      <use x="267.724609" xlink:href="#DejaVuSans-64"/>
      <use x="331.201172" xlink:href="#DejaVuSans-65"/>
      <use x="392.724609" xlink:href="#DejaVuSans-73"/>
      <use x="444.824219" xlink:href="#DejaVuSans-20"/>
      <use x="476.611328" xlink:href="#DejaVuSans-28"/>
      <use x="515.625" xlink:href="#DejaVuSans-78"/>
      <use x="574.804688" xlink:href="#DejaVuSans-35"/>
      <use x="638.427734" xlink:href="#DejaVuSans-30"/>
      <use x="702.050781" xlink:href="#DejaVuSans-30"/>
      <use x="765.673828" xlink:href="#DejaVuSans-29"/>
     </g>
    </g>
   </g>
   <g id="matplotlib.axis_2">
    <g id="ytick_1">
     <g id="line2d_17">
      <path clip-path="url(#p56d05c4c39)" d="M 53.55 352.114922 
L 385.56 352.114922 
" style="fill:none;stroke:#b0b0b0;stroke-linecap:square;stroke-width:0.8;"/>
     </g>
     <g id="line2d_18">
      <defs>
       <path d="M 0 0 
L -3.5 0 
" id="mccfb660274" style="stroke:#000000;stroke-width:0.8;"/>
      </defs>
      <g>
       <use style="stroke:#000000;stroke-width:0.8;" x="53.55" xlink:href="#mccfb660274" y="352.114922"/>
      </g>
     </g>
     <g id="text_10">
      <!-- −65 -->
      <defs>
       <path d="M 10.59375 35.5 
L 73.1875 35.5 
L 73.1875 27.203125 
L 10.59375 27.203125 
z
" id="DejaVuSans-2212"/>
       <path d="M 33.015625 40.375 
Q 26.375 40.375 22.484375 35.828125 
Q 18.609375 31.296875 18.609375 23.390625 
Q 18.609375 15.53125 22.484375 10.953125 
Q 26.375 6.390625 33.015625 6.390625 
Q 39.65625 6.390625 43.53125 10.953125 
Q 47.40625 15.53125 47.40625 23.390625 
Q 47.40625 31.296875 43.53125 35.828125 
Q 39.65625 40.375 33.015625 40.375 
z
M 52.59375 71.296875 
L 52.59375 62.3125 
Q 48.875 64.0625 45.09375 64.984375 
Q 41.3125 65.921875 37.59375 65.921875 
Q 27.828125 65.921875 22.671875 59.328125 
Q 17.53125 52.734375 16.796875 39.40625 
Q 19.671875 43.65625 24.015625 45.921875 
Q 28.375 48.1875 33.59375 48.1875 
Q 44.578125 48.1875 50.953125 41.515625 
Q 57.328125 34.859375 57.328125 23.390625 
Q 57.328125 12.15625 50.6875 5.359375 
Q 44.046875 -1.421875 33.015625 -1.421875 
Q 20.359375 -1.421875 13.671875 8.265625 
Q 6.984375 17.96875 6.984375 36.375 
Q 6.984375 53.65625 15.1875 63.9375 
Q 23.390625 74.21875 37.203125 74.21875 
Q 40.921875 74.21875 44.703125 73.484375 
Q 48.484375 72.75 52.59375 71.296875 
z
" id="DejaVuSans-36"/>
      </defs>
      <g transform="translate(25.445313 355.91414)scale(0.1 -0.1)">
       <use xlink:href="#DejaVuSans-2212"/>
       <use x="83.789062" xlink:href="#DejaVuSans-36"/>
       <use x="147.412109" xlink:href="#DejaVuSans-35"/>
      </g>
     </g>
    </g>
    <g id="ytick_2">
     <g id="line2d_19">
      <path clip-path="url(#p56d05c4c39)" d="M 53.55 306.389449 
L 385.56 306.389449 
" style="fill:none;stroke:#b0b0b0;stroke-linecap:square;stroke-width:0.8;"/>
     </g>
     <g id="line2d_20">
      <g>
       <use style="stroke:#000000;stroke-width:0.8;" x="53.55" xlink:href="#mccfb660274" y="306.389449"/>
      </g>
     </g>
     <g id="text_11">
      <!-- −60 -->
      <g transform="translate(25.445313 310.188668)scale(0.1 -0.1)">
       <use xlink:href="#DejaVuSans-2212"/>
       <use x="83.789062" xlink:href="#DejaVuSans-36"/>
       <use x="147.412109" xlink:href="#DejaVuSans-30"/>
      </g>
     </g>
    </g>
    <g id="ytick_3">
     <g id="line2d_21">
      <path clip-path="url(#p56d05c4c39)" d="M 53.55 260.663977 
L 385.56 260.663977 
" style="fill:none;stroke:#b0b0b0;stroke-linecap:square;stroke-width:0.8;"/>
     </g>
     <g id="line2d_22">
      <g>
       <use style="stroke:#000000;stroke-width:0.8;" x="53.55" xlink:href="#mccfb660274" y="260.663977"/>
      </g>
     </g>
     <g id="text_12">
      <!-- −55 -->
      <g transform="translate(25.445313 264.463195)scale(0.1 -0.1)">
       <use xlink:href="#DejaVuSans-2212"/>
       <use x="83.789062" xlink:href="#DejaVuSans-35"/>
       <use x="147.412109" xlink:href="#DejaVuSans-35"/>
      </g>
     </g>
    </g>
    <g id="ytick_4">
     <g id="line2d_23">
      <path clip-path="url(#p56d05c4c39)" d="M 53.55 214.938504 
L 385.56 214.938504 
" style="fill:none;stroke:#b0b0b0;stroke-linecap:square;stroke-width:0.8;"/>
     </g>
     <g id="line2d_24">
      <g>
       <use style="stroke:#000000;stroke-width:0.8;" x="53.55" xlink:href="#mccfb660274" y="214.938504"/>
      </g>
     </g>
     <g id="text_13">
      <!-- −50 -->
      <g transform="translate(25.445313 218.737723)scale(0.1 -0.1)">
       <use xlink:href="#DejaVuSans-2212"/>
       <use x="83.789062" xlink:href="#DejaVuSans-35"/>
       <use x="147.412109" xlink:href="#DejaVuSans-30"/>
      </g>
     </g>
    </g>
    <g id="ytick_5">
     <g id="line2d_25">
      <path clip-path="url(#p56d05c4c39)" d="M 53.55 169.213032 
L 385.56 169.213032 
" style="fill:none;stroke:#b0b0b0;stroke-linecap:square;stroke-width:0.8;"/>
     </g>
     <g id="line2d_26">
      <g>
       <use style="stroke:#000000;stroke-width:0.8;" x="53.55" xlink:href="#mccfb660274" y="169.213032"/>
      </g>
     </g>
     <g id="text_14">
      <!-- −45 -->
      <defs>
       <path d="M 37.796875 64.3125 
L 12.890625 25.390625 
L 37.796875 25.390625 
z
M 35.203125 72.90625 
L 47.609375 72.90625 
L 47.609375 25.390625 
L 58.015625 25.390625 
L 58.015625 17.1875 
L 47.609375 17.1875 
L 47.609375 0 
L 37.796875 0 
L 37.796875 17.1875 
L 4.890625 17.1875 
L 4.890625 26.703125 
z
" id="DejaVuSans-34"/>
      </defs>
      <g transform="translate(25.445313 173.01225)scale(0.1 -0.1)">
       <use xlink:href="#DejaVuSans-2212"/>
       <use x="83.789062" xlink:href="#DejaVuSans-34"/>
       <use x="147.412109" xlink:href="#DejaVuSans-35"/>
      </g>
     </g>
    </g>
    <g id="ytick_6">
     <g id="line2d_27">
      <path clip-path="url(#p56d05c4c39)" d="M 53.55 123.487559 
L 385.56 123.487559 
" style="fill:none;stroke:#b0b0b0;stroke-linecap:square;stroke-width:0.8;"/>
     </g>
     <g id="line2d_28">
      <g>
       <use style="stroke:#000000;stroke-width:0.8;" x="53.55" xlink:href="#mccfb660274" y="123.487559"/>
      </g>
     </g>
     <g id="text_15">
      <!-- −40 -->
      <g transform="translate(25.445313 127.286778)scale(0.1 -0.1)">
       <use xlink:href="#DejaVuSans-2212"/>
       <use x="83.789062" xlink:href="#DejaVuSans-34"/>
       <use x="147.412109" xlink:href="#DejaVuSans-30"/>
      </g>
     </g>
    </g>
    <g id="ytick_7">
     <g id="line2d_29">
      <path clip-path="url(#p56d05c4c39)" d="M 53.55 77.762087 
L 385.56 77.762087 
" style="fill:none;stroke:#b0b0b0;stroke-linecap:square;stroke-width:0.8;"/>
     </g>
     <g id="line2d_30">
      <g>
       <use style="stroke:#000000;stroke-width:0.8;" x="53.55" xlink:href="#mccfb660274" y="77.762087"/>
      </g>
     </g>
     <g id="text_16">
      <!-- −35 -->
      <defs>
       <path d="M 40.578125 39.3125 
Q 47.65625 37.796875 51.625 33 
Q 55.609375 28.21875 55.609375 21.1875 
Q 55.609375 10.40625 48.1875 4.484375 
Q 40.765625 -1.421875 27.09375 -1.421875 
Q 22.515625 -1.421875 17.65625 -0.515625 
Q 12.796875 0.390625 7.625 2.203125 
L 7.625 11.71875 
Q 11.71875 9.328125 16.59375 8.109375 
Q 21.484375 6.890625 26.8125 6.890625 
Q 36.078125 6.890625 40.9375 10.546875 
Q 45.796875 14.203125 45.796875 21.1875 
Q 45.796875 27.640625 41.28125 31.265625 
Q 36.765625 34.90625 28.71875 34.90625 
L 20.21875 34.90625 
L 20.21875 43.015625 
L 29.109375 43.015625 
Q 36.375 43.015625 40.234375 45.921875 
Q 44.09375 48.828125 44.09375 54.296875 
Q 44.09375 59.90625 40.109375 62.90625 
Q 36.140625 65.921875 28.71875 65.921875 
Q 24.65625 65.921875 20.015625 65.03125 
Q 15.375 64.15625 9.8125 62.3125 
L 9.8125 71.09375 
Q 15.4375 72.65625 20.34375 73.4375 
Q 25.25 74.21875 29.59375 74.21875 
Q 40.828125 74.21875 47.359375 69.109375 
Q 53.90625 64.015625 53.90625 55.328125 
Q 53.90625 49.265625 50.4375 45.09375 
Q 46.96875 40.921875 40.578125 39.3125 
z
" id="DejaVuSans-33"/>
      </defs>
      <g transform="translate(25.445313 81.561305)scale(0.1 -0.1)">
       <use xlink:href="#DejaVuSans-2212"/>
       <use x="83.789062" xlink:href="#DejaVuSans-33"/>
       <use x="147.412109" xlink:href="#DejaVuSans-35"/>
      </g>
     </g>
    </g>
    <g id="text_17">
     <!-- Reward -->
     <defs>
      <path d="M 44.390625 34.1875 
Q 47.5625 33.109375 50.5625 29.59375 
Q 53.5625 26.078125 56.59375 19.921875 
L 66.609375 0 
L 56 0 
L 46.6875 18.703125 
Q 43.0625 26.03125 39.671875 28.421875 
Q 36.28125 30.8125 30.421875 30.8125 
L 19.671875 30.8125 
L 19.671875 0 
L 9.8125 0 
L 9.8125 72.90625 
L 32.078125 72.90625 
Q 44.578125 72.90625 50.734375 67.671875 
Q 56.890625 62.453125 56.890625 51.90625 
Q 56.890625 45.015625 53.6875 40.46875 
Q 50.484375 35.9375 44.390625 34.1875 
z
M 19.671875 64.796875 
L 19.671875 38.921875 
L 32.078125 38.921875 
Q 39.203125 38.921875 42.84375 42.21875 
Q 46.484375 45.515625 46.484375 51.90625 
Q 46.484375 58.296875 42.84375 61.546875 
Q 39.203125 64.796875 32.078125 64.796875 
z
" id="DejaVuSans-52"/>
      <path d="M 4.203125 54.6875 
L 13.1875 54.6875 
L 24.421875 12.015625 
L 35.59375 54.6875 
L 46.1875 54.6875 
L 57.421875 12.015625 
L 68.609375 54.6875 
L 77.59375 54.6875 
L 63.28125 0 
L 52.6875 0 
L 40.921875 44.828125 
L 29.109375 0 
L 18.5 0 
z
" id="DejaVuSans-77"/>
      <path d="M 34.28125 27.484375 
Q 23.390625 27.484375 19.1875 25 
Q 14.984375 22.515625 14.984375 16.5 
Q 14.984375 11.71875 18.140625 8.90625 
Q 21.296875 6.109375 26.703125 6.109375 
Q 34.1875 6.109375 38.703125 11.40625 
Q 43.21875 16.703125 43.21875 25.484375 
L 43.21875 27.484375 
z
M 52.203125 31.203125 
L 52.203125 0 
L 43.21875 0 
L 43.21875 8.296875 
Q 40.140625 3.328125 35.546875 0.953125 
Q 30.953125 -1.421875 24.3125 -1.421875 
Q 15.921875 -1.421875 10.953125 3.296875 
Q 6 8.015625 6 15.921875 
Q 6 25.140625 12.171875 29.828125 
Q 18.359375 34.515625 30.609375 34.515625 
L 43.21875 34.515625 
L 43.21875 35.40625 
Q 43.21875 41.609375 39.140625 45 
Q 35.0625 48.390625 27.6875 48.390625 
Q 23 48.390625 18.546875 47.265625 
Q 14.109375 46.140625 10.015625 43.890625 
L 10.015625 52.203125 
Q 14.9375 54.109375 19.578125 55.046875 
Q 24.21875 56 28.609375 56 
Q 40.484375 56 46.34375 49.84375 
Q 52.203125 43.703125 52.203125 31.203125 
z
" id="DejaVuSans-61"/>
      <path d="M 41.109375 46.296875 
Q 39.59375 47.171875 37.8125 47.578125 
Q 36.03125 48 33.890625 48 
Q 26.265625 48 22.1875 43.046875 
Q 18.109375 38.09375 18.109375 28.8125 
L 18.109375 0 
L 9.078125 0 
L 9.078125 54.6875 
L 18.109375 54.6875 
L 18.109375 46.1875 
Q 20.953125 51.171875 25.484375 53.578125 
Q 30.03125 56 36.53125 56 
Q 37.453125 56 38.578125 55.875 
Q 39.703125 55.765625 41.0625 55.515625 
z
" id="DejaVuSans-72"/>
     </defs>
     <g transform="translate(19.365625 221.454888)rotate(-90)scale(0.1 -0.1)">
      <use xlink:href="#DejaVuSans-52"/>
      <use x="69.419922" xlink:href="#DejaVuSans-65"/>
      <use x="130.943359" xlink:href="#DejaVuSans-77"/>
      <use x="212.730469" xlink:href="#DejaVuSans-61"/>
      <use x="274.009766" xlink:href="#DejaVuSans-72"/>
      <use x="315.107422" xlink:href="#DejaVuSans-64"/>
     </g>
    </g>
   </g>
   <g id="line2d_31">
    <path clip-path="url(#p56d05c4c39)" d="M 68.641364 162.534682 
L 85.409545 150.012251 
L 102.177727 236.613816 
L 118.945909 169.767809 
L 135.714091 142.412759 
L 152.482273 132.131421 
L 169.250455 126.769155 
L 186.018636 117.945334 
L 202.786818 108.741807 
L 219.555 102.110322 
L 236.323182 98.77 
L 253.091364 91.290835 
L 269.859545 95.325289 
L 286.627727 90.202626 
L 303.395909 88.065201 
L 320.164091 90.388039 
L 336.932273 88.412777 
L 353.700455 92.578321 
L 370.468636 88.841284 
" style="fill:none;stroke:#396ab1;stroke-linecap:square;"/>
   </g>
   <g id="line2d_32">
    <path clip-path="url(#p56d05c4c39)" d="M 68.641364 159.23649 
L 85.409545 157.484821 
L 102.177727 250.319677 
L 118.945909 157.987797 
L 135.714091 152.472797 
L 152.482273 139.651091 
L 169.250455 130.381348 
L 186.018636 115.081856 
L 202.786818 108.405927 
L 219.555 100.327603 
L 236.323182 97.403035 
L 253.091364 99.383006 
L 269.859545 93.814829 
L 286.627727 90.412355 
L 303.395909 88.768149 
L 320.164091 87.521894 
L 336.932273 88.393932 
L 353.700455 85.677277 
L 370.468636 83.10013 
" style="fill:none;stroke:#da7c30;stroke-linecap:square;"/>
   </g>
   <g id="line2d_33">
    <path clip-path="url(#p56d05c4c39)" d="M 68.641364 158.52389 
L 85.409545 159.599224 
L 102.177727 241.151937 
L 118.945909 174.741975 
L 135.714091 143.08729 
L 152.482273 129.749799 
L 169.250455 113.94484 
L 186.018636 107.529627 
L 202.786818 101.047205 
L 219.555 100.909835 
L 236.323182 97.842789 
L 253.091364 96.229101 
L 269.859545 92.273135 
L 286.627727 92.596211 
L 303.395909 90.393538 
L 320.164091 86.118446 
L 336.932273 88.806016 
L 353.700455 85.168114 
L 370.468636 92.30308 
" style="fill:none;stroke:#3e9651;stroke-linecap:square;"/>
   </g>
   <g id="line2d_34">
    <path clip-path="url(#p56d05c4c39)" d="M 68.641364 154.890624 
L 85.409545 146.601412 
L 102.177727 265.226925 
L 118.945909 155.022698 
L 135.714091 149.481169 
L 152.482273 133.595461 
L 169.250455 120.745003 
L 186.018636 111.234129 
L 202.786818 101.891601 
L 219.555 97.554518 
L 236.323182 93.520764 
L 253.091364 94.659585 
L 269.859545 88.843434 
L 286.627727 90.50469 
L 303.395909 86.82416 
L 320.164091 85.510054 
L 336.932273 89.022647 
L 353.700455 89.029837 
L 370.468636 86.927358 
" style="fill:none;stroke:#cc2529;stroke-linecap:square;"/>
   </g>
   <g id="patch_3">
    <path d="M 53.55 356.9256 
L 53.55 48.1248 
" style="fill:none;stroke:#000000;stroke-linecap:square;stroke-linejoin:miter;stroke-width:0.8;"/>
   </g>
   <g id="patch_4">
    <path d="M 385.56 356.9256 
L 385.56 48.1248 
" style="fill:none;stroke:#000000;stroke-linecap:square;stroke-linejoin:miter;stroke-width:0.8;"/>
   </g>
   <g id="patch_5">
    <path d="M 53.55 356.9256 
L 385.56 356.9256 
" style="fill:none;stroke:#000000;stroke-linecap:square;stroke-linejoin:miter;stroke-width:0.8;"/>
   </g>
   <g id="patch_6">
    <path d="M 53.55 48.1248 
L 385.56 48.1248 
" style="fill:none;stroke:#000000;stroke-linecap:square;stroke-linejoin:miter;stroke-width:0.8;"/>
   </g>
   <g id="legend_1">
    <g id="patch_7">
     <path d="M 60.55 351.9256 
L 180.101562 351.9256 
Q 182.101562 351.9256 182.101562 349.9256 
L 182.101562 292.2131 
Q 182.101562 290.2131 180.101562 290.2131 
L 60.55 290.2131 
Q 58.55 290.2131 58.55 292.2131 
L 58.55 349.9256 
Q 58.55 351.9256 60.55 351.9256 
z
" style="fill:#ffffff;opacity:0.8;stroke:#cccccc;stroke-linejoin:miter;"/>
    </g>
    <g id="line2d_35">
     <path d="M 62.55 298.311537 
L 82.55 298.311537 
" style="fill:none;stroke:#396ab1;stroke-linecap:square;"/>
    </g>
    <g id="line2d_36"/>
    <g id="text_18">
     <!-- agent 1 (Team A) -->
     <defs>
      <path d="M 45.40625 27.984375 
Q 45.40625 37.75 41.375 43.109375 
Q 37.359375 48.484375 30.078125 48.484375 
Q 22.859375 48.484375 18.828125 43.109375 
Q 14.796875 37.75 14.796875 27.984375 
Q 14.796875 18.265625 18.828125 12.890625 
Q 22.859375 7.515625 30.078125 7.515625 
Q 37.359375 7.515625 41.375 12.890625 
Q 45.40625 18.265625 45.40625 27.984375 
z
M 54.390625 6.78125 
Q 54.390625 -7.171875 48.1875 -13.984375 
Q 42 -20.796875 29.203125 -20.796875 
Q 24.46875 -20.796875 20.265625 -20.09375 
Q 16.0625 -19.390625 12.109375 -17.921875 
L 12.109375 -9.1875 
Q 16.0625 -11.328125 19.921875 -12.34375 
Q 23.78125 -13.375 27.78125 -13.375 
Q 36.625 -13.375 41.015625 -8.765625 
Q 45.40625 -4.15625 45.40625 5.171875 
L 45.40625 9.625 
Q 42.625 4.78125 38.28125 2.390625 
Q 33.9375 0 27.875 0 
Q 17.828125 0 11.671875 7.65625 
Q 5.515625 15.328125 5.515625 27.984375 
Q 5.515625 40.671875 11.671875 48.328125 
Q 17.828125 56 27.875 56 
Q 33.9375 56 38.28125 53.609375 
Q 42.625 51.21875 45.40625 46.390625 
L 45.40625 54.6875 
L 54.390625 54.6875 
z
" id="DejaVuSans-67"/>
      <path d="M 54.890625 33.015625 
L 54.890625 0 
L 45.90625 0 
L 45.90625 32.71875 
Q 45.90625 40.484375 42.875 44.328125 
Q 39.84375 48.1875 33.796875 48.1875 
Q 26.515625 48.1875 22.3125 43.546875 
Q 18.109375 38.921875 18.109375 30.90625 
L 18.109375 0 
L 9.078125 0 
L 9.078125 54.6875 
L 18.109375 54.6875 
L 18.109375 46.1875 
Q 21.34375 51.125 25.703125 53.5625 
Q 30.078125 56 35.796875 56 
Q 45.21875 56 50.046875 50.171875 
Q 54.890625 44.34375 54.890625 33.015625 
z
" id="DejaVuSans-6e"/>
      <path d="M 18.3125 70.21875 
L 18.3125 54.6875 
L 36.8125 54.6875 
L 36.8125 47.703125 
L 18.3125 47.703125 
L 18.3125 18.015625 
Q 18.3125 11.328125 20.140625 9.421875 
Q 21.96875 7.515625 27.59375 7.515625 
L 36.8125 7.515625 
L 36.8125 0 
L 27.59375 0 
Q 17.1875 0 13.234375 3.875 
Q 9.28125 7.765625 9.28125 18.015625 
L 9.28125 47.703125 
L 2.6875 47.703125 
L 2.6875 54.6875 
L 9.28125 54.6875 
L 9.28125 70.21875 
z
" id="DejaVuSans-74"/>
      <path d="M -0.296875 72.90625 
L 61.375 72.90625 
L 61.375 64.59375 
L 35.5 64.59375 
L 35.5 0 
L 25.59375 0 
L 25.59375 64.59375 
L -0.296875 64.59375 
z
" id="DejaVuSans-54"/>
      <path d="M 52 44.1875 
Q 55.375 50.25 60.0625 53.125 
Q 64.75 56 71.09375 56 
Q 79.640625 56 84.28125 50.015625 
Q 88.921875 44.046875 88.921875 33.015625 
L 88.921875 0 
L 79.890625 0 
L 79.890625 32.71875 
Q 79.890625 40.578125 77.09375 44.375 
Q 74.3125 48.1875 68.609375 48.1875 
Q 61.625 48.1875 57.5625 43.546875 
Q 53.515625 38.921875 53.515625 30.90625 
L 53.515625 0 
L 44.484375 0 
L 44.484375 32.71875 
Q 44.484375 40.625 41.703125 44.40625 
Q 38.921875 48.1875 33.109375 48.1875 
Q 26.21875 48.1875 22.15625 43.53125 
Q 18.109375 38.875 18.109375 30.90625 
L 18.109375 0 
L 9.078125 0 
L 9.078125 54.6875 
L 18.109375 54.6875 
L 18.109375 46.1875 
Q 21.1875 51.21875 25.484375 53.609375 
Q 29.78125 56 35.6875 56 
Q 41.65625 56 45.828125 52.96875 
Q 50 49.953125 52 44.1875 
z
" id="DejaVuSans-6d"/>
      <path d="M 34.1875 63.1875 
L 20.796875 26.90625 
L 47.609375 26.90625 
z
M 28.609375 72.90625 
L 39.796875 72.90625 
L 67.578125 0 
L 57.328125 0 
L 50.6875 18.703125 
L 17.828125 18.703125 
L 11.1875 0 
L 0.78125 0 
z
" id="DejaVuSans-41"/>
     </defs>
     <g transform="translate(90.55 301.811537)scale(0.1 -0.1)">
      <use xlink:href="#DejaVuSans-61"/>
      <use x="61.279297" xlink:href="#DejaVuSans-67"/>
      <use x="124.755859" xlink:href="#DejaVuSans-65"/>
      <use x="186.279297" xlink:href="#DejaVuSans-6e"/>
      <use x="249.658203" xlink:href="#DejaVuSans-74"/>
      <use x="288.867188" xlink:href="#DejaVuSans-20"/>
      <use x="320.654297" xlink:href="#DejaVuSans-31"/>
      <use x="384.277344" xlink:href="#DejaVuSans-20"/>
      <use x="416.064453" xlink:href="#DejaVuSans-28"/>
      <use x="455.078125" xlink:href="#DejaVuSans-54"/>
      <use x="515.896484" xlink:href="#DejaVuSans-65"/>
      <use x="577.419922" xlink:href="#DejaVuSans-61"/>
      <use x="638.699219" xlink:href="#DejaVuSans-6d"/>
      <use x="736.111328" xlink:href="#DejaVuSans-20"/>
      <use x="767.898438" xlink:href="#DejaVuSans-41"/>
      <use x="836.306641" xlink:href="#DejaVuSans-29"/>
     </g>
    </g>
    <g id="line2d_37">
     <path d="M 62.55 312.989663 
L 82.55 312.989663 
" style="fill:none;stroke:#da7c30;stroke-linecap:square;"/>
    </g>
    <g id="line2d_38"/>
    <g id="text_19">
     <!-- agent 2 (Team A) -->
     <g transform="translate(90.55 316.489663)scale(0.1 -0.1)">
      <use xlink:href="#DejaVuSans-61"/>
      <use x="61.279297" xlink:href="#DejaVuSans-67"/>
      <use x="124.755859" xlink:href="#DejaVuSans-65"/>
      <use x="186.279297" xlink:href="#DejaVuSans-6e"/>
      <use x="249.658203" xlink:href="#DejaVuSans-74"/>
      <use x="288.867188" xlink:href="#DejaVuSans-20"/>
      <use x="320.654297" xlink:href="#DejaVuSans-32"/>
      <use x="384.277344" xlink:href="#DejaVuSans-20"/>
      <use x="416.064453" xlink:href="#DejaVuSans-28"/>
      <use x="455.078125" xlink:href="#DejaVuSans-54"/>
      <use x="515.896484" xlink:href="#DejaVuSans-65"/>
      <use x="577.419922" xlink:href="#DejaVuSans-61"/>
      <use x="638.699219" xlink:href="#DejaVuSans-6d"/>
      <use x="736.111328" xlink:href="#DejaVuSans-20"/>
      <use x="767.898438" xlink:href="#DejaVuSans-41"/>
      <use x="836.306641" xlink:href="#DejaVuSans-29"/>
     </g>
    </g>
    <g id="line2d_39">
     <path d="M 62.55 327.667788 
L 82.55 327.667788 
" style="fill:none;stroke:#3e9651;stroke-linecap:square;"/>
    </g>
    <g id="line2d_40"/>
    <g id="text_20">
     <!-- agent 3 (Team B) -->
     <defs>
      <path d="M 19.671875 34.8125 
L 19.671875 8.109375 
L 35.5 8.109375 
Q 43.453125 8.109375 47.28125 11.40625 
Q 51.125 14.703125 51.125 21.484375 
Q 51.125 28.328125 47.28125 31.5625 
Q 43.453125 34.8125 35.5 34.8125 
z
M 19.671875 64.796875 
L 19.671875 42.828125 
L 34.28125 42.828125 
Q 41.5 42.828125 45.03125 45.53125 
Q 48.578125 48.25 48.578125 53.8125 
Q 48.578125 59.328125 45.03125 62.0625 
Q 41.5 64.796875 34.28125 64.796875 
z
M 9.8125 72.90625 
L 35.015625 72.90625 
Q 46.296875 72.90625 52.390625 68.21875 
Q 58.5 63.53125 58.5 54.890625 
Q 58.5 48.1875 55.375 44.234375 
Q 52.25 40.28125 46.1875 39.3125 
Q 53.46875 37.75 57.5 32.78125 
Q 61.53125 27.828125 61.53125 20.40625 
Q 61.53125 10.640625 54.890625 5.3125 
Q 48.25 0 35.984375 0 
L 9.8125 0 
z
" id="DejaVuSans-42"/>
     </defs>
     <g transform="translate(90.55 331.167788)scale(0.1 -0.1)">
      <use xlink:href="#DejaVuSans-61"/>
      <use x="61.279297" xlink:href="#DejaVuSans-67"/>
      <use x="124.755859" xlink:href="#DejaVuSans-65"/>
      <use x="186.279297" xlink:href="#DejaVuSans-6e"/>
      <use x="249.658203" xlink:href="#DejaVuSans-74"/>
      <use x="288.867188" xlink:href="#DejaVuSans-20"/>
      <use x="320.654297" xlink:href="#DejaVuSans-33"/>
      <use x="384.277344" xlink:href="#DejaVuSans-20"/>
      <use x="416.064453" xlink:href="#DejaVuSans-28"/>
      <use x="455.078125" xlink:href="#DejaVuSans-54"/>
      <use x="515.896484" xlink:href="#DejaVuSans-65"/>
      <use x="577.419922" xlink:href="#DejaVuSans-61"/>
      <use x="638.699219" xlink:href="#DejaVuSans-6d"/>
      <use x="736.111328" xlink:href="#DejaVuSans-20"/>
      <use x="767.898438" xlink:href="#DejaVuSans-42"/>
      <use x="836.501953" xlink:href="#DejaVuSans-29"/>
     </g>
    </g>
    <g id="line2d_41">
     <path d="M 62.55 342.345912 
L 82.55 342.345912 
" style="fill:none;stroke:#cc2529;stroke-linecap:square;"/>
    </g>
    <g id="line2d_42"/>
    <g id="text_21">
     <!-- agent 4 (Team B) -->
     <g transform="translate(90.55 345.845912)scale(0.1 -0.1)">
      <use xlink:href="#DejaVuSans-61"/>
      <use x="61.279297" xlink:href="#DejaVuSans-67"/>
      <use x="124.755859" xlink:href="#DejaVuSans-65"/>
      <use x="186.279297" xlink:href="#DejaVuSans-6e"/>
      <use x="249.658203" xlink:href="#DejaVuSans-74"/>
      <use x="288.867188" xlink:href="#DejaVuSans-20"/>
      <use x="320.654297" xlink:href="#DejaVuSans-34"/>
      <use x="384.277344" xlink:href="#DejaVuSans-20"/>
      <use x="416.064453" xlink:href="#DejaVuSans-28"/>
      <use x="455.078125" xlink:href="#DejaVuSans-54"/>
      <use x="515.896484" xlink:href="#DejaVuSans-65"/>
      <use x="577.419922" xlink:href="#DejaVuSans-61"/>
      <use x="638.699219" xlink:href="#DejaVuSans-6d"/>
      <use x="736.111328" xlink:href="#DejaVuSans-20"/>
      <use x="767.898438" xlink:href="#DejaVuSans-42"/>
      <use x="836.501953" xlink:href="#DejaVuSans-29"/>
     </g>
    </g>
   </g>
  </g>
 </g>
 <defs>
  <clipPath id="p56d05c4c39">
   <rect height="308.8008" width="332.01" x="53.55" y="48.1248"/>
  </clipPath>
 </defs>
</svg>
