<?xml version="1.0" encoding="utf-8" standalone="no"?>
<!DOCTYPE svg PUBLIC "-//W3C//DTD SVG 1.1//EN"
  "http://www.w3.org/Graphics/SVG/1.1/DTD/svg11.dtd">
<!-- Created with matplotlib (http://matplotlib.org/) -->
<svg height="345pt" version="1.1" viewBox="0 0 651 345" width="651pt" xmlns="http://www.w3.org/2000/svg" xmlns:xlink="http://www.w3.org/1999/xlink">
 <defs>
  <style type="text/css">
*{stroke-linecap:butt;stroke-linejoin:round;}
  </style>
 </defs>
 <g id="figure_1">
  <g id="patch_1">
   <path d="M 0 345.6 
L 651.6 345.6 
L 651.6 0 
L 0 0 
z
" style="fill:#ffffff;"/>
  </g>
  <g id="axes_1">
   <g id="patch_2">
    <path d="M 81.45 307.584 
L 586.44 307.584 
L 586.44 41.472 
L 81.45 41.472 
z
" style="fill:#ffffff;"/>
   </g>
   <g id="PolyCollection_1">
    <defs>
     <path d="M 104.404091 -227.777657 
L 104.404091 -135.688605 
L 109.041281 -102.659908 
L 113.678471 -138.097377 
L 118.315661 -153.455419 
L 122.952851 -160.105318 
L 127.590041 -161.661251 
L 132.227231 -157.144482 
L 136.864421 -156.285281 
L 141.501612 -161.154824 
L 146.138802 -162.461529 
L 150.775992 -167.704714 
L 155.413182 -169.763982 
L 160.050372 -177.216248 
L 164.687562 -185.611376 
L 169.324752 -181.759416 
L 173.961942 -184.559193 
L 178.599132 -191.331571 
L 183.236322 -196.570011 
L 187.873512 -193.476614 
L 192.510702 -195.352902 
L 197.147893 -200.893673 
L 201.785083 -194.53757 
L 206.422273 -200.030496 
L 211.059463 -203.208001 
L 215.696653 -202.059128 
L 220.333843 -206.820032 
L 224.971033 -204.122271 
L 229.608223 -211.264271 
L 234.245413 -208.541791 
L 238.882603 -206.000615 
L 243.519793 -207.063869 
L 248.156983 -206.478985 
L 252.794174 -209.449421 
L 257.431364 -209.556245 
L 262.068554 -214.427316 
L 266.705744 -212.522658 
L 271.342934 -212.111726 
L 275.980124 -214.110443 
L 280.617314 -213.091804 
L 285.254504 -213.037245 
L 289.891694 -213.455781 
L 294.528884 -216.160217 
L 299.166074 -213.145971 
L 303.803264 -214.732877 
L 308.440455 -220.070271 
L 313.077645 -217.352041 
L 317.714835 -219.916338 
L 322.352025 -219.573074 
L 326.989215 -217.655032 
L 331.626405 -218.13534 
L 336.263595 -217.498502 
L 340.900785 -218.115974 
L 345.537975 -219.687984 
L 350.175165 -224.242981 
L 354.812355 -220.722069 
L 359.449545 -218.999965 
L 364.086736 -217.760001 
L 368.723926 -220.092902 
L 373.361116 -220.775926 
L 377.998306 -219.98121 
L 382.635496 -218.176416 
L 387.272686 -216.987731 
L 391.909876 -221.252976 
L 396.547066 -224.537103 
L 401.184256 -222.902815 
L 405.821446 -222.240396 
L 410.458636 -221.80023 
L 415.095826 -221.553213 
L 419.733017 -221.284178 
L 424.370207 -222.812598 
L 429.007397 -218.218073 
L 433.644587 -222.410643 
L 438.281777 -222.803484 
L 442.918967 -220.907512 
L 447.556157 -221.952913 
L 452.193347 -223.89887 
L 456.830537 -221.636304 
L 461.467727 -222.713326 
L 466.104917 -223.713591 
L 470.742107 -219.944687 
L 475.379298 -222.563821 
L 480.016488 -214.991844 
L 484.653678 -218.912086 
L 489.290868 -214.946768 
L 493.928058 -218.156975 
L 498.565248 -217.4362 
L 503.202438 -219.09406 
L 507.839628 -218.934432 
L 512.476818 -221.871363 
L 517.114008 -219.343547 
L 521.751198 -218.073288 
L 526.388388 -215.387419 
L 531.025579 -221.006981 
L 535.662769 -215.85112 
L 540.299959 -218.363204 
L 544.937149 -219.734779 
L 549.574339 -218.448349 
L 554.211529 -219.017331 
L 558.848719 -215.277949 
L 563.485909 -220.031372 
L 563.485909 -276.427002 
L 563.485909 -276.427002 
L 558.848719 -275.121978 
L 554.211529 -276.499833 
L 549.574339 -276.644467 
L 544.937149 -275.824395 
L 540.299959 -277.17536 
L 535.662769 -273.746977 
L 531.025579 -276.28725 
L 526.388388 -274.571846 
L 521.751198 -273.606121 
L 517.114008 -276.646631 
L 512.476818 -277.414046 
L 507.839628 -274.806927 
L 503.202438 -276.174476 
L 498.565248 -275.592366 
L 493.928058 -274.173533 
L 489.290868 -273.956108 
L 484.653678 -276.298386 
L 480.016488 -272.66358 
L 475.379298 -277.427631 
L 470.742107 -275.965231 
L 466.104917 -279.117331 
L 461.467727 -277.353635 
L 456.830537 -278.517353 
L 452.193347 -278.421518 
L 447.556157 -276.169825 
L 442.918967 -274.954459 
L 438.281777 -277.507314 
L 433.644587 -276.870523 
L 429.007397 -274.797039 
L 424.370207 -278.745054 
L 419.733017 -276.552646 
L 415.095826 -277.686099 
L 410.458636 -278.866684 
L 405.821446 -278.159882 
L 401.184256 -277.371889 
L 396.547066 -277.554352 
L 391.909876 -278.255827 
L 387.272686 -273.471333 
L 382.635496 -276.189728 
L 377.998306 -275.936631 
L 373.361116 -275.497906 
L 368.723926 -272.821252 
L 364.086736 -274.689905 
L 359.449545 -273.855031 
L 354.812355 -274.926807 
L 350.175165 -274.455595 
L 345.537975 -274.391301 
L 340.900785 -274.200007 
L 336.263595 -271.660569 
L 331.626405 -271.056398 
L 326.989215 -272.997717 
L 322.352025 -271.162048 
L 317.714835 -272.232117 
L 313.077645 -272.374614 
L 308.440455 -270.171098 
L 303.803264 -267.057604 
L 299.166074 -267.237986 
L 294.528884 -266.310158 
L 289.891694 -267.986564 
L 285.254504 -268.540771 
L 280.617314 -265.369541 
L 275.980124 -265.940541 
L 271.342934 -266.685862 
L 266.705744 -264.89552 
L 262.068554 -268.81576 
L 257.431364 -266.922825 
L 252.794174 -263.409587 
L 248.156983 -263.00137 
L 243.519793 -263.5996 
L 238.882603 -262.593971 
L 234.245413 -263.938416 
L 229.608223 -261.929373 
L 224.971033 -261.183754 
L 220.333843 -261.636451 
L 215.696653 -262.50309 
L 211.059463 -260.449864 
L 206.422273 -257.985592 
L 201.785083 -255.294512 
L 197.147893 -259.838947 
L 192.510702 -257.453038 
L 187.873512 -256.96778 
L 183.236322 -258.213827 
L 178.599132 -255.204478 
L 173.961942 -249.626343 
L 169.324752 -251.620615 
L 164.687562 -254.663689 
L 160.050372 -248.867471 
L 155.413182 -246.846158 
L 150.775992 -245.874901 
L 146.138802 -239.210498 
L 141.501612 -240.184148 
L 136.864421 -237.812102 
L 132.227231 -237.532769 
L 127.590041 -237.449408 
L 122.952851 -238.606426 
L 118.315661 -236.383263 
L 113.678471 -223.890734 
L 109.041281 -206.765995 
L 104.404091 -227.777657 
z
" id="md838bb2b08" style="stroke:#396ab1;stroke-opacity:0.2;"/>
    </defs>
    <g clip-path="url(#p42d4ed9204)">
     <use style="fill:#396ab1;fill-opacity:0.2;stroke:#396ab1;stroke-opacity:0.2;" x="0" xlink:href="#md838bb2b08" y="345.6"/>
    </g>
   </g>
   <g id="PolyCollection_2">
    <defs>
     <path d="M 104.404091 -231.544781 
L 104.404091 -140.062823 
L 109.041281 -50.596405 
L 113.678471 -131.445805 
L 118.315661 -145.144864 
L 122.952851 -156.111539 
L 127.590041 -165.534022 
L 132.227231 -154.863415 
L 136.864421 -152.738524 
L 141.501612 -161.102648 
L 146.138802 -163.342036 
L 150.775992 -167.531087 
L 155.413182 -171.756794 
L 160.050372 -176.636242 
L 164.687562 -182.79625 
L 169.324752 -186.538496 
L 173.961942 -194.315939 
L 178.599132 -192.821263 
L 183.236322 -195.188242 
L 187.873512 -200.897159 
L 192.510702 -201.05842 
L 197.147893 -204.26162 
L 201.785083 -202.881989 
L 206.422273 -203.574319 
L 211.059463 -206.685831 
L 215.696653 -207.276308 
L 220.333843 -204.97904 
L 224.971033 -206.092768 
L 229.608223 -210.651445 
L 234.245413 -211.150474 
L 238.882603 -207.068545 
L 243.519793 -208.430899 
L 248.156983 -208.049123 
L 252.794174 -208.261022 
L 257.431364 -210.693296 
L 262.068554 -214.284988 
L 266.705744 -214.131021 
L 271.342934 -216.862669 
L 275.980124 -216.711417 
L 280.617314 -213.333206 
L 285.254504 -219.536246 
L 289.891694 -214.934073 
L 294.528884 -215.476352 
L 299.166074 -220.403753 
L 303.803264 -215.451335 
L 308.440455 -219.382631 
L 313.077645 -219.485911 
L 317.714835 -216.452231 
L 322.352025 -221.66723 
L 326.989215 -217.757869 
L 331.626405 -221.97116 
L 336.263595 -222.733456 
L 340.900785 -217.618244 
L 345.537975 -220.169005 
L 350.175165 -227.280212 
L 354.812355 -225.752603 
L 359.449545 -223.988682 
L 364.086736 -219.145688 
L 368.723926 -228.585179 
L 373.361116 -215.259292 
L 377.998306 -223.755611 
L 382.635496 -218.588448 
L 387.272686 -222.510163 
L 391.909876 -223.21772 
L 396.547066 -225.712003 
L 401.184256 -225.631257 
L 405.821446 -225.364363 
L 410.458636 -222.577517 
L 415.095826 -226.543917 
L 419.733017 -229.628532 
L 424.370207 -226.836897 
L 429.007397 -223.275808 
L 433.644587 -224.369391 
L 438.281777 -230.365424 
L 442.918967 -226.678337 
L 447.556157 -230.843625 
L 452.193347 -228.060829 
L 456.830537 -230.739153 
L 461.467727 -225.808869 
L 466.104917 -230.905921 
L 470.742107 -230.796265 
L 475.379298 -227.737833 
L 480.016488 -228.259003 
L 484.653678 -222.645428 
L 489.290868 -226.864959 
L 493.928058 -226.72397 
L 498.565248 -224.23932 
L 503.202438 -233.367567 
L 507.839628 -229.175823 
L 512.476818 -229.728744 
L 517.114008 -230.001502 
L 521.751198 -225.220927 
L 526.388388 -228.329367 
L 531.025579 -226.975532 
L 535.662769 -227.458548 
L 540.299959 -229.463538 
L 544.937149 -232.326237 
L 549.574339 -227.563468 
L 554.211529 -223.842077 
L 558.848719 -228.615039 
L 563.485909 -228.243036 
L 563.485909 -290.150161 
L 563.485909 -290.150161 
L 558.848719 -289.358331 
L 554.211529 -286.435768 
L 549.574339 -289.347871 
L 544.937149 -292.032 
L 540.299959 -290.177975 
L 535.662769 -288.300519 
L 531.025579 -289.222226 
L 526.388388 -290.722665 
L 521.751198 -289.728874 
L 517.114008 -289.939827 
L 512.476818 -289.649932 
L 507.839628 -289.646536 
L 503.202438 -289.985285 
L 498.565248 -284.643311 
L 493.928058 -286.815819 
L 489.290868 -286.746195 
L 484.653678 -284.716337 
L 480.016488 -289.375933 
L 475.379298 -287.072857 
L 470.742107 -289.984944 
L 466.104917 -288.731313 
L 461.467727 -288.285595 
L 456.830537 -288.027906 
L 452.193347 -286.084937 
L 447.556157 -289.563428 
L 442.918967 -286.264146 
L 438.281777 -286.569344 
L 433.644587 -283.903595 
L 429.007397 -284.577972 
L 424.370207 -287.326086 
L 419.733017 -286.288302 
L 415.095826 -284.099368 
L 410.458636 -281.831141 
L 405.821446 -283.317188 
L 401.184256 -284.651413 
L 396.547066 -282.988043 
L 391.909876 -283.548994 
L 387.272686 -282.357171 
L 382.635496 -279.052167 
L 377.998306 -282.631387 
L 373.361116 -278.311363 
L 368.723926 -283.436521 
L 364.086736 -280.021268 
L 359.449545 -280.73178 
L 354.812355 -283.310681 
L 350.175165 -280.222013 
L 345.537975 -277.17101 
L 340.900785 -276.06353 
L 336.263595 -275.980528 
L 331.626405 -276.462331 
L 326.989215 -273.950988 
L 322.352025 -275.247553 
L 317.714835 -273.004022 
L 313.077645 -272.783935 
L 308.440455 -273.094132 
L 303.803264 -275.297345 
L 299.166074 -275.884151 
L 294.528884 -270.689216 
L 289.891694 -270.488974 
L 285.254504 -273.319601 
L 280.617314 -269.135803 
L 275.980124 -269.618476 
L 271.342934 -271.349181 
L 266.705744 -270.234526 
L 262.068554 -269.526201 
L 257.431364 -269.396526 
L 252.794174 -266.893933 
L 248.156983 -265.941367 
L 243.519793 -265.286469 
L 238.882603 -267.160802 
L 234.245413 -269.87203 
L 229.608223 -268.990754 
L 224.971033 -265.405822 
L 220.333843 -265.317767 
L 215.696653 -268.724318 
L 211.059463 -265.312634 
L 206.422273 -266.260671 
L 201.785083 -266.323853 
L 197.147893 -264.022776 
L 192.510702 -265.060977 
L 187.873512 -261.301174 
L 183.236322 -260.67933 
L 178.599132 -260.604599 
L 173.961942 -260.872558 
L 169.324752 -256.06273 
L 164.687562 -252.482724 
L 160.050372 -247.860402 
L 155.413182 -246.827883 
L 150.775992 -244.542186 
L 146.138802 -241.3788 
L 141.501612 -238.067449 
L 136.864421 -235.073973 
L 132.227231 -234.523841 
L 127.590041 -243.355202 
L 122.952851 -236.70279 
L 118.315661 -231.724092 
L 113.678471 -219.833022 
L 109.041281 -182.360057 
L 104.404091 -231.544781 
z
" id="ma439ed9283" style="stroke:#da7c30;stroke-opacity:0.2;"/>
    </defs>
    <g clip-path="url(#p42d4ed9204)">
     <use style="fill:#da7c30;fill-opacity:0.2;stroke:#da7c30;stroke-opacity:0.2;" x="0" xlink:href="#ma439ed9283" y="345.6"/>
    </g>
   </g>
   <g id="PolyCollection_3">
    <defs>
     <path d="M 104.404091 -223.003741 
L 104.404091 -129.881087 
L 109.041281 -50.112 
L 113.678471 -131.684338 
L 118.315661 -126.097017 
L 122.952851 -138.920314 
L 127.590041 -135.437048 
L 132.227231 -127.249683 
L 136.864421 -131.704479 
L 141.501612 -134.302315 
L 146.138802 -133.161538 
L 150.775992 -141.826437 
L 155.413182 -144.052634 
L 160.050372 -150.060453 
L 164.687562 -154.73182 
L 169.324752 -159.427383 
L 173.961942 -162.208645 
L 178.599132 -165.854198 
L 183.236322 -168.450809 
L 187.873512 -168.364992 
L 192.510702 -171.084561 
L 197.147893 -175.674583 
L 201.785083 -172.315304 
L 206.422273 -175.570956 
L 211.059463 -180.164918 
L 215.696653 -176.963997 
L 220.333843 -182.839785 
L 224.971033 -186.690617 
L 229.608223 -191.77827 
L 234.245413 -184.948576 
L 238.882603 -185.009829 
L 243.519793 -188.866626 
L 248.156983 -187.904909 
L 252.794174 -188.043733 
L 257.431364 -188.192947 
L 262.068554 -194.10051 
L 266.705744 -195.880631 
L 271.342934 -190.171533 
L 275.980124 -191.767661 
L 280.617314 -192.715708 
L 285.254504 -195.877865 
L 289.891694 -195.137134 
L 294.528884 -194.425897 
L 299.166074 -193.339853 
L 303.803264 -190.423669 
L 308.440455 -197.16105 
L 313.077645 -195.683123 
L 317.714835 -191.049043 
L 322.352025 -200.665254 
L 326.989215 -192.767473 
L 331.626405 -195.821046 
L 336.263595 -200.772817 
L 340.900785 -189.509485 
L 345.537975 -195.361283 
L 350.175165 -191.008102 
L 354.812355 -193.974607 
L 359.449545 -193.47186 
L 364.086736 -190.981606 
L 368.723926 -192.866805 
L 373.361116 -192.836706 
L 377.998306 -192.628171 
L 382.635496 -188.913796 
L 387.272686 -194.10353 
L 391.909876 -192.529863 
L 396.547066 -196.486981 
L 401.184256 -193.201075 
L 405.821446 -193.408648 
L 410.458636 -188.749561 
L 415.095826 -191.715032 
L 419.733017 -196.807737 
L 424.370207 -194.496302 
L 429.007397 -195.046882 
L 433.644587 -196.451167 
L 438.281777 -192.49914 
L 442.918967 -196.743436 
L 447.556157 -198.267449 
L 452.193347 -198.514289 
L 456.830537 -198.820204 
L 461.467727 -193.04201 
L 466.104917 -198.694144 
L 470.742107 -199.086473 
L 475.379298 -199.51276 
L 480.016488 -190.263554 
L 484.653678 -194.513857 
L 489.290868 -196.139447 
L 493.928058 -198.320833 
L 498.565248 -191.114738 
L 503.202438 -193.757728 
L 507.839628 -193.53649 
L 512.476818 -195.424006 
L 517.114008 -200.599695 
L 521.751198 -197.34488 
L 526.388388 -191.2473 
L 531.025579 -193.014428 
L 535.662769 -195.673061 
L 540.299959 -194.710216 
L 544.937149 -190.090633 
L 549.574339 -190.62182 
L 554.211529 -189.193657 
L 558.848719 -190.814828 
L 563.485909 -194.800054 
L 563.485909 -259.316546 
L 563.485909 -259.316546 
L 558.848719 -256.912338 
L 554.211529 -257.166082 
L 549.574339 -259.036007 
L 544.937149 -257.079634 
L 540.299959 -258.407377 
L 535.662769 -260.675784 
L 531.025579 -258.630222 
L 526.388388 -261.104399 
L 521.751198 -263.568886 
L 517.114008 -262.047279 
L 512.476818 -259.381133 
L 507.839628 -259.391532 
L 503.202438 -259.15479 
L 498.565248 -258.52774 
L 493.928058 -262.510493 
L 489.290868 -259.197048 
L 484.653678 -258.609795 
L 480.016488 -260.589517 
L 475.379298 -263.996721 
L 470.742107 -263.085763 
L 466.104917 -262.518279 
L 461.467727 -257.60857 
L 456.830537 -261.64099 
L 452.193347 -260.794726 
L 447.556157 -262.743866 
L 442.918967 -259.004256 
L 438.281777 -259.203289 
L 433.644587 -260.275636 
L 429.007397 -261.949749 
L 424.370207 -260.839107 
L 419.733017 -258.049097 
L 415.095826 -258.76888 
L 410.458636 -254.286309 
L 405.821446 -260.645192 
L 401.184256 -259.522918 
L 396.547066 -260.383553 
L 391.909876 -258.503828 
L 387.272686 -260.8829 
L 382.635496 -258.764805 
L 377.998306 -258.560068 
L 373.361116 -258.915307 
L 368.723926 -258.097138 
L 364.086736 -255.446964 
L 359.449545 -258.615753 
L 354.812355 -256.491498 
L 350.175165 -255.702562 
L 345.537975 -257.987823 
L 340.900785 -256.332491 
L 336.263595 -259.659838 
L 331.626405 -258.259865 
L 326.989215 -255.805188 
L 322.352025 -260.609073 
L 317.714835 -254.475876 
L 313.077645 -258.096947 
L 308.440455 -255.284204 
L 303.803264 -253.642975 
L 299.166074 -255.832892 
L 294.528884 -256.582238 
L 289.891694 -256.789168 
L 285.254504 -256.1126 
L 280.617314 -252.403372 
L 275.980124 -250.558824 
L 271.342934 -251.525747 
L 266.705744 -253.564127 
L 262.068554 -253.502912 
L 257.431364 -252.983142 
L 252.794174 -250.988588 
L 248.156983 -252.224289 
L 243.519793 -249.833599 
L 238.882603 -249.270989 
L 234.245413 -249.79057 
L 229.608223 -255.039488 
L 224.971033 -250.60552 
L 220.333843 -246.055428 
L 215.696653 -243.921405 
L 211.059463 -246.246109 
L 206.422273 -243.988027 
L 201.785083 -242.305915 
L 197.147893 -244.714963 
L 192.510702 -242.584491 
L 187.873512 -241.638824 
L 183.236322 -240.936527 
L 178.599132 -240.548429 
L 173.961942 -237.463079 
L 169.324752 -237.616122 
L 164.687562 -234.833577 
L 160.050372 -231.32461 
L 155.413182 -230.145714 
L 150.775992 -226.77226 
L 146.138802 -222.884803 
L 141.501612 -223.629526 
L 136.864421 -222.115436 
L 132.227231 -218.787851 
L 127.590041 -219.575646 
L 122.952851 -223.103421 
L 118.315661 -214.76747 
L 113.678471 -217.444155 
L 109.041281 -186.943362 
L 104.404091 -223.003741 
z
" id="mb41bbc11a0" style="stroke:#3e9651;stroke-opacity:0.2;"/>
    </defs>
    <g clip-path="url(#p42d4ed9204)">
     <use style="fill:#3e9651;fill-opacity:0.2;stroke:#3e9651;stroke-opacity:0.2;" x="0" xlink:href="#mb41bbc11a0" y="345.6"/>
    </g>
   </g>
   <g id="PolyCollection_4">
    <defs>
     <path d="M 104.404091 -225.464637 
L 104.404091 -140.280673 
L 109.041281 -98.293638 
L 113.678471 -126.40248 
L 118.315661 -131.572728 
L 122.952851 -135.317204 
L 127.590041 -140.565942 
L 132.227231 -124.238938 
L 136.864421 -132.211294 
L 141.501612 -134.693084 
L 146.138802 -142.745591 
L 150.775992 -146.364336 
L 155.413182 -150.01317 
L 160.050372 -157.582617 
L 164.687562 -161.645422 
L 169.324752 -166.376055 
L 173.961942 -172.572566 
L 178.599132 -174.443616 
L 183.236322 -182.326678 
L 187.873512 -184.93823 
L 192.510702 -183.166418 
L 197.147893 -191.952508 
L 201.785083 -182.902604 
L 206.422273 -189.349035 
L 211.059463 -191.968917 
L 215.696653 -190.090114 
L 220.333843 -200.012413 
L 224.971033 -191.046293 
L 229.608223 -198.645061 
L 234.245413 -196.121646 
L 238.882603 -195.726878 
L 243.519793 -195.134194 
L 248.156983 -197.641639 
L 252.794174 -196.870207 
L 257.431364 -203.34705 
L 262.068554 -204.678412 
L 266.705744 -204.658735 
L 271.342934 -201.200887 
L 275.980124 -201.732495 
L 280.617314 -201.95816 
L 285.254504 -203.953347 
L 289.891694 -203.897529 
L 294.528884 -205.951809 
L 299.166074 -206.724671 
L 303.803264 -200.415733 
L 308.440455 -205.393958 
L 313.077645 -207.448848 
L 317.714835 -199.546079 
L 322.352025 -208.004167 
L 326.989215 -203.611659 
L 331.626405 -213.240788 
L 336.263595 -205.478778 
L 340.900785 -199.260297 
L 345.537975 -205.705045 
L 350.175165 -211.180132 
L 354.812355 -199.105925 
L 359.449545 -200.62483 
L 364.086736 -200.524863 
L 368.723926 -206.52999 
L 373.361116 -200.136492 
L 377.998306 -203.728785 
L 382.635496 -193.758175 
L 387.272686 -193.573225 
L 391.909876 -201.445823 
L 396.547066 -205.208433 
L 401.184256 -201.204644 
L 405.821446 -201.32948 
L 410.458636 -196.850119 
L 415.095826 -198.457089 
L 419.733017 -203.419108 
L 424.370207 -200.818696 
L 429.007397 -205.189526 
L 433.644587 -203.763374 
L 438.281777 -206.713378 
L 442.918967 -204.440364 
L 447.556157 -205.161605 
L 452.193347 -206.142616 
L 456.830537 -203.289687 
L 461.467727 -200.648028 
L 466.104917 -201.093462 
L 470.742107 -198.353105 
L 475.379298 -199.026991 
L 480.016488 -203.431594 
L 484.653678 -201.721567 
L 489.290868 -204.257777 
L 493.928058 -204.504299 
L 498.565248 -198.06311 
L 503.202438 -198.859674 
L 507.839628 -200.383846 
L 512.476818 -198.410587 
L 517.114008 -207.290992 
L 521.751198 -201.244962 
L 526.388388 -197.75963 
L 531.025579 -206.994813 
L 535.662769 -205.341593 
L 540.299959 -198.952543 
L 544.937149 -205.755183 
L 549.574339 -205.792889 
L 554.211529 -200.263964 
L 558.848719 -200.815209 
L 563.485909 -202.538283 
L 563.485909 -272.304733 
L 563.485909 -272.304733 
L 558.848719 -270.617432 
L 554.211529 -272.350383 
L 549.574339 -274.112836 
L 544.937149 -274.022338 
L 540.299959 -270.305706 
L 535.662769 -274.411468 
L 531.025579 -275.141824 
L 526.388388 -271.660733 
L 521.751198 -274.924996 
L 517.114008 -275.332194 
L 512.476818 -269.108801 
L 507.839628 -272.062217 
L 503.202438 -268.925593 
L 498.565248 -270.494576 
L 493.928058 -274.329645 
L 489.290868 -274.413801 
L 484.653678 -273.076643 
L 480.016488 -273.852815 
L 475.379298 -269.865874 
L 470.742107 -270.103029 
L 466.104917 -270.389417 
L 461.467727 -270.549272 
L 456.830537 -271.076477 
L 452.193347 -273.351197 
L 447.556157 -274.695993 
L 442.918967 -271.311348 
L 438.281777 -274.901778 
L 433.644587 -272.047638 
L 429.007397 -273.582916 
L 424.370207 -273.08199 
L 419.733017 -270.471303 
L 415.095826 -269.788713 
L 410.458636 -270.006086 
L 405.821446 -269.567231 
L 401.184256 -270.846243 
L 396.547066 -269.680723 
L 391.909876 -270.847842 
L 387.272686 -267.499452 
L 382.635496 -268.563498 
L 377.998306 -272.643936 
L 373.361116 -270.103279 
L 368.723926 -274.172596 
L 364.086736 -272.532388 
L 359.449545 -269.441676 
L 354.812355 -267.646452 
L 350.175165 -275.047229 
L 345.537975 -272.790793 
L 340.900785 -268.360845 
L 336.263595 -271.466672 
L 331.626405 -271.881376 
L 326.989215 -269.416341 
L 322.352025 -270.112519 
L 317.714835 -266.676311 
L 313.077645 -269.168043 
L 308.440455 -266.717359 
L 303.803264 -266.23122 
L 299.166074 -270.602303 
L 294.528884 -268.241128 
L 289.891694 -264.154226 
L 285.254504 -269.581292 
L 280.617314 -266.025771 
L 275.980124 -267.049087 
L 271.342934 -266.22505 
L 266.705744 -268.538471 
L 262.068554 -265.749571 
L 257.431364 -269.558587 
L 252.794174 -265.875217 
L 248.156983 -264.315428 
L 243.519793 -263.066353 
L 238.882603 -261.841906 
L 234.245413 -261.325758 
L 229.608223 -261.669322 
L 224.971033 -257.318505 
L 220.333843 -263.452932 
L 215.696653 -256.824744 
L 211.059463 -256.817565 
L 206.422273 -258.538764 
L 201.785083 -252.342042 
L 197.147893 -257.536523 
L 192.510702 -254.405505 
L 187.873512 -253.141427 
L 183.236322 -252.322024 
L 178.599132 -248.869544 
L 173.961942 -248.923852 
L 169.324752 -242.478426 
L 164.687562 -242.389767 
L 160.050372 -238.952785 
L 155.413182 -234.748314 
L 150.775992 -232.452385 
L 146.138802 -229.273486 
L 141.501612 -223.87406 
L 136.864421 -221.887058 
L 132.227231 -214.256075 
L 127.590041 -222.366897 
L 122.952851 -219.045181 
L 118.315661 -219.790745 
L 113.678471 -216.553431 
L 109.041281 -202.242683 
L 104.404091 -225.464637 
z
" id="meb1e3931aa" style="stroke:#cc2529;stroke-opacity:0.2;"/>
    </defs>
    <g clip-path="url(#p42d4ed9204)">
     <use style="fill:#cc2529;fill-opacity:0.2;stroke:#cc2529;stroke-opacity:0.2;" x="0" xlink:href="#meb1e3931aa" y="345.6"/>
    </g>
   </g>
   <g id="matplotlib.axis_1">
    <g id="xtick_1">
     <g id="line2d_1">
      <path clip-path="url(#p42d4ed9204)" d="M 104.404091 307.584 
L 104.404091 41.472 
" style="fill:none;stroke:#b0b0b0;stroke-linecap:square;stroke-width:0.8;"/>
     </g>
     <g id="line2d_2">
      <defs>
       <path d="M 0 0 
L 0 3.5 
" id="m4b84af67c4" style="stroke:#000000;stroke-width:0.8;"/>
      </defs>
      <g>
       <use style="stroke:#000000;stroke-width:0.8;" x="104.404091" xlink:href="#m4b84af67c4" y="307.584"/>
      </g>
     </g>
     <g id="text_1">
      <!-- 0 -->
      <defs>
       <path d="M 31.78125 66.40625 
Q 24.171875 66.40625 20.328125 58.90625 
Q 16.5 51.421875 16.5 36.375 
Q 16.5 21.390625 20.328125 13.890625 
Q 24.171875 6.390625 31.78125 6.390625 
Q 39.453125 6.390625 43.28125 13.890625 
Q 47.125 21.390625 47.125 36.375 
Q 47.125 51.421875 43.28125 58.90625 
Q 39.453125 66.40625 31.78125 66.40625 
z
M 31.78125 74.21875 
Q 44.046875 74.21875 50.515625 64.515625 
Q 56.984375 54.828125 56.984375 36.375 
Q 56.984375 17.96875 50.515625 8.265625 
Q 44.046875 -1.421875 31.78125 -1.421875 
Q 19.53125 -1.421875 13.0625 8.265625 
Q 6.59375 17.96875 6.59375 36.375 
Q 6.59375 54.828125 13.0625 64.515625 
Q 19.53125 74.21875 31.78125 74.21875 
z
" id="DejaVuSans-30"/>
      </defs>
      <g transform="translate(101.222841 322.182437)scale(0.1 -0.1)">
       <use xlink:href="#DejaVuSans-30"/>
      </g>
     </g>
    </g>
    <g id="xtick_2">
     <g id="line2d_3">
      <path clip-path="url(#p42d4ed9204)" d="M 197.147893 307.584 
L 197.147893 41.472 
" style="fill:none;stroke:#b0b0b0;stroke-linecap:square;stroke-width:0.8;"/>
     </g>
     <g id="line2d_4">
      <g>
       <use style="stroke:#000000;stroke-width:0.8;" x="197.147893" xlink:href="#m4b84af67c4" y="307.584"/>
      </g>
     </g>
     <g id="text_2">
      <!-- 20 -->
      <defs>
       <path d="M 19.1875 8.296875 
L 53.609375 8.296875 
L 53.609375 0 
L 7.328125 0 
L 7.328125 8.296875 
Q 12.9375 14.109375 22.625 23.890625 
Q 32.328125 33.6875 34.8125 36.53125 
Q 39.546875 41.84375 41.421875 45.53125 
Q 43.3125 49.21875 43.3125 52.78125 
Q 43.3125 58.59375 39.234375 62.25 
Q 35.15625 65.921875 28.609375 65.921875 
Q 23.96875 65.921875 18.8125 64.3125 
Q 13.671875 62.703125 7.8125 59.421875 
L 7.8125 69.390625 
Q 13.765625 71.78125 18.9375 73 
Q 24.125 74.21875 28.421875 74.21875 
Q 39.75 74.21875 46.484375 68.546875 
Q 53.21875 62.890625 53.21875 53.421875 
Q 53.21875 48.921875 51.53125 44.890625 
Q 49.859375 40.875 45.40625 35.40625 
Q 44.1875 33.984375 37.640625 27.21875 
Q 31.109375 20.453125 19.1875 8.296875 
z
" id="DejaVuSans-32"/>
      </defs>
      <g transform="translate(190.785393 322.182437)scale(0.1 -0.1)">
       <use xlink:href="#DejaVuSans-32"/>
       <use x="63.623047" xlink:href="#DejaVuSans-30"/>
      </g>
     </g>
    </g>
    <g id="xtick_3">
     <g id="line2d_5">
      <path clip-path="url(#p42d4ed9204)" d="M 289.891694 307.584 
L 289.891694 41.472 
" style="fill:none;stroke:#b0b0b0;stroke-linecap:square;stroke-width:0.8;"/>
     </g>
     <g id="line2d_6">
      <g>
       <use style="stroke:#000000;stroke-width:0.8;" x="289.891694" xlink:href="#m4b84af67c4" y="307.584"/>
      </g>
     </g>
     <g id="text_3">
      <!-- 40 -->
      <defs>
       <path d="M 37.796875 64.3125 
L 12.890625 25.390625 
L 37.796875 25.390625 
z
M 35.203125 72.90625 
L 47.609375 72.90625 
L 47.609375 25.390625 
L 58.015625 25.390625 
L 58.015625 17.1875 
L 47.609375 17.1875 
L 47.609375 0 
L 37.796875 0 
L 37.796875 17.1875 
L 4.890625 17.1875 
L 4.890625 26.703125 
z
" id="DejaVuSans-34"/>
      </defs>
      <g transform="translate(283.529194 322.182437)scale(0.1 -0.1)">
       <use xlink:href="#DejaVuSans-34"/>
       <use x="63.623047" xlink:href="#DejaVuSans-30"/>
      </g>
     </g>
    </g>
    <g id="xtick_4">
     <g id="line2d_7">
      <path clip-path="url(#p42d4ed9204)" d="M 382.635496 307.584 
L 382.635496 41.472 
" style="fill:none;stroke:#b0b0b0;stroke-linecap:square;stroke-width:0.8;"/>
     </g>
     <g id="line2d_8">
      <g>
       <use style="stroke:#000000;stroke-width:0.8;" x="382.635496" xlink:href="#m4b84af67c4" y="307.584"/>
      </g>
     </g>
     <g id="text_4">
      <!-- 60 -->
      <defs>
       <path d="M 33.015625 40.375 
Q 26.375 40.375 22.484375 35.828125 
Q 18.609375 31.296875 18.609375 23.390625 
Q 18.609375 15.53125 22.484375 10.953125 
Q 26.375 6.390625 33.015625 6.390625 
Q 39.65625 6.390625 43.53125 10.953125 
Q 47.40625 15.53125 47.40625 23.390625 
Q 47.40625 31.296875 43.53125 35.828125 
Q 39.65625 40.375 33.015625 40.375 
z
M 52.59375 71.296875 
L 52.59375 62.3125 
Q 48.875 64.0625 45.09375 64.984375 
Q 41.3125 65.921875 37.59375 65.921875 
Q 27.828125 65.921875 22.671875 59.328125 
Q 17.53125 52.734375 16.796875 39.40625 
Q 19.671875 43.65625 24.015625 45.921875 
Q 28.375 48.1875 33.59375 48.1875 
Q 44.578125 48.1875 50.953125 41.515625 
Q 57.328125 34.859375 57.328125 23.390625 
Q 57.328125 12.15625 50.6875 5.359375 
Q 44.046875 -1.421875 33.015625 -1.421875 
Q 20.359375 -1.421875 13.671875 8.265625 
Q 6.984375 17.96875 6.984375 36.375 
Q 6.984375 53.65625 15.1875 63.9375 
Q 23.390625 74.21875 37.203125 74.21875 
Q 40.921875 74.21875 44.703125 73.484375 
Q 48.484375 72.75 52.59375 71.296875 
z
" id="DejaVuSans-36"/>
      </defs>
      <g transform="translate(376.272996 322.182437)scale(0.1 -0.1)">
       <use xlink:href="#DejaVuSans-36"/>
       <use x="63.623047" xlink:href="#DejaVuSans-30"/>
      </g>
     </g>
    </g>
    <g id="xtick_5">
     <g id="line2d_9">
      <path clip-path="url(#p42d4ed9204)" d="M 475.379298 307.584 
L 475.379298 41.472 
" style="fill:none;stroke:#b0b0b0;stroke-linecap:square;stroke-width:0.8;"/>
     </g>
     <g id="line2d_10">
      <g>
       <use style="stroke:#000000;stroke-width:0.8;" x="475.379298" xlink:href="#m4b84af67c4" y="307.584"/>
      </g>
     </g>
     <g id="text_5">
      <!-- 80 -->
      <defs>
       <path d="M 31.78125 34.625 
Q 24.75 34.625 20.71875 30.859375 
Q 16.703125 27.09375 16.703125 20.515625 
Q 16.703125 13.921875 20.71875 10.15625 
Q 24.75 6.390625 31.78125 6.390625 
Q 38.8125 6.390625 42.859375 10.171875 
Q 46.921875 13.96875 46.921875 20.515625 
Q 46.921875 27.09375 42.890625 30.859375 
Q 38.875 34.625 31.78125 34.625 
z
M 21.921875 38.8125 
Q 15.578125 40.375 12.03125 44.71875 
Q 8.5 49.078125 8.5 55.328125 
Q 8.5 64.0625 14.71875 69.140625 
Q 20.953125 74.21875 31.78125 74.21875 
Q 42.671875 74.21875 48.875 69.140625 
Q 55.078125 64.0625 55.078125 55.328125 
Q 55.078125 49.078125 51.53125 44.71875 
Q 48 40.375 41.703125 38.8125 
Q 48.828125 37.15625 52.796875 32.3125 
Q 56.78125 27.484375 56.78125 20.515625 
Q 56.78125 9.90625 50.3125 4.234375 
Q 43.84375 -1.421875 31.78125 -1.421875 
Q 19.734375 -1.421875 13.25 4.234375 
Q 6.78125 9.90625 6.78125 20.515625 
Q 6.78125 27.484375 10.78125 32.3125 
Q 14.796875 37.15625 21.921875 38.8125 
z
M 18.3125 54.390625 
Q 18.3125 48.734375 21.84375 45.5625 
Q 25.390625 42.390625 31.78125 42.390625 
Q 38.140625 42.390625 41.71875 45.5625 
Q 45.3125 48.734375 45.3125 54.390625 
Q 45.3125 60.0625 41.71875 63.234375 
Q 38.140625 66.40625 31.78125 66.40625 
Q 25.390625 66.40625 21.84375 63.234375 
Q 18.3125 60.0625 18.3125 54.390625 
z
" id="DejaVuSans-38"/>
      </defs>
      <g transform="translate(469.016798 322.182437)scale(0.1 -0.1)">
       <use xlink:href="#DejaVuSans-38"/>
       <use x="63.623047" xlink:href="#DejaVuSans-30"/>
      </g>
     </g>
    </g>
    <g id="xtick_6">
     <g id="line2d_11">
      <path clip-path="url(#p42d4ed9204)" d="M 568.123099 307.584 
L 568.123099 41.472 
" style="fill:none;stroke:#b0b0b0;stroke-linecap:square;stroke-width:0.8;"/>
     </g>
     <g id="line2d_12">
      <g>
       <use style="stroke:#000000;stroke-width:0.8;" x="568.123099" xlink:href="#m4b84af67c4" y="307.584"/>
      </g>
     </g>
     <g id="text_6">
      <!-- 100 -->
      <defs>
       <path d="M 12.40625 8.296875 
L 28.515625 8.296875 
L 28.515625 63.921875 
L 10.984375 60.40625 
L 10.984375 69.390625 
L 28.421875 72.90625 
L 38.28125 72.90625 
L 38.28125 8.296875 
L 54.390625 8.296875 
L 54.390625 0 
L 12.40625 0 
z
" id="DejaVuSans-31"/>
      </defs>
      <g transform="translate(558.579349 322.182437)scale(0.1 -0.1)">
       <use xlink:href="#DejaVuSans-31"/>
       <use x="63.623047" xlink:href="#DejaVuSans-30"/>
       <use x="127.246094" xlink:href="#DejaVuSans-30"/>
      </g>
     </g>
    </g>
    <g id="text_7">
     <!-- Episodes (x1000) -->
     <defs>
      <path d="M 9.8125 72.90625 
L 55.90625 72.90625 
L 55.90625 64.59375 
L 19.671875 64.59375 
L 19.671875 43.015625 
L 54.390625 43.015625 
L 54.390625 34.71875 
L 19.671875 34.71875 
L 19.671875 8.296875 
L 56.78125 8.296875 
L 56.78125 0 
L 9.8125 0 
z
" id="DejaVuSans-45"/>
      <path d="M 18.109375 8.203125 
L 18.109375 -20.796875 
L 9.078125 -20.796875 
L 9.078125 54.6875 
L 18.109375 54.6875 
L 18.109375 46.390625 
Q 20.953125 51.265625 25.265625 53.625 
Q 29.59375 56 35.59375 56 
Q 45.5625 56 51.78125 48.09375 
Q 58.015625 40.1875 58.015625 27.296875 
Q 58.015625 14.40625 51.78125 6.484375 
Q 45.5625 -1.421875 35.59375 -1.421875 
Q 29.59375 -1.421875 25.265625 0.953125 
Q 20.953125 3.328125 18.109375 8.203125 
z
M 48.6875 27.296875 
Q 48.6875 37.203125 44.609375 42.84375 
Q 40.53125 48.484375 33.40625 48.484375 
Q 26.265625 48.484375 22.1875 42.84375 
Q 18.109375 37.203125 18.109375 27.296875 
Q 18.109375 17.390625 22.1875 11.75 
Q 26.265625 6.109375 33.40625 6.109375 
Q 40.53125 6.109375 44.609375 11.75 
Q 48.6875 17.390625 48.6875 27.296875 
z
" id="DejaVuSans-70"/>
      <path d="M 9.421875 54.6875 
L 18.40625 54.6875 
L 18.40625 0 
L 9.421875 0 
z
M 9.421875 75.984375 
L 18.40625 75.984375 
L 18.40625 64.59375 
L 9.421875 64.59375 
z
" id="DejaVuSans-69"/>
      <path d="M 44.28125 53.078125 
L 44.28125 44.578125 
Q 40.484375 46.53125 36.375 47.5 
Q 32.28125 48.484375 27.875 48.484375 
Q 21.1875 48.484375 17.84375 46.4375 
Q 14.5 44.390625 14.5 40.28125 
Q 14.5 37.15625 16.890625 35.375 
Q 19.28125 33.59375 26.515625 31.984375 
L 29.59375 31.296875 
Q 39.15625 29.25 43.1875 25.515625 
Q 47.21875 21.78125 47.21875 15.09375 
Q 47.21875 7.46875 41.1875 3.015625 
Q 35.15625 -1.421875 24.609375 -1.421875 
Q 20.21875 -1.421875 15.453125 -0.5625 
Q 10.6875 0.296875 5.421875 2 
L 5.421875 11.28125 
Q 10.40625 8.6875 15.234375 7.390625 
Q 20.0625 6.109375 24.8125 6.109375 
Q 31.15625 6.109375 34.5625 8.28125 
Q 37.984375 10.453125 37.984375 14.40625 
Q 37.984375 18.0625 35.515625 20.015625 
Q 33.0625 21.96875 24.703125 23.78125 
L 21.578125 24.515625 
Q 13.234375 26.265625 9.515625 29.90625 
Q 5.8125 33.546875 5.8125 39.890625 
Q 5.8125 47.609375 11.28125 51.796875 
Q 16.75 56 26.8125 56 
Q 31.78125 56 36.171875 55.265625 
Q 40.578125 54.546875 44.28125 53.078125 
z
" id="DejaVuSans-73"/>
      <path d="M 30.609375 48.390625 
Q 23.390625 48.390625 19.1875 42.75 
Q 14.984375 37.109375 14.984375 27.296875 
Q 14.984375 17.484375 19.15625 11.84375 
Q 23.34375 6.203125 30.609375 6.203125 
Q 37.796875 6.203125 41.984375 11.859375 
Q 46.1875 17.53125 46.1875 27.296875 
Q 46.1875 37.015625 41.984375 42.703125 
Q 37.796875 48.390625 30.609375 48.390625 
z
M 30.609375 56 
Q 42.328125 56 49.015625 48.375 
Q 55.71875 40.765625 55.71875 27.296875 
Q 55.71875 13.875 49.015625 6.21875 
Q 42.328125 -1.421875 30.609375 -1.421875 
Q 18.84375 -1.421875 12.171875 6.21875 
Q 5.515625 13.875 5.515625 27.296875 
Q 5.515625 40.765625 12.171875 48.375 
Q 18.84375 56 30.609375 56 
z
" id="DejaVuSans-6f"/>
      <path d="M 45.40625 46.390625 
L 45.40625 75.984375 
L 54.390625 75.984375 
L 54.390625 0 
L 45.40625 0 
L 45.40625 8.203125 
Q 42.578125 3.328125 38.25 0.953125 
Q 33.9375 -1.421875 27.875 -1.421875 
Q 17.96875 -1.421875 11.734375 6.484375 
Q 5.515625 14.40625 5.515625 27.296875 
Q 5.515625 40.1875 11.734375 48.09375 
Q 17.96875 56 27.875 56 
Q 33.9375 56 38.25 53.625 
Q 42.578125 51.265625 45.40625 46.390625 
z
M 14.796875 27.296875 
Q 14.796875 17.390625 18.875 11.75 
Q 22.953125 6.109375 30.078125 6.109375 
Q 37.203125 6.109375 41.296875 11.75 
Q 45.40625 17.390625 45.40625 27.296875 
Q 45.40625 37.203125 41.296875 42.84375 
Q 37.203125 48.484375 30.078125 48.484375 
Q 22.953125 48.484375 18.875 42.84375 
Q 14.796875 37.203125 14.796875 27.296875 
z
" id="DejaVuSans-64"/>
      <path d="M 56.203125 29.59375 
L 56.203125 25.203125 
L 14.890625 25.203125 
Q 15.484375 15.921875 20.484375 11.0625 
Q 25.484375 6.203125 34.421875 6.203125 
Q 39.59375 6.203125 44.453125 7.46875 
Q 49.3125 8.734375 54.109375 11.28125 
L 54.109375 2.78125 
Q 49.265625 0.734375 44.1875 -0.34375 
Q 39.109375 -1.421875 33.890625 -1.421875 
Q 20.796875 -1.421875 13.15625 6.1875 
Q 5.515625 13.8125 5.515625 26.8125 
Q 5.515625 40.234375 12.765625 48.109375 
Q 20.015625 56 32.328125 56 
Q 43.359375 56 49.78125 48.890625 
Q 56.203125 41.796875 56.203125 29.59375 
z
M 47.21875 32.234375 
Q 47.125 39.59375 43.09375 43.984375 
Q 39.0625 48.390625 32.421875 48.390625 
Q 24.90625 48.390625 20.390625 44.140625 
Q 15.875 39.890625 15.1875 32.171875 
z
" id="DejaVuSans-65"/>
      <path id="DejaVuSans-20"/>
      <path d="M 31 75.875 
Q 24.46875 64.65625 21.28125 53.65625 
Q 18.109375 42.671875 18.109375 31.390625 
Q 18.109375 20.125 21.3125 9.0625 
Q 24.515625 -2 31 -13.1875 
L 23.1875 -13.1875 
Q 15.875 -1.703125 12.234375 9.375 
Q 8.59375 20.453125 8.59375 31.390625 
Q 8.59375 42.28125 12.203125 53.3125 
Q 15.828125 64.359375 23.1875 75.875 
z
" id="DejaVuSans-28"/>
      <path d="M 54.890625 54.6875 
L 35.109375 28.078125 
L 55.90625 0 
L 45.3125 0 
L 29.390625 21.484375 
L 13.484375 0 
L 2.875 0 
L 24.125 28.609375 
L 4.6875 54.6875 
L 15.28125 54.6875 
L 29.78125 35.203125 
L 44.28125 54.6875 
z
" id="DejaVuSans-78"/>
      <path d="M 8.015625 75.875 
L 15.828125 75.875 
Q 23.140625 64.359375 26.78125 53.3125 
Q 30.421875 42.28125 30.421875 31.390625 
Q 30.421875 20.453125 26.78125 9.375 
Q 23.140625 -1.703125 15.828125 -13.1875 
L 8.015625 -13.1875 
Q 14.5 -2 17.703125 9.0625 
Q 20.90625 20.125 20.90625 31.390625 
Q 20.90625 42.671875 17.703125 53.65625 
Q 14.5 64.65625 8.015625 75.875 
z
" id="DejaVuSans-29"/>
     </defs>
     <g transform="translate(290.527813 335.860562)scale(0.1 -0.1)">
      <use xlink:href="#DejaVuSans-45"/>
      <use x="63.183594" xlink:href="#DejaVuSans-70"/>
      <use x="126.660156" xlink:href="#DejaVuSans-69"/>
      <use x="154.443359" xlink:href="#DejaVuSans-73"/>
      <use x="206.542969" xlink:href="#DejaVuSans-6f"/>
      <use x="267.724609" xlink:href="#DejaVuSans-64"/>
      <use x="331.201172" xlink:href="#DejaVuSans-65"/>
      <use x="392.724609" xlink:href="#DejaVuSans-73"/>
      <use x="444.824219" xlink:href="#DejaVuSans-20"/>
      <use x="476.611328" xlink:href="#DejaVuSans-28"/>
      <use x="515.625" xlink:href="#DejaVuSans-78"/>
      <use x="574.804688" xlink:href="#DejaVuSans-31"/>
      <use x="638.427734" xlink:href="#DejaVuSans-30"/>
      <use x="702.050781" xlink:href="#DejaVuSans-30"/>
      <use x="765.673828" xlink:href="#DejaVuSans-30"/>
      <use x="829.296875" xlink:href="#DejaVuSans-29"/>
     </g>
    </g>
   </g>
   <g id="matplotlib.axis_2">
    <g id="ytick_1">
     <g id="line2d_13">
      <path clip-path="url(#p42d4ed9204)" d="M 81.45 281.308358 
L 586.44 281.308358 
" style="fill:none;stroke:#b0b0b0;stroke-linecap:square;stroke-width:0.8;"/>
     </g>
     <g id="line2d_14">
      <defs>
       <path d="M 0 0 
L -3.5 0 
" id="m1087ab683a" style="stroke:#000000;stroke-width:0.8;"/>
      </defs>
      <g>
       <use style="stroke:#000000;stroke-width:0.8;" x="81.45" xlink:href="#m1087ab683a" y="281.308358"/>
      </g>
     </g>
     <g id="text_8">
      <!-- −55 -->
      <defs>
       <path d="M 10.59375 35.5 
L 73.1875 35.5 
L 73.1875 27.203125 
L 10.59375 27.203125 
z
" id="DejaVuSans-2212"/>
       <path d="M 10.796875 72.90625 
L 49.515625 72.90625 
L 49.515625 64.59375 
L 19.828125 64.59375 
L 19.828125 46.734375 
Q 21.96875 47.46875 24.109375 47.828125 
Q 26.265625 48.1875 28.421875 48.1875 
Q 40.625 48.1875 47.75 41.5 
Q 54.890625 34.8125 54.890625 23.390625 
Q 54.890625 11.625 47.5625 5.09375 
Q 40.234375 -1.421875 26.90625 -1.421875 
Q 22.3125 -1.421875 17.546875 -0.640625 
Q 12.796875 0.140625 7.71875 1.703125 
L 7.71875 11.625 
Q 12.109375 9.234375 16.796875 8.0625 
Q 21.484375 6.890625 26.703125 6.890625 
Q 35.15625 6.890625 40.078125 11.328125 
Q 45.015625 15.765625 45.015625 23.390625 
Q 45.015625 31 40.078125 35.4375 
Q 35.15625 39.890625 26.703125 39.890625 
Q 22.75 39.890625 18.8125 39.015625 
Q 14.890625 38.140625 10.796875 36.28125 
z
" id="DejaVuSans-35"/>
      </defs>
      <g transform="translate(53.345313 285.107577)scale(0.1 -0.1)">
       <use xlink:href="#DejaVuSans-2212"/>
       <use x="83.789062" xlink:href="#DejaVuSans-35"/>
       <use x="147.412109" xlink:href="#DejaVuSans-35"/>
      </g>
     </g>
    </g>
    <g id="ytick_2">
     <g id="line2d_15">
      <path clip-path="url(#p42d4ed9204)" d="M 81.45 231.062527 
L 586.44 231.062527 
" style="fill:none;stroke:#b0b0b0;stroke-linecap:square;stroke-width:0.8;"/>
     </g>
     <g id="line2d_16">
      <g>
       <use style="stroke:#000000;stroke-width:0.8;" x="81.45" xlink:href="#m1087ab683a" y="231.062527"/>
      </g>
     </g>
     <g id="text_9">
      <!-- −50 -->
      <g transform="translate(53.345313 234.861745)scale(0.1 -0.1)">
       <use xlink:href="#DejaVuSans-2212"/>
       <use x="83.789062" xlink:href="#DejaVuSans-35"/>
       <use x="147.412109" xlink:href="#DejaVuSans-30"/>
      </g>
     </g>
    </g>
    <g id="ytick_3">
     <g id="line2d_17">
      <path clip-path="url(#p42d4ed9204)" d="M 81.45 180.816695 
L 586.44 180.816695 
" style="fill:none;stroke:#b0b0b0;stroke-linecap:square;stroke-width:0.8;"/>
     </g>
     <g id="line2d_18">
      <g>
       <use style="stroke:#000000;stroke-width:0.8;" x="81.45" xlink:href="#m1087ab683a" y="180.816695"/>
      </g>
     </g>
     <g id="text_10">
      <!-- −45 -->
      <g transform="translate(53.345313 184.615914)scale(0.1 -0.1)">
       <use xlink:href="#DejaVuSans-2212"/>
       <use x="83.789062" xlink:href="#DejaVuSans-34"/>
       <use x="147.412109" xlink:href="#DejaVuSans-35"/>
      </g>
     </g>
    </g>
    <g id="ytick_4">
     <g id="line2d_19">
      <path clip-path="url(#p42d4ed9204)" d="M 81.45 130.570864 
L 586.44 130.570864 
" style="fill:none;stroke:#b0b0b0;stroke-linecap:square;stroke-width:0.8;"/>
     </g>
     <g id="line2d_20">
      <g>
       <use style="stroke:#000000;stroke-width:0.8;" x="81.45" xlink:href="#m1087ab683a" y="130.570864"/>
      </g>
     </g>
     <g id="text_11">
      <!-- −40 -->
      <g transform="translate(53.345313 134.370083)scale(0.1 -0.1)">
       <use xlink:href="#DejaVuSans-2212"/>
       <use x="83.789062" xlink:href="#DejaVuSans-34"/>
       <use x="147.412109" xlink:href="#DejaVuSans-30"/>
      </g>
     </g>
    </g>
    <g id="ytick_5">
     <g id="line2d_21">
      <path clip-path="url(#p42d4ed9204)" d="M 81.45 80.325033 
L 586.44 80.325033 
" style="fill:none;stroke:#b0b0b0;stroke-linecap:square;stroke-width:0.8;"/>
     </g>
     <g id="line2d_22">
      <g>
       <use style="stroke:#000000;stroke-width:0.8;" x="81.45" xlink:href="#m1087ab683a" y="80.325033"/>
      </g>
     </g>
     <g id="text_12">
      <!-- −35 -->
      <defs>
       <path d="M 40.578125 39.3125 
Q 47.65625 37.796875 51.625 33 
Q 55.609375 28.21875 55.609375 21.1875 
Q 55.609375 10.40625 48.1875 4.484375 
Q 40.765625 -1.421875 27.09375 -1.421875 
Q 22.515625 -1.421875 17.65625 -0.515625 
Q 12.796875 0.390625 7.625 2.203125 
L 7.625 11.71875 
Q 11.71875 9.328125 16.59375 8.109375 
Q 21.484375 6.890625 26.8125 6.890625 
Q 36.078125 6.890625 40.9375 10.546875 
Q 45.796875 14.203125 45.796875 21.1875 
Q 45.796875 27.640625 41.28125 31.265625 
Q 36.765625 34.90625 28.71875 34.90625 
L 20.21875 34.90625 
L 20.21875 43.015625 
L 29.109375 43.015625 
Q 36.375 43.015625 40.234375 45.921875 
Q 44.09375 48.828125 44.09375 54.296875 
Q 44.09375 59.90625 40.109375 62.90625 
Q 36.140625 65.921875 28.71875 65.921875 
Q 24.65625 65.921875 20.015625 65.03125 
Q 15.375 64.15625 9.8125 62.3125 
L 9.8125 71.09375 
Q 15.4375 72.65625 20.34375 73.4375 
Q 25.25 74.21875 29.59375 74.21875 
Q 40.828125 74.21875 47.359375 69.109375 
Q 53.90625 64.015625 53.90625 55.328125 
Q 53.90625 49.265625 50.4375 45.09375 
Q 46.96875 40.921875 40.578125 39.3125 
z
" id="DejaVuSans-33"/>
      </defs>
      <g transform="translate(53.345313 84.124251)scale(0.1 -0.1)">
       <use xlink:href="#DejaVuSans-2212"/>
       <use x="83.789062" xlink:href="#DejaVuSans-33"/>
       <use x="147.412109" xlink:href="#DejaVuSans-35"/>
      </g>
     </g>
    </g>
    <g id="text_13">
     <!-- Reward -->
     <defs>
      <path d="M 44.390625 34.1875 
Q 47.5625 33.109375 50.5625 29.59375 
Q 53.5625 26.078125 56.59375 19.921875 
L 66.609375 0 
L 56 0 
L 46.6875 18.703125 
Q 43.0625 26.03125 39.671875 28.421875 
Q 36.28125 30.8125 30.421875 30.8125 
L 19.671875 30.8125 
L 19.671875 0 
L 9.8125 0 
L 9.8125 72.90625 
L 32.078125 72.90625 
Q 44.578125 72.90625 50.734375 67.671875 
Q 56.890625 62.453125 56.890625 51.90625 
Q 56.890625 45.015625 53.6875 40.46875 
Q 50.484375 35.9375 44.390625 34.1875 
z
M 19.671875 64.796875 
L 19.671875 38.921875 
L 32.078125 38.921875 
Q 39.203125 38.921875 42.84375 42.21875 
Q 46.484375 45.515625 46.484375 51.90625 
Q 46.484375 58.296875 42.84375 61.546875 
Q 39.203125 64.796875 32.078125 64.796875 
z
" id="DejaVuSans-52"/>
      <path d="M 4.203125 54.6875 
L 13.1875 54.6875 
L 24.421875 12.015625 
L 35.59375 54.6875 
L 46.1875 54.6875 
L 57.421875 12.015625 
L 68.609375 54.6875 
L 77.59375 54.6875 
L 63.28125 0 
L 52.6875 0 
L 40.921875 44.828125 
L 29.109375 0 
L 18.5 0 
z
" id="DejaVuSans-77"/>
      <path d="M 34.28125 27.484375 
Q 23.390625 27.484375 19.1875 25 
Q 14.984375 22.515625 14.984375 16.5 
Q 14.984375 11.71875 18.140625 8.90625 
Q 21.296875 6.109375 26.703125 6.109375 
Q 34.1875 6.109375 38.703125 11.40625 
Q 43.21875 16.703125 43.21875 25.484375 
L 43.21875 27.484375 
z
M 52.203125 31.203125 
L 52.203125 0 
L 43.21875 0 
L 43.21875 8.296875 
Q 40.140625 3.328125 35.546875 0.953125 
Q 30.953125 -1.421875 24.3125 -1.421875 
Q 15.921875 -1.421875 10.953125 3.296875 
Q 6 8.015625 6 15.921875 
Q 6 25.140625 12.171875 29.828125 
Q 18.359375 34.515625 30.609375 34.515625 
L 43.21875 34.515625 
L 43.21875 35.40625 
Q 43.21875 41.609375 39.140625 45 
Q 35.0625 48.390625 27.6875 48.390625 
Q 23 48.390625 18.546875 47.265625 
Q 14.109375 46.140625 10.015625 43.890625 
L 10.015625 52.203125 
Q 14.9375 54.109375 19.578125 55.046875 
Q 24.21875 56 28.609375 56 
Q 40.484375 56 46.34375 49.84375 
Q 52.203125 43.703125 52.203125 31.203125 
z
" id="DejaVuSans-61"/>
      <path d="M 41.109375 46.296875 
Q 39.59375 47.171875 37.8125 47.578125 
Q 36.03125 48 33.890625 48 
Q 26.265625 48 22.1875 43.046875 
Q 18.109375 38.09375 18.109375 28.8125 
L 18.109375 0 
L 9.078125 0 
L 9.078125 54.6875 
L 18.109375 54.6875 
L 18.109375 46.1875 
Q 20.953125 51.171875 25.484375 53.578125 
Q 30.03125 56 36.53125 56 
Q 37.453125 56 38.578125 55.875 
Q 39.703125 55.765625 41.0625 55.515625 
z
" id="DejaVuSans-72"/>
     </defs>
     <g transform="translate(47.265625 193.457687)rotate(-90)scale(0.1 -0.1)">
      <use xlink:href="#DejaVuSans-52"/>
      <use x="69.419922" xlink:href="#DejaVuSans-65"/>
      <use x="130.943359" xlink:href="#DejaVuSans-77"/>
      <use x="212.730469" xlink:href="#DejaVuSans-61"/>
      <use x="274.009766" xlink:href="#DejaVuSans-72"/>
      <use x="315.107422" xlink:href="#DejaVuSans-64"/>
     </g>
    </g>
   </g>
   <g id="line2d_23">
    <path clip-path="url(#p42d4ed9204)" d="M 104.404091 163.866869 
L 109.041281 190.887048 
L 113.678471 164.605944 
L 118.315661 150.680659 
L 122.952851 146.244128 
L 127.590041 146.044671 
L 132.227231 148.261375 
L 136.864421 148.551309 
L 141.501612 144.930514 
L 146.138802 144.763986 
L 150.775992 138.810192 
L 155.413182 137.29493 
L 160.050372 132.558141 
L 164.687562 125.462467 
L 169.324752 128.909984 
L 173.961942 128.507232 
L 178.599132 122.331975 
L 183.236322 118.208081 
L 187.873512 120.377803 
L 192.510702 119.19703 
L 197.147893 115.23369 
L 201.785083 120.683959 
L 206.422273 116.591956 
L 211.059463 113.771067 
L 215.696653 113.318891 
L 220.333843 111.371759 
L 224.971033 112.946988 
L 229.608223 109.003178 
L 234.245413 109.359896 
L 238.882603 111.302707 
L 243.519793 110.268266 
L 248.156983 110.859823 
L 252.794174 109.170496 
L 257.431364 107.360465 
L 262.068554 103.978462 
L 266.705744 106.890911 
L 271.342934 106.201206 
L 275.980124 105.574508 
L 280.617314 106.369327 
L 285.254504 104.810992 
L 289.891694 104.878827 
L 294.528884 104.364813 
L 299.166074 105.408021 
L 303.803264 104.704759 
L 308.440455 100.479315 
L 313.077645 100.736673 
L 317.714835 99.525772 
L 322.352025 100.232439 
L 326.989215 100.273625 
L 331.626405 101.004131 
L 336.263595 101.020464 
L 340.900785 99.44201 
L 345.537975 98.560358 
L 350.175165 96.250712 
L 354.812355 97.775562 
L 359.449545 99.172502 
L 364.086736 99.375047 
L 368.723926 99.142923 
L 373.361116 97.463084 
L 377.998306 97.64108 
L 382.635496 98.416928 
L 387.272686 100.370468 
L 391.909876 95.845598 
L 396.547066 94.554272 
L 401.184256 95.462648 
L 405.821446 95.399861 
L 410.458636 95.266543 
L 415.095826 95.980344 
L 419.733017 96.681588 
L 424.370207 94.821174 
L 429.007397 99.092444 
L 433.644587 95.959417 
L 438.281777 95.444601 
L 442.918967 97.669015 
L 447.556157 96.538631 
L 452.193347 94.439806 
L 456.830537 95.523171 
L 461.467727 95.566519 
L 466.104917 94.184539 
L 470.742107 97.645041 
L 475.379298 95.604274 
L 480.016488 101.772288 
L 484.653678 97.994764 
L 489.290868 101.148562 
L 493.928058 99.434746 
L 498.565248 99.085717 
L 503.202438 97.965732 
L 507.839628 98.72932 
L 512.476818 95.957296 
L 517.114008 97.604911 
L 521.751198 99.760295 
L 526.388388 100.620367 
L 531.025579 96.952884 
L 535.662769 100.800952 
L 540.299959 97.830718 
L 544.937149 97.820413 
L 549.574339 98.053592 
L 554.211529 97.841418 
L 558.848719 100.400036 
L 563.485909 97.370813 
" style="fill:none;stroke:#396ab1;stroke-linecap:square;"/>
   </g>
   <g id="line2d_24">
    <path clip-path="url(#p42d4ed9204)" d="M 104.404091 159.796198 
L 109.041281 229.121769 
L 113.678471 169.960586 
L 118.315661 157.165522 
L 122.952851 149.192835 
L 127.590041 141.155388 
L 132.227231 150.906372 
L 136.864421 151.693752 
L 141.501612 146.014951 
L 146.138802 143.239582 
L 150.775992 139.563363 
L 155.413182 136.307661 
L 160.050372 133.351678 
L 164.687562 127.960513 
L 169.324752 124.299387 
L 173.961942 118.005751 
L 178.599132 118.887069 
L 183.236322 117.666214 
L 187.873512 114.500833 
L 192.510702 112.540302 
L 197.147893 111.457802 
L 201.785083 110.997079 
L 206.422273 110.682505 
L 211.059463 109.600768 
L 215.696653 107.599687 
L 220.333843 110.451596 
L 224.971033 109.850705 
L 229.608223 105.7789 
L 234.245413 105.088748 
L 238.882603 108.485327 
L 243.519793 108.741316 
L 248.156983 108.604755 
L 252.794174 108.022522 
L 257.431364 105.555089 
L 262.068554 103.694406 
L 266.705744 103.417227 
L 271.342934 101.494075 
L 275.980124 102.435054 
L 280.617314 104.365496 
L 285.254504 99.172077 
L 289.891694 102.888477 
L 294.528884 102.517216 
L 299.166074 97.456048 
L 303.803264 100.22566 
L 308.440455 99.361618 
L 313.077645 99.465077 
L 317.714835 100.871874 
L 322.352025 97.142609 
L 326.989215 99.745571 
L 331.626405 96.383254 
L 336.263595 96.243008 
L 340.900785 98.759113 
L 345.537975 96.929992 
L 350.175165 91.848887 
L 354.812355 91.068358 
L 359.449545 93.239769 
L 364.086736 96.016522 
L 368.723926 89.58915 
L 373.361116 98.814672 
L 377.998306 92.406501 
L 382.635496 96.779692 
L 387.272686 93.166333 
L 391.909876 92.216643 
L 396.547066 91.249977 
L 401.184256 90.458665 
L 405.821446 91.259225 
L 410.458636 93.395671 
L 415.095826 90.278358 
L 419.733017 87.641583 
L 424.370207 88.518509 
L 429.007397 91.67311 
L 433.644587 91.463507 
L 438.281777 87.132616 
L 442.918967 89.128758 
L 447.556157 85.396473 
L 452.193347 88.527117 
L 456.830537 86.21647 
L 461.467727 88.552768 
L 466.104917 85.781383 
L 470.742107 85.209396 
L 475.379298 88.194655 
L 480.016488 86.782532 
L 484.653678 91.919117 
L 489.290868 88.794423 
L 493.928058 88.830105 
L 498.565248 91.158685 
L 503.202438 83.923574 
L 507.839628 86.18882 
L 512.476818 85.910662 
L 517.114008 85.629336 
L 521.751198 88.125099 
L 526.388388 86.073984 
L 531.025579 87.501121 
L 535.662769 87.720467 
L 540.299959 85.779244 
L 544.937149 83.420882 
L 549.574339 87.144331 
L 554.211529 90.461078 
L 558.848719 86.613315 
L 563.485909 86.403401 
" style="fill:none;stroke:#da7c30;stroke-linecap:square;"/>
   </g>
   <g id="line2d_25">
    <path clip-path="url(#p42d4ed9204)" d="M 104.404091 169.157586 
L 109.041281 227.072319 
L 113.678471 171.035754 
L 118.315661 175.167756 
L 122.952851 164.588132 
L 127.590041 168.093653 
L 132.227231 172.581233 
L 136.864421 168.690043 
L 141.501612 166.634079 
L 146.138802 167.57683 
L 150.775992 161.300651 
L 155.413182 158.500826 
L 160.050372 154.907469 
L 164.687562 150.817302 
L 169.324752 147.078248 
L 173.961942 145.764138 
L 178.599132 142.398686 
L 183.236322 140.906332 
L 187.873512 140.598092 
L 192.510702 138.765474 
L 197.147893 135.405227 
L 201.785083 138.289391 
L 206.422273 135.820508 
L 211.059463 132.394487 
L 215.696653 135.157299 
L 220.333843 131.152393 
L 224.971033 126.951931 
L 229.608223 122.191121 
L 234.245413 128.230427 
L 238.882603 128.459591 
L 243.519793 126.249887 
L 248.156983 125.535401 
L 252.794174 126.083839 
L 257.431364 125.011956 
L 262.068554 121.798289 
L 266.705744 120.877621 
L 271.342934 124.75136 
L 275.980124 124.436758 
L 280.617314 123.04046 
L 285.254504 119.604768 
L 289.891694 119.636849 
L 294.528884 120.095932 
L 299.166074 121.013628 
L 303.803264 123.566678 
L 308.440455 119.377373 
L 313.077645 118.709965 
L 317.714835 122.837541 
L 322.352025 114.962836 
L 326.989215 121.31367 
L 331.626405 118.559544 
L 336.263595 115.383672 
L 340.900785 122.679012 
L 345.537975 118.925447 
L 350.175165 122.244668 
L 354.812355 120.366948 
L 359.449545 119.556193 
L 364.086736 122.385715 
L 368.723926 120.118029 
L 373.361116 119.723994 
L 377.998306 120.00588 
L 382.635496 121.760699 
L 387.272686 118.106785 
L 391.909876 120.083154 
L 396.547066 117.164733 
L 401.184256 119.238004 
L 405.821446 118.57308 
L 410.458636 124.082065 
L 415.095826 120.358044 
L 419.733017 118.171583 
L 424.370207 117.932295 
L 429.007397 117.101685 
L 433.644587 117.236599 
L 438.281777 119.748786 
L 442.918967 117.726154 
L 447.556157 115.094343 
L 452.193347 115.945493 
L 456.830537 115.369403 
L 461.467727 120.27471 
L 466.104917 114.993789 
L 470.742107 114.513882 
L 475.379298 113.84526 
L 480.016488 120.173465 
L 484.653678 119.038174 
L 489.290868 117.931752 
L 493.928058 115.184337 
L 498.565248 120.778761 
L 503.202438 119.143741 
L 507.839628 119.135989 
L 512.476818 118.197431 
L 517.114008 114.276513 
L 521.751198 115.143117 
L 526.388388 119.42415 
L 531.025579 119.777675 
L 535.662769 117.425578 
L 540.299959 119.041203 
L 544.937149 122.014866 
L 549.574339 120.771086 
L 554.211529 122.420131 
L 558.848719 121.736417 
L 563.485909 118.5417 
" style="fill:none;stroke:#3e9651;stroke-linecap:square;"/>
   </g>
   <g id="line2d_26">
    <path clip-path="url(#p42d4ed9204)" d="M 104.404091 162.727345 
L 109.041281 195.33184 
L 113.678471 174.122045 
L 118.315661 169.918263 
L 122.952851 168.418807 
L 127.590041 164.13358 
L 132.227231 176.352494 
L 136.864421 168.550824 
L 141.501612 166.316428 
L 146.138802 159.590461 
L 150.775992 156.19164 
L 155.413182 153.219258 
L 160.050372 147.332299 
L 164.687562 143.582405 
L 169.324752 141.172759 
L 173.961942 134.851791 
L 178.599132 133.94342 
L 183.236322 128.275649 
L 187.873512 126.560172 
L 192.510702 126.814039 
L 197.147893 120.855485 
L 201.785083 127.977677 
L 206.422273 121.656101 
L 211.059463 121.206759 
L 215.696653 122.142571 
L 220.333843 113.867327 
L 224.971033 121.417601 
L 229.608223 115.442808 
L 234.245413 116.876298 
L 238.882603 116.815608 
L 243.519793 116.499726 
L 248.156983 114.621466 
L 252.794174 114.227288 
L 257.431364 109.147182 
L 262.068554 110.386008 
L 266.705744 109.001397 
L 271.342934 111.887031 
L 275.980124 111.209209 
L 280.617314 111.608034 
L 285.254504 108.83268 
L 289.891694 111.574122 
L 294.528884 108.503531 
L 299.166074 106.936513 
L 303.803264 112.276523 
L 308.440455 109.544341 
L 313.077645 107.291555 
L 317.714835 112.488805 
L 322.352025 106.541657 
L 326.989215 109.086 
L 331.626405 103.038918 
L 336.263595 107.127275 
L 340.900785 111.789429 
L 345.537975 106.352081 
L 350.175165 102.48632 
L 354.812355 112.223812 
L 359.449545 110.566747 
L 364.086736 109.071374 
L 368.723926 105.248707 
L 373.361116 110.480114 
L 377.998306 107.41364 
L 382.635496 114.439164 
L 387.272686 115.063661 
L 391.909876 109.453167 
L 396.547066 108.155422 
L 401.184256 109.574556 
L 405.821446 110.151644 
L 410.458636 112.171898 
L 415.095826 111.477099 
L 419.733017 108.654795 
L 424.370207 108.649657 
L 429.007397 106.213779 
L 433.644587 107.694494 
L 438.281777 104.792422 
L 442.918967 107.724144 
L 447.556157 105.671201 
L 452.193347 105.853093 
L 456.830537 108.416918 
L 461.467727 110.00135 
L 466.104917 109.85856 
L 470.742107 111.371933 
L 475.379298 111.153567 
L 480.016488 106.957796 
L 484.653678 108.200895 
L 489.290868 106.264211 
L 493.928058 106.183028 
L 498.565248 111.321157 
L 503.202438 111.707367 
L 507.839628 109.376968 
L 512.476818 111.840306 
L 517.114008 104.288407 
L 521.751198 107.515021 
L 526.388388 110.889819 
L 531.025579 104.531682 
L 535.662769 105.72347 
L 540.299959 110.970876 
L 544.937149 105.71124 
L 549.574339 105.647137 
L 554.211529 109.292827 
L 558.848719 109.883679 
L 563.485909 108.178492 
" style="fill:none;stroke:#cc2529;stroke-linecap:square;"/>
   </g>
   <g id="patch_3">
    <path d="M 81.45 307.584 
L 81.45 41.472 
" style="fill:none;stroke:#000000;stroke-linecap:square;stroke-linejoin:miter;stroke-width:0.8;"/>
   </g>
   <g id="patch_4">
    <path d="M 586.44 307.584 
L 586.44 41.472 
" style="fill:none;stroke:#000000;stroke-linecap:square;stroke-linejoin:miter;stroke-width:0.8;"/>
   </g>
   <g id="patch_5">
    <path d="M 81.45 307.584 
L 586.44 307.584 
" style="fill:none;stroke:#000000;stroke-linecap:square;stroke-linejoin:miter;stroke-width:0.8;"/>
   </g>
   <g id="patch_6">
    <path d="M 81.45 41.472 
L 586.44 41.472 
" style="fill:none;stroke:#000000;stroke-linecap:square;stroke-linejoin:miter;stroke-width:0.8;"/>
   </g>
   <g id="legend_1">
    <g id="patch_7">
     <path d="M 88.45 108.1845 
L 208.001562 108.1845 
Q 210.001562 108.1845 210.001562 106.1845 
L 210.001562 48.472 
Q 210.001562 46.472 208.001562 46.472 
L 88.45 46.472 
Q 86.45 46.472 86.45 48.472 
L 86.45 106.1845 
Q 86.45 108.1845 88.45 108.1845 
z
" style="fill:#ffffff;opacity:0.8;stroke:#cccccc;stroke-linejoin:miter;"/>
    </g>
    <g id="line2d_27">
     <path d="M 90.45 54.570438 
L 110.45 54.570438 
" style="fill:none;stroke:#396ab1;stroke-linecap:square;"/>
    </g>
    <g id="line2d_28"/>
    <g id="text_14">
     <!-- agent 1 (Team A) -->
     <defs>
      <path d="M 45.40625 27.984375 
Q 45.40625 37.75 41.375 43.109375 
Q 37.359375 48.484375 30.078125 48.484375 
Q 22.859375 48.484375 18.828125 43.109375 
Q 14.796875 37.75 14.796875 27.984375 
Q 14.796875 18.265625 18.828125 12.890625 
Q 22.859375 7.515625 30.078125 7.515625 
Q 37.359375 7.515625 41.375 12.890625 
Q 45.40625 18.265625 45.40625 27.984375 
z
M 54.390625 6.78125 
Q 54.390625 -7.171875 48.1875 -13.984375 
Q 42 -20.796875 29.203125 -20.796875 
Q 24.46875 -20.796875 20.265625 -20.09375 
Q 16.0625 -19.390625 12.109375 -17.921875 
L 12.109375 -9.1875 
Q 16.0625 -11.328125 19.921875 -12.34375 
Q 23.78125 -13.375 27.78125 -13.375 
Q 36.625 -13.375 41.015625 -8.765625 
Q 45.40625 -4.15625 45.40625 5.171875 
L 45.40625 9.625 
Q 42.625 4.78125 38.28125 2.390625 
Q 33.9375 0 27.875 0 
Q 17.828125 0 11.671875 7.65625 
Q 5.515625 15.328125 5.515625 27.984375 
Q 5.515625 40.671875 11.671875 48.328125 
Q 17.828125 56 27.875 56 
Q 33.9375 56 38.28125 53.609375 
Q 42.625 51.21875 45.40625 46.390625 
L 45.40625 54.6875 
L 54.390625 54.6875 
z
" id="DejaVuSans-67"/>
      <path d="M 54.890625 33.015625 
L 54.890625 0 
L 45.90625 0 
L 45.90625 32.71875 
Q 45.90625 40.484375 42.875 44.328125 
Q 39.84375 48.1875 33.796875 48.1875 
Q 26.515625 48.1875 22.3125 43.546875 
Q 18.109375 38.921875 18.109375 30.90625 
L 18.109375 0 
L 9.078125 0 
L 9.078125 54.6875 
L 18.109375 54.6875 
L 18.109375 46.1875 
Q 21.34375 51.125 25.703125 53.5625 
Q 30.078125 56 35.796875 56 
Q 45.21875 56 50.046875 50.171875 
Q 54.890625 44.34375 54.890625 33.015625 
z
" id="DejaVuSans-6e"/>
      <path d="M 18.3125 70.21875 
L 18.3125 54.6875 
L 36.8125 54.6875 
L 36.8125 47.703125 
L 18.3125 47.703125 
L 18.3125 18.015625 
Q 18.3125 11.328125 20.140625 9.421875 
Q 21.96875 7.515625 27.59375 7.515625 
L 36.8125 7.515625 
L 36.8125 0 
L 27.59375 0 
Q 17.1875 0 13.234375 3.875 
Q 9.28125 7.765625 9.28125 18.015625 
L 9.28125 47.703125 
L 2.6875 47.703125 
L 2.6875 54.6875 
L 9.28125 54.6875 
L 9.28125 70.21875 
z
" id="DejaVuSans-74"/>
      <path d="M -0.296875 72.90625 
L 61.375 72.90625 
L 61.375 64.59375 
L 35.5 64.59375 
L 35.5 0 
L 25.59375 0 
L 25.59375 64.59375 
L -0.296875 64.59375 
z
" id="DejaVuSans-54"/>
      <path d="M 52 44.1875 
Q 55.375 50.25 60.0625 53.125 
Q 64.75 56 71.09375 56 
Q 79.640625 56 84.28125 50.015625 
Q 88.921875 44.046875 88.921875 33.015625 
L 88.921875 0 
L 79.890625 0 
L 79.890625 32.71875 
Q 79.890625 40.578125 77.09375 44.375 
Q 74.3125 48.1875 68.609375 48.1875 
Q 61.625 48.1875 57.5625 43.546875 
Q 53.515625 38.921875 53.515625 30.90625 
L 53.515625 0 
L 44.484375 0 
L 44.484375 32.71875 
Q 44.484375 40.625 41.703125 44.40625 
Q 38.921875 48.1875 33.109375 48.1875 
Q 26.21875 48.1875 22.15625 43.53125 
Q 18.109375 38.875 18.109375 30.90625 
L 18.109375 0 
L 9.078125 0 
L 9.078125 54.6875 
L 18.109375 54.6875 
L 18.109375 46.1875 
Q 21.1875 51.21875 25.484375 53.609375 
Q 29.78125 56 35.6875 56 
Q 41.65625 56 45.828125 52.96875 
Q 50 49.953125 52 44.1875 
z
" id="DejaVuSans-6d"/>
      <path d="M 34.1875 63.1875 
L 20.796875 26.90625 
L 47.609375 26.90625 
z
M 28.609375 72.90625 
L 39.796875 72.90625 
L 67.578125 0 
L 57.328125 0 
L 50.6875 18.703125 
L 17.828125 18.703125 
L 11.1875 0 
L 0.78125 0 
z
" id="DejaVuSans-41"/>
     </defs>
     <g transform="translate(118.45 58.070438)scale(0.1 -0.1)">
      <use xlink:href="#DejaVuSans-61"/>
      <use x="61.279297" xlink:href="#DejaVuSans-67"/>
      <use x="124.755859" xlink:href="#DejaVuSans-65"/>
      <use x="186.279297" xlink:href="#DejaVuSans-6e"/>
      <use x="249.658203" xlink:href="#DejaVuSans-74"/>
      <use x="288.867188" xlink:href="#DejaVuSans-20"/>
      <use x="320.654297" xlink:href="#DejaVuSans-31"/>
      <use x="384.277344" xlink:href="#DejaVuSans-20"/>
      <use x="416.064453" xlink:href="#DejaVuSans-28"/>
      <use x="455.078125" xlink:href="#DejaVuSans-54"/>
      <use x="515.896484" xlink:href="#DejaVuSans-65"/>
      <use x="577.419922" xlink:href="#DejaVuSans-61"/>
      <use x="638.699219" xlink:href="#DejaVuSans-6d"/>
      <use x="736.111328" xlink:href="#DejaVuSans-20"/>
      <use x="767.898438" xlink:href="#DejaVuSans-41"/>
      <use x="836.306641" xlink:href="#DejaVuSans-29"/>
     </g>
    </g>
    <g id="line2d_29">
     <path d="M 90.45 69.248563 
L 110.45 69.248563 
" style="fill:none;stroke:#da7c30;stroke-linecap:square;"/>
    </g>
    <g id="line2d_30"/>
    <g id="text_15">
     <!-- agent 2 (Team A) -->
     <g transform="translate(118.45 72.748563)scale(0.1 -0.1)">
      <use xlink:href="#DejaVuSans-61"/>
      <use x="61.279297" xlink:href="#DejaVuSans-67"/>
      <use x="124.755859" xlink:href="#DejaVuSans-65"/>
      <use x="186.279297" xlink:href="#DejaVuSans-6e"/>
      <use x="249.658203" xlink:href="#DejaVuSans-74"/>
      <use x="288.867188" xlink:href="#DejaVuSans-20"/>
      <use x="320.654297" xlink:href="#DejaVuSans-32"/>
      <use x="384.277344" xlink:href="#DejaVuSans-20"/>
      <use x="416.064453" xlink:href="#DejaVuSans-28"/>
      <use x="455.078125" xlink:href="#DejaVuSans-54"/>
      <use x="515.896484" xlink:href="#DejaVuSans-65"/>
      <use x="577.419922" xlink:href="#DejaVuSans-61"/>
      <use x="638.699219" xlink:href="#DejaVuSans-6d"/>
      <use x="736.111328" xlink:href="#DejaVuSans-20"/>
      <use x="767.898438" xlink:href="#DejaVuSans-41"/>
      <use x="836.306641" xlink:href="#DejaVuSans-29"/>
     </g>
    </g>
    <g id="line2d_31">
     <path d="M 90.45 83.926688 
L 110.45 83.926688 
" style="fill:none;stroke:#3e9651;stroke-linecap:square;"/>
    </g>
    <g id="line2d_32"/>
    <g id="text_16">
     <!-- agent 3 (Team B) -->
     <defs>
      <path d="M 19.671875 34.8125 
L 19.671875 8.109375 
L 35.5 8.109375 
Q 43.453125 8.109375 47.28125 11.40625 
Q 51.125 14.703125 51.125 21.484375 
Q 51.125 28.328125 47.28125 31.5625 
Q 43.453125 34.8125 35.5 34.8125 
z
M 19.671875 64.796875 
L 19.671875 42.828125 
L 34.28125 42.828125 
Q 41.5 42.828125 45.03125 45.53125 
Q 48.578125 48.25 48.578125 53.8125 
Q 48.578125 59.328125 45.03125 62.0625 
Q 41.5 64.796875 34.28125 64.796875 
z
M 9.8125 72.90625 
L 35.015625 72.90625 
Q 46.296875 72.90625 52.390625 68.21875 
Q 58.5 63.53125 58.5 54.890625 
Q 58.5 48.1875 55.375 44.234375 
Q 52.25 40.28125 46.1875 39.3125 
Q 53.46875 37.75 57.5 32.78125 
Q 61.53125 27.828125 61.53125 20.40625 
Q 61.53125 10.640625 54.890625 5.3125 
Q 48.25 0 35.984375 0 
L 9.8125 0 
z
" id="DejaVuSans-42"/>
     </defs>
     <g transform="translate(118.45 87.426688)scale(0.1 -0.1)">
      <use xlink:href="#DejaVuSans-61"/>
      <use x="61.279297" xlink:href="#DejaVuSans-67"/>
      <use x="124.755859" xlink:href="#DejaVuSans-65"/>
      <use x="186.279297" xlink:href="#DejaVuSans-6e"/>
      <use x="249.658203" xlink:href="#DejaVuSans-74"/>
      <use x="288.867188" xlink:href="#DejaVuSans-20"/>
      <use x="320.654297" xlink:href="#DejaVuSans-33"/>
      <use x="384.277344" xlink:href="#DejaVuSans-20"/>
      <use x="416.064453" xlink:href="#DejaVuSans-28"/>
      <use x="455.078125" xlink:href="#DejaVuSans-54"/>
      <use x="515.896484" xlink:href="#DejaVuSans-65"/>
      <use x="577.419922" xlink:href="#DejaVuSans-61"/>
      <use x="638.699219" xlink:href="#DejaVuSans-6d"/>
      <use x="736.111328" xlink:href="#DejaVuSans-20"/>
      <use x="767.898438" xlink:href="#DejaVuSans-42"/>
      <use x="836.501953" xlink:href="#DejaVuSans-29"/>
     </g>
    </g>
    <g id="line2d_33">
     <path d="M 90.45 98.604813 
L 110.45 98.604813 
" style="fill:none;stroke:#cc2529;stroke-linecap:square;"/>
    </g>
    <g id="line2d_34"/>
    <g id="text_17">
     <!-- agent 4 (Team B) -->
     <g transform="translate(118.45 102.104813)scale(0.1 -0.1)">
      <use xlink:href="#DejaVuSans-61"/>
      <use x="61.279297" xlink:href="#DejaVuSans-67"/>
      <use x="124.755859" xlink:href="#DejaVuSans-65"/>
      <use x="186.279297" xlink:href="#DejaVuSans-6e"/>
      <use x="249.658203" xlink:href="#DejaVuSans-74"/>
      <use x="288.867188" xlink:href="#DejaVuSans-20"/>
      <use x="320.654297" xlink:href="#DejaVuSans-34"/>
      <use x="384.277344" xlink:href="#DejaVuSans-20"/>
      <use x="416.064453" xlink:href="#DejaVuSans-28"/>
      <use x="455.078125" xlink:href="#DejaVuSans-54"/>
      <use x="515.896484" xlink:href="#DejaVuSans-65"/>
      <use x="577.419922" xlink:href="#DejaVuSans-61"/>
      <use x="638.699219" xlink:href="#DejaVuSans-6d"/>
      <use x="736.111328" xlink:href="#DejaVuSans-20"/>
      <use x="767.898438" xlink:href="#DejaVuSans-42"/>
      <use x="836.501953" xlink:href="#DejaVuSans-29"/>
     </g>
    </g>
   </g>
  </g>
 </g>
 <defs>
  <clipPath id="p42d4ed9204">
   <rect height="266.112" width="504.99" x="81.45" y="41.472"/>
  </clipPath>
 </defs>
</svg>
