<?xml version="1.0" encoding="utf-8" standalone="no"?>
<!DOCTYPE svg PUBLIC "-//W3C//DTD SVG 1.1//EN"
  "http://www.w3.org/Graphics/SVG/1.1/DTD/svg11.dtd">
<!-- Created with matplotlib (http://matplotlib.org/) -->
<svg height="366pt" version="1.1" viewBox="0 0 463 366" width="463pt" xmlns="http://www.w3.org/2000/svg" xmlns:xlink="http://www.w3.org/1999/xlink">
 <defs>
  <style type="text/css">
*{stroke-linecap:butt;stroke-linejoin:round;}
  </style>
 </defs>
 <g id="figure_1">
  <g id="patch_1">
   <path d="M 0 366.48 
L 463.68 366.48 
L 463.68 0 
L 0 0 
z
" style="fill:#ffffff;"/>
  </g>
  <g id="axes_1">
   <g id="patch_2">
    <path d="M 57.96 326.1672 
L 417.312 326.1672 
L 417.312 43.9776 
L 57.96 43.9776 
z
" style="fill:#ffffff;"/>
   </g>
   <g id="PolyCollection_1">
    <defs>
     <path d="M 74.294182 -241.539224 
L 74.294182 -143.886459 
L 77.594017 -108.862278 
L 80.893851 -146.440761 
L 84.193686 -162.726684 
L 87.493521 -169.778348 
L 90.793355 -171.428284 
L 94.09319 -166.638628 
L 97.393025 -165.727517 
L 100.69286 -170.891262 
L 103.992694 -172.276914 
L 107.292529 -177.836874 
L 110.592364 -180.020556 
L 113.892198 -187.923063 
L 117.192033 -196.825397 
L 120.491868 -192.740714 
L 123.791702 -195.709644 
L 127.091537 -202.891187 
L 130.391372 -208.446116 
L 133.691207 -205.165826 
L 136.991041 -207.155473 
L 140.290876 -213.030999 
L 143.590711 -206.290881 
L 146.890545 -212.115672 
L 150.19038 -215.485151 
L 153.490215 -214.266867 
L 156.79005 -219.315409 
L 160.089884 -216.454659 
L 163.389719 -224.028154 
L 166.689554 -221.141191 
L 169.989388 -218.446486 
L 173.289223 -219.573978 
L 176.589058 -218.953757 
L 179.888893 -222.103657 
L 183.188727 -222.216935 
L 186.488562 -227.3823 
L 189.788397 -225.362568 
L 193.088231 -224.926809 
L 196.388066 -227.046282 
L 199.687901 -225.966101 
L 202.987736 -225.908245 
L 206.28757 -226.352068 
L 209.587405 -229.219896 
L 212.88724 -226.023541 
L 216.187074 -227.706322 
L 219.486909 -233.366183 
L 222.786744 -230.483727 
L 226.086579 -233.202951 
L 229.386413 -232.838948 
L 232.686248 -230.805024 
L 235.986083 -231.31435 
L 239.285917 -230.639037 
L 242.585752 -231.293814 
L 245.885587 -232.960799 
L 249.185421 -237.790994 
L 252.485256 -234.05736 
L 255.785091 -232.231213 
L 259.084926 -230.916334 
L 262.38476 -233.390181 
L 265.684595 -234.114471 
L 268.98443 -233.271742 
L 272.284264 -231.357907 
L 275.584099 -230.097406 
L 278.883934 -234.620344 
L 282.183769 -238.102887 
L 285.483603 -236.36986 
L 288.783438 -235.66742 
L 292.083273 -235.200661 
L 295.383107 -234.938719 
L 298.682942 -234.653431 
L 301.982777 -236.274192 
L 305.282612 -231.402082 
L 308.582446 -235.847952 
L 311.882281 -236.264528 
L 315.182116 -234.254007 
L 318.48195 -235.362568 
L 321.781785 -237.426093 
L 325.08162 -235.02683 
L 328.381455 -236.168923 
L 331.681289 -237.229621 
L 334.981124 -233.233012 
L 338.280959 -236.010385 
L 341.580793 -227.980935 
L 344.880628 -232.138025 
L 348.180463 -227.933136 
L 351.480298 -231.337292 
L 354.780132 -230.57297 
L 358.079967 -232.330993 
L 361.379802 -232.16172 
L 364.679636 -235.276091 
L 367.979471 -232.595553 
L 371.279306 -231.248549 
L 374.57914 -228.400409 
L 377.878975 -234.359486 
L 381.17881 -228.892125 
L 384.478645 -231.555981 
L 387.778479 -233.010422 
L 391.078314 -231.646271 
L 394.378149 -232.249628 
L 397.677983 -228.284325 
L 400.977818 -233.324934 
L 400.977818 -293.1278 
L 400.977818 -293.1278 
L 397.677983 -291.74393 
L 394.378149 -293.205031 
L 391.078314 -293.358404 
L 387.778479 -292.488786 
L 384.478645 -293.921371 
L 381.17881 -290.285857 
L 377.878975 -292.979604 
L 374.57914 -291.160562 
L 371.279306 -290.136491 
L 367.979471 -293.360698 
L 364.679636 -294.174477 
L 361.379802 -291.409846 
L 358.079967 -292.860017 
L 354.780132 -292.242738 
L 351.480298 -290.738184 
L 348.180463 -290.507623 
L 344.880628 -292.991414 
L 341.580793 -289.137005 
L 338.280959 -294.188883 
L 334.981124 -292.638131 
L 331.681289 -295.98067 
L 328.381455 -294.110417 
L 325.08162 -295.344443 
L 321.781785 -295.242818 
L 318.48195 -292.855085 
L 315.182116 -291.566291 
L 311.882281 -294.273381 
L 308.582446 -293.598117 
L 305.282612 -291.39936 
L 301.982777 -295.585901 
L 298.682942 -293.261035 
L 295.383107 -294.462967 
L 292.083273 -295.714879 
L 288.783438 -294.965375 
L 285.483603 -294.129774 
L 282.183769 -294.323261 
L 278.883934 -295.067116 
L 275.584099 -289.99356 
L 272.284264 -292.876191 
L 268.98443 -292.607802 
L 265.684595 -292.142571 
L 262.38476 -289.304202 
L 259.084926 -291.285753 
L 255.785091 -290.400439 
L 252.485256 -291.536968 
L 249.185421 -291.037287 
L 245.885587 -290.969109 
L 242.585752 -290.766257 
L 239.285917 -288.073395 
L 235.986083 -287.432722 
L 232.686248 -289.491329 
L 229.386413 -287.544755 
L 226.086579 -288.679474 
L 222.786744 -288.83058 
L 219.486909 -286.493936 
L 216.187074 -283.192335 
L 212.88724 -283.383615 
L 209.587405 -282.39973 
L 206.28757 -284.177419 
L 202.987736 -284.765109 
L 199.687901 -281.402284 
L 196.388066 -282.007782 
L 193.088231 -282.798133 
L 189.788397 -280.899625 
L 186.488562 -285.056712 
L 183.188727 -283.049412 
L 179.888893 -279.323917 
L 176.589058 -278.891036 
L 173.289223 -279.525409 
L 169.989388 -278.459024 
L 166.689554 -279.884695 
L 163.389719 -277.754273 
L 160.089884 -276.963605 
L 156.79005 -277.443653 
L 153.490215 -278.362651 
L 150.19038 -276.185377 
L 146.890545 -273.572222 
L 143.590711 -270.718556 
L 140.290876 -275.53755 
L 136.991041 -273.007492 
L 133.691207 -272.492917 
L 130.391372 -273.814246 
L 127.091537 -270.623082 
L 123.791702 -264.707935 
L 120.491868 -266.822694 
L 117.192033 -270.049621 
L 113.892198 -263.903214 
L 110.592364 -261.75978 
L 107.292529 -260.729843 
L 103.992694 -253.662799 
L 100.69286 -254.695274 
L 97.393025 -252.179916 
L 94.09319 -251.883707 
L 90.793355 -251.795309 
L 87.493521 -253.022231 
L 84.193686 -250.664752 
L 80.893851 -237.417466 
L 77.594017 -219.258107 
L 74.294182 -241.539224 
z
" id="m00d58ad1fa" style="stroke:#396ab1;stroke-opacity:0.2;"/>
    </defs>
    <g clip-path="url(#p95e204f9b1)">
     <use style="fill:#396ab1;fill-opacity:0.2;stroke:#396ab1;stroke-opacity:0.2;" x="0" xlink:href="#m00d58ad1fa" y="366.48"/>
    </g>
   </g>
   <g id="PolyCollection_2">
    <defs>
     <path d="M 74.294182 -245.533945 
L 74.294182 -148.524952 
L 77.594017 -53.653271 
L 80.893851 -139.387322 
L 84.193686 -153.914033 
L 87.493521 -165.543278 
L 90.793355 -175.535036 
L 94.09319 -164.219746 
L 97.393025 -161.966476 
L 100.69286 -170.835933 
L 103.992694 -173.210618 
L 107.292529 -177.652756 
L 110.592364 -182.133767 
L 113.892198 -187.308015 
L 117.192033 -193.84019 
L 120.491868 -197.80853 
L 123.791702 -206.055861 
L 127.091537 -204.470881 
L 130.391372 -206.980865 
L 133.691207 -213.034696 
L 136.991041 -213.205699 
L 140.290876 -216.602426 
L 143.590711 -215.139443 
L 146.890545 -215.873601 
L 150.19038 -219.173099 
L 153.490215 -219.799252 
L 156.79005 -217.36319 
L 160.089884 -218.544206 
L 163.389719 -223.378304 
L 166.689554 -223.907481 
L 169.989388 -219.578936 
L 173.289223 -221.023599 
L 176.589058 -220.618758 
L 179.888893 -220.843459 
L 183.188727 -223.422682 
L 186.488562 -227.231373 
L 189.788397 -227.068104 
L 193.088231 -229.964789 
L 196.388066 -229.804398 
L 199.687901 -226.222087 
L 202.987736 -232.799894 
L 206.28757 -227.919674 
L 209.587405 -228.494715 
L 212.88724 -233.719813 
L 216.187074 -228.468186 
L 219.486909 -232.636999 
L 222.786744 -232.746518 
L 226.086579 -229.529553 
L 229.386413 -235.059625 
L 232.686248 -230.914074 
L 235.986083 -235.381918 
L 239.285917 -236.190269 
L 242.585752 -230.766013 
L 245.885587 -233.470883 
L 249.185421 -241.011725 
L 252.485256 -239.391823 
L 255.785091 -237.521332 
L 259.084926 -232.38574 
L 262.38476 -242.395533 
L 265.684595 -228.264541 
L 268.98443 -237.274179 
L 272.284264 -231.794833 
L 275.584099 -235.953485 
L 278.883934 -236.703791 
L 282.183769 -239.34877 
L 285.483603 -239.263146 
L 288.783438 -238.980126 
L 292.083273 -236.024909 
L 295.383107 -240.230945 
L 298.682942 -243.501923 
L 301.982777 -240.541626 
L 305.282612 -236.765388 
L 308.582446 -237.925042 
L 311.882281 -244.283335 
L 315.182116 -240.373486 
L 318.48195 -244.790428 
L 321.781785 -241.839504 
L 325.08162 -244.679644 
L 328.381455 -239.451488 
L 331.681289 -244.856487 
L 334.981124 -244.740206 
L 338.280959 -241.496994 
L 341.580793 -242.049651 
L 344.880628 -236.096923 
L 348.180463 -240.571384 
L 351.480298 -240.421876 
L 354.780132 -237.787112 
L 358.079967 -247.466857 
L 361.379802 -243.021863 
L 364.679636 -243.608189 
L 367.979471 -243.897426 
L 371.279306 -238.828024 
L 374.57914 -242.124266 
L 377.878975 -240.688637 
L 381.17881 -241.200835 
L 384.478645 -243.32696 
L 387.778479 -246.362614 
L 391.078314 -241.312094 
L 394.378149 -237.365869 
L 397.677983 -242.427197 
L 400.977818 -242.03272 
L 400.977818 -307.680067 
L 400.977818 -307.680067 
L 397.677983 -306.840397 
L 394.378149 -303.741262 
L 391.078314 -306.829305 
L 387.778479 -309.6756 
L 384.478645 -307.709561 
L 381.17881 -305.718675 
L 377.878975 -306.696069 
L 374.57914 -308.287159 
L 371.279306 -307.233327 
L 367.979471 -307.457025 
L 364.679636 -307.149615 
L 361.379802 -307.146014 
L 358.079967 -307.50523 
L 354.780132 -301.840511 
L 351.480298 -304.144275 
L 348.180463 -304.070445 
L 344.880628 -301.917949 
L 341.580793 -306.859062 
L 338.280959 -304.416843 
L 334.981124 -307.504867 
L 331.681289 -306.175496 
L 328.381455 -305.70285 
L 325.08162 -305.429592 
L 321.781785 -303.369235 
L 318.48195 -307.057885 
L 315.182116 -303.559272 
L 311.882281 -303.882908 
L 308.582446 -301.056104 
L 305.282612 -301.771225 
L 301.982777 -304.68537 
L 298.682942 -303.584887 
L 295.383107 -301.263705 
L 292.083273 -298.858439 
L 288.783438 -300.434268 
L 285.483603 -301.849102 
L 282.183769 -300.085237 
L 278.883934 -300.680079 
L 275.584099 -299.41625 
L 272.284264 -295.911569 
L 268.98443 -299.707033 
L 265.684595 -295.126008 
L 262.38476 -300.560811 
L 259.084926 -296.939219 
L 255.785091 -297.692659 
L 252.485256 -300.427368 
L 249.185421 -297.152093 
L 245.885587 -293.916758 
L 242.585752 -292.742368 
L 239.285917 -292.654351 
L 235.986083 -293.165264 
L 232.686248 -290.502194 
L 229.386413 -291.877093 
L 226.086579 -289.498015 
L 222.786744 -289.264631 
L 219.486909 -289.593569 
L 216.187074 -291.929893 
L 212.88724 -292.552152 
L 209.587405 -287.043357 
L 206.28757 -286.831016 
L 202.987736 -289.83266 
L 199.687901 -285.396091 
L 196.388066 -285.907925 
L 193.088231 -287.743194 
L 189.788397 -286.561195 
L 186.488562 -285.810075 
L 183.188727 -285.672566 
L 179.888893 -283.018775 
L 176.589058 -282.008658 
L 173.289223 -281.314193 
L 169.989388 -283.301767 
L 166.689554 -286.176798 
L 163.389719 -285.242279 
L 160.089884 -281.440757 
L 156.79005 -281.347382 
L 153.490215 -284.959745 
L 150.19038 -281.341939 
L 146.890545 -282.347254 
L 143.590711 -282.414252 
L 140.290876 -279.974152 
L 136.991041 -281.075077 
L 133.691207 -277.08812 
L 130.391372 -276.428706 
L 127.091537 -276.34946 
L 123.791702 -276.633608 
L 120.491868 -271.533187 
L 117.192033 -267.736889 
L 113.892198 -262.835301 
L 110.592364 -261.740401 
L 107.292529 -259.31661 
L 103.992694 -255.962103 
L 100.69286 -252.450691 
L 97.393025 -249.276359 
L 94.09319 -248.69299 
L 90.793355 -258.057912 
L 87.493521 -251.003584 
L 84.193686 -245.72409 
L 80.893851 -233.114601 
L 77.594017 -193.377644 
L 74.294182 -245.533945 
z
" id="m0615187f71" style="stroke:#da7c30;stroke-opacity:0.2;"/>
    </defs>
    <g clip-path="url(#p95e204f9b1)">
     <use style="fill:#da7c30;fill-opacity:0.2;stroke:#da7c30;stroke-opacity:0.2;" x="0" xlink:href="#m0615187f71" y="366.48"/>
    </g>
   </g>
   <g id="PolyCollection_3">
    <defs>
     <path d="M 74.294182 -236.476884 
L 74.294182 -137.728069 
L 77.594017 -53.1396 
L 80.893851 -139.640267 
L 84.193686 -133.715378 
L 87.493521 -147.313417 
L 90.793355 -143.619703 
L 94.09319 -134.937685 
L 97.393025 -139.661624 
L 100.69286 -142.416413 
L 103.992694 -141.206714 
L 107.292529 -150.395118 
L 110.592364 -152.755814 
L 113.892198 -159.126605 
L 117.192033 -164.080201 
L 120.491868 -169.059454 
L 123.791702 -172.008751 
L 127.091537 -175.874556 
L 130.391372 -178.628045 
L 133.691207 -178.537044 
L 136.991041 -181.420919 
L 140.290876 -186.288256 
L 143.590711 -182.72602 
L 146.890545 -186.178368 
L 150.19038 -191.049882 
L 153.490215 -187.655572 
L 156.79005 -193.886355 
L 160.089884 -197.969842 
L 163.389719 -203.364874 
L 166.689554 -196.122553 
L 169.989388 -196.187506 
L 173.289223 -200.277318 
L 176.589058 -199.257497 
L 179.888893 -199.404708 
L 183.188727 -199.562937 
L 186.488562 -205.827416 
L 189.788397 -207.715086 
L 193.088231 -201.661063 
L 196.388066 -203.353623 
L 199.687901 -204.358948 
L 202.987736 -207.712153 
L 206.28757 -206.926669 
L 209.587405 -206.172462 
L 212.88724 -205.020803 
L 216.187074 -201.928432 
L 219.486909 -209.072863 
L 222.786744 -207.505645 
L 226.086579 -202.591589 
L 229.386413 -212.78878 
L 232.686248 -204.413841 
L 235.986083 -207.651901 
L 239.285917 -212.902841 
L 242.585752 -200.959017 
L 245.885587 -207.164361 
L 249.185421 -202.548174 
L 252.485256 -205.693906 
L 255.785091 -205.160785 
L 259.084926 -202.520078 
L 262.38476 -204.519174 
L 265.684595 -204.487257 
L 268.98443 -204.266123 
L 272.284264 -200.327338 
L 275.584099 -205.830619 
L 278.883934 -204.161876 
L 282.183769 -208.358069 
L 285.483603 -204.87364 
L 288.783438 -205.093754 
L 292.083273 -200.15318 
L 295.383107 -203.297816 
L 298.682942 -208.698204 
L 301.982777 -206.24712 
L 305.282612 -206.830964 
L 308.582446 -208.320091 
L 311.882281 -204.129296 
L 315.182116 -208.630019 
L 318.48195 -210.246107 
L 321.781785 -210.50786 
L 325.08162 -210.832258 
L 328.381455 -204.704965 
L 331.681289 -210.698582 
L 334.981124 -211.114614 
L 338.280959 -211.566656 
L 341.580793 -201.758644 
L 344.880628 -206.265736 
L 348.180463 -207.989539 
L 351.480298 -210.302716 
L 354.780132 -202.661253 
L 358.079967 -205.463924 
L 361.379802 -205.22932 
L 364.679636 -207.230873 
L 367.979471 -212.71926 
L 371.279306 -209.2678 
L 374.57914 -202.801824 
L 377.878975 -204.675716 
L 381.17881 -207.494975 
L 384.478645 -206.473959 
L 387.778479 -201.575276 
L 391.078314 -202.138555 
L 394.378149 -200.624107 
L 397.677983 -202.343224 
L 400.977818 -206.569224 
L 400.977818 -274.983588 
L 400.977818 -274.983588 
L 397.677983 -272.434125 
L 394.378149 -272.703199 
L 391.078314 -274.686099 
L 387.778479 -272.611528 
L 384.478645 -274.01949 
L 381.17881 -276.424946 
L 377.878975 -274.255798 
L 374.57914 -276.879456 
L 371.279306 -279.492839 
L 367.979471 -277.879302 
L 364.679636 -275.052077 
L 361.379802 -275.063103 
L 358.079967 -274.812058 
L 354.780132 -274.147124 
L 351.480298 -278.370502 
L 348.180463 -274.85687 
L 344.880628 -274.234137 
L 341.580793 -276.333466 
L 338.280959 -279.946522 
L 334.981124 -278.980528 
L 331.681289 -278.378758 
L 328.381455 -273.172421 
L 325.08162 -277.448467 
L 321.781785 -276.551074 
L 318.48195 -278.617975 
L 315.182116 -274.652429 
L 311.882281 -274.863488 
L 308.582446 -276.000622 
L 305.282612 -277.77588 
L 301.982777 -276.598137 
L 298.682942 -273.639564 
L 295.383107 -274.402833 
L 292.083273 -269.649441 
L 288.783438 -276.392505 
L 285.483603 -275.202427 
L 282.183769 -276.11506 
L 278.883934 -274.121768 
L 275.584099 -276.644575 
L 272.284264 -274.398512 
L 268.98443 -274.181405 
L 265.684595 -274.558106 
L 262.38476 -273.690507 
L 259.084926 -270.880218 
L 255.785091 -274.240455 
L 252.485256 -271.987859 
L 249.185421 -271.151258 
L 245.885587 -273.574588 
L 242.585752 -271.819246 
L 239.285917 -275.34762 
L 235.986083 -273.863066 
L 232.686248 -271.260084 
L 229.386413 -276.354205 
L 226.086579 -269.85046 
L 222.786744 -273.690304 
L 219.486909 -270.707624 
L 216.187074 -268.967238 
L 212.88724 -271.289462 
L 209.587405 -272.084082 
L 206.28757 -272.303514 
L 202.987736 -271.586069 
L 199.687901 -267.652743 
L 196.388066 -265.696753 
L 193.088231 -266.722095 
L 189.788397 -268.883627 
L 186.488562 -268.818713 
L 183.188727 -268.26754 
L 179.888893 -266.152482 
L 176.589058 -267.46284 
L 173.289223 -264.927712 
L 169.989388 -264.331111 
L 166.689554 -264.882084 
L 163.389719 -270.448124 
L 160.089884 -265.74627 
L 156.79005 -260.921277 
L 153.490215 -258.658324 
L 150.19038 -261.123478 
L 146.890545 -258.72897 
L 143.590711 -256.94523 
L 140.290876 -259.499825 
L 136.991041 -257.240637 
L 133.691207 -256.237837 
L 130.391372 -255.493109 
L 127.091537 -255.081563 
L 123.791702 -251.809807 
L 120.491868 -251.972096 
L 117.192033 -249.021439 
L 113.892198 -245.300472 
L 110.592364 -244.050351 
L 107.292529 -240.473084 
L 103.992694 -236.35076 
L 100.69286 -237.140476 
L 97.393025 -235.53491 
L 94.09319 -232.006284 
L 90.793355 -232.841674 
L 87.493521 -236.582586 
L 84.193686 -227.743005 
L 80.893851 -230.581406 
L 77.594017 -198.237857 
L 74.294182 -236.476884 
z
" id="mcef832e20d" style="stroke:#3e9651;stroke-opacity:0.2;"/>
    </defs>
    <g clip-path="url(#p95e204f9b1)">
     <use style="fill:#3e9651;fill-opacity:0.2;stroke:#3e9651;stroke-opacity:0.2;" x="0" xlink:href="#mcef832e20d" y="366.48"/>
    </g>
   </g>
   <g id="PolyCollection_4">
    <defs>
     <path d="M 74.294182 -239.086458 
L 74.294182 -148.755964 
L 77.594017 -104.232212 
L 80.893851 -134.039296 
L 84.193686 -139.521914 
L 87.493521 -143.492619 
L 90.793355 -149.058467 
L 94.09319 -131.74504 
L 97.393025 -140.19906 
L 100.69286 -142.830792 
L 103.992694 -151.369804 
L 107.292529 -155.207181 
L 110.592364 -159.076465 
L 113.892198 -167.103234 
L 117.192033 -171.411499 
L 120.491868 -176.427942 
L 123.791702 -182.998825 
L 127.091537 -184.982917 
L 130.391372 -193.342248 
L 133.691207 -196.111582 
L 136.991041 -194.232722 
L 140.290876 -203.549638 
L 143.590711 -193.95297 
L 146.890545 -200.788873 
L 150.19038 -203.567039 
L 153.490215 -201.574725 
L 156.79005 -212.096496 
L 160.089884 -202.588673 
L 163.389719 -210.646533 
L 166.689554 -207.970662 
L 169.989388 -207.552043 
L 173.289223 -206.923552 
L 176.589058 -209.582488 
L 179.888893 -208.764449 
L 183.188727 -215.6326 
L 186.488562 -217.0444 
L 189.788397 -217.023534 
L 193.088231 -213.356774 
L 196.388066 -213.9205 
L 199.687901 -214.159799 
L 202.987736 -216.275529 
L 206.28757 -216.216339 
L 209.587405 -218.394731 
L 212.88724 -219.214287 
L 216.187074 -212.524183 
L 219.486909 -217.803177 
L 222.786744 -219.982216 
L 226.086579 -211.601988 
L 229.386413 -220.571085 
L 232.686248 -215.913197 
L 235.986083 -226.124086 
L 239.285917 -217.893121 
L 242.585752 -211.29894 
L 245.885587 -218.133059 
L 249.185421 -223.938931 
L 252.485256 -211.135241 
L 255.785091 -212.745913 
L 259.084926 -212.639907 
L 262.38476 -219.007843 
L 265.684595 -212.228072 
L 268.98443 -216.037399 
L 272.284264 -205.464398 
L 275.584099 -205.268274 
L 278.883934 -213.616508 
L 282.183769 -217.606443 
L 285.483603 -213.360758 
L 288.783438 -213.493136 
L 292.083273 -208.743147 
L 295.383107 -210.447205 
L 298.682942 -215.709012 
L 301.982777 -212.951492 
L 305.282612 -217.586393 
L 308.582446 -216.074077 
L 311.882281 -219.202311 
L 315.182116 -216.791969 
L 318.48195 -217.556785 
L 321.781785 -218.597065 
L 325.08162 -215.571772 
L 328.381455 -212.770514 
L 331.681289 -213.242858 
L 334.981124 -210.336938 
L 338.280959 -211.051538 
L 341.580793 -215.722253 
L 344.880628 -213.908911 
L 348.180463 -216.598351 
L 351.480298 -216.859767 
L 354.780132 -210.029422 
L 358.079967 -210.874112 
L 361.379802 -212.49037 
L 364.679636 -210.397893 
L 367.979471 -219.814823 
L 371.279306 -213.403511 
L 374.57914 -209.707608 
L 377.878975 -219.500749 
L 381.17881 -217.747648 
L 384.478645 -210.972593 
L 387.778479 -218.186225 
L 391.078314 -218.22621 
L 394.378149 -212.363245 
L 397.677983 -212.947795 
L 400.977818 -214.774971 
L 400.977818 -288.756477 
L 400.977818 -288.756477 
L 397.677983 -286.967236 
L 394.378149 -288.804885 
L 391.078314 -290.67382 
L 387.778479 -290.577854 
L 384.478645 -286.636675 
L 381.17881 -290.990494 
L 377.878975 -291.764976 
L 374.57914 -288.073569 
L 371.279306 -291.535048 
L 367.979471 -291.966847 
L 364.679636 -285.367458 
L 361.379802 -288.49931 
L 358.079967 -285.173181 
L 354.780132 -286.836956 
L 351.480298 -290.903728 
L 348.180463 -290.992968 
L 344.880628 -289.575023 
L 341.580793 -290.398089 
L 338.280959 -286.170271 
L 334.981124 -286.421754 
L 331.681289 -286.725445 
L 328.381455 -286.894957 
L 325.08162 -287.454014 
L 321.781785 -289.866165 
L 318.48195 -291.292209 
L 315.182116 -287.703076 
L 311.882281 -291.510427 
L 308.582446 -288.48385 
L 305.282612 -290.111884 
L 301.982777 -289.580694 
L 298.682942 -286.812278 
L 295.383107 -286.088447 
L 292.083273 -286.318954 
L 288.783438 -285.853584 
L 285.483603 -287.20987 
L 282.183769 -285.973933 
L 278.883934 -287.211566 
L 275.584099 -283.660877 
L 272.284264 -284.789209 
L 268.98443 -289.116174 
L 265.684595 -286.422019 
L 262.38476 -290.73719 
L 259.084926 -288.997887 
L 255.785091 -285.720444 
L 252.485256 -283.816758 
L 249.185421 -291.664665 
L 245.885587 -289.271903 
L 242.585752 -284.574312 
L 239.285917 -287.867784 
L 235.986083 -288.307543 
L 232.686248 -285.693579 
L 229.386413 -286.431817 
L 226.086579 -282.788004 
L 222.786744 -285.430279 
L 219.486909 -282.831533 
L 216.187074 -282.316023 
L 212.88724 -286.951192 
L 209.587405 -284.447363 
L 206.28757 -280.113544 
L 202.987736 -285.868496 
L 199.687901 -282.098162 
L 196.388066 -283.183302 
L 193.088231 -282.30948 
L 189.788397 -284.76267 
L 186.488562 -281.805274 
L 183.188727 -285.844418 
L 179.888893 -281.938511 
L 176.589058 -280.284485 
L 173.289223 -278.959945 
L 169.989388 -277.661522 
L 166.689554 -277.11419 
L 163.389719 -277.478511 
L 160.089884 -272.864831 
L 156.79005 -279.36988 
L 153.490215 -272.341239 
L 150.19038 -272.333626 
L 146.890545 -274.158814 
L 143.590711 -267.587707 
L 140.290876 -273.096021 
L 136.991041 -269.775837 
L 133.691207 -268.435388 
L 130.391372 -267.566479 
L 127.091537 -263.905412 
L 123.791702 -263.963001 
L 120.491868 -257.128164 
L 117.192033 -257.034149 
L 113.892198 -253.389516 
L 110.592364 -248.931024 
L 107.292529 -246.496383 
L 103.992694 -243.125426 
L 100.69286 -237.399784 
L 97.393025 -235.292734 
L 94.09319 -227.200712 
L 90.793355 -235.801564 
L 87.493521 -232.27916 
L 84.193686 -233.069769 
L 80.893851 -229.636867 
L 77.594017 -214.461511 
L 74.294182 -239.086458 
z
" id="m268f715195" style="stroke:#cc2529;stroke-opacity:0.2;"/>
    </defs>
    <g clip-path="url(#p95e204f9b1)">
     <use style="fill:#cc2529;fill-opacity:0.2;stroke:#cc2529;stroke-opacity:0.2;" x="0" xlink:href="#m268f715195" y="366.48"/>
    </g>
   </g>
   <g id="matplotlib.axis_1">
    <g id="xtick_1">
     <g id="line2d_1">
      <path clip-path="url(#p95e204f9b1)" d="M 74.294182 326.1672 
L 74.294182 43.9776 
" style="fill:none;stroke:#b0b0b0;stroke-linecap:square;stroke-width:0.8;"/>
     </g>
     <g id="line2d_2">
      <defs>
       <path d="M 0 0 
L 0 3.5 
" id="m84b8524a50" style="stroke:#000000;stroke-width:0.8;"/>
      </defs>
      <g>
       <use style="stroke:#000000;stroke-width:0.8;" x="74.294182" xlink:href="#m84b8524a50" y="326.1672"/>
      </g>
     </g>
     <g id="text_1">
      <!-- 0 -->
      <defs>
       <path d="M 31.78125 66.40625 
Q 24.171875 66.40625 20.328125 58.90625 
Q 16.5 51.421875 16.5 36.375 
Q 16.5 21.390625 20.328125 13.890625 
Q 24.171875 6.390625 31.78125 6.390625 
Q 39.453125 6.390625 43.28125 13.890625 
Q 47.125 21.390625 47.125 36.375 
Q 47.125 51.421875 43.28125 58.90625 
Q 39.453125 66.40625 31.78125 66.40625 
z
M 31.78125 74.21875 
Q 44.046875 74.21875 50.515625 64.515625 
Q 56.984375 54.828125 56.984375 36.375 
Q 56.984375 17.96875 50.515625 8.265625 
Q 44.046875 -1.421875 31.78125 -1.421875 
Q 19.53125 -1.421875 13.0625 8.265625 
Q 6.59375 17.96875 6.59375 36.375 
Q 6.59375 54.828125 13.0625 64.515625 
Q 19.53125 74.21875 31.78125 74.21875 
z
" id="DejaVuSans-30"/>
      </defs>
      <g transform="translate(71.112932 340.765638)scale(0.1 -0.1)">
       <use xlink:href="#DejaVuSans-30"/>
      </g>
     </g>
    </g>
    <g id="xtick_2">
     <g id="line2d_3">
      <path clip-path="url(#p95e204f9b1)" d="M 140.290876 326.1672 
L 140.290876 43.9776 
" style="fill:none;stroke:#b0b0b0;stroke-linecap:square;stroke-width:0.8;"/>
     </g>
     <g id="line2d_4">
      <g>
       <use style="stroke:#000000;stroke-width:0.8;" x="140.290876" xlink:href="#m84b8524a50" y="326.1672"/>
      </g>
     </g>
     <g id="text_2">
      <!-- 20 -->
      <defs>
       <path d="M 19.1875 8.296875 
L 53.609375 8.296875 
L 53.609375 0 
L 7.328125 0 
L 7.328125 8.296875 
Q 12.9375 14.109375 22.625 23.890625 
Q 32.328125 33.6875 34.8125 36.53125 
Q 39.546875 41.84375 41.421875 45.53125 
Q 43.3125 49.21875 43.3125 52.78125 
Q 43.3125 58.59375 39.234375 62.25 
Q 35.15625 65.921875 28.609375 65.921875 
Q 23.96875 65.921875 18.8125 64.3125 
Q 13.671875 62.703125 7.8125 59.421875 
L 7.8125 69.390625 
Q 13.765625 71.78125 18.9375 73 
Q 24.125 74.21875 28.421875 74.21875 
Q 39.75 74.21875 46.484375 68.546875 
Q 53.21875 62.890625 53.21875 53.421875 
Q 53.21875 48.921875 51.53125 44.890625 
Q 49.859375 40.875 45.40625 35.40625 
Q 44.1875 33.984375 37.640625 27.21875 
Q 31.109375 20.453125 19.1875 8.296875 
z
" id="DejaVuSans-32"/>
      </defs>
      <g transform="translate(133.928376 340.765638)scale(0.1 -0.1)">
       <use xlink:href="#DejaVuSans-32"/>
       <use x="63.623047" xlink:href="#DejaVuSans-30"/>
      </g>
     </g>
    </g>
    <g id="xtick_3">
     <g id="line2d_5">
      <path clip-path="url(#p95e204f9b1)" d="M 206.28757 326.1672 
L 206.28757 43.9776 
" style="fill:none;stroke:#b0b0b0;stroke-linecap:square;stroke-width:0.8;"/>
     </g>
     <g id="line2d_6">
      <g>
       <use style="stroke:#000000;stroke-width:0.8;" x="206.28757" xlink:href="#m84b8524a50" y="326.1672"/>
      </g>
     </g>
     <g id="text_3">
      <!-- 40 -->
      <defs>
       <path d="M 37.796875 64.3125 
L 12.890625 25.390625 
L 37.796875 25.390625 
z
M 35.203125 72.90625 
L 47.609375 72.90625 
L 47.609375 25.390625 
L 58.015625 25.390625 
L 58.015625 17.1875 
L 47.609375 17.1875 
L 47.609375 0 
L 37.796875 0 
L 37.796875 17.1875 
L 4.890625 17.1875 
L 4.890625 26.703125 
z
" id="DejaVuSans-34"/>
      </defs>
      <g transform="translate(199.92507 340.765638)scale(0.1 -0.1)">
       <use xlink:href="#DejaVuSans-34"/>
       <use x="63.623047" xlink:href="#DejaVuSans-30"/>
      </g>
     </g>
    </g>
    <g id="xtick_4">
     <g id="line2d_7">
      <path clip-path="url(#p95e204f9b1)" d="M 272.284264 326.1672 
L 272.284264 43.9776 
" style="fill:none;stroke:#b0b0b0;stroke-linecap:square;stroke-width:0.8;"/>
     </g>
     <g id="line2d_8">
      <g>
       <use style="stroke:#000000;stroke-width:0.8;" x="272.284264" xlink:href="#m84b8524a50" y="326.1672"/>
      </g>
     </g>
     <g id="text_4">
      <!-- 60 -->
      <defs>
       <path d="M 33.015625 40.375 
Q 26.375 40.375 22.484375 35.828125 
Q 18.609375 31.296875 18.609375 23.390625 
Q 18.609375 15.53125 22.484375 10.953125 
Q 26.375 6.390625 33.015625 6.390625 
Q 39.65625 6.390625 43.53125 10.953125 
Q 47.40625 15.53125 47.40625 23.390625 
Q 47.40625 31.296875 43.53125 35.828125 
Q 39.65625 40.375 33.015625 40.375 
z
M 52.59375 71.296875 
L 52.59375 62.3125 
Q 48.875 64.0625 45.09375 64.984375 
Q 41.3125 65.921875 37.59375 65.921875 
Q 27.828125 65.921875 22.671875 59.328125 
Q 17.53125 52.734375 16.796875 39.40625 
Q 19.671875 43.65625 24.015625 45.921875 
Q 28.375 48.1875 33.59375 48.1875 
Q 44.578125 48.1875 50.953125 41.515625 
Q 57.328125 34.859375 57.328125 23.390625 
Q 57.328125 12.15625 50.6875 5.359375 
Q 44.046875 -1.421875 33.015625 -1.421875 
Q 20.359375 -1.421875 13.671875 8.265625 
Q 6.984375 17.96875 6.984375 36.375 
Q 6.984375 53.65625 15.1875 63.9375 
Q 23.390625 74.21875 37.203125 74.21875 
Q 40.921875 74.21875 44.703125 73.484375 
Q 48.484375 72.75 52.59375 71.296875 
z
" id="DejaVuSans-36"/>
      </defs>
      <g transform="translate(265.921764 340.765638)scale(0.1 -0.1)">
       <use xlink:href="#DejaVuSans-36"/>
       <use x="63.623047" xlink:href="#DejaVuSans-30"/>
      </g>
     </g>
    </g>
    <g id="xtick_5">
     <g id="line2d_9">
      <path clip-path="url(#p95e204f9b1)" d="M 338.280959 326.1672 
L 338.280959 43.9776 
" style="fill:none;stroke:#b0b0b0;stroke-linecap:square;stroke-width:0.8;"/>
     </g>
     <g id="line2d_10">
      <g>
       <use style="stroke:#000000;stroke-width:0.8;" x="338.280959" xlink:href="#m84b8524a50" y="326.1672"/>
      </g>
     </g>
     <g id="text_5">
      <!-- 80 -->
      <defs>
       <path d="M 31.78125 34.625 
Q 24.75 34.625 20.71875 30.859375 
Q 16.703125 27.09375 16.703125 20.515625 
Q 16.703125 13.921875 20.71875 10.15625 
Q 24.75 6.390625 31.78125 6.390625 
Q 38.8125 6.390625 42.859375 10.171875 
Q 46.921875 13.96875 46.921875 20.515625 
Q 46.921875 27.09375 42.890625 30.859375 
Q 38.875 34.625 31.78125 34.625 
z
M 21.921875 38.8125 
Q 15.578125 40.375 12.03125 44.71875 
Q 8.5 49.078125 8.5 55.328125 
Q 8.5 64.0625 14.71875 69.140625 
Q 20.953125 74.21875 31.78125 74.21875 
Q 42.671875 74.21875 48.875 69.140625 
Q 55.078125 64.0625 55.078125 55.328125 
Q 55.078125 49.078125 51.53125 44.71875 
Q 48 40.375 41.703125 38.8125 
Q 48.828125 37.15625 52.796875 32.3125 
Q 56.78125 27.484375 56.78125 20.515625 
Q 56.78125 9.90625 50.3125 4.234375 
Q 43.84375 -1.421875 31.78125 -1.421875 
Q 19.734375 -1.421875 13.25 4.234375 
Q 6.78125 9.90625 6.78125 20.515625 
Q 6.78125 27.484375 10.78125 32.3125 
Q 14.796875 37.15625 21.921875 38.8125 
z
M 18.3125 54.390625 
Q 18.3125 48.734375 21.84375 45.5625 
Q 25.390625 42.390625 31.78125 42.390625 
Q 38.140625 42.390625 41.71875 45.5625 
Q 45.3125 48.734375 45.3125 54.390625 
Q 45.3125 60.0625 41.71875 63.234375 
Q 38.140625 66.40625 31.78125 66.40625 
Q 25.390625 66.40625 21.84375 63.234375 
Q 18.3125 60.0625 18.3125 54.390625 
z
" id="DejaVuSans-38"/>
      </defs>
      <g transform="translate(331.918459 340.765638)scale(0.1 -0.1)">
       <use xlink:href="#DejaVuSans-38"/>
       <use x="63.623047" xlink:href="#DejaVuSans-30"/>
      </g>
     </g>
    </g>
    <g id="xtick_6">
     <g id="line2d_11">
      <path clip-path="url(#p95e204f9b1)" d="M 404.277653 326.1672 
L 404.277653 43.9776 
" style="fill:none;stroke:#b0b0b0;stroke-linecap:square;stroke-width:0.8;"/>
     </g>
     <g id="line2d_12">
      <g>
       <use style="stroke:#000000;stroke-width:0.8;" x="404.277653" xlink:href="#m84b8524a50" y="326.1672"/>
      </g>
     </g>
     <g id="text_6">
      <!-- 100 -->
      <defs>
       <path d="M 12.40625 8.296875 
L 28.515625 8.296875 
L 28.515625 63.921875 
L 10.984375 60.40625 
L 10.984375 69.390625 
L 28.421875 72.90625 
L 38.28125 72.90625 
L 38.28125 8.296875 
L 54.390625 8.296875 
L 54.390625 0 
L 12.40625 0 
z
" id="DejaVuSans-31"/>
      </defs>
      <g transform="translate(394.733903 340.765638)scale(0.1 -0.1)">
       <use xlink:href="#DejaVuSans-31"/>
       <use x="63.623047" xlink:href="#DejaVuSans-30"/>
       <use x="127.246094" xlink:href="#DejaVuSans-30"/>
      </g>
     </g>
    </g>
    <g id="text_7">
     <!-- Episodes (x1000) -->
     <defs>
      <path d="M 9.8125 72.90625 
L 55.90625 72.90625 
L 55.90625 64.59375 
L 19.671875 64.59375 
L 19.671875 43.015625 
L 54.390625 43.015625 
L 54.390625 34.71875 
L 19.671875 34.71875 
L 19.671875 8.296875 
L 56.78125 8.296875 
L 56.78125 0 
L 9.8125 0 
z
" id="DejaVuSans-45"/>
      <path d="M 18.109375 8.203125 
L 18.109375 -20.796875 
L 9.078125 -20.796875 
L 9.078125 54.6875 
L 18.109375 54.6875 
L 18.109375 46.390625 
Q 20.953125 51.265625 25.265625 53.625 
Q 29.59375 56 35.59375 56 
Q 45.5625 56 51.78125 48.09375 
Q 58.015625 40.1875 58.015625 27.296875 
Q 58.015625 14.40625 51.78125 6.484375 
Q 45.5625 -1.421875 35.59375 -1.421875 
Q 29.59375 -1.421875 25.265625 0.953125 
Q 20.953125 3.328125 18.109375 8.203125 
z
M 48.6875 27.296875 
Q 48.6875 37.203125 44.609375 42.84375 
Q 40.53125 48.484375 33.40625 48.484375 
Q 26.265625 48.484375 22.1875 42.84375 
Q 18.109375 37.203125 18.109375 27.296875 
Q 18.109375 17.390625 22.1875 11.75 
Q 26.265625 6.109375 33.40625 6.109375 
Q 40.53125 6.109375 44.609375 11.75 
Q 48.6875 17.390625 48.6875 27.296875 
z
" id="DejaVuSans-70"/>
      <path d="M 9.421875 54.6875 
L 18.40625 54.6875 
L 18.40625 0 
L 9.421875 0 
z
M 9.421875 75.984375 
L 18.40625 75.984375 
L 18.40625 64.59375 
L 9.421875 64.59375 
z
" id="DejaVuSans-69"/>
      <path d="M 44.28125 53.078125 
L 44.28125 44.578125 
Q 40.484375 46.53125 36.375 47.5 
Q 32.28125 48.484375 27.875 48.484375 
Q 21.1875 48.484375 17.84375 46.4375 
Q 14.5 44.390625 14.5 40.28125 
Q 14.5 37.15625 16.890625 35.375 
Q 19.28125 33.59375 26.515625 31.984375 
L 29.59375 31.296875 
Q 39.15625 29.25 43.1875 25.515625 
Q 47.21875 21.78125 47.21875 15.09375 
Q 47.21875 7.46875 41.1875 3.015625 
Q 35.15625 -1.421875 24.609375 -1.421875 
Q 20.21875 -1.421875 15.453125 -0.5625 
Q 10.6875 0.296875 5.421875 2 
L 5.421875 11.28125 
Q 10.40625 8.6875 15.234375 7.390625 
Q 20.0625 6.109375 24.8125 6.109375 
Q 31.15625 6.109375 34.5625 8.28125 
Q 37.984375 10.453125 37.984375 14.40625 
Q 37.984375 18.0625 35.515625 20.015625 
Q 33.0625 21.96875 24.703125 23.78125 
L 21.578125 24.515625 
Q 13.234375 26.265625 9.515625 29.90625 
Q 5.8125 33.546875 5.8125 39.890625 
Q 5.8125 47.609375 11.28125 51.796875 
Q 16.75 56 26.8125 56 
Q 31.78125 56 36.171875 55.265625 
Q 40.578125 54.546875 44.28125 53.078125 
z
" id="DejaVuSans-73"/>
      <path d="M 30.609375 48.390625 
Q 23.390625 48.390625 19.1875 42.75 
Q 14.984375 37.109375 14.984375 27.296875 
Q 14.984375 17.484375 19.15625 11.84375 
Q 23.34375 6.203125 30.609375 6.203125 
Q 37.796875 6.203125 41.984375 11.859375 
Q 46.1875 17.53125 46.1875 27.296875 
Q 46.1875 37.015625 41.984375 42.703125 
Q 37.796875 48.390625 30.609375 48.390625 
z
M 30.609375 56 
Q 42.328125 56 49.015625 48.375 
Q 55.71875 40.765625 55.71875 27.296875 
Q 55.71875 13.875 49.015625 6.21875 
Q 42.328125 -1.421875 30.609375 -1.421875 
Q 18.84375 -1.421875 12.171875 6.21875 
Q 5.515625 13.875 5.515625 27.296875 
Q 5.515625 40.765625 12.171875 48.375 
Q 18.84375 56 30.609375 56 
z
" id="DejaVuSans-6f"/>
      <path d="M 45.40625 46.390625 
L 45.40625 75.984375 
L 54.390625 75.984375 
L 54.390625 0 
L 45.40625 0 
L 45.40625 8.203125 
Q 42.578125 3.328125 38.25 0.953125 
Q 33.9375 -1.421875 27.875 -1.421875 
Q 17.96875 -1.421875 11.734375 6.484375 
Q 5.515625 14.40625 5.515625 27.296875 
Q 5.515625 40.1875 11.734375 48.09375 
Q 17.96875 56 27.875 56 
Q 33.9375 56 38.25 53.625 
Q 42.578125 51.265625 45.40625 46.390625 
z
M 14.796875 27.296875 
Q 14.796875 17.390625 18.875 11.75 
Q 22.953125 6.109375 30.078125 6.109375 
Q 37.203125 6.109375 41.296875 11.75 
Q 45.40625 17.390625 45.40625 27.296875 
Q 45.40625 37.203125 41.296875 42.84375 
Q 37.203125 48.484375 30.078125 48.484375 
Q 22.953125 48.484375 18.875 42.84375 
Q 14.796875 37.203125 14.796875 27.296875 
z
" id="DejaVuSans-64"/>
      <path d="M 56.203125 29.59375 
L 56.203125 25.203125 
L 14.890625 25.203125 
Q 15.484375 15.921875 20.484375 11.0625 
Q 25.484375 6.203125 34.421875 6.203125 
Q 39.59375 6.203125 44.453125 7.46875 
Q 49.3125 8.734375 54.109375 11.28125 
L 54.109375 2.78125 
Q 49.265625 0.734375 44.1875 -0.34375 
Q 39.109375 -1.421875 33.890625 -1.421875 
Q 20.796875 -1.421875 13.15625 6.1875 
Q 5.515625 13.8125 5.515625 26.8125 
Q 5.515625 40.234375 12.765625 48.109375 
Q 20.015625 56 32.328125 56 
Q 43.359375 56 49.78125 48.890625 
Q 56.203125 41.796875 56.203125 29.59375 
z
M 47.21875 32.234375 
Q 47.125 39.59375 43.09375 43.984375 
Q 39.0625 48.390625 32.421875 48.390625 
Q 24.90625 48.390625 20.390625 44.140625 
Q 15.875 39.890625 15.1875 32.171875 
z
" id="DejaVuSans-65"/>
      <path id="DejaVuSans-20"/>
      <path d="M 31 75.875 
Q 24.46875 64.65625 21.28125 53.65625 
Q 18.109375 42.671875 18.109375 31.390625 
Q 18.109375 20.125 21.3125 9.0625 
Q 24.515625 -2 31 -13.1875 
L 23.1875 -13.1875 
Q 15.875 -1.703125 12.234375 9.375 
Q 8.59375 20.453125 8.59375 31.390625 
Q 8.59375 42.28125 12.203125 53.3125 
Q 15.828125 64.359375 23.1875 75.875 
z
" id="DejaVuSans-28"/>
      <path d="M 54.890625 54.6875 
L 35.109375 28.078125 
L 55.90625 0 
L 45.3125 0 
L 29.390625 21.484375 
L 13.484375 0 
L 2.875 0 
L 24.125 28.609375 
L 4.6875 54.6875 
L 15.28125 54.6875 
L 29.78125 35.203125 
L 44.28125 54.6875 
z
" id="DejaVuSans-78"/>
      <path d="M 8.015625 75.875 
L 15.828125 75.875 
Q 23.140625 64.359375 26.78125 53.3125 
Q 30.421875 42.28125 30.421875 31.390625 
Q 30.421875 20.453125 26.78125 9.375 
Q 23.140625 -1.703125 15.828125 -13.1875 
L 8.015625 -13.1875 
Q 14.5 -2 17.703125 9.0625 
Q 20.90625 20.125 20.90625 31.390625 
Q 20.90625 42.671875 17.703125 53.65625 
Q 14.5 64.65625 8.015625 75.875 
z
" id="DejaVuSans-29"/>
     </defs>
     <g transform="translate(194.218813 354.443763)scale(0.1 -0.1)">
      <use xlink:href="#DejaVuSans-45"/>
      <use x="63.183594" xlink:href="#DejaVuSans-70"/>
      <use x="126.660156" xlink:href="#DejaVuSans-69"/>
      <use x="154.443359" xlink:href="#DejaVuSans-73"/>
      <use x="206.542969" xlink:href="#DejaVuSans-6f"/>
      <use x="267.724609" xlink:href="#DejaVuSans-64"/>
      <use x="331.201172" xlink:href="#DejaVuSans-65"/>
      <use x="392.724609" xlink:href="#DejaVuSans-73"/>
      <use x="444.824219" xlink:href="#DejaVuSans-20"/>
      <use x="476.611328" xlink:href="#DejaVuSans-28"/>
      <use x="515.625" xlink:href="#DejaVuSans-78"/>
      <use x="574.804688" xlink:href="#DejaVuSans-31"/>
      <use x="638.427734" xlink:href="#DejaVuSans-30"/>
      <use x="702.050781" xlink:href="#DejaVuSans-30"/>
      <use x="765.673828" xlink:href="#DejaVuSans-30"/>
      <use x="829.296875" xlink:href="#DejaVuSans-29"/>
     </g>
    </g>
   </g>
   <g id="matplotlib.axis_2">
    <g id="ytick_1">
     <g id="line2d_13">
      <path clip-path="url(#p95e204f9b1)" d="M 57.96 298.304071 
L 417.312 298.304071 
" style="fill:none;stroke:#b0b0b0;stroke-linecap:square;stroke-width:0.8;"/>
     </g>
     <g id="line2d_14">
      <defs>
       <path d="M 0 0 
L -3.5 0 
" id="m04700f4bf8" style="stroke:#000000;stroke-width:0.8;"/>
      </defs>
      <g>
       <use style="stroke:#000000;stroke-width:0.8;" x="57.96" xlink:href="#m04700f4bf8" y="298.304071"/>
      </g>
     </g>
     <g id="text_8">
      <!-- −55 -->
      <defs>
       <path d="M 10.59375 35.5 
L 73.1875 35.5 
L 73.1875 27.203125 
L 10.59375 27.203125 
z
" id="DejaVuSans-2212"/>
       <path d="M 10.796875 72.90625 
L 49.515625 72.90625 
L 49.515625 64.59375 
L 19.828125 64.59375 
L 19.828125 46.734375 
Q 21.96875 47.46875 24.109375 47.828125 
Q 26.265625 48.1875 28.421875 48.1875 
Q 40.625 48.1875 47.75 41.5 
Q 54.890625 34.8125 54.890625 23.390625 
Q 54.890625 11.625 47.5625 5.09375 
Q 40.234375 -1.421875 26.90625 -1.421875 
Q 22.3125 -1.421875 17.546875 -0.640625 
Q 12.796875 0.140625 7.71875 1.703125 
L 7.71875 11.625 
Q 12.109375 9.234375 16.796875 8.0625 
Q 21.484375 6.890625 26.703125 6.890625 
Q 35.15625 6.890625 40.078125 11.328125 
Q 45.015625 15.765625 45.015625 23.390625 
Q 45.015625 31 40.078125 35.4375 
Q 35.15625 39.890625 26.703125 39.890625 
Q 22.75 39.890625 18.8125 39.015625 
Q 14.890625 38.140625 10.796875 36.28125 
z
" id="DejaVuSans-35"/>
      </defs>
      <g transform="translate(29.855313 302.10329)scale(0.1 -0.1)">
       <use xlink:href="#DejaVuSans-2212"/>
       <use x="83.789062" xlink:href="#DejaVuSans-35"/>
       <use x="147.412109" xlink:href="#DejaVuSans-35"/>
      </g>
     </g>
    </g>
    <g id="ytick_2">
     <g id="line2d_15">
      <path clip-path="url(#p95e204f9b1)" d="M 57.96 245.022554 
L 417.312 245.022554 
" style="fill:none;stroke:#b0b0b0;stroke-linecap:square;stroke-width:0.8;"/>
     </g>
     <g id="line2d_16">
      <g>
       <use style="stroke:#000000;stroke-width:0.8;" x="57.96" xlink:href="#m04700f4bf8" y="245.022554"/>
      </g>
     </g>
     <g id="text_9">
      <!-- −50 -->
      <g transform="translate(29.855313 248.821773)scale(0.1 -0.1)">
       <use xlink:href="#DejaVuSans-2212"/>
       <use x="83.789062" xlink:href="#DejaVuSans-35"/>
       <use x="147.412109" xlink:href="#DejaVuSans-30"/>
      </g>
     </g>
    </g>
    <g id="ytick_3">
     <g id="line2d_17">
      <path clip-path="url(#p95e204f9b1)" d="M 57.96 191.741037 
L 417.312 191.741037 
" style="fill:none;stroke:#b0b0b0;stroke-linecap:square;stroke-width:0.8;"/>
     </g>
     <g id="line2d_18">
      <g>
       <use style="stroke:#000000;stroke-width:0.8;" x="57.96" xlink:href="#m04700f4bf8" y="191.741037"/>
      </g>
     </g>
     <g id="text_10">
      <!-- −45 -->
      <g transform="translate(29.855313 195.540256)scale(0.1 -0.1)">
       <use xlink:href="#DejaVuSans-2212"/>
       <use x="83.789062" xlink:href="#DejaVuSans-34"/>
       <use x="147.412109" xlink:href="#DejaVuSans-35"/>
      </g>
     </g>
    </g>
    <g id="ytick_4">
     <g id="line2d_19">
      <path clip-path="url(#p95e204f9b1)" d="M 57.96 138.45952 
L 417.312 138.45952 
" style="fill:none;stroke:#b0b0b0;stroke-linecap:square;stroke-width:0.8;"/>
     </g>
     <g id="line2d_20">
      <g>
       <use style="stroke:#000000;stroke-width:0.8;" x="57.96" xlink:href="#m04700f4bf8" y="138.45952"/>
      </g>
     </g>
     <g id="text_11">
      <!-- −40 -->
      <g transform="translate(29.855313 142.258739)scale(0.1 -0.1)">
       <use xlink:href="#DejaVuSans-2212"/>
       <use x="83.789062" xlink:href="#DejaVuSans-34"/>
       <use x="147.412109" xlink:href="#DejaVuSans-30"/>
      </g>
     </g>
    </g>
    <g id="ytick_5">
     <g id="line2d_21">
      <path clip-path="url(#p95e204f9b1)" d="M 57.96 85.178003 
L 417.312 85.178003 
" style="fill:none;stroke:#b0b0b0;stroke-linecap:square;stroke-width:0.8;"/>
     </g>
     <g id="line2d_22">
      <g>
       <use style="stroke:#000000;stroke-width:0.8;" x="57.96" xlink:href="#m04700f4bf8" y="85.178003"/>
      </g>
     </g>
     <g id="text_12">
      <!-- −35 -->
      <defs>
       <path d="M 40.578125 39.3125 
Q 47.65625 37.796875 51.625 33 
Q 55.609375 28.21875 55.609375 21.1875 
Q 55.609375 10.40625 48.1875 4.484375 
Q 40.765625 -1.421875 27.09375 -1.421875 
Q 22.515625 -1.421875 17.65625 -0.515625 
Q 12.796875 0.390625 7.625 2.203125 
L 7.625 11.71875 
Q 11.71875 9.328125 16.59375 8.109375 
Q 21.484375 6.890625 26.8125 6.890625 
Q 36.078125 6.890625 40.9375 10.546875 
Q 45.796875 14.203125 45.796875 21.1875 
Q 45.796875 27.640625 41.28125 31.265625 
Q 36.765625 34.90625 28.71875 34.90625 
L 20.21875 34.90625 
L 20.21875 43.015625 
L 29.109375 43.015625 
Q 36.375 43.015625 40.234375 45.921875 
Q 44.09375 48.828125 44.09375 54.296875 
Q 44.09375 59.90625 40.109375 62.90625 
Q 36.140625 65.921875 28.71875 65.921875 
Q 24.65625 65.921875 20.015625 65.03125 
Q 15.375 64.15625 9.8125 62.3125 
L 9.8125 71.09375 
Q 15.4375 72.65625 20.34375 73.4375 
Q 25.25 74.21875 29.59375 74.21875 
Q 40.828125 74.21875 47.359375 69.109375 
Q 53.90625 64.015625 53.90625 55.328125 
Q 53.90625 49.265625 50.4375 45.09375 
Q 46.96875 40.921875 40.578125 39.3125 
z
" id="DejaVuSans-33"/>
      </defs>
      <g transform="translate(29.855313 88.977222)scale(0.1 -0.1)">
       <use xlink:href="#DejaVuSans-2212"/>
       <use x="83.789062" xlink:href="#DejaVuSans-33"/>
       <use x="147.412109" xlink:href="#DejaVuSans-35"/>
      </g>
     </g>
    </g>
    <g id="text_13">
     <!-- Reward -->
     <defs>
      <path d="M 44.390625 34.1875 
Q 47.5625 33.109375 50.5625 29.59375 
Q 53.5625 26.078125 56.59375 19.921875 
L 66.609375 0 
L 56 0 
L 46.6875 18.703125 
Q 43.0625 26.03125 39.671875 28.421875 
Q 36.28125 30.8125 30.421875 30.8125 
L 19.671875 30.8125 
L 19.671875 0 
L 9.8125 0 
L 9.8125 72.90625 
L 32.078125 72.90625 
Q 44.578125 72.90625 50.734375 67.671875 
Q 56.890625 62.453125 56.890625 51.90625 
Q 56.890625 45.015625 53.6875 40.46875 
Q 50.484375 35.9375 44.390625 34.1875 
z
M 19.671875 64.796875 
L 19.671875 38.921875 
L 32.078125 38.921875 
Q 39.203125 38.921875 42.84375 42.21875 
Q 46.484375 45.515625 46.484375 51.90625 
Q 46.484375 58.296875 42.84375 61.546875 
Q 39.203125 64.796875 32.078125 64.796875 
z
" id="DejaVuSans-52"/>
      <path d="M 4.203125 54.6875 
L 13.1875 54.6875 
L 24.421875 12.015625 
L 35.59375 54.6875 
L 46.1875 54.6875 
L 57.421875 12.015625 
L 68.609375 54.6875 
L 77.59375 54.6875 
L 63.28125 0 
L 52.6875 0 
L 40.921875 44.828125 
L 29.109375 0 
L 18.5 0 
z
" id="DejaVuSans-77"/>
      <path d="M 34.28125 27.484375 
Q 23.390625 27.484375 19.1875 25 
Q 14.984375 22.515625 14.984375 16.5 
Q 14.984375 11.71875 18.140625 8.90625 
Q 21.296875 6.109375 26.703125 6.109375 
Q 34.1875 6.109375 38.703125 11.40625 
Q 43.21875 16.703125 43.21875 25.484375 
L 43.21875 27.484375 
z
M 52.203125 31.203125 
L 52.203125 0 
L 43.21875 0 
L 43.21875 8.296875 
Q 40.140625 3.328125 35.546875 0.953125 
Q 30.953125 -1.421875 24.3125 -1.421875 
Q 15.921875 -1.421875 10.953125 3.296875 
Q 6 8.015625 6 15.921875 
Q 6 25.140625 12.171875 29.828125 
Q 18.359375 34.515625 30.609375 34.515625 
L 43.21875 34.515625 
L 43.21875 35.40625 
Q 43.21875 41.609375 39.140625 45 
Q 35.0625 48.390625 27.6875 48.390625 
Q 23 48.390625 18.546875 47.265625 
Q 14.109375 46.140625 10.015625 43.890625 
L 10.015625 52.203125 
Q 14.9375 54.109375 19.578125 55.046875 
Q 24.21875 56 28.609375 56 
Q 40.484375 56 46.34375 49.84375 
Q 52.203125 43.703125 52.203125 31.203125 
z
" id="DejaVuSans-61"/>
      <path d="M 41.109375 46.296875 
Q 39.59375 47.171875 37.8125 47.578125 
Q 36.03125 48 33.890625 48 
Q 26.265625 48 22.1875 43.046875 
Q 18.109375 38.09375 18.109375 28.8125 
L 18.109375 0 
L 9.078125 0 
L 9.078125 54.6875 
L 18.109375 54.6875 
L 18.109375 46.1875 
Q 20.953125 51.171875 25.484375 53.578125 
Q 30.03125 56 36.53125 56 
Q 37.453125 56 38.578125 55.875 
Q 39.703125 55.765625 41.0625 55.515625 
z
" id="DejaVuSans-72"/>
     </defs>
     <g transform="translate(23.775625 204.002088)rotate(-90)scale(0.1 -0.1)">
      <use xlink:href="#DejaVuSans-52"/>
      <use x="69.419922" xlink:href="#DejaVuSans-65"/>
      <use x="130.943359" xlink:href="#DejaVuSans-77"/>
      <use x="212.730469" xlink:href="#DejaVuSans-61"/>
      <use x="274.009766" xlink:href="#DejaVuSans-72"/>
      <use x="315.107422" xlink:href="#DejaVuSans-64"/>
     </g>
    </g>
   </g>
   <g id="line2d_23">
    <path clip-path="url(#p95e204f9b1)" d="M 74.294182 173.767159 
L 77.594017 202.419807 
L 80.893851 174.550887 
L 84.193686 159.784282 
L 87.493521 155.079711 
L 90.793355 154.868203 
L 94.09319 157.218833 
L 97.393025 157.526284 
L 100.69286 153.686732 
L 103.992694 153.510144 
L 107.292529 147.196641 
L 110.592364 145.589832 
L 113.892198 140.566862 
L 117.192033 133.042491 
L 120.491868 136.698296 
L 123.791702 136.271211 
L 127.091537 129.722866 
L 130.391372 125.349819 
L 133.691207 127.650629 
L 136.991041 126.398517 
L 140.290876 122.195725 
L 143.590711 127.975282 
L 146.890545 123.636053 
L 150.19038 120.644736 
L 153.490215 120.165241 
L 156.79005 118.100469 
L 160.089884 119.770868 
L 163.389719 115.588786 
L 166.689554 115.967057 
L 169.989388 118.027245 
L 173.289223 116.930307 
L 176.589058 117.557604 
L 179.888893 115.766213 
L 183.188727 113.846827 
L 186.488562 110.260494 
L 189.788397 113.348903 
L 193.088231 112.617529 
L 196.388066 111.952968 
L 199.687901 112.795807 
L 202.987736 111.143323 
L 206.28757 111.215257 
L 209.587405 110.670187 
L 212.88724 111.776422 
L 216.187074 111.030672 
L 219.486909 106.549941 
L 222.786744 106.822847 
L 226.086579 105.538788 
L 229.386413 106.288149 
L 232.686248 106.331824 
L 235.986083 107.106464 
L 239.285917 107.123784 
L 242.585752 105.449964 
L 245.885587 104.515046 
L 249.185421 102.065859 
L 252.485256 103.682836 
L 255.785091 105.164174 
L 259.084926 105.378956 
L 262.38476 105.132808 
L 265.684595 103.351479 
L 268.98443 103.540228 
L 272.284264 104.362951 
L 275.584099 106.434517 
L 278.883934 101.63627 
L 282.183769 100.266926 
L 285.483603 101.230183 
L 288.783438 101.163603 
L 292.083273 101.02223 
L 295.383107 101.779157 
L 298.682942 102.522767 
L 301.982777 100.549953 
L 305.282612 105.079279 
L 308.582446 101.756965 
L 311.882281 101.211046 
L 315.182116 103.569851 
L 318.48195 102.371173 
L 321.781785 100.145544 
L 325.08162 101.294363 
L 328.381455 101.34033 
L 331.681289 99.874855 
L 334.981124 103.544429 
L 338.280959 101.380366 
L 341.580793 107.92103 
L 344.880628 103.915281 
L 348.180463 107.259621 
L 351.480298 105.442262 
L 354.780132 105.072146 
L 358.079967 103.884495 
L 361.379802 104.694217 
L 364.679636 101.754716 
L 367.979471 103.501875 
L 371.279306 105.78748 
L 374.57914 106.699514 
L 377.878975 102.810455 
L 381.17881 106.891009 
L 384.478645 103.741324 
L 387.778479 103.730396 
L 391.078314 103.977663 
L 394.378149 103.75267 
L 397.677983 106.465872 
L 400.977818 103.253633 
" style="fill:none;stroke:#396ab1;stroke-linecap:square;"/>
   </g>
   <g id="line2d_24">
    <path clip-path="url(#p95e204f9b1)" d="M 74.294182 169.450552 
L 77.594017 242.964543 
L 80.893851 180.229039 
L 84.193686 166.660939 
L 87.493521 158.206569 
L 90.793355 149.683526 
L 94.09319 160.023632 
L 97.393025 160.858582 
L 100.69286 154.836688 
L 103.992694 151.89364 
L 107.292529 147.995317 
L 110.592364 144.542916 
L 113.892198 141.408342 
L 117.192033 135.691461 
L 120.491868 131.809141 
L 123.791702 125.135265 
L 127.091537 126.06983 
L 130.391372 124.775214 
L 133.691207 121.418592 
L 136.991041 119.339612 
L 140.290876 118.191711 
L 143.590711 117.703153 
L 146.890545 117.369573 
L 150.19038 116.222481 
L 153.490215 114.100502 
L 156.79005 117.124714 
L 160.089884 116.487518 
L 163.389719 112.169709 
L 166.689554 111.43786 
L 169.989388 115.039649 
L 173.289223 115.311104 
L 176.589058 115.166292 
L 179.888893 114.548883 
L 183.188727 111.932376 
L 186.488562 109.959276 
L 189.788397 109.665351 
L 193.088231 107.626009 
L 196.388066 108.623838 
L 199.687901 110.670911 
L 202.987736 105.163723 
L 206.28757 109.104655 
L 209.587405 108.710964 
L 212.88724 103.344018 
L 216.187074 106.28096 
L 219.486909 105.364716 
L 222.786744 105.474426 
L 226.086579 106.966216 
L 229.386413 103.011641 
L 232.686248 105.771866 
L 235.986083 102.206409 
L 239.285917 102.05769 
L 242.585752 104.725809 
L 245.885587 102.786179 
L 249.185421 97.398091 
L 252.485256 96.570404 
L 255.785091 98.873005 
L 259.084926 101.817521 
L 262.38476 95.001828 
L 265.684595 104.784725 
L 268.98443 97.989394 
L 272.284264 102.626799 
L 275.584099 98.795133 
L 278.883934 97.788065 
L 282.183769 96.762997 
L 285.483603 95.923876 
L 288.783438 96.772803 
L 292.083273 99.038326 
L 295.383107 95.732675 
L 298.682942 92.936595 
L 301.982777 93.866502 
L 305.282612 97.211694 
L 308.582446 96.989427 
L 311.882281 92.396878 
L 315.182116 94.513621 
L 318.48195 90.555844 
L 321.781785 93.875631 
L 325.08162 91.425382 
L 328.381455 93.902831 
L 331.681289 90.964008 
L 334.981124 90.357463 
L 338.280959 93.523082 
L 341.580793 92.025643 
L 344.880628 97.472564 
L 348.180463 94.159086 
L 351.480298 94.196924 
L 354.780132 96.666189 
L 358.079967 88.993957 
L 361.379802 91.396062 
L 364.679636 91.101098 
L 367.979471 90.802775 
L 371.279306 93.449324 
L 374.57914 91.274287 
L 377.878975 92.787647 
L 381.17881 93.020245 
L 384.478645 90.96174 
L 387.778479 88.460893 
L 391.078314 92.409301 
L 394.378149 95.926435 
L 397.677983 91.846203 
L 400.977818 91.623607 
" style="fill:none;stroke:#da7c30;stroke-linecap:square;"/>
   </g>
   <g id="line2d_25">
    <path clip-path="url(#p95e204f9b1)" d="M 74.294182 179.377523 
L 77.594017 240.791272 
L 80.893851 181.369164 
L 84.193686 185.750808 
L 87.493521 174.531999 
L 90.793355 178.249311 
L 94.09319 183.008016 
L 97.393025 178.881733 
L 100.69286 176.701555 
L 103.992694 177.701263 
L 107.292529 171.045899 
L 110.592364 168.076917 
L 113.892198 164.266462 
L 117.192033 159.92918 
L 120.491868 155.964225 
L 123.791702 154.570721 
L 127.091537 151.00194 
L 130.391372 149.419423 
L 133.691207 149.09256 
L 136.991041 147.149222 
L 140.290876 143.58596 
L 143.590711 146.644375 
L 146.890545 144.026331 
L 150.19038 140.39332 
L 153.490215 143.323052 
L 156.79005 139.076184 
L 160.089884 134.621944 
L 163.389719 129.573501 
L 166.689554 135.977682 
L 169.989388 136.220692 
L 173.289223 133.877485 
L 176.589058 133.119831 
L 179.888893 133.701405 
L 183.188727 132.564761 
L 186.488562 129.156936 
L 189.788397 128.180644 
L 193.088231 132.288421 
L 196.388066 131.954812 
L 199.687901 130.474154 
L 202.987736 126.830889 
L 206.28757 126.864909 
L 209.587405 127.351728 
L 212.88724 128.324868 
L 216.187074 131.032165 
L 219.486909 126.589756 
L 222.786744 125.882025 
L 226.086579 130.258975 
L 229.386413 121.908508 
L 232.686248 128.643037 
L 235.986083 125.722517 
L 239.285917 122.354769 
L 242.585752 130.090869 
L 245.885587 126.110526 
L 249.185421 129.630284 
L 252.485256 127.639117 
L 255.785091 126.77938 
L 259.084926 129.779852 
L 262.38476 127.37516 
L 265.684595 126.957318 
L 268.98443 127.256236 
L 272.284264 129.117075 
L 275.584099 125.242403 
L 278.883934 127.338178 
L 282.183769 124.243436 
L 285.483603 126.441966 
L 288.783438 125.73687 
L 292.083273 131.57869 
L 295.383107 127.629676 
L 298.682942 125.311116 
L 301.982777 125.057372 
L 305.282612 124.176578 
L 308.582446 124.319643 
L 311.882281 126.983608 
L 315.182116 124.838776 
L 318.48195 122.047959 
L 321.781785 122.950533 
L 325.08162 122.339638 
L 328.381455 127.541307 
L 331.681289 121.94133 
L 334.981124 121.432429 
L 338.280959 120.723411 
L 341.580793 127.433945 
L 344.880628 126.230064 
L 348.180463 125.056796 
L 351.480298 122.143391 
L 354.780132 128.075811 
L 358.079967 126.342009 
L 361.379802 126.333788 
L 364.679636 125.338525 
L 367.979471 121.180719 
L 371.279306 122.09968 
L 374.57914 126.63936 
L 377.878975 127.014243 
L 381.17881 124.52004 
L 384.478645 126.233276 
L 387.778479 129.386598 
L 391.078314 128.067673 
L 394.378149 129.816347 
L 397.677983 129.091325 
L 400.977818 125.703594 
" style="fill:none;stroke:#3e9651;stroke-linecap:square;"/>
   </g>
   <g id="line2d_26">
    <path clip-path="url(#p95e204f9b1)" d="M 74.294182 172.558789 
L 77.594017 207.133138 
L 80.893851 184.641918 
L 84.193686 180.184159 
L 87.493521 178.59411 
L 90.793355 174.049984 
L 94.09319 187.007124 
L 97.393025 178.734103 
L 100.69286 176.364712 
L 103.992694 169.232385 
L 107.292529 165.628218 
L 110.592364 162.476255 
L 113.892198 156.233625 
L 117.192033 152.257176 
L 120.491868 149.701947 
L 123.791702 142.999087 
L 127.091537 142.035835 
L 130.391372 136.025636 
L 133.691207 134.206515 
L 136.991041 134.47572 
L 140.290876 128.15717 
L 143.590711 135.709662 
L 146.890545 129.006157 
L 150.19038 128.529667 
L 153.490215 129.522018 
L 156.79005 120.746812 
L 160.089884 128.753248 
L 163.389719 122.417478 
L 166.689554 123.937574 
L 169.989388 123.873218 
L 173.289223 123.538252 
L 176.589058 121.546513 
L 179.888893 121.12852 
L 183.188727 115.741491 
L 186.488562 117.055163 
L 189.788397 115.586898 
L 193.088231 118.646873 
L 196.388066 117.928099 
L 199.687901 118.35102 
L 202.987736 115.407988 
L 206.28757 118.315059 
L 209.587405 115.058953 
L 212.88724 113.397261 
L 216.187074 119.059897 
L 219.486909 116.162645 
L 222.786744 113.773753 
L 226.086579 119.285004 
L 229.386413 112.978549 
L 232.686248 115.676612 
L 235.986083 109.264186 
L 239.285917 113.599548 
L 242.585752 118.543374 
L 245.885587 112.777519 
L 249.185421 108.678202 
L 252.485256 119.004 
L 255.785091 117.246821 
L 259.084926 115.661103 
L 262.38476 111.607483 
L 265.684595 117.154955 
L 268.98443 113.903214 
L 272.284264 121.353197 
L 275.584099 122.015424 
L 278.883934 116.065963 
L 282.183769 114.689812 
L 285.483603 116.194686 
L 288.783438 116.80664 
L 292.083273 118.94895 
L 295.383107 118.212174 
L 298.682942 115.219355 
L 301.982777 115.213907 
L 305.282612 112.630862 
L 308.582446 114.201036 
L 311.882281 111.123631 
L 315.182116 114.232478 
L 318.48195 112.055503 
L 321.781785 112.248385 
L 325.08162 114.967107 
L 328.381455 116.647265 
L 331.681289 116.495848 
L 334.981124 118.100654 
L 338.280959 117.869095 
L 341.580793 113.419829 
L 344.880628 114.738033 
L 348.180463 112.68434 
L 351.480298 112.598253 
L 354.780132 118.046811 
L 358.079967 118.456354 
L 361.379802 115.98516 
L 364.679636 118.597324 
L 367.979471 110.589165 
L 371.279306 114.010721 
L 374.57914 117.589412 
L 377.878975 110.847138 
L 381.17881 112.110929 
L 384.478645 117.675366 
L 387.778479 112.09796 
L 391.078314 112.029985 
L 394.378149 115.895935 
L 397.677983 116.522485 
L 400.977818 114.714276 
" style="fill:none;stroke:#cc2529;stroke-linecap:square;"/>
   </g>
   <g id="patch_3">
    <path d="M 57.96 326.1672 
L 57.96 43.9776 
" style="fill:none;stroke:#000000;stroke-linecap:square;stroke-linejoin:miter;stroke-width:0.8;"/>
   </g>
   <g id="patch_4">
    <path d="M 417.312 326.1672 
L 417.312 43.9776 
" style="fill:none;stroke:#000000;stroke-linecap:square;stroke-linejoin:miter;stroke-width:0.8;"/>
   </g>
   <g id="patch_5">
    <path d="M 57.96 326.1672 
L 417.312 326.1672 
" style="fill:none;stroke:#000000;stroke-linecap:square;stroke-linejoin:miter;stroke-width:0.8;"/>
   </g>
   <g id="patch_6">
    <path d="M 57.96 43.9776 
L 417.312 43.9776 
" style="fill:none;stroke:#000000;stroke-linecap:square;stroke-linejoin:miter;stroke-width:0.8;"/>
   </g>
   <g id="legend_1">
    <g id="patch_7">
     <path d="M 64.96 321.1672 
L 184.511562 321.1672 
Q 186.511562 321.1672 186.511562 319.1672 
L 186.511562 261.4547 
Q 186.511562 259.4547 184.511562 259.4547 
L 64.96 259.4547 
Q 62.96 259.4547 62.96 261.4547 
L 62.96 319.1672 
Q 62.96 321.1672 64.96 321.1672 
z
" style="fill:#ffffff;opacity:0.8;stroke:#cccccc;stroke-linejoin:miter;"/>
    </g>
    <g id="line2d_27">
     <path d="M 66.96 267.553138 
L 86.96 267.553138 
" style="fill:none;stroke:#396ab1;stroke-linecap:square;"/>
    </g>
    <g id="line2d_28"/>
    <g id="text_14">
     <!-- agent 1 (Team A) -->
     <defs>
      <path d="M 45.40625 27.984375 
Q 45.40625 37.75 41.375 43.109375 
Q 37.359375 48.484375 30.078125 48.484375 
Q 22.859375 48.484375 18.828125 43.109375 
Q 14.796875 37.75 14.796875 27.984375 
Q 14.796875 18.265625 18.828125 12.890625 
Q 22.859375 7.515625 30.078125 7.515625 
Q 37.359375 7.515625 41.375 12.890625 
Q 45.40625 18.265625 45.40625 27.984375 
z
M 54.390625 6.78125 
Q 54.390625 -7.171875 48.1875 -13.984375 
Q 42 -20.796875 29.203125 -20.796875 
Q 24.46875 -20.796875 20.265625 -20.09375 
Q 16.0625 -19.390625 12.109375 -17.921875 
L 12.109375 -9.1875 
Q 16.0625 -11.328125 19.921875 -12.34375 
Q 23.78125 -13.375 27.78125 -13.375 
Q 36.625 -13.375 41.015625 -8.765625 
Q 45.40625 -4.15625 45.40625 5.171875 
L 45.40625 9.625 
Q 42.625 4.78125 38.28125 2.390625 
Q 33.9375 0 27.875 0 
Q 17.828125 0 11.671875 7.65625 
Q 5.515625 15.328125 5.515625 27.984375 
Q 5.515625 40.671875 11.671875 48.328125 
Q 17.828125 56 27.875 56 
Q 33.9375 56 38.28125 53.609375 
Q 42.625 51.21875 45.40625 46.390625 
L 45.40625 54.6875 
L 54.390625 54.6875 
z
" id="DejaVuSans-67"/>
      <path d="M 54.890625 33.015625 
L 54.890625 0 
L 45.90625 0 
L 45.90625 32.71875 
Q 45.90625 40.484375 42.875 44.328125 
Q 39.84375 48.1875 33.796875 48.1875 
Q 26.515625 48.1875 22.3125 43.546875 
Q 18.109375 38.921875 18.109375 30.90625 
L 18.109375 0 
L 9.078125 0 
L 9.078125 54.6875 
L 18.109375 54.6875 
L 18.109375 46.1875 
Q 21.34375 51.125 25.703125 53.5625 
Q 30.078125 56 35.796875 56 
Q 45.21875 56 50.046875 50.171875 
Q 54.890625 44.34375 54.890625 33.015625 
z
" id="DejaVuSans-6e"/>
      <path d="M 18.3125 70.21875 
L 18.3125 54.6875 
L 36.8125 54.6875 
L 36.8125 47.703125 
L 18.3125 47.703125 
L 18.3125 18.015625 
Q 18.3125 11.328125 20.140625 9.421875 
Q 21.96875 7.515625 27.59375 7.515625 
L 36.8125 7.515625 
L 36.8125 0 
L 27.59375 0 
Q 17.1875 0 13.234375 3.875 
Q 9.28125 7.765625 9.28125 18.015625 
L 9.28125 47.703125 
L 2.6875 47.703125 
L 2.6875 54.6875 
L 9.28125 54.6875 
L 9.28125 70.21875 
z
" id="DejaVuSans-74"/>
      <path d="M -0.296875 72.90625 
L 61.375 72.90625 
L 61.375 64.59375 
L 35.5 64.59375 
L 35.5 0 
L 25.59375 0 
L 25.59375 64.59375 
L -0.296875 64.59375 
z
" id="DejaVuSans-54"/>
      <path d="M 52 44.1875 
Q 55.375 50.25 60.0625 53.125 
Q 64.75 56 71.09375 56 
Q 79.640625 56 84.28125 50.015625 
Q 88.921875 44.046875 88.921875 33.015625 
L 88.921875 0 
L 79.890625 0 
L 79.890625 32.71875 
Q 79.890625 40.578125 77.09375 44.375 
Q 74.3125 48.1875 68.609375 48.1875 
Q 61.625 48.1875 57.5625 43.546875 
Q 53.515625 38.921875 53.515625 30.90625 
L 53.515625 0 
L 44.484375 0 
L 44.484375 32.71875 
Q 44.484375 40.625 41.703125 44.40625 
Q 38.921875 48.1875 33.109375 48.1875 
Q 26.21875 48.1875 22.15625 43.53125 
Q 18.109375 38.875 18.109375 30.90625 
L 18.109375 0 
L 9.078125 0 
L 9.078125 54.6875 
L 18.109375 54.6875 
L 18.109375 46.1875 
Q 21.1875 51.21875 25.484375 53.609375 
Q 29.78125 56 35.6875 56 
Q 41.65625 56 45.828125 52.96875 
Q 50 49.953125 52 44.1875 
z
" id="DejaVuSans-6d"/>
      <path d="M 34.1875 63.1875 
L 20.796875 26.90625 
L 47.609375 26.90625 
z
M 28.609375 72.90625 
L 39.796875 72.90625 
L 67.578125 0 
L 57.328125 0 
L 50.6875 18.703125 
L 17.828125 18.703125 
L 11.1875 0 
L 0.78125 0 
z
" id="DejaVuSans-41"/>
     </defs>
     <g transform="translate(94.96 271.053138)scale(0.1 -0.1)">
      <use xlink:href="#DejaVuSans-61"/>
      <use x="61.279297" xlink:href="#DejaVuSans-67"/>
      <use x="124.755859" xlink:href="#DejaVuSans-65"/>
      <use x="186.279297" xlink:href="#DejaVuSans-6e"/>
      <use x="249.658203" xlink:href="#DejaVuSans-74"/>
      <use x="288.867188" xlink:href="#DejaVuSans-20"/>
      <use x="320.654297" xlink:href="#DejaVuSans-31"/>
      <use x="384.277344" xlink:href="#DejaVuSans-20"/>
      <use x="416.064453" xlink:href="#DejaVuSans-28"/>
      <use x="455.078125" xlink:href="#DejaVuSans-54"/>
      <use x="515.896484" xlink:href="#DejaVuSans-65"/>
      <use x="577.419922" xlink:href="#DejaVuSans-61"/>
      <use x="638.699219" xlink:href="#DejaVuSans-6d"/>
      <use x="736.111328" xlink:href="#DejaVuSans-20"/>
      <use x="767.898438" xlink:href="#DejaVuSans-41"/>
      <use x="836.306641" xlink:href="#DejaVuSans-29"/>
     </g>
    </g>
    <g id="line2d_29">
     <path d="M 66.96 282.231263 
L 86.96 282.231263 
" style="fill:none;stroke:#da7c30;stroke-linecap:square;"/>
    </g>
    <g id="line2d_30"/>
    <g id="text_15">
     <!-- agent 2 (Team A) -->
     <g transform="translate(94.96 285.731263)scale(0.1 -0.1)">
      <use xlink:href="#DejaVuSans-61"/>
      <use x="61.279297" xlink:href="#DejaVuSans-67"/>
      <use x="124.755859" xlink:href="#DejaVuSans-65"/>
      <use x="186.279297" xlink:href="#DejaVuSans-6e"/>
      <use x="249.658203" xlink:href="#DejaVuSans-74"/>
      <use x="288.867188" xlink:href="#DejaVuSans-20"/>
      <use x="320.654297" xlink:href="#DejaVuSans-32"/>
      <use x="384.277344" xlink:href="#DejaVuSans-20"/>
      <use x="416.064453" xlink:href="#DejaVuSans-28"/>
      <use x="455.078125" xlink:href="#DejaVuSans-54"/>
      <use x="515.896484" xlink:href="#DejaVuSans-65"/>
      <use x="577.419922" xlink:href="#DejaVuSans-61"/>
      <use x="638.699219" xlink:href="#DejaVuSans-6d"/>
      <use x="736.111328" xlink:href="#DejaVuSans-20"/>
      <use x="767.898438" xlink:href="#DejaVuSans-41"/>
      <use x="836.306641" xlink:href="#DejaVuSans-29"/>
     </g>
    </g>
    <g id="line2d_31">
     <path d="M 66.96 296.909388 
L 86.96 296.909388 
" style="fill:none;stroke:#3e9651;stroke-linecap:square;"/>
    </g>
    <g id="line2d_32"/>
    <g id="text_16">
     <!-- agent 3 (Team B) -->
     <defs>
      <path d="M 19.671875 34.8125 
L 19.671875 8.109375 
L 35.5 8.109375 
Q 43.453125 8.109375 47.28125 11.40625 
Q 51.125 14.703125 51.125 21.484375 
Q 51.125 28.328125 47.28125 31.5625 
Q 43.453125 34.8125 35.5 34.8125 
z
M 19.671875 64.796875 
L 19.671875 42.828125 
L 34.28125 42.828125 
Q 41.5 42.828125 45.03125 45.53125 
Q 48.578125 48.25 48.578125 53.8125 
Q 48.578125 59.328125 45.03125 62.0625 
Q 41.5 64.796875 34.28125 64.796875 
z
M 9.8125 72.90625 
L 35.015625 72.90625 
Q 46.296875 72.90625 52.390625 68.21875 
Q 58.5 63.53125 58.5 54.890625 
Q 58.5 48.1875 55.375 44.234375 
Q 52.25 40.28125 46.1875 39.3125 
Q 53.46875 37.75 57.5 32.78125 
Q 61.53125 27.828125 61.53125 20.40625 
Q 61.53125 10.640625 54.890625 5.3125 
Q 48.25 0 35.984375 0 
L 9.8125 0 
z
" id="DejaVuSans-42"/>
     </defs>
     <g transform="translate(94.96 300.409388)scale(0.1 -0.1)">
      <use xlink:href="#DejaVuSans-61"/>
      <use x="61.279297" xlink:href="#DejaVuSans-67"/>
      <use x="124.755859" xlink:href="#DejaVuSans-65"/>
      <use x="186.279297" xlink:href="#DejaVuSans-6e"/>
      <use x="249.658203" xlink:href="#DejaVuSans-74"/>
      <use x="288.867188" xlink:href="#DejaVuSans-20"/>
      <use x="320.654297" xlink:href="#DejaVuSans-33"/>
      <use x="384.277344" xlink:href="#DejaVuSans-20"/>
      <use x="416.064453" xlink:href="#DejaVuSans-28"/>
      <use x="455.078125" xlink:href="#DejaVuSans-54"/>
      <use x="515.896484" xlink:href="#DejaVuSans-65"/>
      <use x="577.419922" xlink:href="#DejaVuSans-61"/>
      <use x="638.699219" xlink:href="#DejaVuSans-6d"/>
      <use x="736.111328" xlink:href="#DejaVuSans-20"/>
      <use x="767.898438" xlink:href="#DejaVuSans-42"/>
      <use x="836.501953" xlink:href="#DejaVuSans-29"/>
     </g>
    </g>
    <g id="line2d_33">
     <path d="M 66.96 311.587513 
L 86.96 311.587513 
" style="fill:none;stroke:#cc2529;stroke-linecap:square;"/>
    </g>
    <g id="line2d_34"/>
    <g id="text_17">
     <!-- agent 4 (Team B) -->
     <g transform="translate(94.96 315.087513)scale(0.1 -0.1)">
      <use xlink:href="#DejaVuSans-61"/>
      <use x="61.279297" xlink:href="#DejaVuSans-67"/>
      <use x="124.755859" xlink:href="#DejaVuSans-65"/>
      <use x="186.279297" xlink:href="#DejaVuSans-6e"/>
      <use x="249.658203" xlink:href="#DejaVuSans-74"/>
      <use x="288.867188" xlink:href="#DejaVuSans-20"/>
      <use x="320.654297" xlink:href="#DejaVuSans-34"/>
      <use x="384.277344" xlink:href="#DejaVuSans-20"/>
      <use x="416.064453" xlink:href="#DejaVuSans-28"/>
      <use x="455.078125" xlink:href="#DejaVuSans-54"/>
      <use x="515.896484" xlink:href="#DejaVuSans-65"/>
      <use x="577.419922" xlink:href="#DejaVuSans-61"/>
      <use x="638.699219" xlink:href="#DejaVuSans-6d"/>
      <use x="736.111328" xlink:href="#DejaVuSans-20"/>
      <use x="767.898438" xlink:href="#DejaVuSans-42"/>
      <use x="836.501953" xlink:href="#DejaVuSans-29"/>
     </g>
    </g>
   </g>
  </g>
 </g>
 <defs>
  <clipPath id="p95e204f9b1">
   <rect height="282.1896" width="359.352" x="57.96" y="43.9776"/>
  </clipPath>
 </defs>
</svg>
