<?xml version="1.0" encoding="utf-8" standalone="no"?>
<!DOCTYPE svg PUBLIC "-//W3C//DTD SVG 1.1//EN"
  "http://www.w3.org/Graphics/SVG/1.1/DTD/svg11.dtd">
<!-- Created with matplotlib (http://matplotlib.org/) -->
<svg height="419pt" version="1.1" viewBox="0 0 348 419" width="348pt" xmlns="http://www.w3.org/2000/svg" xmlns:xlink="http://www.w3.org/1999/xlink">
 <defs>
  <style type="text/css">
*{stroke-linecap:butt;stroke-linejoin:round;}
  </style>
 </defs>
 <g id="figure_1">
  <g id="patch_1">
   <path d="M 0 419.76 
L 348.48 419.76 
L 348.48 0 
L 0 0 
z
" style="fill:#ffffff;"/>
  </g>
  <g id="axes_1">
   <g id="patch_2">
    <path d="M 43.56 373.5864 
L 313.632 373.5864 
L 313.632 50.3712 
L 43.56 50.3712 
z
" style="fill:#ffffff;"/>
   </g>
   <g id="PolyCollection_1">
    <defs>
     <path d="M 55.836 -276.654946 
L 55.836 -164.805119 
L 58.316 -124.689014 
L 60.796 -167.730773 
L 63.276 -186.384395 
L 65.756 -194.461251 
L 68.236 -196.351061 
L 70.716 -190.865068 
L 73.196 -189.821498 
L 75.676 -195.735964 
L 78.156 -197.323066 
L 80.636 -203.691351 
L 83.116 -206.192503 
L 85.596 -215.243901 
L 88.076 -225.440484 
L 90.556 -220.761957 
L 93.036 -224.16252 
L 95.516 -232.388137 
L 97.996 -238.750659 
L 100.476 -234.993471 
L 102.956 -237.272379 
L 105.436 -244.002107 
L 107.916 -236.28209 
L 110.396 -242.953707 
L 112.876 -246.813051 
L 115.356 -245.41765 
L 117.836 -251.200164 
L 120.316 -247.923509 
L 122.796 -256.598063 
L 125.276 -253.291384 
L 127.756 -250.204914 
L 130.236 -251.496324 
L 132.716 -250.785934 
L 135.196 -254.393776 
L 137.676 -254.523523 
L 140.156 -260.439845 
L 142.636 -258.126478 
L 145.116 -257.627367 
L 147.596 -260.054975 
L 150.076 -258.817754 
L 152.556 -258.751487 
L 155.036 -259.259834 
L 157.516 -262.544596 
L 159.996 -258.883545 
L 162.476 -260.810974 
L 164.956 -267.293683 
L 167.436 -263.992167 
L 169.916 -267.106719 
L 172.396 -266.689796 
L 174.876 -264.360175 
L 177.356 -264.943549 
L 179.836 -264.170056 
L 182.316 -264.920027 
L 184.796 -266.829364 
L 187.276 -272.361787 
L 189.756 -268.085346 
L 192.236 -265.993708 
L 194.716 -264.487668 
L 197.196 -267.321171 
L 199.676 -268.15076 
L 202.156 -267.185512 
L 204.636 -264.993438 
L 207.116 -263.549682 
L 209.596 -268.730178 
L 212.076 -272.719023 
L 214.556 -270.734044 
L 217.036 -269.929481 
L 219.516 -269.394863 
L 221.996 -269.094839 
L 224.476 -268.768075 
L 226.956 -270.624468 
L 229.436 -265.044035 
L 231.916 -270.13626 
L 234.396 -270.613398 
L 236.876 -268.310582 
L 239.356 -269.580309 
L 241.836 -271.943836 
L 244.316 -269.195761 
L 246.796 -270.503894 
L 249.276 -271.718799 
L 251.756 -267.141151 
L 254.236 -270.322308 
L 256.716 -261.125511 
L 259.196 -265.886972 
L 261.676 -261.070762 
L 264.156 -264.969826 
L 266.636 -264.094384 
L 269.116 -266.107993 
L 271.596 -265.914112 
L 274.076 -269.48126 
L 276.556 -266.411016 
L 279.036 -264.868181 
L 281.516 -261.605969 
L 283.996 -268.431396 
L 286.476 -262.169173 
L 288.956 -265.220308 
L 291.436 -266.8862 
L 293.916 -265.323724 
L 296.396 -266.0148 
L 298.876 -261.473009 
L 301.356 -267.246438 
L 301.356 -335.743629 
L 301.356 -335.743629 
L 298.876 -334.158569 
L 296.396 -335.832089 
L 293.916 -336.007759 
L 291.436 -335.011713 
L 288.956 -336.652573 
L 286.476 -332.488515 
L 283.996 -335.573889 
L 281.516 -333.490388 
L 279.036 -332.317434 
L 276.556 -336.010387 
L 274.076 -336.942476 
L 271.596 -333.775914 
L 269.116 -335.436916 
L 266.636 -334.729894 
L 264.156 -333.006604 
L 261.676 -332.742523 
L 259.196 -335.587415 
L 256.716 -331.17264 
L 254.236 -336.958976 
L 251.756 -335.182771 
L 249.276 -339.011259 
L 246.796 -336.869102 
L 244.316 -338.282535 
L 241.836 -338.166136 
L 239.356 -335.431267 
L 236.876 -333.955103 
L 234.396 -337.055758 
L 231.916 -336.282323 
L 229.436 -333.763903 
L 226.956 -338.559097 
L 224.476 -335.896235 
L 221.996 -337.272908 
L 219.516 -338.706826 
L 217.036 -337.848357 
L 214.556 -336.891274 
L 212.076 -337.11289 
L 209.596 -337.96489 
L 207.116 -332.153724 
L 204.636 -335.455441 
L 202.156 -335.148033 
L 199.676 -334.615165 
L 197.196 -331.364145 
L 194.716 -333.63378 
L 192.236 -332.619756 
L 189.756 -333.921518 
L 187.276 -333.349191 
L 184.796 -333.271101 
L 182.316 -333.038758 
L 179.836 -329.954399 
L 177.356 -329.220583 
L 174.876 -331.578477 
L 172.396 -329.348904 
L 169.916 -330.648592 
L 167.436 -330.821666 
L 164.956 -328.145313 
L 162.476 -324.363715 
L 159.996 -324.582804 
L 157.516 -323.455879 
L 155.036 -325.492015 
L 152.556 -326.165144 
L 150.076 -322.313422 
L 147.596 -323.006949 
L 145.116 -323.912203 
L 142.636 -321.737684 
L 140.156 -326.499142 
L 137.676 -324.200014 
L 135.196 -319.932895 
L 132.716 -319.43708 
L 130.236 -320.163681 
L 127.756 -318.942261 
L 125.276 -320.575201 
L 122.796 -318.135051 
L 120.316 -317.229434 
L 117.836 -317.779272 
L 115.356 -318.831878 
L 112.876 -316.338064 
L 110.396 -313.345001 
L 107.916 -310.07646 
L 105.436 -315.596055 
L 102.956 -312.698169 
L 100.476 -312.108783 
L 97.996 -313.622211 
L 95.516 -309.967106 
L 93.036 -303.191996 
L 90.556 -305.614205 
L 88.076 -309.310273 
L 85.596 -302.270282 
L 83.116 -299.81523 
L 80.636 -298.635557 
L 78.156 -290.541084 
L 75.676 -291.723664 
L 73.196 -288.842615 
L 70.716 -288.503342 
L 68.236 -288.402093 
L 65.756 -289.807388 
L 63.276 -287.107171 
L 60.796 -271.933954 
L 58.316 -251.134531 
L 55.836 -276.654946 
z
" id="m26ff218be6" style="stroke:#396ab1;stroke-opacity:0.2;"/>
    </defs>
    <g clip-path="url(#p0b9a9142be)">
     <use style="fill:#396ab1;fill-opacity:0.2;stroke:#396ab1;stroke-opacity:0.2;" x="0" xlink:href="#m26ff218be6" y="419.76"/>
    </g>
   </g>
   <g id="PolyCollection_2">
    <defs>
     <path d="M 55.836 -281.230432 
L 55.836 -170.11797 
L 58.316 -61.45355 
L 60.796 -159.651883 
L 63.276 -176.290533 
L 65.756 -189.610473 
L 68.236 -201.054865 
L 70.716 -188.094523 
L 73.196 -185.513665 
L 75.676 -195.672592 
L 78.156 -198.392515 
L 80.636 -203.480466 
L 83.116 -208.61294 
L 85.596 -214.539435 
L 88.076 -222.021279 
L 90.556 -226.566549 
L 93.036 -236.012901 
L 95.516 -234.197493 
L 97.996 -237.072386 
L 100.476 -244.006341 
L 102.956 -244.202205 
L 105.436 -248.09276 
L 107.916 -246.417083 
L 110.396 -247.257975 
L 112.876 -251.037165 
L 115.356 -251.754349 
L 117.836 -248.964126 
L 120.316 -250.316841 
L 122.796 -255.853735 
L 125.276 -256.459846 
L 127.756 -251.502003 
L 130.236 -253.156696 
L 132.716 -252.692998 
L 135.196 -252.950367 
L 137.676 -255.904565 
L 140.156 -260.266975 
L 142.636 -260.079969 
L 145.116 -263.397783 
L 147.596 -263.214075 
L 150.076 -259.110956 
L 152.556 -266.645065 
L 155.036 -261.055343 
L 157.516 -261.713986 
L 159.996 -267.698725 
L 162.476 -261.6836 
L 164.956 -266.458488 
L 167.436 -266.583929 
L 169.916 -262.899272 
L 172.396 -269.233323 
L 174.876 -264.485079 
L 177.356 -269.602472 
L 179.836 -270.528344 
L 182.316 -264.315492 
L 184.796 -267.413604 
L 187.276 -276.050758 
L 189.756 -274.195349 
L 192.236 -272.052921 
L 194.716 -266.1707 
L 197.196 -277.635748 
L 199.676 -261.450349 
L 202.156 -271.769835 
L 204.636 -265.493885 
L 207.116 -270.257135 
L 209.596 -271.116523 
L 212.076 -274.146037 
L 214.556 -274.047965 
L 217.036 -273.723799 
L 219.516 -270.338943 
L 221.996 -275.156466 
L 224.476 -278.902988 
L 226.956 -275.512314 
L 229.436 -271.187075 
L 231.916 -272.515323 
L 234.396 -279.798004 
L 236.876 -275.31973 
L 239.356 -280.37882 
L 241.836 -276.998882 
L 244.316 -280.25193 
L 246.796 -274.263688 
L 249.276 -280.454484 
L 251.756 -280.321297 
L 254.236 -276.606576 
L 256.716 -277.239581 
L 259.196 -270.421427 
L 261.676 -275.546399 
L 264.156 -275.375155 
L 266.636 -272.35734 
L 269.116 -283.444357 
L 271.596 -278.353135 
L 274.076 -279.024704 
L 276.556 -279.355991 
L 279.036 -273.549584 
L 281.516 -277.325044 
L 283.996 -275.680698 
L 286.476 -276.267362 
L 288.956 -278.702588 
L 291.436 -282.179575 
L 293.916 -276.394795 
L 296.396 -271.874856 
L 298.876 -277.672016 
L 301.356 -277.220188 
L 301.356 -352.41155 
L 301.356 -352.41155 
L 298.876 -351.449806 
L 296.396 -347.900109 
L 293.916 -351.437102 
L 291.436 -354.6972 
L 288.956 -352.445332 
L 286.476 -350.165005 
L 283.996 -351.284496 
L 281.516 -353.106903 
L 279.036 -351.899862 
L 276.556 -352.156081 
L 274.076 -351.803979 
L 271.596 -351.799855 
L 269.116 -352.211295 
L 266.636 -345.723021 
L 264.156 -348.361714 
L 261.676 -348.27715 
L 259.196 -345.811718 
L 256.716 -351.471185 
L 254.236 -348.673908 
L 251.756 -352.21088 
L 249.276 -350.68824 
L 246.796 -350.14688 
L 244.316 -349.833895 
L 241.836 -347.473996 
L 239.356 -351.698914 
L 236.876 -347.691661 
L 234.396 -348.062349 
L 231.916 -344.824575 
L 229.436 -345.643662 
L 226.956 -348.981475 
L 224.476 -347.721 
L 221.996 -345.062357 
L 219.516 -342.307406 
L 217.036 -344.112334 
L 214.556 -345.732862 
L 212.076 -343.71256 
L 209.596 -344.393883 
L 207.116 -342.946314 
L 204.636 -338.932112 
L 202.156 -343.279372 
L 199.676 -338.032343 
L 197.196 -344.257274 
L 194.716 -340.109165 
L 192.236 -340.972142 
L 189.756 -344.104432 
L 187.276 -340.352986 
L 184.796 -336.647289 
L 182.316 -335.302162 
L 179.836 -335.201349 
L 177.356 -335.78654 
L 174.876 -332.736305 
L 172.396 -334.311091 
L 169.916 -331.586135 
L 167.436 -331.318821 
L 164.956 -331.695581 
L 162.476 -334.371567 
L 159.996 -335.084292 
L 157.516 -328.774611 
L 155.036 -328.531399 
L 152.556 -331.969432 
L 150.076 -326.887861 
L 147.596 -327.474107 
L 145.116 -329.576192 
L 142.636 -328.222351 
L 140.156 -327.362031 
L 137.676 -327.204531 
L 135.196 -324.164923 
L 132.716 -323.007952 
L 130.236 -322.212524 
L 127.756 -324.489057 
L 125.276 -327.782069 
L 122.796 -326.711686 
L 120.316 -322.357488 
L 117.836 -322.250538 
L 115.356 -326.388077 
L 112.876 -322.244303 
L 110.396 -323.395774 
L 107.916 -323.472513 
L 105.436 -320.677663 
L 102.956 -321.938645 
L 100.476 -317.372051 
L 97.996 -316.61677 
L 95.516 -316.526002 
L 93.036 -316.851461 
L 90.556 -311.009524 
L 88.076 -306.661309 
L 85.596 -301.047113 
L 83.116 -299.793033 
L 80.636 -297.016864 
L 78.156 -293.174668 
L 75.676 -289.152756 
L 73.196 -285.51693 
L 70.716 -284.848749 
L 68.236 -295.575172 
L 65.756 -287.495264 
L 63.276 -281.448221 
L 60.796 -267.005525 
L 58.316 -221.491486 
L 55.836 -281.230432 
z
" id="m689dd012fc" style="stroke:#da7c30;stroke-opacity:0.2;"/>
    </defs>
    <g clip-path="url(#p0b9a9142be)">
     <use style="fill:#da7c30;fill-opacity:0.2;stroke:#da7c30;stroke-opacity:0.2;" x="0" xlink:href="#m689dd012fc" y="419.76"/>
    </g>
   </g>
   <g id="PolyCollection_3">
    <defs>
     <path d="M 55.836 -270.856627 
L 55.836 -157.751404 
L 58.316 -60.8652 
L 60.796 -159.941602 
L 63.276 -153.155335 
L 65.756 -168.730299 
L 68.236 -164.499581 
L 70.716 -154.555345 
L 73.196 -159.966065 
L 75.676 -163.121354 
L 78.156 -161.735784 
L 80.636 -172.260027 
L 83.116 -174.963929 
L 85.596 -182.260925 
L 88.076 -187.93469 
L 90.556 -193.637842 
L 93.036 -197.015917 
L 95.516 -201.443745 
L 97.996 -204.597545 
L 100.476 -204.493313 
L 102.956 -207.796456 
L 105.436 -213.371421 
L 107.916 -209.291296 
L 110.396 -213.245557 
L 112.876 -218.825306 
L 115.356 -214.937521 
L 117.836 -222.074156 
L 120.316 -226.751312 
L 122.796 -232.930691 
L 125.276 -224.635459 
L 127.756 -224.709855 
L 130.236 -229.394256 
L 132.716 -228.226171 
L 135.196 -228.394784 
L 137.676 -228.576016 
L 140.156 -235.751244 
L 142.636 -237.91335 
L 145.116 -230.979175 
L 147.596 -232.917804 
L 150.076 -234.069286 
L 152.556 -237.90999 
L 155.036 -237.01031 
L 157.516 -236.146454 
L 159.996 -234.827363 
L 162.476 -231.285414 
L 164.956 -239.468525 
L 167.436 -237.67346 
L 169.916 -232.044983 
L 172.396 -243.724674 
L 174.876 -234.13216 
L 177.356 -237.840979 
L 179.836 -243.855317 
L 182.316 -230.175063 
L 184.796 -237.282559 
L 187.276 -231.995257 
L 189.756 -235.598325 
L 192.236 -234.987697 
L 194.716 -231.963076 
L 197.196 -234.252806 
L 199.676 -234.216249 
L 202.156 -233.962967 
L 204.636 -229.451548 
L 207.116 -235.754913 
L 209.596 -233.843563 
L 212.076 -238.649812 
L 214.556 -234.658806 
L 217.036 -234.910921 
L 219.516 -229.252071 
L 221.996 -232.853883 
L 224.476 -239.039397 
L 226.956 -236.231967 
L 229.436 -236.900692 
L 231.916 -238.606313 
L 234.396 -233.806247 
L 236.876 -238.961299 
L 239.356 -240.812339 
L 241.836 -241.112146 
L 244.316 -241.483706 
L 246.796 -234.465608 
L 249.276 -241.330596 
L 251.756 -241.807112 
L 254.236 -242.324873 
L 256.716 -231.090942 
L 259.196 -236.253289 
L 261.676 -238.227703 
L 264.156 -240.877178 
L 266.636 -232.124775 
L 269.116 -235.334907 
L 271.596 -235.066195 
L 274.076 -237.35874 
L 276.556 -243.645046 
L 279.036 -239.691802 
L 281.516 -232.285783 
L 283.996 -234.432107 
L 286.476 -237.661239 
L 288.956 -236.491784 
L 291.436 -230.880915 
L 293.916 -231.526086 
L 296.396 -229.791463 
L 298.876 -231.76051 
L 301.356 -236.600899 
L 301.356 -314.961555 
L 301.356 -314.961555 
L 298.876 -312.041444 
L 296.396 -312.349637 
L 293.916 -314.620817 
L 291.436 -312.244639 
L 288.956 -313.857294 
L 286.476 -316.612463 
L 283.996 -314.127957 
L 281.516 -317.133051 
L 279.036 -320.126376 
L 276.556 -318.278258 
L 274.076 -315.040001 
L 271.596 -315.052631 
L 269.116 -314.765088 
L 266.636 -314.003484 
L 264.156 -318.84087 
L 261.676 -314.816415 
L 259.196 -314.103147 
L 256.716 -316.507684 
L 254.236 -320.646017 
L 251.756 -319.539583 
L 249.276 -318.850326 
L 246.796 -312.887076 
L 244.316 -317.784786 
L 241.836 -316.756927 
L 239.356 -319.124321 
L 236.876 -314.582252 
L 234.396 -314.823995 
L 231.916 -316.12645 
L 229.436 -318.159799 
L 226.956 -316.810832 
L 224.476 -313.422133 
L 221.996 -314.296369 
L 219.516 -308.851913 
L 217.036 -316.575306 
L 214.556 -315.21221 
L 212.076 -316.257524 
L 209.596 -313.974441 
L 207.116 -316.864023 
L 204.636 -314.291419 
L 202.156 -314.042749 
L 199.676 -314.474216 
L 197.196 -313.480482 
L 194.716 -310.261625 
L 192.236 -314.110383 
L 189.756 -311.530298 
L 187.276 -310.57207 
L 184.796 -313.347711 
L 182.316 -311.337172 
L 179.836 -315.378512 
L 177.356 -313.678128 
L 174.876 -310.696717 
L 172.396 -316.531437 
L 169.916 -309.082158 
L 167.436 -313.48025 
L 164.956 -310.063939 
L 162.476 -308.07053 
L 159.996 -310.730366 
L 157.516 -311.64051 
L 155.036 -311.891844 
L 152.556 -311.070095 
L 150.076 -306.564929 
L 147.596 -304.324572 
L 145.116 -305.498981 
L 142.636 -307.974763 
L 140.156 -307.900412 
L 137.676 -307.269108 
L 135.196 -304.846556 
L 132.716 -306.347418 
L 130.236 -303.443726 
L 127.756 -302.760388 
L 125.276 -303.391464 
L 122.796 -309.766711 
L 120.316 -304.381288 
L 117.836 -298.854823 
L 115.356 -296.262874 
L 112.876 -299.08642 
L 110.396 -296.343791 
L 107.916 -294.300725 
L 105.436 -297.226715 
L 102.956 -294.639079 
L 100.476 -293.490489 
L 97.996 -292.63749 
L 95.516 -292.166112 
L 93.036 -288.418698 
L 90.556 -288.604582 
L 88.076 -285.224948 
L 85.596 -280.963016 
L 83.116 -279.531149 
L 80.636 -275.433808 
L 78.156 -270.712167 
L 75.676 -271.616695 
L 73.196 -269.777707 
L 70.716 -265.736078 
L 68.236 -266.69292 
L 65.756 -270.977697 
L 63.276 -260.85299 
L 60.796 -264.104046 
L 58.316 -227.058292 
L 55.836 -270.856627 
z
" id="m2d1ef4f296" style="stroke:#3e9651;stroke-opacity:0.2;"/>
    </defs>
    <g clip-path="url(#p0b9a9142be)">
     <use style="fill:#3e9651;fill-opacity:0.2;stroke:#3e9651;stroke-opacity:0.2;" x="0" xlink:href="#m2d1ef4f296" y="419.76"/>
    </g>
   </g>
   <g id="PolyCollection_4">
    <defs>
     <path d="M 55.836 -273.84559 
L 55.836 -170.382567 
L 58.316 -119.385814 
L 60.796 -153.526345 
L 63.276 -159.806043 
L 65.756 -164.354021 
L 68.236 -170.72905 
L 70.716 -150.898543 
L 73.196 -160.581635 
L 75.676 -163.595975 
L 78.156 -173.376415 
L 80.636 -177.771683 
L 83.116 -182.203496 
L 85.596 -191.39722 
L 88.076 -196.331835 
L 90.556 -202.077584 
L 93.036 -209.603762 
L 95.516 -211.876308 
L 97.996 -221.450944 
L 100.476 -224.622892 
L 102.956 -222.470878 
L 105.436 -233.142317 
L 107.916 -222.150454 
L 110.396 -229.980182 
L 112.876 -233.162247 
L 115.356 -230.880284 
L 117.836 -242.931743 
L 120.316 -232.041644 
L 122.796 -241.27098 
L 125.276 -238.206082 
L 127.756 -237.726604 
L 130.236 -237.00674 
L 132.716 -240.052241 
L 135.196 -239.115272 
L 137.676 -246.981937 
L 140.156 -248.598988 
L 142.636 -248.575089 
L 145.116 -244.375244 
L 147.596 -245.020926 
L 150.076 -245.295015 
L 152.556 -247.718336 
L 155.036 -247.650541 
L 157.516 -250.145634 
L 159.996 -251.08434 
L 162.476 -243.421609 
L 164.956 -249.468079 
L 167.436 -251.963913 
L 169.916 -242.365342 
L 172.396 -252.638394 
L 174.876 -247.303328 
L 177.356 -258.998707 
L 179.836 -249.571099 
L 182.316 -242.018236 
L 184.796 -249.84592 
L 187.276 -256.495868 
L 189.756 -241.830738 
L 192.236 -243.675575 
L 194.716 -243.554157 
L 197.196 -250.847883 
L 199.676 -243.082448 
L 202.156 -247.445587 
L 204.636 -235.335449 
L 207.116 -235.110813 
L 209.596 -244.67274 
L 212.076 -249.242743 
L 214.556 -244.379808 
L 217.036 -244.531431 
L 219.516 -239.090873 
L 221.996 -241.042672 
L 224.476 -247.069458 
L 226.956 -243.911041 
L 229.436 -249.219778 
L 231.916 -247.487597 
L 234.396 -251.070623 
L 236.876 -248.309859 
L 239.356 -249.185866 
L 241.836 -250.377385 
L 244.316 -246.912266 
L 246.796 -243.703751 
L 249.276 -244.244767 
L 251.756 -240.916375 
L 254.236 -241.734866 
L 256.716 -247.084623 
L 259.196 -245.007653 
L 261.676 -248.088091 
L 264.156 -248.387513 
L 266.636 -240.564152 
L 269.116 -241.531645 
L 271.596 -243.382879 
L 274.076 -240.986192 
L 276.556 -251.772184 
L 279.036 -244.428776 
L 281.516 -240.195551 
L 283.996 -251.41245 
L 286.476 -249.404477 
L 288.956 -241.644443 
L 291.436 -249.906816 
L 293.916 -249.952614 
L 296.396 -243.237272 
L 298.876 -243.906806 
L 301.356 -245.999623 
L 301.356 -330.73679 
L 301.356 -330.73679 
L 298.876 -328.687423 
L 296.396 -330.792236 
L 293.916 -332.932882 
L 291.436 -332.822964 
L 288.956 -328.308805 
L 286.476 -333.295595 
L 283.996 -334.182673 
L 281.516 -329.954598 
L 279.036 -333.919318 
L 276.556 -334.413894 
L 274.076 -326.855065 
L 271.596 -330.442235 
L 269.116 -326.632543 
L 266.636 -328.538203 
L 264.156 -333.196215 
L 261.676 -333.298429 
L 259.196 -331.674339 
L 256.716 -332.617065 
L 254.236 -327.774593 
L 251.756 -328.062637 
L 249.276 -328.41048 
L 246.796 -328.604636 
L 244.316 -329.244971 
L 241.836 -332.007808 
L 239.356 -333.641175 
L 236.876 -329.530242 
L 234.396 -333.891117 
L 231.916 -330.424527 
L 229.436 -332.28925 
L 226.956 -331.680834 
L 224.476 -328.509937 
L 221.996 -327.680874 
L 219.516 -327.944892 
L 217.036 -327.411866 
L 214.556 -328.965332 
L 212.076 -327.549711 
L 209.596 -328.967275 
L 207.116 -324.900376 
L 204.636 -326.192749 
L 202.156 -331.148781 
L 199.676 -328.062941 
L 197.196 -333.005465 
L 194.716 -331.013297 
L 192.236 -327.25937 
L 189.756 -325.07892 
L 187.276 -334.06778 
L 184.796 -331.32715 
L 182.316 -325.946609 
L 179.836 -329.718896 
L 177.356 -330.222588 
L 174.876 -327.228598 
L 172.396 -328.074164 
L 169.916 -323.900602 
L 167.436 -326.927019 
L 164.956 -323.950459 
L 162.476 -323.360003 
L 159.996 -328.669047 
L 157.516 -325.801204 
L 155.036 -320.83732 
L 152.556 -327.428945 
L 150.076 -323.110468 
L 147.596 -324.35337 
L 145.116 -323.352509 
L 142.636 -326.162351 
L 140.156 -322.775 
L 137.676 -327.401367 
L 135.196 -322.927607 
L 132.716 -321.033114 
L 130.236 -319.516008 
L 127.756 -318.028815 
L 125.276 -317.401911 
L 122.796 -317.819198 
L 120.316 -312.534767 
L 117.836 -319.985541 
L 115.356 -311.935054 
L 112.876 -311.926334 
L 110.396 -314.016873 
L 107.916 -306.490439 
L 105.436 -312.799568 
L 102.956 -308.996686 
L 100.476 -307.461358 
L 97.996 -306.466124 
L 95.516 -302.2728 
L 93.036 -302.338762 
L 90.556 -294.510255 
L 88.076 -294.402572 
L 85.596 -290.22807 
L 83.116 -285.121389 
L 80.636 -282.332792 
L 78.156 -278.471755 
L 75.676 -271.913701 
L 73.196 -269.500322 
L 70.716 -260.231857 
L 68.236 -270.083127 
L 65.756 -266.048626 
L 63.276 -266.954175 
L 60.796 -263.022188 
L 58.316 -245.640592 
L 55.836 -273.84559 
z
" id="m1917039deb" style="stroke:#cc2529;stroke-opacity:0.2;"/>
    </defs>
    <g clip-path="url(#p0b9a9142be)">
     <use style="fill:#cc2529;fill-opacity:0.2;stroke:#cc2529;stroke-opacity:0.2;" x="0" xlink:href="#m1917039deb" y="419.76"/>
    </g>
   </g>
   <g id="matplotlib.axis_1">
    <g id="xtick_1">
     <g id="line2d_1">
      <path clip-path="url(#p0b9a9142be)" d="M 55.836 373.5864 
L 55.836 50.3712 
" style="fill:none;stroke:#b0b0b0;stroke-linecap:square;stroke-width:0.8;"/>
     </g>
     <g id="line2d_2">
      <defs>
       <path d="M 0 0 
L 0 3.5 
" id="m0073aa9964" style="stroke:#000000;stroke-width:0.8;"/>
      </defs>
      <g>
       <use style="stroke:#000000;stroke-width:0.8;" x="55.836" xlink:href="#m0073aa9964" y="373.5864"/>
      </g>
     </g>
     <g id="text_1">
      <!-- 0 -->
      <defs>
       <path d="M 31.78125 66.40625 
Q 24.171875 66.40625 20.328125 58.90625 
Q 16.5 51.421875 16.5 36.375 
Q 16.5 21.390625 20.328125 13.890625 
Q 24.171875 6.390625 31.78125 6.390625 
Q 39.453125 6.390625 43.28125 13.890625 
Q 47.125 21.390625 47.125 36.375 
Q 47.125 51.421875 43.28125 58.90625 
Q 39.453125 66.40625 31.78125 66.40625 
z
M 31.78125 74.21875 
Q 44.046875 74.21875 50.515625 64.515625 
Q 56.984375 54.828125 56.984375 36.375 
Q 56.984375 17.96875 50.515625 8.265625 
Q 44.046875 -1.421875 31.78125 -1.421875 
Q 19.53125 -1.421875 13.0625 8.265625 
Q 6.59375 17.96875 6.59375 36.375 
Q 6.59375 54.828125 13.0625 64.515625 
Q 19.53125 74.21875 31.78125 74.21875 
z
" id="DejaVuSans-30"/>
      </defs>
      <g transform="translate(52.65475 388.184838)scale(0.1 -0.1)">
       <use xlink:href="#DejaVuSans-30"/>
      </g>
     </g>
    </g>
    <g id="xtick_2">
     <g id="line2d_3">
      <path clip-path="url(#p0b9a9142be)" d="M 105.436 373.5864 
L 105.436 50.3712 
" style="fill:none;stroke:#b0b0b0;stroke-linecap:square;stroke-width:0.8;"/>
     </g>
     <g id="line2d_4">
      <g>
       <use style="stroke:#000000;stroke-width:0.8;" x="105.436" xlink:href="#m0073aa9964" y="373.5864"/>
      </g>
     </g>
     <g id="text_2">
      <!-- 20 -->
      <defs>
       <path d="M 19.1875 8.296875 
L 53.609375 8.296875 
L 53.609375 0 
L 7.328125 0 
L 7.328125 8.296875 
Q 12.9375 14.109375 22.625 23.890625 
Q 32.328125 33.6875 34.8125 36.53125 
Q 39.546875 41.84375 41.421875 45.53125 
Q 43.3125 49.21875 43.3125 52.78125 
Q 43.3125 58.59375 39.234375 62.25 
Q 35.15625 65.921875 28.609375 65.921875 
Q 23.96875 65.921875 18.8125 64.3125 
Q 13.671875 62.703125 7.8125 59.421875 
L 7.8125 69.390625 
Q 13.765625 71.78125 18.9375 73 
Q 24.125 74.21875 28.421875 74.21875 
Q 39.75 74.21875 46.484375 68.546875 
Q 53.21875 62.890625 53.21875 53.421875 
Q 53.21875 48.921875 51.53125 44.890625 
Q 49.859375 40.875 45.40625 35.40625 
Q 44.1875 33.984375 37.640625 27.21875 
Q 31.109375 20.453125 19.1875 8.296875 
z
" id="DejaVuSans-32"/>
      </defs>
      <g transform="translate(99.0735 388.184838)scale(0.1 -0.1)">
       <use xlink:href="#DejaVuSans-32"/>
       <use x="63.623047" xlink:href="#DejaVuSans-30"/>
      </g>
     </g>
    </g>
    <g id="xtick_3">
     <g id="line2d_5">
      <path clip-path="url(#p0b9a9142be)" d="M 155.036 373.5864 
L 155.036 50.3712 
" style="fill:none;stroke:#b0b0b0;stroke-linecap:square;stroke-width:0.8;"/>
     </g>
     <g id="line2d_6">
      <g>
       <use style="stroke:#000000;stroke-width:0.8;" x="155.036" xlink:href="#m0073aa9964" y="373.5864"/>
      </g>
     </g>
     <g id="text_3">
      <!-- 40 -->
      <defs>
       <path d="M 37.796875 64.3125 
L 12.890625 25.390625 
L 37.796875 25.390625 
z
M 35.203125 72.90625 
L 47.609375 72.90625 
L 47.609375 25.390625 
L 58.015625 25.390625 
L 58.015625 17.1875 
L 47.609375 17.1875 
L 47.609375 0 
L 37.796875 0 
L 37.796875 17.1875 
L 4.890625 17.1875 
L 4.890625 26.703125 
z
" id="DejaVuSans-34"/>
      </defs>
      <g transform="translate(148.6735 388.184838)scale(0.1 -0.1)">
       <use xlink:href="#DejaVuSans-34"/>
       <use x="63.623047" xlink:href="#DejaVuSans-30"/>
      </g>
     </g>
    </g>
    <g id="xtick_4">
     <g id="line2d_7">
      <path clip-path="url(#p0b9a9142be)" d="M 204.636 373.5864 
L 204.636 50.3712 
" style="fill:none;stroke:#b0b0b0;stroke-linecap:square;stroke-width:0.8;"/>
     </g>
     <g id="line2d_8">
      <g>
       <use style="stroke:#000000;stroke-width:0.8;" x="204.636" xlink:href="#m0073aa9964" y="373.5864"/>
      </g>
     </g>
     <g id="text_4">
      <!-- 60 -->
      <defs>
       <path d="M 33.015625 40.375 
Q 26.375 40.375 22.484375 35.828125 
Q 18.609375 31.296875 18.609375 23.390625 
Q 18.609375 15.53125 22.484375 10.953125 
Q 26.375 6.390625 33.015625 6.390625 
Q 39.65625 6.390625 43.53125 10.953125 
Q 47.40625 15.53125 47.40625 23.390625 
Q 47.40625 31.296875 43.53125 35.828125 
Q 39.65625 40.375 33.015625 40.375 
z
M 52.59375 71.296875 
L 52.59375 62.3125 
Q 48.875 64.0625 45.09375 64.984375 
Q 41.3125 65.921875 37.59375 65.921875 
Q 27.828125 65.921875 22.671875 59.328125 
Q 17.53125 52.734375 16.796875 39.40625 
Q 19.671875 43.65625 24.015625 45.921875 
Q 28.375 48.1875 33.59375 48.1875 
Q 44.578125 48.1875 50.953125 41.515625 
Q 57.328125 34.859375 57.328125 23.390625 
Q 57.328125 12.15625 50.6875 5.359375 
Q 44.046875 -1.421875 33.015625 -1.421875 
Q 20.359375 -1.421875 13.671875 8.265625 
Q 6.984375 17.96875 6.984375 36.375 
Q 6.984375 53.65625 15.1875 63.9375 
Q 23.390625 74.21875 37.203125 74.21875 
Q 40.921875 74.21875 44.703125 73.484375 
Q 48.484375 72.75 52.59375 71.296875 
z
" id="DejaVuSans-36"/>
      </defs>
      <g transform="translate(198.2735 388.184838)scale(0.1 -0.1)">
       <use xlink:href="#DejaVuSans-36"/>
       <use x="63.623047" xlink:href="#DejaVuSans-30"/>
      </g>
     </g>
    </g>
    <g id="xtick_5">
     <g id="line2d_9">
      <path clip-path="url(#p0b9a9142be)" d="M 254.236 373.5864 
L 254.236 50.3712 
" style="fill:none;stroke:#b0b0b0;stroke-linecap:square;stroke-width:0.8;"/>
     </g>
     <g id="line2d_10">
      <g>
       <use style="stroke:#000000;stroke-width:0.8;" x="254.236" xlink:href="#m0073aa9964" y="373.5864"/>
      </g>
     </g>
     <g id="text_5">
      <!-- 80 -->
      <defs>
       <path d="M 31.78125 34.625 
Q 24.75 34.625 20.71875 30.859375 
Q 16.703125 27.09375 16.703125 20.515625 
Q 16.703125 13.921875 20.71875 10.15625 
Q 24.75 6.390625 31.78125 6.390625 
Q 38.8125 6.390625 42.859375 10.171875 
Q 46.921875 13.96875 46.921875 20.515625 
Q 46.921875 27.09375 42.890625 30.859375 
Q 38.875 34.625 31.78125 34.625 
z
M 21.921875 38.8125 
Q 15.578125 40.375 12.03125 44.71875 
Q 8.5 49.078125 8.5 55.328125 
Q 8.5 64.0625 14.71875 69.140625 
Q 20.953125 74.21875 31.78125 74.21875 
Q 42.671875 74.21875 48.875 69.140625 
Q 55.078125 64.0625 55.078125 55.328125 
Q 55.078125 49.078125 51.53125 44.71875 
Q 48 40.375 41.703125 38.8125 
Q 48.828125 37.15625 52.796875 32.3125 
Q 56.78125 27.484375 56.78125 20.515625 
Q 56.78125 9.90625 50.3125 4.234375 
Q 43.84375 -1.421875 31.78125 -1.421875 
Q 19.734375 -1.421875 13.25 4.234375 
Q 6.78125 9.90625 6.78125 20.515625 
Q 6.78125 27.484375 10.78125 32.3125 
Q 14.796875 37.15625 21.921875 38.8125 
z
M 18.3125 54.390625 
Q 18.3125 48.734375 21.84375 45.5625 
Q 25.390625 42.390625 31.78125 42.390625 
Q 38.140625 42.390625 41.71875 45.5625 
Q 45.3125 48.734375 45.3125 54.390625 
Q 45.3125 60.0625 41.71875 63.234375 
Q 38.140625 66.40625 31.78125 66.40625 
Q 25.390625 66.40625 21.84375 63.234375 
Q 18.3125 60.0625 18.3125 54.390625 
z
" id="DejaVuSans-38"/>
      </defs>
      <g transform="translate(247.8735 388.184838)scale(0.1 -0.1)">
       <use xlink:href="#DejaVuSans-38"/>
       <use x="63.623047" xlink:href="#DejaVuSans-30"/>
      </g>
     </g>
    </g>
    <g id="xtick_6">
     <g id="line2d_11">
      <path clip-path="url(#p0b9a9142be)" d="M 303.836 373.5864 
L 303.836 50.3712 
" style="fill:none;stroke:#b0b0b0;stroke-linecap:square;stroke-width:0.8;"/>
     </g>
     <g id="line2d_12">
      <g>
       <use style="stroke:#000000;stroke-width:0.8;" x="303.836" xlink:href="#m0073aa9964" y="373.5864"/>
      </g>
     </g>
     <g id="text_6">
      <!-- 100 -->
      <defs>
       <path d="M 12.40625 8.296875 
L 28.515625 8.296875 
L 28.515625 63.921875 
L 10.984375 60.40625 
L 10.984375 69.390625 
L 28.421875 72.90625 
L 38.28125 72.90625 
L 38.28125 8.296875 
L 54.390625 8.296875 
L 54.390625 0 
L 12.40625 0 
z
" id="DejaVuSans-31"/>
      </defs>
      <g transform="translate(294.29225 388.184838)scale(0.1 -0.1)">
       <use xlink:href="#DejaVuSans-31"/>
       <use x="63.623047" xlink:href="#DejaVuSans-30"/>
       <use x="127.246094" xlink:href="#DejaVuSans-30"/>
      </g>
     </g>
    </g>
    <g id="text_7">
     <!-- Episodes (x1000) -->
     <defs>
      <path d="M 9.8125 72.90625 
L 55.90625 72.90625 
L 55.90625 64.59375 
L 19.671875 64.59375 
L 19.671875 43.015625 
L 54.390625 43.015625 
L 54.390625 34.71875 
L 19.671875 34.71875 
L 19.671875 8.296875 
L 56.78125 8.296875 
L 56.78125 0 
L 9.8125 0 
z
" id="DejaVuSans-45"/>
      <path d="M 18.109375 8.203125 
L 18.109375 -20.796875 
L 9.078125 -20.796875 
L 9.078125 54.6875 
L 18.109375 54.6875 
L 18.109375 46.390625 
Q 20.953125 51.265625 25.265625 53.625 
Q 29.59375 56 35.59375 56 
Q 45.5625 56 51.78125 48.09375 
Q 58.015625 40.1875 58.015625 27.296875 
Q 58.015625 14.40625 51.78125 6.484375 
Q 45.5625 -1.421875 35.59375 -1.421875 
Q 29.59375 -1.421875 25.265625 0.953125 
Q 20.953125 3.328125 18.109375 8.203125 
z
M 48.6875 27.296875 
Q 48.6875 37.203125 44.609375 42.84375 
Q 40.53125 48.484375 33.40625 48.484375 
Q 26.265625 48.484375 22.1875 42.84375 
Q 18.109375 37.203125 18.109375 27.296875 
Q 18.109375 17.390625 22.1875 11.75 
Q 26.265625 6.109375 33.40625 6.109375 
Q 40.53125 6.109375 44.609375 11.75 
Q 48.6875 17.390625 48.6875 27.296875 
z
" id="DejaVuSans-70"/>
      <path d="M 9.421875 54.6875 
L 18.40625 54.6875 
L 18.40625 0 
L 9.421875 0 
z
M 9.421875 75.984375 
L 18.40625 75.984375 
L 18.40625 64.59375 
L 9.421875 64.59375 
z
" id="DejaVuSans-69"/>
      <path d="M 44.28125 53.078125 
L 44.28125 44.578125 
Q 40.484375 46.53125 36.375 47.5 
Q 32.28125 48.484375 27.875 48.484375 
Q 21.1875 48.484375 17.84375 46.4375 
Q 14.5 44.390625 14.5 40.28125 
Q 14.5 37.15625 16.890625 35.375 
Q 19.28125 33.59375 26.515625 31.984375 
L 29.59375 31.296875 
Q 39.15625 29.25 43.1875 25.515625 
Q 47.21875 21.78125 47.21875 15.09375 
Q 47.21875 7.46875 41.1875 3.015625 
Q 35.15625 -1.421875 24.609375 -1.421875 
Q 20.21875 -1.421875 15.453125 -0.5625 
Q 10.6875 0.296875 5.421875 2 
L 5.421875 11.28125 
Q 10.40625 8.6875 15.234375 7.390625 
Q 20.0625 6.109375 24.8125 6.109375 
Q 31.15625 6.109375 34.5625 8.28125 
Q 37.984375 10.453125 37.984375 14.40625 
Q 37.984375 18.0625 35.515625 20.015625 
Q 33.0625 21.96875 24.703125 23.78125 
L 21.578125 24.515625 
Q 13.234375 26.265625 9.515625 29.90625 
Q 5.8125 33.546875 5.8125 39.890625 
Q 5.8125 47.609375 11.28125 51.796875 
Q 16.75 56 26.8125 56 
Q 31.78125 56 36.171875 55.265625 
Q 40.578125 54.546875 44.28125 53.078125 
z
" id="DejaVuSans-73"/>
      <path d="M 30.609375 48.390625 
Q 23.390625 48.390625 19.1875 42.75 
Q 14.984375 37.109375 14.984375 27.296875 
Q 14.984375 17.484375 19.15625 11.84375 
Q 23.34375 6.203125 30.609375 6.203125 
Q 37.796875 6.203125 41.984375 11.859375 
Q 46.1875 17.53125 46.1875 27.296875 
Q 46.1875 37.015625 41.984375 42.703125 
Q 37.796875 48.390625 30.609375 48.390625 
z
M 30.609375 56 
Q 42.328125 56 49.015625 48.375 
Q 55.71875 40.765625 55.71875 27.296875 
Q 55.71875 13.875 49.015625 6.21875 
Q 42.328125 -1.421875 30.609375 -1.421875 
Q 18.84375 -1.421875 12.171875 6.21875 
Q 5.515625 13.875 5.515625 27.296875 
Q 5.515625 40.765625 12.171875 48.375 
Q 18.84375 56 30.609375 56 
z
" id="DejaVuSans-6f"/>
      <path d="M 45.40625 46.390625 
L 45.40625 75.984375 
L 54.390625 75.984375 
L 54.390625 0 
L 45.40625 0 
L 45.40625 8.203125 
Q 42.578125 3.328125 38.25 0.953125 
Q 33.9375 -1.421875 27.875 -1.421875 
Q 17.96875 -1.421875 11.734375 6.484375 
Q 5.515625 14.40625 5.515625 27.296875 
Q 5.515625 40.1875 11.734375 48.09375 
Q 17.96875 56 27.875 56 
Q 33.9375 56 38.25 53.625 
Q 42.578125 51.265625 45.40625 46.390625 
z
M 14.796875 27.296875 
Q 14.796875 17.390625 18.875 11.75 
Q 22.953125 6.109375 30.078125 6.109375 
Q 37.203125 6.109375 41.296875 11.75 
Q 45.40625 17.390625 45.40625 27.296875 
Q 45.40625 37.203125 41.296875 42.84375 
Q 37.203125 48.484375 30.078125 48.484375 
Q 22.953125 48.484375 18.875 42.84375 
Q 14.796875 37.203125 14.796875 27.296875 
z
" id="DejaVuSans-64"/>
      <path d="M 56.203125 29.59375 
L 56.203125 25.203125 
L 14.890625 25.203125 
Q 15.484375 15.921875 20.484375 11.0625 
Q 25.484375 6.203125 34.421875 6.203125 
Q 39.59375 6.203125 44.453125 7.46875 
Q 49.3125 8.734375 54.109375 11.28125 
L 54.109375 2.78125 
Q 49.265625 0.734375 44.1875 -0.34375 
Q 39.109375 -1.421875 33.890625 -1.421875 
Q 20.796875 -1.421875 13.15625 6.1875 
Q 5.515625 13.8125 5.515625 26.8125 
Q 5.515625 40.234375 12.765625 48.109375 
Q 20.015625 56 32.328125 56 
Q 43.359375 56 49.78125 48.890625 
Q 56.203125 41.796875 56.203125 29.59375 
z
M 47.21875 32.234375 
Q 47.125 39.59375 43.09375 43.984375 
Q 39.0625 48.390625 32.421875 48.390625 
Q 24.90625 48.390625 20.390625 44.140625 
Q 15.875 39.890625 15.1875 32.171875 
z
" id="DejaVuSans-65"/>
      <path id="DejaVuSans-20"/>
      <path d="M 31 75.875 
Q 24.46875 64.65625 21.28125 53.65625 
Q 18.109375 42.671875 18.109375 31.390625 
Q 18.109375 20.125 21.3125 9.0625 
Q 24.515625 -2 31 -13.1875 
L 23.1875 -13.1875 
Q 15.875 -1.703125 12.234375 9.375 
Q 8.59375 20.453125 8.59375 31.390625 
Q 8.59375 42.28125 12.203125 53.3125 
Q 15.828125 64.359375 23.1875 75.875 
z
" id="DejaVuSans-28"/>
      <path d="M 54.890625 54.6875 
L 35.109375 28.078125 
L 55.90625 0 
L 45.3125 0 
L 29.390625 21.484375 
L 13.484375 0 
L 2.875 0 
L 24.125 28.609375 
L 4.6875 54.6875 
L 15.28125 54.6875 
L 29.78125 35.203125 
L 44.28125 54.6875 
z
" id="DejaVuSans-78"/>
      <path d="M 8.015625 75.875 
L 15.828125 75.875 
Q 23.140625 64.359375 26.78125 53.3125 
Q 30.421875 42.28125 30.421875 31.390625 
Q 30.421875 20.453125 26.78125 9.375 
Q 23.140625 -1.703125 15.828125 -13.1875 
L 8.015625 -13.1875 
Q 14.5 -2 17.703125 9.0625 
Q 20.90625 20.125 20.90625 31.390625 
Q 20.90625 42.671875 17.703125 53.65625 
Q 14.5 64.65625 8.015625 75.875 
z
" id="DejaVuSans-29"/>
     </defs>
     <g transform="translate(135.178812 401.862962)scale(0.1 -0.1)">
      <use xlink:href="#DejaVuSans-45"/>
      <use x="63.183594" xlink:href="#DejaVuSans-70"/>
      <use x="126.660156" xlink:href="#DejaVuSans-69"/>
      <use x="154.443359" xlink:href="#DejaVuSans-73"/>
      <use x="206.542969" xlink:href="#DejaVuSans-6f"/>
      <use x="267.724609" xlink:href="#DejaVuSans-64"/>
      <use x="331.201172" xlink:href="#DejaVuSans-65"/>
      <use x="392.724609" xlink:href="#DejaVuSans-73"/>
      <use x="444.824219" xlink:href="#DejaVuSans-20"/>
      <use x="476.611328" xlink:href="#DejaVuSans-28"/>
      <use x="515.625" xlink:href="#DejaVuSans-78"/>
      <use x="574.804688" xlink:href="#DejaVuSans-31"/>
      <use x="638.427734" xlink:href="#DejaVuSans-30"/>
      <use x="702.050781" xlink:href="#DejaVuSans-30"/>
      <use x="765.673828" xlink:href="#DejaVuSans-30"/>
      <use x="829.296875" xlink:href="#DejaVuSans-29"/>
     </g>
    </g>
   </g>
   <g id="matplotlib.axis_2">
    <g id="ytick_1">
     <g id="line2d_13">
      <path clip-path="url(#p0b9a9142be)" d="M 43.56 341.672443 
L 313.632 341.672443 
" style="fill:none;stroke:#b0b0b0;stroke-linecap:square;stroke-width:0.8;"/>
     </g>
     <g id="line2d_14">
      <defs>
       <path d="M 0 0 
L -3.5 0 
" id="m17b4cd8743" style="stroke:#000000;stroke-width:0.8;"/>
      </defs>
      <g>
       <use style="stroke:#000000;stroke-width:0.8;" x="43.56" xlink:href="#m17b4cd8743" y="341.672443"/>
      </g>
     </g>
     <g id="text_8">
      <!-- −55 -->
      <defs>
       <path d="M 10.59375 35.5 
L 73.1875 35.5 
L 73.1875 27.203125 
L 10.59375 27.203125 
z
" id="DejaVuSans-2212"/>
       <path d="M 10.796875 72.90625 
L 49.515625 72.90625 
L 49.515625 64.59375 
L 19.828125 64.59375 
L 19.828125 46.734375 
Q 21.96875 47.46875 24.109375 47.828125 
Q 26.265625 48.1875 28.421875 48.1875 
Q 40.625 48.1875 47.75 41.5 
Q 54.890625 34.8125 54.890625 23.390625 
Q 54.890625 11.625 47.5625 5.09375 
Q 40.234375 -1.421875 26.90625 -1.421875 
Q 22.3125 -1.421875 17.546875 -0.640625 
Q 12.796875 0.140625 7.71875 1.703125 
L 7.71875 11.625 
Q 12.109375 9.234375 16.796875 8.0625 
Q 21.484375 6.890625 26.703125 6.890625 
Q 35.15625 6.890625 40.078125 11.328125 
Q 45.015625 15.765625 45.015625 23.390625 
Q 45.015625 31 40.078125 35.4375 
Q 35.15625 39.890625 26.703125 39.890625 
Q 22.75 39.890625 18.8125 39.015625 
Q 14.890625 38.140625 10.796875 36.28125 
z
" id="DejaVuSans-35"/>
      </defs>
      <g transform="translate(15.455313 345.471662)scale(0.1 -0.1)">
       <use xlink:href="#DejaVuSans-2212"/>
       <use x="83.789062" xlink:href="#DejaVuSans-35"/>
       <use x="147.412109" xlink:href="#DejaVuSans-35"/>
      </g>
     </g>
    </g>
    <g id="ytick_2">
     <g id="line2d_15">
      <path clip-path="url(#p0b9a9142be)" d="M 43.56 280.644694 
L 313.632 280.644694 
" style="fill:none;stroke:#b0b0b0;stroke-linecap:square;stroke-width:0.8;"/>
     </g>
     <g id="line2d_16">
      <g>
       <use style="stroke:#000000;stroke-width:0.8;" x="43.56" xlink:href="#m17b4cd8743" y="280.644694"/>
      </g>
     </g>
     <g id="text_9">
      <!-- −50 -->
      <g transform="translate(15.455313 284.443912)scale(0.1 -0.1)">
       <use xlink:href="#DejaVuSans-2212"/>
       <use x="83.789062" xlink:href="#DejaVuSans-35"/>
       <use x="147.412109" xlink:href="#DejaVuSans-30"/>
      </g>
     </g>
    </g>
    <g id="ytick_3">
     <g id="line2d_17">
      <path clip-path="url(#p0b9a9142be)" d="M 43.56 219.616944 
L 313.632 219.616944 
" style="fill:none;stroke:#b0b0b0;stroke-linecap:square;stroke-width:0.8;"/>
     </g>
     <g id="line2d_18">
      <g>
       <use style="stroke:#000000;stroke-width:0.8;" x="43.56" xlink:href="#m17b4cd8743" y="219.616944"/>
      </g>
     </g>
     <g id="text_10">
      <!-- −45 -->
      <g transform="translate(15.455313 223.416163)scale(0.1 -0.1)">
       <use xlink:href="#DejaVuSans-2212"/>
       <use x="83.789062" xlink:href="#DejaVuSans-34"/>
       <use x="147.412109" xlink:href="#DejaVuSans-35"/>
      </g>
     </g>
    </g>
    <g id="ytick_4">
     <g id="line2d_19">
      <path clip-path="url(#p0b9a9142be)" d="M 43.56 158.589195 
L 313.632 158.589195 
" style="fill:none;stroke:#b0b0b0;stroke-linecap:square;stroke-width:0.8;"/>
     </g>
     <g id="line2d_20">
      <g>
       <use style="stroke:#000000;stroke-width:0.8;" x="43.56" xlink:href="#m17b4cd8743" y="158.589195"/>
      </g>
     </g>
     <g id="text_11">
      <!-- −40 -->
      <g transform="translate(15.455313 162.388414)scale(0.1 -0.1)">
       <use xlink:href="#DejaVuSans-2212"/>
       <use x="83.789062" xlink:href="#DejaVuSans-34"/>
       <use x="147.412109" xlink:href="#DejaVuSans-30"/>
      </g>
     </g>
    </g>
    <g id="ytick_5">
     <g id="line2d_21">
      <path clip-path="url(#p0b9a9142be)" d="M 43.56 97.561446 
L 313.632 97.561446 
" style="fill:none;stroke:#b0b0b0;stroke-linecap:square;stroke-width:0.8;"/>
     </g>
     <g id="line2d_22">
      <g>
       <use style="stroke:#000000;stroke-width:0.8;" x="43.56" xlink:href="#m17b4cd8743" y="97.561446"/>
      </g>
     </g>
     <g id="text_12">
      <!-- −35 -->
      <defs>
       <path d="M 40.578125 39.3125 
Q 47.65625 37.796875 51.625 33 
Q 55.609375 28.21875 55.609375 21.1875 
Q 55.609375 10.40625 48.1875 4.484375 
Q 40.765625 -1.421875 27.09375 -1.421875 
Q 22.515625 -1.421875 17.65625 -0.515625 
Q 12.796875 0.390625 7.625 2.203125 
L 7.625 11.71875 
Q 11.71875 9.328125 16.59375 8.109375 
Q 21.484375 6.890625 26.8125 6.890625 
Q 36.078125 6.890625 40.9375 10.546875 
Q 45.796875 14.203125 45.796875 21.1875 
Q 45.796875 27.640625 41.28125 31.265625 
Q 36.765625 34.90625 28.71875 34.90625 
L 20.21875 34.90625 
L 20.21875 43.015625 
L 29.109375 43.015625 
Q 36.375 43.015625 40.234375 45.921875 
Q 44.09375 48.828125 44.09375 54.296875 
Q 44.09375 59.90625 40.109375 62.90625 
Q 36.140625 65.921875 28.71875 65.921875 
Q 24.65625 65.921875 20.015625 65.03125 
Q 15.375 64.15625 9.8125 62.3125 
L 9.8125 71.09375 
Q 15.4375 72.65625 20.34375 73.4375 
Q 25.25 74.21875 29.59375 74.21875 
Q 40.828125 74.21875 47.359375 69.109375 
Q 53.90625 64.015625 53.90625 55.328125 
Q 53.90625 49.265625 50.4375 45.09375 
Q 46.96875 40.921875 40.578125 39.3125 
z
" id="DejaVuSans-33"/>
      </defs>
      <g transform="translate(15.455313 101.360665)scale(0.1 -0.1)">
       <use xlink:href="#DejaVuSans-2212"/>
       <use x="83.789062" xlink:href="#DejaVuSans-33"/>
       <use x="147.412109" xlink:href="#DejaVuSans-35"/>
      </g>
     </g>
    </g>
    <g id="text_13">
     <!-- Reward -->
     <defs>
      <path d="M 44.390625 34.1875 
Q 47.5625 33.109375 50.5625 29.59375 
Q 53.5625 26.078125 56.59375 19.921875 
L 66.609375 0 
L 56 0 
L 46.6875 18.703125 
Q 43.0625 26.03125 39.671875 28.421875 
Q 36.28125 30.8125 30.421875 30.8125 
L 19.671875 30.8125 
L 19.671875 0 
L 9.8125 0 
L 9.8125 72.90625 
L 32.078125 72.90625 
Q 44.578125 72.90625 50.734375 67.671875 
Q 56.890625 62.453125 56.890625 51.90625 
Q 56.890625 45.015625 53.6875 40.46875 
Q 50.484375 35.9375 44.390625 34.1875 
z
M 19.671875 64.796875 
L 19.671875 38.921875 
L 32.078125 38.921875 
Q 39.203125 38.921875 42.84375 42.21875 
Q 46.484375 45.515625 46.484375 51.90625 
Q 46.484375 58.296875 42.84375 61.546875 
Q 39.203125 64.796875 32.078125 64.796875 
z
" id="DejaVuSans-52"/>
      <path d="M 4.203125 54.6875 
L 13.1875 54.6875 
L 24.421875 12.015625 
L 35.59375 54.6875 
L 46.1875 54.6875 
L 57.421875 12.015625 
L 68.609375 54.6875 
L 77.59375 54.6875 
L 63.28125 0 
L 52.6875 0 
L 40.921875 44.828125 
L 29.109375 0 
L 18.5 0 
z
" id="DejaVuSans-77"/>
      <path d="M 34.28125 27.484375 
Q 23.390625 27.484375 19.1875 25 
Q 14.984375 22.515625 14.984375 16.5 
Q 14.984375 11.71875 18.140625 8.90625 
Q 21.296875 6.109375 26.703125 6.109375 
Q 34.1875 6.109375 38.703125 11.40625 
Q 43.21875 16.703125 43.21875 25.484375 
L 43.21875 27.484375 
z
M 52.203125 31.203125 
L 52.203125 0 
L 43.21875 0 
L 43.21875 8.296875 
Q 40.140625 3.328125 35.546875 0.953125 
Q 30.953125 -1.421875 24.3125 -1.421875 
Q 15.921875 -1.421875 10.953125 3.296875 
Q 6 8.015625 6 15.921875 
Q 6 25.140625 12.171875 29.828125 
Q 18.359375 34.515625 30.609375 34.515625 
L 43.21875 34.515625 
L 43.21875 35.40625 
Q 43.21875 41.609375 39.140625 45 
Q 35.0625 48.390625 27.6875 48.390625 
Q 23 48.390625 18.546875 47.265625 
Q 14.109375 46.140625 10.015625 43.890625 
L 10.015625 52.203125 
Q 14.9375 54.109375 19.578125 55.046875 
Q 24.21875 56 28.609375 56 
Q 40.484375 56 46.34375 49.84375 
Q 52.203125 43.703125 52.203125 31.203125 
z
" id="DejaVuSans-61"/>
      <path d="M 41.109375 46.296875 
Q 39.59375 47.171875 37.8125 47.578125 
Q 36.03125 48 33.890625 48 
Q 26.265625 48 22.1875 43.046875 
Q 18.109375 38.09375 18.109375 28.8125 
L 18.109375 0 
L 9.078125 0 
L 9.078125 54.6875 
L 18.109375 54.6875 
L 18.109375 46.1875 
Q 20.953125 51.171875 25.484375 53.578125 
Q 30.03125 56 36.53125 56 
Q 37.453125 56 38.578125 55.875 
Q 39.703125 55.765625 41.0625 55.515625 
z
" id="DejaVuSans-72"/>
     </defs>
     <g transform="translate(9.375625 230.908488)rotate(-90)scale(0.1 -0.1)">
      <use xlink:href="#DejaVuSans-52"/>
      <use x="69.419922" xlink:href="#DejaVuSans-65"/>
      <use x="130.943359" xlink:href="#DejaVuSans-77"/>
      <use x="212.730469" xlink:href="#DejaVuSans-61"/>
      <use x="274.009766" xlink:href="#DejaVuSans-72"/>
      <use x="315.107422" xlink:href="#DejaVuSans-64"/>
     </g>
    </g>
   </g>
   <g id="line2d_23">
    <path clip-path="url(#p0b9a9142be)" d="M 55.836 199.029968 
L 58.316 231.848227 
L 60.796 199.927636 
L 63.276 183.014217 
L 65.756 177.62568 
L 68.236 177.383423 
L 70.716 180.075795 
L 73.196 180.427944 
L 75.676 176.030186 
L 78.156 175.827925 
L 80.636 168.596546 
L 83.116 166.756134 
L 85.596 161.002909 
L 88.076 152.384622 
L 90.556 156.571919 
L 93.036 156.082742 
L 95.516 148.582379 
L 97.996 143.573565 
L 100.476 146.208873 
L 102.956 144.774726 
L 105.436 139.960919 
L 107.916 146.580725 
L 110.396 141.610646 
L 112.876 138.184442 
L 115.356 137.635236 
L 117.836 135.270282 
L 120.316 137.183529 
L 122.796 132.393443 
L 125.276 132.826707 
L 127.756 135.186413 
L 130.236 133.929998 
L 132.716 134.648493 
L 135.196 132.596665 
L 137.676 130.398232 
L 140.156 126.290507 
L 142.636 129.827919 
L 145.116 128.990215 
L 147.596 128.229038 
L 150.076 129.194412 
L 152.556 127.301685 
L 155.036 127.384076 
L 157.516 126.759762 
L 159.996 128.026826 
L 162.476 127.172655 
L 164.956 122.040502 
L 167.436 122.353084 
L 169.916 120.882344 
L 172.396 121.74065 
L 174.876 121.790674 
L 177.356 122.677934 
L 179.836 122.697772 
L 182.316 120.780607 
L 184.796 119.709768 
L 187.276 116.904511 
L 189.756 118.756568 
L 192.236 120.453268 
L 194.716 120.699276 
L 197.196 120.417342 
L 199.676 118.377038 
L 202.156 118.593228 
L 204.636 119.535561 
L 207.116 121.908297 
L 209.596 116.412466 
L 212.076 114.844043 
L 214.556 115.947341 
L 217.036 115.871081 
L 219.516 115.709155 
L 221.996 116.576126 
L 224.476 117.427845 
L 226.956 115.168218 
L 229.436 120.356031 
L 231.916 116.550709 
L 234.396 115.925422 
L 236.876 118.627157 
L 239.356 117.254212 
L 241.836 114.705014 
L 244.316 116.020852 
L 246.796 116.073502 
L 249.276 114.394971 
L 251.756 118.598039 
L 254.236 116.119358 
L 256.716 123.610925 
L 259.196 119.022807 
L 261.676 122.853358 
L 264.156 120.771785 
L 266.636 120.347861 
L 269.116 118.987545 
L 271.596 119.914987 
L 274.076 116.548132 
L 276.556 118.549298 
L 279.036 121.167192 
L 281.516 122.211821 
L 283.996 117.757358 
L 286.476 122.431156 
L 288.956 118.82356 
L 291.436 118.811043 
L 293.916 119.094258 
L 296.396 118.836556 
L 298.876 121.944211 
L 301.356 118.264967 
" style="fill:none;stroke:#396ab1;stroke-linecap:square;"/>
   </g>
   <g id="line2d_24">
    <path clip-path="url(#p0b9a9142be)" d="M 55.836 194.085799 
L 58.316 278.287482 
L 60.796 206.431296 
L 63.276 190.890623 
L 65.756 181.207131 
L 68.236 171.444982 
L 70.716 183.288364 
L 73.196 184.244702 
L 75.676 177.347326 
L 78.156 173.976409 
L 80.636 169.511335 
L 83.116 165.557014 
L 85.596 161.966726 
L 88.076 155.418706 
L 90.556 150.971964 
L 93.036 143.327819 
L 95.516 144.398253 
L 97.996 142.915422 
L 100.476 139.070804 
L 102.956 136.689575 
L 105.436 135.374789 
L 107.916 134.815202 
L 110.396 134.433126 
L 112.876 133.119266 
L 115.356 130.688787 
L 117.836 134.152668 
L 120.316 133.422835 
L 122.796 128.477289 
L 125.276 127.639042 
L 127.756 131.76447 
L 130.236 132.07539 
L 132.716 131.909525 
L 135.196 131.202355 
L 137.676 128.205452 
L 140.156 125.945497 
L 142.636 125.60884 
L 145.116 123.273012 
L 147.596 124.415909 
L 150.076 126.760591 
L 152.556 120.452752 
L 155.036 124.966629 
L 157.516 124.515702 
L 159.996 118.368492 
L 162.476 121.732416 
L 164.956 120.682966 
L 167.436 120.808625 
L 169.916 122.517297 
L 172.396 117.987793 
L 174.876 121.149308 
L 177.356 117.065494 
L 179.836 116.895154 
L 182.316 119.951173 
L 184.796 117.729553 
L 187.276 111.558128 
L 189.756 110.61011 
L 192.236 113.247469 
L 194.716 116.620068 
L 197.196 108.813489 
L 199.676 120.018654 
L 202.156 112.235396 
L 204.636 117.547001 
L 207.116 113.158276 
L 209.596 112.004797 
L 212.076 110.830701 
L 214.556 109.869587 
L 217.036 110.841933 
L 219.516 113.436825 
L 221.996 109.650588 
L 224.476 106.448006 
L 226.956 107.513105 
L 229.436 111.344631 
L 231.916 111.090051 
L 234.396 105.829823 
L 236.876 108.254305 
L 239.356 103.721133 
L 241.836 107.523561 
L 244.316 104.717088 
L 246.796 107.554716 
L 249.276 104.188638 
L 251.756 103.493912 
L 254.236 107.119758 
L 256.716 105.404617 
L 259.196 111.643428 
L 261.676 107.848226 
L 264.156 107.891565 
L 266.636 110.719819 
L 269.116 101.932174 
L 271.596 104.683505 
L 274.076 104.345658 
L 276.556 104.003964 
L 279.036 107.035277 
L 281.516 104.544026 
L 283.996 106.277403 
L 286.476 106.543817 
L 288.956 104.18604 
L 291.436 101.321612 
L 293.916 105.844052 
L 296.396 109.872517 
L 298.876 105.199089 
L 301.356 104.944131 
" style="fill:none;stroke:#da7c30;stroke-linecap:square;"/>
   </g>
   <g id="line2d_25">
    <path clip-path="url(#p0b9a9142be)" d="M 55.836 205.455985 
L 58.316 275.798254 
L 60.796 207.737176 
L 63.276 212.755837 
L 65.756 199.906002 
L 68.236 204.16375 
L 70.716 209.614289 
L 73.196 204.888114 
L 75.676 202.390976 
L 78.156 203.536025 
L 80.636 195.913083 
L 83.116 192.512461 
L 85.596 188.14803 
L 88.076 183.180181 
L 90.556 178.638788 
L 93.036 177.042693 
L 95.516 172.955071 
L 97.996 171.142482 
L 100.476 170.768099 
L 102.956 168.542232 
L 105.436 164.460932 
L 107.916 167.963989 
L 110.396 164.965326 
L 112.876 160.804137 
L 115.356 164.159803 
L 117.836 159.295511 
L 120.316 154.1937 
L 122.796 148.411299 
L 125.276 155.746539 
L 127.756 156.024879 
L 130.236 153.341009 
L 132.716 152.473206 
L 135.196 153.13933 
L 137.676 151.837438 
L 140.156 147.934172 
L 142.636 146.815944 
L 145.116 151.520922 
L 147.596 151.138812 
L 150.076 149.442892 
L 152.556 145.269957 
L 155.036 145.308923 
L 157.516 145.866518 
L 159.996 146.981135 
L 162.476 150.082028 
L 164.956 144.993768 
L 167.436 144.183145 
L 169.916 149.19643 
L 172.396 139.631945 
L 174.876 147.345561 
L 177.356 144.000447 
L 179.836 140.143086 
L 182.316 149.003883 
L 184.796 144.444865 
L 187.276 148.476337 
L 189.756 146.195689 
L 192.236 145.21096 
L 194.716 148.64765 
L 197.196 145.893356 
L 199.676 145.414767 
L 202.156 145.757142 
L 204.636 147.888516 
L 207.116 143.450532 
L 209.596 145.850998 
L 212.076 142.306332 
L 214.556 144.824492 
L 217.036 144.016887 
L 219.516 150.708008 
L 221.996 146.184874 
L 224.476 143.529235 
L 226.956 143.238601 
L 229.436 142.229755 
L 231.916 142.393619 
L 234.396 145.444879 
L 236.876 142.988225 
L 239.356 139.79167 
L 241.836 140.825463 
L 244.316 140.125754 
L 246.796 146.083658 
L 249.276 139.669539 
L 251.756 139.086652 
L 254.236 138.274555 
L 256.716 145.960687 
L 259.196 144.581782 
L 261.676 143.237941 
L 264.156 139.900976 
L 266.636 146.69587 
L 269.116 144.710002 
L 271.596 144.700587 
L 274.076 143.560629 
L 276.556 138.798348 
L 279.036 139.850911 
L 281.516 145.050583 
L 283.996 145.479968 
L 286.476 142.623149 
L 288.956 144.585461 
L 291.436 148.197223 
L 293.916 146.686549 
L 296.396 148.68945 
L 298.876 147.859023 
L 301.356 143.978773 
" style="fill:none;stroke:#3e9651;stroke-linecap:square;"/>
   </g>
   <g id="line2d_26">
    <path clip-path="url(#p0b9a9142be)" d="M 55.836 197.645921 
L 58.316 237.246797 
L 60.796 211.485734 
L 63.276 206.379891 
L 65.756 204.558677 
L 68.236 199.353911 
L 70.716 214.1948 
L 73.196 204.719022 
L 75.676 202.005162 
L 78.156 193.835915 
L 80.636 189.707763 
L 83.116 186.097558 
L 85.596 178.947355 
L 88.076 174.392797 
L 90.556 171.466081 
L 93.036 163.788738 
L 95.516 162.685446 
L 97.996 155.801466 
L 100.476 153.717875 
L 102.956 154.026218 
L 105.436 146.789058 
L 107.916 155.439553 
L 110.396 147.761472 
L 112.876 147.215709 
L 115.356 148.352331 
L 117.836 138.301358 
L 120.316 147.471794 
L 122.796 140.214911 
L 125.276 141.956003 
L 127.756 141.88229 
L 130.236 141.498626 
L 132.716 139.217323 
L 135.196 138.73856 
L 137.676 132.568348 
L 140.156 134.073006 
L 142.636 132.39128 
L 145.116 135.896123 
L 147.596 135.072852 
L 150.076 135.557258 
L 152.556 132.186359 
L 155.036 135.516069 
L 157.516 131.786581 
L 159.996 129.883306 
L 162.476 136.369194 
L 164.956 133.050731 
L 167.436 130.314534 
L 169.916 136.627028 
L 172.396 129.403721 
L 174.876 132.494037 
L 177.356 125.149352 
L 179.836 130.115002 
L 182.316 135.777577 
L 184.796 129.173465 
L 187.276 124.478176 
L 189.756 136.305171 
L 192.236 134.292528 
L 194.716 132.476273 
L 197.196 127.833326 
L 199.676 134.187305 
L 202.156 130.462816 
L 204.636 138.995901 
L 207.116 139.754405 
L 209.596 132.939993 
L 212.076 131.363773 
L 214.556 133.08743 
L 217.036 133.788351 
L 219.516 136.242117 
L 221.996 135.398227 
L 224.476 131.970303 
L 226.956 131.964062 
L 229.436 129.005486 
L 231.916 130.803938 
L 234.396 127.27913 
L 236.876 130.83995 
L 239.356 128.34648 
L 241.836 128.567403 
L 244.316 131.681381 
L 246.796 133.605806 
L 249.276 133.432376 
L 251.756 135.270494 
L 254.236 135.00527 
L 256.716 129.909156 
L 259.196 131.419004 
L 261.676 129.06674 
L 264.156 128.968136 
L 266.636 135.208822 
L 269.116 135.677906 
L 271.596 132.847443 
L 274.076 135.839371 
L 276.556 126.666961 
L 279.036 130.585953 
L 281.516 134.684925 
L 283.996 126.962438 
L 286.476 128.409964 
L 288.956 134.783376 
L 291.436 128.39511 
L 293.916 128.317252 
L 296.396 132.745246 
L 298.876 133.462885 
L 301.356 131.391794 
" style="fill:none;stroke:#cc2529;stroke-linecap:square;"/>
   </g>
   <g id="patch_3">
    <path d="M 43.56 373.5864 
L 43.56 50.3712 
" style="fill:none;stroke:#000000;stroke-linecap:square;stroke-linejoin:miter;stroke-width:0.8;"/>
   </g>
   <g id="patch_4">
    <path d="M 313.632 373.5864 
L 313.632 50.3712 
" style="fill:none;stroke:#000000;stroke-linecap:square;stroke-linejoin:miter;stroke-width:0.8;"/>
   </g>
   <g id="patch_5">
    <path d="M 43.56 373.5864 
L 313.632 373.5864 
" style="fill:none;stroke:#000000;stroke-linecap:square;stroke-linejoin:miter;stroke-width:0.8;"/>
   </g>
   <g id="patch_6">
    <path d="M 43.56 50.3712 
L 313.632 50.3712 
" style="fill:none;stroke:#000000;stroke-linecap:square;stroke-linejoin:miter;stroke-width:0.8;"/>
   </g>
   <g id="legend_1">
    <g id="patch_7">
     <path d="M 50.56 117.0837 
L 170.111562 117.0837 
Q 172.111562 117.0837 172.111562 115.0837 
L 172.111562 57.3712 
Q 172.111562 55.3712 170.111562 55.3712 
L 50.56 55.3712 
Q 48.56 55.3712 48.56 57.3712 
L 48.56 115.0837 
Q 48.56 117.0837 50.56 117.0837 
z
" style="fill:#ffffff;opacity:0.8;stroke:#cccccc;stroke-linejoin:miter;"/>
    </g>
    <g id="line2d_27">
     <path d="M 52.56 63.469638 
L 72.56 63.469638 
" style="fill:none;stroke:#396ab1;stroke-linecap:square;"/>
    </g>
    <g id="line2d_28"/>
    <g id="text_14">
     <!-- agent 1 (Team A) -->
     <defs>
      <path d="M 45.40625 27.984375 
Q 45.40625 37.75 41.375 43.109375 
Q 37.359375 48.484375 30.078125 48.484375 
Q 22.859375 48.484375 18.828125 43.109375 
Q 14.796875 37.75 14.796875 27.984375 
Q 14.796875 18.265625 18.828125 12.890625 
Q 22.859375 7.515625 30.078125 7.515625 
Q 37.359375 7.515625 41.375 12.890625 
Q 45.40625 18.265625 45.40625 27.984375 
z
M 54.390625 6.78125 
Q 54.390625 -7.171875 48.1875 -13.984375 
Q 42 -20.796875 29.203125 -20.796875 
Q 24.46875 -20.796875 20.265625 -20.09375 
Q 16.0625 -19.390625 12.109375 -17.921875 
L 12.109375 -9.1875 
Q 16.0625 -11.328125 19.921875 -12.34375 
Q 23.78125 -13.375 27.78125 -13.375 
Q 36.625 -13.375 41.015625 -8.765625 
Q 45.40625 -4.15625 45.40625 5.171875 
L 45.40625 9.625 
Q 42.625 4.78125 38.28125 2.390625 
Q 33.9375 0 27.875 0 
Q 17.828125 0 11.671875 7.65625 
Q 5.515625 15.328125 5.515625 27.984375 
Q 5.515625 40.671875 11.671875 48.328125 
Q 17.828125 56 27.875 56 
Q 33.9375 56 38.28125 53.609375 
Q 42.625 51.21875 45.40625 46.390625 
L 45.40625 54.6875 
L 54.390625 54.6875 
z
" id="DejaVuSans-67"/>
      <path d="M 54.890625 33.015625 
L 54.890625 0 
L 45.90625 0 
L 45.90625 32.71875 
Q 45.90625 40.484375 42.875 44.328125 
Q 39.84375 48.1875 33.796875 48.1875 
Q 26.515625 48.1875 22.3125 43.546875 
Q 18.109375 38.921875 18.109375 30.90625 
L 18.109375 0 
L 9.078125 0 
L 9.078125 54.6875 
L 18.109375 54.6875 
L 18.109375 46.1875 
Q 21.34375 51.125 25.703125 53.5625 
Q 30.078125 56 35.796875 56 
Q 45.21875 56 50.046875 50.171875 
Q 54.890625 44.34375 54.890625 33.015625 
z
" id="DejaVuSans-6e"/>
      <path d="M 18.3125 70.21875 
L 18.3125 54.6875 
L 36.8125 54.6875 
L 36.8125 47.703125 
L 18.3125 47.703125 
L 18.3125 18.015625 
Q 18.3125 11.328125 20.140625 9.421875 
Q 21.96875 7.515625 27.59375 7.515625 
L 36.8125 7.515625 
L 36.8125 0 
L 27.59375 0 
Q 17.1875 0 13.234375 3.875 
Q 9.28125 7.765625 9.28125 18.015625 
L 9.28125 47.703125 
L 2.6875 47.703125 
L 2.6875 54.6875 
L 9.28125 54.6875 
L 9.28125 70.21875 
z
" id="DejaVuSans-74"/>
      <path d="M -0.296875 72.90625 
L 61.375 72.90625 
L 61.375 64.59375 
L 35.5 64.59375 
L 35.5 0 
L 25.59375 0 
L 25.59375 64.59375 
L -0.296875 64.59375 
z
" id="DejaVuSans-54"/>
      <path d="M 52 44.1875 
Q 55.375 50.25 60.0625 53.125 
Q 64.75 56 71.09375 56 
Q 79.640625 56 84.28125 50.015625 
Q 88.921875 44.046875 88.921875 33.015625 
L 88.921875 0 
L 79.890625 0 
L 79.890625 32.71875 
Q 79.890625 40.578125 77.09375 44.375 
Q 74.3125 48.1875 68.609375 48.1875 
Q 61.625 48.1875 57.5625 43.546875 
Q 53.515625 38.921875 53.515625 30.90625 
L 53.515625 0 
L 44.484375 0 
L 44.484375 32.71875 
Q 44.484375 40.625 41.703125 44.40625 
Q 38.921875 48.1875 33.109375 48.1875 
Q 26.21875 48.1875 22.15625 43.53125 
Q 18.109375 38.875 18.109375 30.90625 
L 18.109375 0 
L 9.078125 0 
L 9.078125 54.6875 
L 18.109375 54.6875 
L 18.109375 46.1875 
Q 21.1875 51.21875 25.484375 53.609375 
Q 29.78125 56 35.6875 56 
Q 41.65625 56 45.828125 52.96875 
Q 50 49.953125 52 44.1875 
z
" id="DejaVuSans-6d"/>
      <path d="M 34.1875 63.1875 
L 20.796875 26.90625 
L 47.609375 26.90625 
z
M 28.609375 72.90625 
L 39.796875 72.90625 
L 67.578125 0 
L 57.328125 0 
L 50.6875 18.703125 
L 17.828125 18.703125 
L 11.1875 0 
L 0.78125 0 
z
" id="DejaVuSans-41"/>
     </defs>
     <g transform="translate(80.56 66.969638)scale(0.1 -0.1)">
      <use xlink:href="#DejaVuSans-61"/>
      <use x="61.279297" xlink:href="#DejaVuSans-67"/>
      <use x="124.755859" xlink:href="#DejaVuSans-65"/>
      <use x="186.279297" xlink:href="#DejaVuSans-6e"/>
      <use x="249.658203" xlink:href="#DejaVuSans-74"/>
      <use x="288.867188" xlink:href="#DejaVuSans-20"/>
      <use x="320.654297" xlink:href="#DejaVuSans-31"/>
      <use x="384.277344" xlink:href="#DejaVuSans-20"/>
      <use x="416.064453" xlink:href="#DejaVuSans-28"/>
      <use x="455.078125" xlink:href="#DejaVuSans-54"/>
      <use x="515.896484" xlink:href="#DejaVuSans-65"/>
      <use x="577.419922" xlink:href="#DejaVuSans-61"/>
      <use x="638.699219" xlink:href="#DejaVuSans-6d"/>
      <use x="736.111328" xlink:href="#DejaVuSans-20"/>
      <use x="767.898438" xlink:href="#DejaVuSans-41"/>
      <use x="836.306641" xlink:href="#DejaVuSans-29"/>
     </g>
    </g>
    <g id="line2d_29">
     <path d="M 52.56 78.147763 
L 72.56 78.147763 
" style="fill:none;stroke:#da7c30;stroke-linecap:square;"/>
    </g>
    <g id="line2d_30"/>
    <g id="text_15">
     <!-- agent 2 (Team A) -->
     <g transform="translate(80.56 81.647763)scale(0.1 -0.1)">
      <use xlink:href="#DejaVuSans-61"/>
      <use x="61.279297" xlink:href="#DejaVuSans-67"/>
      <use x="124.755859" xlink:href="#DejaVuSans-65"/>
      <use x="186.279297" xlink:href="#DejaVuSans-6e"/>
      <use x="249.658203" xlink:href="#DejaVuSans-74"/>
      <use x="288.867188" xlink:href="#DejaVuSans-20"/>
      <use x="320.654297" xlink:href="#DejaVuSans-32"/>
      <use x="384.277344" xlink:href="#DejaVuSans-20"/>
      <use x="416.064453" xlink:href="#DejaVuSans-28"/>
      <use x="455.078125" xlink:href="#DejaVuSans-54"/>
      <use x="515.896484" xlink:href="#DejaVuSans-65"/>
      <use x="577.419922" xlink:href="#DejaVuSans-61"/>
      <use x="638.699219" xlink:href="#DejaVuSans-6d"/>
      <use x="736.111328" xlink:href="#DejaVuSans-20"/>
      <use x="767.898438" xlink:href="#DejaVuSans-41"/>
      <use x="836.306641" xlink:href="#DejaVuSans-29"/>
     </g>
    </g>
    <g id="line2d_31">
     <path d="M 52.56 92.825888 
L 72.56 92.825888 
" style="fill:none;stroke:#3e9651;stroke-linecap:square;"/>
    </g>
    <g id="line2d_32"/>
    <g id="text_16">
     <!-- agent 3 (Team B) -->
     <defs>
      <path d="M 19.671875 34.8125 
L 19.671875 8.109375 
L 35.5 8.109375 
Q 43.453125 8.109375 47.28125 11.40625 
Q 51.125 14.703125 51.125 21.484375 
Q 51.125 28.328125 47.28125 31.5625 
Q 43.453125 34.8125 35.5 34.8125 
z
M 19.671875 64.796875 
L 19.671875 42.828125 
L 34.28125 42.828125 
Q 41.5 42.828125 45.03125 45.53125 
Q 48.578125 48.25 48.578125 53.8125 
Q 48.578125 59.328125 45.03125 62.0625 
Q 41.5 64.796875 34.28125 64.796875 
z
M 9.8125 72.90625 
L 35.015625 72.90625 
Q 46.296875 72.90625 52.390625 68.21875 
Q 58.5 63.53125 58.5 54.890625 
Q 58.5 48.1875 55.375 44.234375 
Q 52.25 40.28125 46.1875 39.3125 
Q 53.46875 37.75 57.5 32.78125 
Q 61.53125 27.828125 61.53125 20.40625 
Q 61.53125 10.640625 54.890625 5.3125 
Q 48.25 0 35.984375 0 
L 9.8125 0 
z
" id="DejaVuSans-42"/>
     </defs>
     <g transform="translate(80.56 96.325888)scale(0.1 -0.1)">
      <use xlink:href="#DejaVuSans-61"/>
      <use x="61.279297" xlink:href="#DejaVuSans-67"/>
      <use x="124.755859" xlink:href="#DejaVuSans-65"/>
      <use x="186.279297" xlink:href="#DejaVuSans-6e"/>
      <use x="249.658203" xlink:href="#DejaVuSans-74"/>
      <use x="288.867188" xlink:href="#DejaVuSans-20"/>
      <use x="320.654297" xlink:href="#DejaVuSans-33"/>
      <use x="384.277344" xlink:href="#DejaVuSans-20"/>
      <use x="416.064453" xlink:href="#DejaVuSans-28"/>
      <use x="455.078125" xlink:href="#DejaVuSans-54"/>
      <use x="515.896484" xlink:href="#DejaVuSans-65"/>
      <use x="577.419922" xlink:href="#DejaVuSans-61"/>
      <use x="638.699219" xlink:href="#DejaVuSans-6d"/>
      <use x="736.111328" xlink:href="#DejaVuSans-20"/>
      <use x="767.898438" xlink:href="#DejaVuSans-42"/>
      <use x="836.501953" xlink:href="#DejaVuSans-29"/>
     </g>
    </g>
    <g id="line2d_33">
     <path d="M 52.56 107.504013 
L 72.56 107.504013 
" style="fill:none;stroke:#cc2529;stroke-linecap:square;"/>
    </g>
    <g id="line2d_34"/>
    <g id="text_17">
     <!-- agent 4 (Team B) -->
     <g transform="translate(80.56 111.004013)scale(0.1 -0.1)">
      <use xlink:href="#DejaVuSans-61"/>
      <use x="61.279297" xlink:href="#DejaVuSans-67"/>
      <use x="124.755859" xlink:href="#DejaVuSans-65"/>
      <use x="186.279297" xlink:href="#DejaVuSans-6e"/>
      <use x="249.658203" xlink:href="#DejaVuSans-74"/>
      <use x="288.867188" xlink:href="#DejaVuSans-20"/>
      <use x="320.654297" xlink:href="#DejaVuSans-34"/>
      <use x="384.277344" xlink:href="#DejaVuSans-20"/>
      <use x="416.064453" xlink:href="#DejaVuSans-28"/>
      <use x="455.078125" xlink:href="#DejaVuSans-54"/>
      <use x="515.896484" xlink:href="#DejaVuSans-65"/>
      <use x="577.419922" xlink:href="#DejaVuSans-61"/>
      <use x="638.699219" xlink:href="#DejaVuSans-6d"/>
      <use x="736.111328" xlink:href="#DejaVuSans-20"/>
      <use x="767.898438" xlink:href="#DejaVuSans-42"/>
      <use x="836.501953" xlink:href="#DejaVuSans-29"/>
     </g>
    </g>
   </g>
  </g>
 </g>
 <defs>
  <clipPath id="p0b9a9142be">
   <rect height="323.2152" width="270.072" x="43.56" y="50.3712"/>
  </clipPath>
 </defs>
</svg>
